<?xml version="1.0" encoding="utf-8" standalone="no"?>
<!DOCTYPE svg PUBLIC "-//W3C//DTD SVG 1.1//EN"
  "http://www.w3.org/Graphics/SVG/1.1/DTD/svg11.dtd">
<svg xmlns:xlink="http://www.w3.org/1999/xlink" width="583.352188pt" height="1121.452853pt" viewBox="0 0 583.352188 1121.452853" xmlns="http://www.w3.org/2000/svg" version="1.1">
 <metadata>
  <rdf:RDF xmlns:dc="http://purl.org/dc/elements/1.1/" xmlns:cc="http://creativecommons.org/ns#" xmlns:rdf="http://www.w3.org/1999/02/22-rdf-syntax-ns#">
   <cc:Work>
    <dc:type rdf:resource="http://purl.org/dc/dcmitype/StillImage"/>
    <dc:date>2026-07-04T00:56:46.753222</dc:date>
    <dc:format>image/svg+xml</dc:format>
    <dc:creator>
     <cc:Agent>
      <dc:title>Matplotlib v3.11.0, https://matplotlib.org/</dc:title>
     </cc:Agent>
    </dc:creator>
   </cc:Work>
  </rdf:RDF>
 </metadata>
 <defs>
  <style type="text/css">*{stroke-linejoin: round; stroke-linecap: butt}</style>
 </defs>
 <g id="figure_1">
  <g id="patch_1">
   <path d="M 0 1121.452853 
L 583.352188 1121.452853 
L 583.352188 0 
L 0 0 
z
" style="fill: #ffffff"/>
  </g>
  <g id="axes_1">
   <g id="patch_2">
    <path d="M 50.372188 291.629812 
L 580.472188 291.629812 
L 580.472188 25.517812 
L 50.372188 25.517812 
z
" style="fill: #ffffff"/>
   </g>
   <g id="patch_3">
    <path d="M 74.467642 5979.773812 
L 105.558551 5979.773812 
L 105.558551 226.432373 
L 74.467642 226.432373 
z
" clip-path="url(#p3530771c1d)" style="fill: #0969da; stroke: #ffffff; stroke-width: 0.7; stroke-linejoin: miter"/>
   </g>
   <g id="patch_4">
    <path d="M 204.013097 5979.773812 
L 235.104006 5979.773812 
L 235.104006 209.800372 
L 204.013097 209.800372 
z
" clip-path="url(#p3530771c1d)" style="fill: #0969da; stroke: #ffffff; stroke-width: 0.7; stroke-linejoin: miter"/>
   </g>
   <g id="patch_5">
    <path d="M 333.558551 5979.773812 
L 364.64946 5979.773812 
L 364.64946 249.051893 
L 333.558551 249.051893 
z
" clip-path="url(#p3530771c1d)" style="fill: #0969da; stroke: #ffffff; stroke-width: 0.7; stroke-linejoin: miter"/>
   </g>
   <g id="patch_6">
    <path d="M 463.104006 5979.773812 
L 494.194915 5979.773812 
L 494.194915 215.787893 
L 463.104006 215.787893 
z
" clip-path="url(#p3530771c1d)" style="fill: #0969da; stroke: #ffffff; stroke-width: 0.7; stroke-linejoin: miter"/>
   </g>
   <g id="patch_7">
    <path d="M 105.558551 5979.773812 
L 136.64946 5979.773812 
L 136.64946 99.363893 
L 105.558551 99.363893 
z
" clip-path="url(#p3530771c1d)" style="fill: #cf222e; stroke: #ffffff; stroke-width: 0.7; stroke-linejoin: miter"/>
   </g>
   <g id="patch_8">
    <path d="M 235.104006 5979.773812 
L 266.194915 5979.773812 
L 266.194915 98.698613 
L 235.104006 98.698613 
z
" clip-path="url(#p3530771c1d)" style="fill: #cf222e; stroke: #ffffff; stroke-width: 0.7; stroke-linejoin: miter"/>
   </g>
   <g id="patch_9">
    <path d="M 364.64946 5979.773812 
L 395.740369 5979.773812 
L 395.740369 116.661173 
L 364.64946 116.661173 
z
" clip-path="url(#p3530771c1d)" style="fill: #cf222e; stroke: #ffffff; stroke-width: 0.7; stroke-linejoin: miter"/>
   </g>
   <g id="patch_10">
    <path d="M 494.194915 5979.773812 
L 525.285824 5979.773812 
L 525.285824 106.681973 
L 494.194915 106.681973 
z
" clip-path="url(#p3530771c1d)" style="fill: #cf222e; stroke: #ffffff; stroke-width: 0.7; stroke-linejoin: miter"/>
   </g>
   <g id="patch_11">
    <path d="M 136.64946 5979.773812 
L 167.740369 5979.773812 
L 167.740369 1093.292213 
L 136.64946 1093.292213 
z
" clip-path="url(#p3530771c1d)" style="fill: #8250df; stroke: #ffffff; stroke-width: 0.7; stroke-linejoin: miter"/>
   </g>
   <g id="patch_12">
    <path d="M 266.194915 5979.773812 
L 297.285824 5979.773812 
L 297.285824 1084.643573 
L 266.194915 1084.643573 
z
" clip-path="url(#p3530771c1d)" style="fill: #8250df; stroke: #ffffff; stroke-width: 0.7; stroke-linejoin: miter"/>
   </g>
   <g id="patch_13">
    <path d="M 395.740369 5979.773812 
L 426.831278 5979.773812 
L 426.831278 1135.204853 
L 395.740369 1135.204853 
z
" clip-path="url(#p3530771c1d)" style="fill: #8250df; stroke: #ffffff; stroke-width: 0.7; stroke-linejoin: miter"/>
   </g>
   <g id="patch_14">
    <path d="M 525.285824 5979.773812 
L 556.376733 5979.773812 
L 556.376733 1099.945012 
L 525.285824 1099.945012 
z
" clip-path="url(#p3530771c1d)" style="fill: #8250df; stroke: #ffffff; stroke-width: 0.7; stroke-linejoin: miter"/>
   </g>
   <g id="matplotlib.axis_1">
    <g id="xtick_1">
     <g id="line2d_1">
      <defs>
       <path id="m36e4c88ee1" d="M 0 0 
L 0 3.5 
" style="stroke: #57606a; stroke-width: 0.8"/>
      </defs>
      <g>
       <use xlink:href="#m36e4c88ee1" x="121.104006" y="291.629812" style="fill: #57606a; stroke: #57606a; stroke-width: 0.8"/>
      </g>
     </g>
     <g id="text_1">
      <!-- Full -->
      <g style="fill: #1f2328" transform="translate(111.215724 306.22825) scale(0.1 -0.1)">
       <defs>
        <path id="DejaVuSerif-29" d="M 353 0 
L 353 331 
L 947 331 
L 947 4331 
L 353 4331 
L 353 4666 
L 4172 4666 
L 4172 3628 
L 3788 3628 
L 3788 4281 
L 1581 4281 
L 1581 2719 
L 3175 2719 
L 3175 3303 
L 3559 3303 
L 3559 1753 
L 3175 1753 
L 3175 2338 
L 1581 2338 
L 1581 331 
L 2328 331 
L 2328 0 
L 353 0 
z
" transform="scale(0.015625)"/>
        <path id="DejaVuSerif-58" d="M 2266 3322 
L 3341 3322 
L 3341 331 
L 3884 331 
L 3884 0 
L 2766 0 
L 2766 588 
Q 2606 256 2353 82 
Q 2100 -91 1766 -91 
Q 1213 -91 952 223 
Q 691 538 691 1209 
L 691 2988 
L 172 2988 
L 172 3322 
L 1269 3322 
L 1269 1388 
Q 1269 781 1417 556 
Q 1566 331 1947 331 
Q 2347 331 2556 625 
Q 2766 919 2766 1478 
L 2766 2988 
L 2266 2988 
L 2266 3322 
z
" transform="scale(0.015625)"/>
        <path id="DejaVuSerif-4f" d="M 1313 331 
L 1856 331 
L 1856 0 
L 184 0 
L 184 331 
L 738 331 
L 738 4531 
L 184 4531 
L 184 4863 
L 1313 4863 
L 1313 331 
z
" transform="scale(0.015625)"/>
       </defs>
       <use xlink:href="#DejaVuSerif-29"/>
       <use xlink:href="#DejaVuSerif-58" transform="translate(69.390625 0)"/>
       <use xlink:href="#DejaVuSerif-4f" transform="translate(133.796875 0)"/>
       <use xlink:href="#DejaVuSerif-4f" transform="translate(165.78125 0)"/>
      </g>
     </g>
    </g>
    <g id="xtick_2">
     <g id="line2d_2">
      <g>
       <use xlink:href="#m36e4c88ee1" x="250.64946" y="291.629812" style="fill: #57606a; stroke: #57606a; stroke-width: 0.8"/>
      </g>
     </g>
     <g id="text_2">
      <!-- w/o edge features -->
      <g style="fill: #1f2328" transform="translate(205.240866 306.22825) scale(0.1 -0.1)">
       <defs>
        <path id="DejaVuSerif-5a" d="M 3072 3322 
L 3922 728 
L 4672 2988 
L 4191 2988 
L 4191 3322 
L 5394 3322 
L 5394 2988 
L 5025 2988 
L 4038 0 
L 3559 0 
L 2741 2484 
L 1919 0 
L 1459 0 
L 475 2988 
L 103 2988 
L 103 3322 
L 1606 3322 
L 1606 2988 
L 1069 2988 
L 1813 728 
L 2669 3322 
L 3072 3322 
z
" transform="scale(0.015625)"/>
        <path id="DejaVuSerif-12" d="M 1656 4666 
L 2156 4666 
L 500 -594 
L 0 -594 
L 1656 4666 
z
" transform="scale(0.015625)"/>
        <path id="DejaVuSerif-52" d="M 1925 219 
Q 2388 219 2623 584 
Q 2859 950 2859 1663 
Q 2859 2375 2623 2739 
Q 2388 3103 1925 3103 
Q 1463 3103 1227 2739 
Q 991 2375 991 1663 
Q 991 950 1228 584 
Q 1466 219 1925 219 
z
M 1925 -91 
Q 1200 -91 759 389 
Q 319 869 319 1663 
Q 319 2456 758 2934 
Q 1197 3413 1925 3413 
Q 2653 3413 3092 2934 
Q 3531 2456 3531 1663 
Q 3531 869 3092 389 
Q 2653 -91 1925 -91 
z
" transform="scale(0.015625)"/>
        <path id="DejaVuSerif-3" transform="scale(0.015625)"/>
        <path id="DejaVuSerif-48" d="M 3469 1600 
L 991 1600 
L 991 1575 
Q 991 903 1244 561 
Q 1497 219 1991 219 
Q 2369 219 2611 417 
Q 2853 616 2950 1006 
L 3413 1006 
Q 3275 459 2904 184 
Q 2534 -91 1931 -91 
Q 1203 -91 761 389 
Q 319 869 319 1663 
Q 319 2450 753 2931 
Q 1188 3413 1894 3413 
Q 2647 3413 3050 2948 
Q 3453 2484 3469 1600 
z
M 2791 1931 
Q 2772 2513 2545 2808 
Q 2319 3103 1894 3103 
Q 1497 3103 1269 2806 
Q 1041 2509 991 1931 
L 2791 1931 
z
" transform="scale(0.015625)"/>
        <path id="DejaVuSerif-47" d="M 3359 331 
L 3909 331 
L 3909 0 
L 2784 0 
L 2784 519 
Q 2616 206 2355 57 
Q 2094 -91 1709 -91 
Q 1097 -91 708 395 
Q 319 881 319 1663 
Q 319 2444 706 2928 
Q 1094 3413 1709 3413 
Q 2094 3413 2355 3264 
Q 2616 3116 2784 2803 
L 2784 4531 
L 2241 4531 
L 2241 4863 
L 3359 4863 
L 3359 331 
z
M 2784 1497 
L 2784 1825 
Q 2784 2422 2554 2737 
Q 2325 3053 1888 3053 
Q 1444 3053 1217 2703 
Q 991 2353 991 1663 
Q 991 975 1217 622 
Q 1444 269 1888 269 
Q 2325 269 2554 583 
Q 2784 897 2784 1497 
z
" transform="scale(0.015625)"/>
        <path id="DejaVuSerif-4a" d="M 3359 2988 
L 3359 72 
Q 3359 -644 2965 -1033 
Q 2572 -1422 1844 -1422 
Q 1516 -1422 1216 -1362 
Q 916 -1303 641 -1184 
L 641 -488 
L 941 -488 
Q 997 -813 1206 -963 
Q 1416 -1113 1806 -1113 
Q 2313 -1113 2548 -827 
Q 2784 -541 2784 72 
L 2784 519 
Q 2616 206 2355 57 
Q 2094 -91 1709 -91 
Q 1097 -91 708 395 
Q 319 881 319 1663 
Q 319 2444 706 2928 
Q 1094 3413 1709 3413 
Q 2094 3413 2355 3264 
Q 2616 3116 2784 2803 
L 2784 3322 
L 3909 3322 
L 3909 2988 
L 3359 2988 
z
M 2784 1825 
Q 2784 2422 2554 2737 
Q 2325 3053 1888 3053 
Q 1444 3053 1217 2703 
Q 991 2353 991 1663 
Q 991 975 1217 622 
Q 1444 269 1888 269 
Q 2325 269 2554 583 
Q 2784 897 2784 1497 
L 2784 1825 
z
" transform="scale(0.015625)"/>
        <path id="DejaVuSerif-49" d="M 2753 4078 
L 2450 4078 
Q 2447 4313 2317 4434 
Q 2188 4556 1941 4556 
Q 1619 4556 1487 4379 
Q 1356 4203 1356 3750 
L 1356 3322 
L 2284 3322 
L 2284 2988 
L 1356 2988 
L 1356 331 
L 2094 331 
L 2094 0 
L 231 0 
L 231 331 
L 781 331 
L 781 2988 
L 231 2988 
L 231 3322 
L 781 3322 
L 781 3738 
Q 781 4294 1070 4578 
Q 1359 4863 1919 4863 
Q 2128 4863 2337 4825 
Q 2547 4788 2753 4709 
L 2753 4078 
z
" transform="scale(0.015625)"/>
        <path id="DejaVuSerif-44" d="M 2547 1044 
L 2547 1747 
L 1806 1747 
Q 1378 1747 1168 1562 
Q 959 1378 959 997 
Q 959 650 1171 447 
Q 1384 244 1747 244 
Q 2106 244 2326 466 
Q 2547 688 2547 1044 
z
M 3122 2075 
L 3122 331 
L 3634 331 
L 3634 0 
L 2547 0 
L 2547 359 
Q 2356 128 2106 18 
Q 1856 -91 1522 -91 
Q 969 -91 644 203 
Q 319 497 319 997 
Q 319 1513 691 1797 
Q 1063 2081 1741 2081 
L 2547 2081 
L 2547 2309 
Q 2547 2688 2317 2895 
Q 2088 3103 1672 3103 
Q 1328 3103 1125 2947 
Q 922 2791 872 2484 
L 575 2484 
L 575 3156 
Q 875 3284 1158 3348 
Q 1441 3413 1709 3413 
Q 2400 3413 2761 3070 
Q 3122 2728 3122 2075 
z
" transform="scale(0.015625)"/>
        <path id="DejaVuSerif-57" d="M 691 2988 
L 184 2988 
L 184 3322 
L 691 3322 
L 691 4353 
L 1269 4353 
L 1269 3322 
L 2350 3322 
L 2350 2988 
L 1269 2988 
L 1269 878 
Q 1269 456 1350 337 
Q 1431 219 1650 219 
Q 1875 219 1978 351 
Q 2081 484 2088 781 
L 2522 781 
Q 2497 328 2275 118 
Q 2053 -91 1600 -91 
Q 1103 -91 897 129 
Q 691 350 691 878 
L 691 2988 
z
" transform="scale(0.015625)"/>
        <path id="DejaVuSerif-55" d="M 3059 3328 
L 3059 2497 
L 2728 2497 
Q 2713 2744 2591 2866 
Q 2469 2988 2234 2988 
Q 1809 2988 1582 2694 
Q 1356 2400 1356 1850 
L 1356 331 
L 2022 331 
L 2022 0 
L 263 0 
L 263 331 
L 781 331 
L 781 2994 
L 231 2994 
L 231 3322 
L 1356 3322 
L 1356 2731 
Q 1525 3078 1790 3245 
Q 2056 3413 2438 3413 
Q 2578 3413 2733 3391 
Q 2888 3369 3059 3328 
z
" transform="scale(0.015625)"/>
        <path id="DejaVuSerif-56" d="M 359 184 
L 359 959 
L 691 959 
Q 703 588 923 403 
Q 1144 219 1575 219 
Q 1963 219 2166 364 
Q 2369 509 2369 788 
Q 2369 1006 2220 1140 
Q 2072 1275 1594 1428 
L 1178 1569 
Q 750 1706 558 1912 
Q 366 2119 366 2438 
Q 366 2894 700 3153 
Q 1034 3413 1625 3413 
Q 1888 3413 2178 3344 
Q 2469 3275 2778 3144 
L 2778 2419 
L 2447 2419 
Q 2434 2741 2221 2922 
Q 2009 3103 1644 3103 
Q 1281 3103 1095 2975 
Q 909 2847 909 2591 
Q 909 2381 1050 2254 
Q 1191 2128 1613 1997 
L 2069 1856 
Q 2541 1709 2748 1489 
Q 2956 1269 2956 922 
Q 2956 450 2595 179 
Q 2234 -91 1600 -91 
Q 1278 -91 972 -22 
Q 666 47 359 184 
z
" transform="scale(0.015625)"/>
       </defs>
       <use xlink:href="#DejaVuSerif-5a"/>
       <use xlink:href="#DejaVuSerif-12" transform="translate(85.59375 0)"/>
       <use xlink:href="#DejaVuSerif-52" transform="translate(119.28125 0)"/>
       <use xlink:href="#DejaVuSerif-3" transform="translate(179.484375 0)"/>
       <use xlink:href="#DejaVuSerif-48" transform="translate(211.265625 0)"/>
       <use xlink:href="#DejaVuSerif-47" transform="translate(270.453125 0)"/>
       <use xlink:href="#DejaVuSerif-4a" transform="translate(334.46875 0)"/>
       <use xlink:href="#DejaVuSerif-48" transform="translate(398.484375 0)"/>
       <use xlink:href="#DejaVuSerif-3" transform="translate(457.671875 0)"/>
       <use xlink:href="#DejaVuSerif-49" transform="translate(489.453125 0)"/>
       <use xlink:href="#DejaVuSerif-48" transform="translate(526.46875 0)"/>
       <use xlink:href="#DejaVuSerif-44" transform="translate(585.65625 0)"/>
       <use xlink:href="#DejaVuSerif-57" transform="translate(645.28125 0)"/>
       <use xlink:href="#DejaVuSerif-58" transform="translate(685.46875 0)"/>
       <use xlink:href="#DejaVuSerif-55" transform="translate(749.875 0)"/>
       <use xlink:href="#DejaVuSerif-48" transform="translate(797.671875 0)"/>
       <use xlink:href="#DejaVuSerif-56" transform="translate(856.859375 0)"/>
      </g>
     </g>
    </g>
    <g id="xtick_3">
     <g id="line2d_3">
      <g>
       <use xlink:href="#m36e4c88ee1" x="380.194915" y="291.629812" style="fill: #57606a; stroke: #57606a; stroke-width: 0.8"/>
      </g>
     </g>
     <g id="text_3">
      <!-- w/o prototype head -->
      <g style="fill: #1f2328" transform="translate(331.066009 306.22825) scale(0.1 -0.1)">
       <defs>
        <path id="DejaVuSerif-53" d="M 1313 1825 
L 1313 1497 
Q 1313 897 1542 583 
Q 1772 269 2209 269 
Q 2650 269 2876 622 
Q 3103 975 3103 1663 
Q 3103 2353 2876 2703 
Q 2650 3053 2209 3053 
Q 1772 3053 1542 2737 
Q 1313 2422 1313 1825 
z
M 738 2988 
L 184 2988 
L 184 3322 
L 1313 3322 
L 1313 2803 
Q 1481 3116 1742 3264 
Q 2003 3413 2388 3413 
Q 3000 3413 3387 2928 
Q 3775 2444 3775 1663 
Q 3775 881 3387 395 
Q 3000 -91 2388 -91 
Q 2003 -91 1742 57 
Q 1481 206 1313 519 
L 1313 -997 
L 1856 -997 
L 1856 -1331 
L 184 -1331 
L 184 -997 
L 738 -997 
L 738 2988 
z
" transform="scale(0.015625)"/>
        <path id="DejaVuSerif-5c" d="M 1381 -609 
L 1600 -56 
L 359 2988 
L -19 2988 
L -19 3322 
L 1509 3322 
L 1509 2988 
L 978 2988 
L 1913 703 
L 2847 2988 
L 2350 2988 
L 2350 3322 
L 3597 3322 
L 3597 2988 
L 3225 2988 
L 1703 -750 
Q 1547 -1138 1356 -1280 
Q 1166 -1422 819 -1422 
Q 672 -1422 517 -1397 
Q 363 -1372 206 -1325 
L 206 -691 
L 500 -691 
Q 519 -903 608 -995 
Q 697 -1088 884 -1088 
Q 1056 -1088 1161 -992 
Q 1266 -897 1381 -609 
z
" transform="scale(0.015625)"/>
        <path id="DejaVuSerif-4b" d="M 263 0 
L 263 331 
L 781 331 
L 781 4531 
L 231 4531 
L 231 4863 
L 1356 4863 
L 1356 2731 
Q 1516 3069 1770 3241 
Q 2025 3413 2363 3413 
Q 2913 3413 3172 3097 
Q 3431 2781 3431 2113 
L 3431 331 
L 3944 331 
L 3944 0 
L 2356 0 
L 2356 331 
L 2853 331 
L 2853 1931 
Q 2853 2541 2704 2764 
Q 2556 2988 2175 2988 
Q 1775 2988 1565 2697 
Q 1356 2406 1356 1850 
L 1356 331 
L 1856 331 
L 1856 0 
L 263 0 
z
" transform="scale(0.015625)"/>
       </defs>
       <use xlink:href="#DejaVuSerif-5a"/>
       <use xlink:href="#DejaVuSerif-12" transform="translate(85.59375 0)"/>
       <use xlink:href="#DejaVuSerif-52" transform="translate(119.28125 0)"/>
       <use xlink:href="#DejaVuSerif-3" transform="translate(179.484375 0)"/>
       <use xlink:href="#DejaVuSerif-53" transform="translate(211.265625 0)"/>
       <use xlink:href="#DejaVuSerif-55" transform="translate(275.28125 0)"/>
       <use xlink:href="#DejaVuSerif-52" transform="translate(323.078125 0)"/>
       <use xlink:href="#DejaVuSerif-57" transform="translate(383.28125 0)"/>
       <use xlink:href="#DejaVuSerif-52" transform="translate(423.46875 0)"/>
       <use xlink:href="#DejaVuSerif-57" transform="translate(483.671875 0)"/>
       <use xlink:href="#DejaVuSerif-5c" transform="translate(523.859375 0)"/>
       <use xlink:href="#DejaVuSerif-53" transform="translate(580.359375 0)"/>
       <use xlink:href="#DejaVuSerif-48" transform="translate(644.375 0)"/>
       <use xlink:href="#DejaVuSerif-3" transform="translate(703.5625 0)"/>
       <use xlink:href="#DejaVuSerif-4b" transform="translate(735.34375 0)"/>
       <use xlink:href="#DejaVuSerif-48" transform="translate(799.75 0)"/>
       <use xlink:href="#DejaVuSerif-44" transform="translate(858.9375 0)"/>
       <use xlink:href="#DejaVuSerif-47" transform="translate(918.5625 0)"/>
      </g>
     </g>
    </g>
    <g id="xtick_4">
     <g id="line2d_4">
      <g>
       <use xlink:href="#m36e4c88ee1" x="509.740369" y="291.629812" style="fill: #57606a; stroke: #57606a; stroke-width: 0.8"/>
      </g>
     </g>
     <g id="text_4">
      <!-- w/o focal loss -->
      <g style="fill: #1f2328" transform="translate(475.605994 306.22825) scale(0.1 -0.1)">
       <defs>
        <path id="DejaVuSerif-46" d="M 3291 997 
Q 3169 466 2822 187 
Q 2475 -91 1925 -91 
Q 1200 -91 759 389 
Q 319 869 319 1663 
Q 319 2459 759 2936 
Q 1200 3413 1925 3413 
Q 2241 3413 2553 3339 
Q 2866 3266 3181 3116 
L 3181 2266 
L 2847 2266 
Q 2781 2703 2561 2903 
Q 2341 3103 1931 3103 
Q 1466 3103 1228 2742 
Q 991 2381 991 1663 
Q 991 944 1227 581 
Q 1463 219 1931 219 
Q 2303 219 2525 412 
Q 2747 606 2828 997 
L 3291 997 
z
" transform="scale(0.015625)"/>
       </defs>
       <use xlink:href="#DejaVuSerif-5a"/>
       <use xlink:href="#DejaVuSerif-12" transform="translate(85.59375 0)"/>
       <use xlink:href="#DejaVuSerif-52" transform="translate(119.28125 0)"/>
       <use xlink:href="#DejaVuSerif-3" transform="translate(179.484375 0)"/>
       <use xlink:href="#DejaVuSerif-49" transform="translate(211.265625 0)"/>
       <use xlink:href="#DejaVuSerif-52" transform="translate(248.28125 0)"/>
       <use xlink:href="#DejaVuSerif-46" transform="translate(308.484375 0)"/>
       <use xlink:href="#DejaVuSerif-44" transform="translate(364.484375 0)"/>
       <use xlink:href="#DejaVuSerif-4f" transform="translate(424.109375 0)"/>
       <use xlink:href="#DejaVuSerif-3" transform="translate(456.09375 0)"/>
       <use xlink:href="#DejaVuSerif-4f" transform="translate(487.875 0)"/>
       <use xlink:href="#DejaVuSerif-52" transform="translate(519.859375 0)"/>
       <use xlink:href="#DejaVuSerif-56" transform="translate(580.0625 0)"/>
       <use xlink:href="#DejaVuSerif-56" transform="translate(631.375 0)"/>
      </g>
     </g>
    </g>
   </g>
   <g id="matplotlib.axis_2">
    <g id="ytick_1">
     <g id="line2d_5">
      <path d="M 50.372188 291.629813 
L 580.472188 291.629813 
" clip-path="url(#p3530771c1d)" style="fill: none; stroke-dasharray: 0.6,0.99; stroke-dashoffset: 0; stroke: #d0d7de; stroke-opacity: 0.45; stroke-width: 0.6"/>
     </g>
     <g id="line2d_6">
      <defs>
       <path id="mb94a4cbe42" d="M 0 0 
L -3.5 0 
" style="stroke: #57606a; stroke-width: 0.8"/>
      </defs>
      <g>
       <use xlink:href="#mb94a4cbe42" x="50.372188" y="291.629813" style="fill: #57606a; stroke: #57606a; stroke-width: 0.8"/>
      </g>
     </g>
     <g id="text_5">
      <!-- 85.5 -->
      <g style="fill: #57606a" transform="translate(18.88 295.808523) scale(0.11 -0.11)">
       <defs>
        <path id="DejaVuSerif-1b" d="M 2981 1275 
Q 2981 1775 2732 2051 
Q 2484 2328 2034 2328 
Q 1584 2328 1336 2051 
Q 1088 1775 1088 1275 
Q 1088 772 1336 495 
Q 1584 219 2034 219 
Q 2484 219 2732 495 
Q 2981 772 2981 1275 
z
M 2853 3541 
Q 2853 3966 2637 4203 
Q 2422 4441 2034 4441 
Q 1650 4441 1433 4203 
Q 1216 3966 1216 3541 
Q 1216 3113 1433 2875 
Q 1650 2638 2034 2638 
Q 2422 2638 2637 2875 
Q 2853 3113 2853 3541 
z
M 2516 2484 
Q 3047 2413 3344 2092 
Q 3641 1772 3641 1275 
Q 3641 619 3225 264 
Q 2809 -91 2034 -91 
Q 1263 -91 845 264 
Q 428 619 428 1275 
Q 428 1772 725 2092 
Q 1022 2413 1556 2484 
Q 1084 2569 832 2842 
Q 581 3116 581 3541 
Q 581 4103 968 4426 
Q 1356 4750 2034 4750 
Q 2713 4750 3100 4426 
Q 3488 4103 3488 3541 
Q 3488 3116 3236 2842 
Q 2984 2569 2516 2484 
z
" transform="scale(0.015625)"/>
        <path id="DejaVuSerif-18" d="M 3219 4666 
L 3219 4153 
L 1081 4153 
L 1081 2816 
Q 1244 2928 1461 2984 
Q 1678 3041 1947 3041 
Q 2703 3041 3140 2622 
Q 3578 2203 3578 1478 
Q 3578 738 3136 323 
Q 2694 -91 1894 -91 
Q 1572 -91 1234 -12 
Q 897 66 544 225 
L 544 1131 
L 897 1131 
Q 925 688 1179 453 
Q 1434 219 1894 219 
Q 2388 219 2653 544 
Q 2919 869 2919 1478 
Q 2919 2084 2655 2407 
Q 2391 2731 1894 2731 
Q 1613 2731 1398 2631 
Q 1184 2531 1019 2322 
L 750 2322 
L 750 4666 
L 3219 4666 
z
" transform="scale(0.015625)"/>
        <path id="DejaVuSerif-11" d="M 603 325 
Q 603 500 722 622 
Q 841 744 1019 744 
Q 1191 744 1312 622 
Q 1434 500 1434 325 
Q 1434 153 1312 31 
Q 1191 -91 1019 -91 
Q 841 -91 722 29 
Q 603 150 603 325 
z
" transform="scale(0.015625)"/>
       </defs>
       <use xlink:href="#DejaVuSerif-1b"/>
       <use xlink:href="#DejaVuSerif-18" transform="translate(63.625 0)"/>
       <use xlink:href="#DejaVuSerif-11" transform="translate(127.25 0)"/>
       <use xlink:href="#DejaVuSerif-18" transform="translate(159.03125 0)"/>
      </g>
     </g>
    </g>
    <g id="ytick_2">
     <g id="line2d_7">
      <path d="M 50.372188 258.365813 
L 580.472188 258.365813 
" clip-path="url(#p3530771c1d)" style="fill: none; stroke-dasharray: 0.6,0.99; stroke-dashoffset: 0; stroke: #d0d7de; stroke-opacity: 0.45; stroke-width: 0.6"/>
     </g>
     <g id="line2d_8">
      <g>
       <use xlink:href="#mb94a4cbe42" x="50.372188" y="258.365813" style="fill: #57606a; stroke: #57606a; stroke-width: 0.8"/>
      </g>
     </g>
     <g id="text_6">
      <!-- 86.0 -->
      <g style="fill: #57606a" transform="translate(18.88 262.544523) scale(0.11 -0.11)">
       <defs>
        <path id="DejaVuSerif-19" d="M 2094 219 
Q 2534 219 2771 542 
Q 3009 866 3009 1472 
Q 3009 2078 2771 2401 
Q 2534 2725 2094 2725 
Q 1647 2725 1412 2412 
Q 1178 2100 1178 1509 
Q 1178 888 1415 553 
Q 1653 219 2094 219 
z
M 1075 2569 
Q 1288 2803 1556 2918 
Q 1825 3034 2163 3034 
Q 2859 3034 3264 2615 
Q 3669 2197 3669 1472 
Q 3669 763 3233 336 
Q 2797 -91 2069 -91 
Q 1278 -91 853 498 
Q 428 1088 428 2181 
Q 428 3406 931 4078 
Q 1434 4750 2350 4750 
Q 2597 4750 2869 4703 
Q 3141 4656 3425 4563 
L 3425 3794 
L 3072 3794 
Q 3034 4109 2831 4275 
Q 2628 4441 2284 4441 
Q 1678 4441 1381 3981 
Q 1084 3522 1075 2569 
z
" transform="scale(0.015625)"/>
        <path id="DejaVuSerif-13" d="M 2034 219 
Q 2513 219 2750 744 
Q 2988 1269 2988 2328 
Q 2988 3391 2750 3916 
Q 2513 4441 2034 4441 
Q 1556 4441 1318 3916 
Q 1081 3391 1081 2328 
Q 1081 1269 1318 744 
Q 1556 219 2034 219 
z
M 2034 -91 
Q 1275 -91 848 546 
Q 422 1184 422 2328 
Q 422 3475 848 4112 
Q 1275 4750 2034 4750 
Q 2797 4750 3222 4112 
Q 3647 3475 3647 2328 
Q 3647 1184 3222 546 
Q 2797 -91 2034 -91 
z
" transform="scale(0.015625)"/>
       </defs>
       <use xlink:href="#DejaVuSerif-1b"/>
       <use xlink:href="#DejaVuSerif-19" transform="translate(63.625 0)"/>
       <use xlink:href="#DejaVuSerif-11" transform="translate(127.25 0)"/>
       <use xlink:href="#DejaVuSerif-13" transform="translate(159.03125 0)"/>
      </g>
     </g>
    </g>
    <g id="ytick_3">
     <g id="line2d_9">
      <path d="M 50.372188 225.101813 
L 580.472188 225.101813 
" clip-path="url(#p3530771c1d)" style="fill: none; stroke-dasharray: 0.6,0.99; stroke-dashoffset: 0; stroke: #d0d7de; stroke-opacity: 0.45; stroke-width: 0.6"/>
     </g>
     <g id="line2d_10">
      <g>
       <use xlink:href="#mb94a4cbe42" x="50.372188" y="225.101813" style="fill: #57606a; stroke: #57606a; stroke-width: 0.8"/>
      </g>
     </g>
     <g id="text_7">
      <!-- 86.5 -->
      <g style="fill: #57606a" transform="translate(18.88 229.280523) scale(0.11 -0.11)">
       <use xlink:href="#DejaVuSerif-1b"/>
       <use xlink:href="#DejaVuSerif-19" transform="translate(63.625 0)"/>
       <use xlink:href="#DejaVuSerif-11" transform="translate(127.25 0)"/>
       <use xlink:href="#DejaVuSerif-18" transform="translate(159.03125 0)"/>
      </g>
     </g>
    </g>
    <g id="ytick_4">
     <g id="line2d_11">
      <path d="M 50.372188 191.837812 
L 580.472188 191.837812 
" clip-path="url(#p3530771c1d)" style="fill: none; stroke-dasharray: 0.6,0.99; stroke-dashoffset: 0; stroke: #d0d7de; stroke-opacity: 0.45; stroke-width: 0.6"/>
     </g>
     <g id="line2d_12">
      <g>
       <use xlink:href="#mb94a4cbe42" x="50.372188" y="191.837812" style="fill: #57606a; stroke: #57606a; stroke-width: 0.8"/>
      </g>
     </g>
     <g id="text_8">
      <!-- 87.0 -->
      <g style="fill: #57606a" transform="translate(18.88 196.016523) scale(0.11 -0.11)">
       <defs>
        <path id="DejaVuSerif-1a" d="M 3609 4347 
L 1784 0 
L 1319 0 
L 3059 4153 
L 903 4153 
L 903 3578 
L 538 3578 
L 538 4666 
L 3609 4666 
L 3609 4347 
z
" transform="scale(0.015625)"/>
       </defs>
       <use xlink:href="#DejaVuSerif-1b"/>
       <use xlink:href="#DejaVuSerif-1a" transform="translate(63.625 0)"/>
       <use xlink:href="#DejaVuSerif-11" transform="translate(127.25 0)"/>
       <use xlink:href="#DejaVuSerif-13" transform="translate(159.03125 0)"/>
      </g>
     </g>
    </g>
    <g id="ytick_5">
     <g id="line2d_13">
      <path d="M 50.372188 158.573813 
L 580.472188 158.573813 
" clip-path="url(#p3530771c1d)" style="fill: none; stroke-dasharray: 0.6,0.99; stroke-dashoffset: 0; stroke: #d0d7de; stroke-opacity: 0.45; stroke-width: 0.6"/>
     </g>
     <g id="line2d_14">
      <g>
       <use xlink:href="#mb94a4cbe42" x="50.372188" y="158.573813" style="fill: #57606a; stroke: #57606a; stroke-width: 0.8"/>
      </g>
     </g>
     <g id="text_9">
      <!-- 87.5 -->
      <g style="fill: #57606a" transform="translate(18.88 162.752523) scale(0.11 -0.11)">
       <use xlink:href="#DejaVuSerif-1b"/>
       <use xlink:href="#DejaVuSerif-1a" transform="translate(63.625 0)"/>
       <use xlink:href="#DejaVuSerif-11" transform="translate(127.25 0)"/>
       <use xlink:href="#DejaVuSerif-18" transform="translate(159.03125 0)"/>
      </g>
     </g>
    </g>
    <g id="ytick_6">
     <g id="line2d_15">
      <path d="M 50.372188 125.309813 
L 580.472188 125.309813 
" clip-path="url(#p3530771c1d)" style="fill: none; stroke-dasharray: 0.6,0.99; stroke-dashoffset: 0; stroke: #d0d7de; stroke-opacity: 0.45; stroke-width: 0.6"/>
     </g>
     <g id="line2d_16">
      <g>
       <use xlink:href="#mb94a4cbe42" x="50.372188" y="125.309813" style="fill: #57606a; stroke: #57606a; stroke-width: 0.8"/>
      </g>
     </g>
     <g id="text_10">
      <!-- 88.0 -->
      <g style="fill: #57606a" transform="translate(18.88 129.488523) scale(0.11 -0.11)">
       <use xlink:href="#DejaVuSerif-1b"/>
       <use xlink:href="#DejaVuSerif-1b" transform="translate(63.625 0)"/>
       <use xlink:href="#DejaVuSerif-11" transform="translate(127.25 0)"/>
       <use xlink:href="#DejaVuSerif-13" transform="translate(159.03125 0)"/>
      </g>
     </g>
    </g>
    <g id="ytick_7">
     <g id="line2d_17">
      <path d="M 50.372188 92.045813 
L 580.472188 92.045813 
" clip-path="url(#p3530771c1d)" style="fill: none; stroke-dasharray: 0.6,0.99; stroke-dashoffset: 0; stroke: #d0d7de; stroke-opacity: 0.45; stroke-width: 0.6"/>
     </g>
     <g id="line2d_18">
      <g>
       <use xlink:href="#mb94a4cbe42" x="50.372188" y="92.045813" style="fill: #57606a; stroke: #57606a; stroke-width: 0.8"/>
      </g>
     </g>
     <g id="text_11">
      <!-- 88.5 -->
      <g style="fill: #57606a" transform="translate(18.88 96.224523) scale(0.11 -0.11)">
       <use xlink:href="#DejaVuSerif-1b"/>
       <use xlink:href="#DejaVuSerif-1b" transform="translate(63.625 0)"/>
       <use xlink:href="#DejaVuSerif-11" transform="translate(127.25 0)"/>
       <use xlink:href="#DejaVuSerif-18" transform="translate(159.03125 0)"/>
      </g>
     </g>
    </g>
    <g id="ytick_8">
     <g id="line2d_19">
      <path d="M 50.372188 58.781813 
L 580.472188 58.781813 
" clip-path="url(#p3530771c1d)" style="fill: none; stroke-dasharray: 0.6,0.99; stroke-dashoffset: 0; stroke: #d0d7de; stroke-opacity: 0.45; stroke-width: 0.6"/>
     </g>
     <g id="line2d_20">
      <g>
       <use xlink:href="#mb94a4cbe42" x="50.372188" y="58.781813" style="fill: #57606a; stroke: #57606a; stroke-width: 0.8"/>
      </g>
     </g>
     <g id="text_12">
      <!-- 89.0 -->
      <g style="fill: #57606a" transform="translate(18.88 62.960523) scale(0.11 -0.11)">
       <defs>
        <path id="DejaVuSerif-1c" d="M 2994 2091 
Q 2784 1856 2512 1740 
Q 2241 1625 1900 1625 
Q 1206 1625 804 2044 
Q 403 2463 403 3188 
Q 403 3897 839 4323 
Q 1275 4750 2003 4750 
Q 2794 4750 3217 4161 
Q 3641 3572 3641 2478 
Q 3641 1253 3137 581 
Q 2634 -91 1722 -91 
Q 1475 -91 1203 -44 
Q 931 3 647 97 
L 647 872 
L 997 872 
Q 1038 556 1241 387 
Q 1444 219 1784 219 
Q 2391 219 2687 676 
Q 2984 1134 2994 2091 
z
M 1978 4441 
Q 1534 4441 1298 4117 
Q 1063 3794 1063 3188 
Q 1063 2581 1298 2256 
Q 1534 1931 1978 1931 
Q 2422 1931 2658 2245 
Q 2894 2559 2894 3150 
Q 2894 3772 2656 4106 
Q 2419 4441 1978 4441 
z
" transform="scale(0.015625)"/>
       </defs>
       <use xlink:href="#DejaVuSerif-1b"/>
       <use xlink:href="#DejaVuSerif-1c" transform="translate(63.625 0)"/>
       <use xlink:href="#DejaVuSerif-11" transform="translate(127.25 0)"/>
       <use xlink:href="#DejaVuSerif-13" transform="translate(159.03125 0)"/>
      </g>
     </g>
    </g>
    <g id="ytick_9">
     <g id="line2d_21">
      <path d="M 50.372188 25.517813 
L 580.472188 25.517813 
" clip-path="url(#p3530771c1d)" style="fill: none; stroke-dasharray: 0.6,0.99; stroke-dashoffset: 0; stroke: #d0d7de; stroke-opacity: 0.45; stroke-width: 0.6"/>
     </g>
     <g id="line2d_22">
      <g>
       <use xlink:href="#mb94a4cbe42" x="50.372188" y="25.517813" style="fill: #57606a; stroke: #57606a; stroke-width: 0.8"/>
      </g>
     </g>
     <g id="text_13">
      <!-- 89.5 -->
      <g style="fill: #57606a" transform="translate(18.88 29.696523) scale(0.11 -0.11)">
       <use xlink:href="#DejaVuSerif-1b"/>
       <use xlink:href="#DejaVuSerif-1c" transform="translate(63.625 0)"/>
       <use xlink:href="#DejaVuSerif-11" transform="translate(127.25 0)"/>
       <use xlink:href="#DejaVuSerif-18" transform="translate(159.03125 0)"/>
      </g>
     </g>
    </g>
    <g id="text_14">
     <!-- Score -->
     <g style="fill: #1f2328" transform="translate(11.997188 176.075063) rotate(-90) scale(0.12 -0.12)">
      <defs>
       <path id="DejaVuSerif-36" d="M 594 225 
L 594 1288 
L 953 1284 
Q 969 753 1261 498 
Q 1553 244 2150 244 
Q 2706 244 2998 464 
Q 3291 684 3291 1106 
Q 3291 1444 3114 1625 
Q 2938 1806 2369 1978 
L 1753 2163 
Q 1084 2366 811 2669 
Q 538 2972 538 3500 
Q 538 4094 959 4422 
Q 1381 4750 2144 4750 
Q 2469 4750 2856 4679 
Q 3244 4609 3681 4475 
L 3681 3481 
L 3328 3481 
Q 3275 3975 2998 4195 
Q 2722 4416 2156 4416 
Q 1663 4416 1405 4214 
Q 1147 4013 1147 3628 
Q 1147 3294 1340 3103 
Q 1534 2913 2163 2725 
L 2741 2553 
Q 3375 2363 3645 2067 
Q 3916 1772 3916 1275 
Q 3916 597 3481 253 
Q 3047 -91 2188 -91 
Q 1803 -91 1404 -12 
Q 1006 66 594 225 
z
" transform="scale(0.015625)"/>
      </defs>
      <use xlink:href="#DejaVuSerif-36"/>
      <use xlink:href="#DejaVuSerif-46" transform="translate(68.5 0)"/>
      <use xlink:href="#DejaVuSerif-52" transform="translate(124.5 0)"/>
      <use xlink:href="#DejaVuSerif-55" transform="translate(184.703125 0)"/>
      <use xlink:href="#DejaVuSerif-48" transform="translate(232.5 0)"/>
     </g>
    </g>
   </g>
   <g id="patch_15">
    <path d="M 50.372188 291.629813 
L 50.372188 25.517813 
" style="fill: none; stroke: #d0d7de; stroke-width: 0.8; stroke-linejoin: miter; stroke-linecap: square"/>
   </g>
   <g id="patch_16">
    <path d="M 50.372188 291.629812 
L 580.472188 291.629812 
" style="fill: none; stroke: #d0d7de; stroke-width: 0.8; stroke-linejoin: miter; stroke-linecap: square"/>
   </g>
   <g id="text_15">
    <!-- 86.48 -->
    <g style="fill: #0969da" transform="translate(77.488097 207.878497) scale(0.08 -0.08)">
     <defs>
      <path id="DejaVuSerif-Bold-1b" d="M 2975 2484 
Q 3531 2394 3820 2075 
Q 4109 1756 4109 1241 
Q 4109 597 3623 253 
Q 3138 -91 2222 -91 
Q 1306 -91 818 253 
Q 331 597 331 1241 
Q 331 1756 622 2075 
Q 913 2394 1466 2484 
Q 975 2597 731 2861 
Q 488 3125 488 3531 
Q 488 4125 931 4437 
Q 1375 4750 2222 4750 
Q 3066 4750 3511 4437 
Q 3956 4125 3956 3531 
Q 3956 3125 3711 2861 
Q 3466 2597 2975 2484 
z
M 2747 3519 
Q 2747 4013 2628 4198 
Q 2509 4384 2222 4384 
Q 1931 4384 1814 4198 
Q 1697 4013 1697 3519 
Q 1697 3028 1814 2845 
Q 1931 2663 2222 2663 
Q 2513 2663 2630 2845 
Q 2747 3028 2747 3519 
z
M 2869 1294 
Q 2869 1866 2723 2081 
Q 2578 2297 2222 2297 
Q 1863 2297 1719 2081 
Q 1575 1866 1575 1294 
Q 1575 716 1720 495 
Q 1866 275 2222 275 
Q 2575 275 2722 495 
Q 2869 716 2869 1294 
z
" transform="scale(0.015625)"/>
      <path id="DejaVuSerif-Bold-19" d="M 1575 2766 
Q 1778 2928 2029 3009 
Q 2281 3091 2578 3091 
Q 3294 3091 3701 2672 
Q 4109 2253 4109 1522 
Q 4109 750 3650 329 
Q 3191 -91 2344 -91 
Q 1388 -91 895 486 
Q 403 1063 403 2181 
Q 403 3453 950 4101 
Q 1497 4750 2572 4750 
Q 2853 4750 3175 4703 
Q 3497 4656 3866 4563 
L 3866 3738 
L 3488 3738 
Q 3409 4056 3192 4220 
Q 2975 4384 2631 4384 
Q 2075 4384 1826 4003 
Q 1578 3622 1575 2766 
z
M 2272 275 
Q 2594 275 2731 548 
Q 2869 822 2869 1497 
Q 2869 2172 2731 2445 
Q 2594 2719 2272 2719 
Q 1950 2719 1814 2445 
Q 1678 2172 1678 1497 
Q 1678 822 1814 548 
Q 1950 275 2272 275 
z
" transform="scale(0.015625)"/>
      <path id="DejaVuSerif-Bold-11" d="M 519 506 
Q 519 750 694 925 
Q 869 1100 1113 1100 
Q 1359 1100 1534 925 
Q 1709 750 1709 506 
Q 1709 259 1534 84 
Q 1359 -91 1113 -91 
Q 869 -91 694 84 
Q 519 259 519 506 
z
" transform="scale(0.015625)"/>
      <path id="DejaVuSerif-Bold-17" d="M 4084 0 
L 1516 0 
L 1516 378 
L 2209 378 
L 2209 1228 
L 263 1228 
L 263 1588 
L 2216 4750 
L 3391 4750 
L 3391 1631 
L 4191 1631 
L 4191 1228 
L 3391 1228 
L 3391 378 
L 4084 378 
L 4084 0 
z
M 2209 1631 
L 2209 3897 
L 819 1631 
L 2209 1631 
z
" transform="scale(0.015625)"/>
     </defs>
     <use xlink:href="#DejaVuSerif-Bold-1b"/>
     <use xlink:href="#DejaVuSerif-Bold-19" transform="translate(69.578125 0)"/>
     <use xlink:href="#DejaVuSerif-Bold-11" transform="translate(139.15625 0)"/>
     <use xlink:href="#DejaVuSerif-Bold-17" transform="translate(173.96875 0)"/>
     <use xlink:href="#DejaVuSerif-Bold-1b" transform="translate(243.546875 0)"/>
    </g>
   </g>
   <g id="text_16">
    <!-- 86.73 -->
    <g style="fill: #0969da" transform="translate(207.033551 191.246498) scale(0.08 -0.08)">
     <defs>
      <path id="DejaVuSerif-Bold-1a" d="M 3922 3872 
L 1997 0 
L 1363 0 
L 3238 3781 
L 934 3781 
L 934 3150 
L 506 3150 
L 506 4666 
L 3922 4666 
L 3922 3872 
z
" transform="scale(0.015625)"/>
      <path id="DejaVuSerif-Bold-16" d="M 550 4531 
Q 963 4641 1350 4695 
Q 1738 4750 2106 4750 
Q 2950 4750 3401 4448 
Q 3853 4147 3853 3584 
Q 3853 3163 3593 2900 
Q 3334 2638 2834 2547 
Q 3444 2450 3744 2131 
Q 4044 1813 4044 1259 
Q 4044 606 3526 257 
Q 3009 -91 2028 -91 
Q 1659 -91 1267 -28 
Q 875 34 447 159 
L 447 1184 
L 825 1184 
Q 859 741 1103 508 
Q 1347 275 1778 275 
Q 2253 275 2512 539 
Q 2772 803 2772 1288 
Q 2772 1794 2501 2069 
Q 2231 2344 1734 2344 
L 1528 2344 
L 1528 2719 
L 1691 2719 
Q 2150 2719 2381 2931 
Q 2613 3144 2613 3566 
Q 2613 3963 2395 4173 
Q 2178 4384 1772 4384 
Q 1403 4384 1187 4182 
Q 972 3981 928 3597 
L 550 3597 
L 550 4531 
z
" transform="scale(0.015625)"/>
     </defs>
     <use xlink:href="#DejaVuSerif-Bold-1b"/>
     <use xlink:href="#DejaVuSerif-Bold-19" transform="translate(69.578125 0)"/>
     <use xlink:href="#DejaVuSerif-Bold-11" transform="translate(139.15625 0)"/>
     <use xlink:href="#DejaVuSerif-Bold-1a" transform="translate(173.96875 0)"/>
     <use xlink:href="#DejaVuSerif-Bold-16" transform="translate(243.546875 0)"/>
    </g>
   </g>
   <g id="text_17">
    <!-- 86.14 -->
    <g style="fill: #0969da" transform="translate(336.579006 230.498017) scale(0.08 -0.08)">
     <defs>
      <path id="DejaVuSerif-Bold-14" d="M 878 0 
L 878 378 
L 1753 378 
L 1753 4153 
L 781 3578 
L 781 4044 
L 1953 4750 
L 2938 4750 
L 2938 378 
L 3816 378 
L 3816 0 
L 878 0 
z
" transform="scale(0.015625)"/>
     </defs>
     <use xlink:href="#DejaVuSerif-Bold-1b"/>
     <use xlink:href="#DejaVuSerif-Bold-19" transform="translate(69.578125 0)"/>
     <use xlink:href="#DejaVuSerif-Bold-11" transform="translate(139.15625 0)"/>
     <use xlink:href="#DejaVuSerif-Bold-14" transform="translate(173.96875 0)"/>
     <use xlink:href="#DejaVuSerif-Bold-17" transform="translate(243.546875 0)"/>
    </g>
   </g>
   <g id="text_18">
    <!-- 86.64 -->
    <g style="fill: #0969da" transform="translate(466.12446 197.234017) scale(0.08 -0.08)">
     <use xlink:href="#DejaVuSerif-Bold-1b"/>
     <use xlink:href="#DejaVuSerif-Bold-19" transform="translate(69.578125 0)"/>
     <use xlink:href="#DejaVuSerif-Bold-11" transform="translate(139.15625 0)"/>
     <use xlink:href="#DejaVuSerif-Bold-19" transform="translate(173.96875 0)"/>
     <use xlink:href="#DejaVuSerif-Bold-17" transform="translate(243.546875 0)"/>
    </g>
   </g>
   <g id="text_19">
    <!-- 88.39 -->
    <g style="fill: #cf222e" transform="translate(108.579006 80.810017) scale(0.08 -0.08)">
     <defs>
      <path id="DejaVuSerif-Bold-1c" d="M 2181 4384 
Q 1859 4384 1723 4111 
Q 1588 3838 1588 3163 
Q 1588 2488 1723 2214 
Q 1859 1941 2181 1941 
Q 2503 1941 2640 2214 
Q 2778 2488 2778 3163 
Q 2778 3838 2640 4111 
Q 2503 4384 2181 4384 
z
M 2878 1900 
Q 2672 1734 2420 1651 
Q 2169 1569 1875 1569 
Q 1163 1569 755 1986 
Q 347 2403 347 3138 
Q 347 3913 803 4331 
Q 1259 4750 2106 4750 
Q 3063 4750 3556 4172 
Q 4050 3594 4050 2478 
Q 4050 1206 3503 557 
Q 2956 -91 1881 -91 
Q 1600 -91 1278 -44 
Q 956 3 588 97 
L 588 922 
L 966 922 
Q 1044 603 1261 439 
Q 1478 275 1825 275 
Q 2375 275 2625 658 
Q 2875 1041 2878 1900 
z
" transform="scale(0.015625)"/>
     </defs>
     <use xlink:href="#DejaVuSerif-Bold-1b"/>
     <use xlink:href="#DejaVuSerif-Bold-1b" transform="translate(69.578125 0)"/>
     <use xlink:href="#DejaVuSerif-Bold-11" transform="translate(139.15625 0)"/>
     <use xlink:href="#DejaVuSerif-Bold-16" transform="translate(173.96875 0)"/>
     <use xlink:href="#DejaVuSerif-Bold-1c" transform="translate(243.546875 0)"/>
    </g>
   </g>
   <g id="text_20">
    <!-- 88.40 -->
    <g style="fill: #cf222e" transform="translate(238.12446 80.144737) scale(0.08 -0.08)">
     <defs>
      <path id="DejaVuSerif-Bold-13" d="M 2228 275 
Q 2603 275 2742 615 
Q 2881 956 2881 2328 
Q 2881 3691 2742 4037 
Q 2603 4384 2228 4384 
Q 1853 4384 1714 4043 
Q 1575 3703 1575 2328 
Q 1575 956 1714 615 
Q 1853 275 2228 275 
z
M 2228 -91 
Q 1294 -91 797 532 
Q 300 1156 300 2328 
Q 300 3500 797 4125 
Q 1294 4750 2228 4750 
Q 3159 4750 3656 4125 
Q 4153 3500 4153 2328 
Q 4153 1156 3656 532 
Q 3159 -91 2228 -91 
z
" transform="scale(0.015625)"/>
     </defs>
     <use xlink:href="#DejaVuSerif-Bold-1b"/>
     <use xlink:href="#DejaVuSerif-Bold-1b" transform="translate(69.578125 0)"/>
     <use xlink:href="#DejaVuSerif-Bold-11" transform="translate(139.15625 0)"/>
     <use xlink:href="#DejaVuSerif-Bold-17" transform="translate(173.96875 0)"/>
     <use xlink:href="#DejaVuSerif-Bold-13" transform="translate(243.546875 0)"/>
    </g>
   </g>
   <g id="text_21">
    <!-- 88.13 -->
    <g style="fill: #cf222e" transform="translate(367.669915 98.107298) scale(0.08 -0.08)">
     <use xlink:href="#DejaVuSerif-Bold-1b"/>
     <use xlink:href="#DejaVuSerif-Bold-1b" transform="translate(69.578125 0)"/>
     <use xlink:href="#DejaVuSerif-Bold-11" transform="translate(139.15625 0)"/>
     <use xlink:href="#DejaVuSerif-Bold-14" transform="translate(173.96875 0)"/>
     <use xlink:href="#DejaVuSerif-Bold-16" transform="translate(243.546875 0)"/>
    </g>
   </g>
   <g id="text_22">
    <!-- 88.28 -->
    <g style="fill: #cf222e" transform="translate(497.215369 88.128097) scale(0.08 -0.08)">
     <defs>
      <path id="DejaVuSerif-Bold-15" d="M 844 3513 
L 469 3513 
L 469 4519 
Q 850 4634 1223 4692 
Q 1597 4750 1978 4750 
Q 2869 4750 3367 4386 
Q 3866 4022 3866 3372 
Q 3866 2909 3591 2542 
Q 3316 2175 2541 1672 
L 1241 819 
L 3450 819 
L 3450 1369 
L 3878 1369 
L 3878 0 
L 428 0 
L 428 763 
L 1119 1241 
Q 2003 1850 2297 2278 
Q 2591 2706 2591 3278 
Q 2591 3819 2367 4101 
Q 2144 4384 1716 4384 
Q 1347 4384 1125 4161 
Q 903 3938 844 3513 
z
" transform="scale(0.015625)"/>
     </defs>
     <use xlink:href="#DejaVuSerif-Bold-1b"/>
     <use xlink:href="#DejaVuSerif-Bold-1b" transform="translate(69.578125 0)"/>
     <use xlink:href="#DejaVuSerif-Bold-11" transform="translate(139.15625 0)"/>
     <use xlink:href="#DejaVuSerif-Bold-15" transform="translate(173.96875 0)"/>
     <use xlink:href="#DejaVuSerif-Bold-1b" transform="translate(243.546875 0)"/>
    </g>
   </g>
   <g id="text_23">
    <!-- 73.45 -->
    <g style="fill: #8250df" transform="translate(139.669915 1074.738337) scale(0.08 -0.08)">
     <defs>
      <path id="DejaVuSerif-Bold-18" d="M 3609 4666 
L 3609 3847 
L 1113 3847 
L 1113 2822 
Q 1319 2981 1572 3062 
Q 1825 3144 2106 3144 
Q 2969 3144 3469 2708 
Q 3969 2272 3969 1522 
Q 3969 759 3469 334 
Q 2969 -91 2069 -91 
Q 1688 -91 1311 -28 
Q 934 34 525 166 
L 525 1184 
L 900 1184 
Q 919 725 1139 500 
Q 1359 275 1791 275 
Q 2250 275 2472 583 
Q 2694 891 2694 1522 
Q 2694 2144 2476 2451 
Q 2259 2759 1819 2759 
Q 1581 2759 1395 2661 
Q 1209 2563 1050 2356 
L 738 2356 
L 738 4666 
L 3609 4666 
z
" transform="scale(0.015625)"/>
     </defs>
     <use xlink:href="#DejaVuSerif-Bold-1a"/>
     <use xlink:href="#DejaVuSerif-Bold-16" transform="translate(69.578125 0)"/>
     <use xlink:href="#DejaVuSerif-Bold-11" transform="translate(139.15625 0)"/>
     <use xlink:href="#DejaVuSerif-Bold-17" transform="translate(173.96875 0)"/>
     <use xlink:href="#DejaVuSerif-Bold-18" transform="translate(243.546875 0)"/>
    </g>
   </g>
   <g id="text_24">
    <!-- 73.58 -->
    <g style="fill: #8250df" transform="translate(269.215369 1066.089698) scale(0.08 -0.08)">
     <use xlink:href="#DejaVuSerif-Bold-1a"/>
     <use xlink:href="#DejaVuSerif-Bold-16" transform="translate(69.578125 0)"/>
     <use xlink:href="#DejaVuSerif-Bold-11" transform="translate(139.15625 0)"/>
     <use xlink:href="#DejaVuSerif-Bold-18" transform="translate(173.96875 0)"/>
     <use xlink:href="#DejaVuSerif-Bold-1b" transform="translate(243.546875 0)"/>
    </g>
   </g>
   <g id="text_25">
    <!-- 72.82 -->
    <g style="fill: #8250df" transform="translate(398.760824 1116.650978) scale(0.08 -0.08)">
     <use xlink:href="#DejaVuSerif-Bold-1a"/>
     <use xlink:href="#DejaVuSerif-Bold-15" transform="translate(69.578125 0)"/>
     <use xlink:href="#DejaVuSerif-Bold-11" transform="translate(139.15625 0)"/>
     <use xlink:href="#DejaVuSerif-Bold-1b" transform="translate(173.96875 0)"/>
     <use xlink:href="#DejaVuSerif-Bold-15" transform="translate(243.546875 0)"/>
    </g>
   </g>
   <g id="text_26">
    <!-- 73.35 -->
    <g style="fill: #8250df" transform="translate(528.306278 1081.391137) scale(0.08 -0.08)">
     <use xlink:href="#DejaVuSerif-Bold-1a"/>
     <use xlink:href="#DejaVuSerif-Bold-16" transform="translate(69.578125 0)"/>
     <use xlink:href="#DejaVuSerif-Bold-11" transform="translate(139.15625 0)"/>
     <use xlink:href="#DejaVuSerif-Bold-16" transform="translate(173.96875 0)"/>
     <use xlink:href="#DejaVuSerif-Bold-18" transform="translate(243.546875 0)"/>
    </g>
   </g>
   <g id="text_27">
    <!-- Ablation Study on TwiBot-20 (seed 42) -->
    <g style="fill: #1f2328" transform="translate(164.271406 13.517812) scale(0.14 -0.14)">
     <defs>
      <path id="DejaVuSerif-Bold-24" d="M -50 0 
L -50 378 
L 331 378 
L 2088 4666 
L 2834 4666 
L 4594 378 
L 5038 378 
L 5038 0 
L 2853 0 
L 2853 378 
L 3309 378 
L 2925 1331 
L 1172 1331 
L 781 378 
L 1338 378 
L 1338 0 
L -50 0 
z
M 1325 1709 
L 2772 1709 
L 2053 3494 
L 1325 1709 
z
" transform="scale(0.015625)"/>
      <path id="DejaVuSerif-Bold-45" d="M 622 378 
L 622 4488 
L 147 4488 
L 147 4863 
L 1728 4863 
L 1728 2900 
Q 1869 3159 2106 3286 
Q 2344 3413 2694 3413 
Q 3403 3413 3811 2945 
Q 4219 2478 4219 1663 
Q 4219 847 3811 378 
Q 3403 -91 2694 -91 
Q 2344 -91 2106 36 
Q 1869 163 1728 422 
L 1728 0 
L 147 0 
L 147 378 
L 622 378 
z
M 1728 1497 
Q 1728 916 1876 656 
Q 2025 397 2356 397 
Q 2697 397 2836 672 
Q 2975 947 2975 1663 
Q 2975 2378 2836 2651 
Q 2697 2925 2356 2925 
Q 2025 2925 1876 2665 
Q 1728 2406 1728 1825 
L 1728 1497 
z
" transform="scale(0.015625)"/>
      <path id="DejaVuSerif-Bold-4f" d="M 1797 378 
L 2272 378 
L 2272 0 
L 219 0 
L 219 378 
L 691 378 
L 691 4488 
L 219 4488 
L 219 4863 
L 1797 4863 
L 1797 378 
z
" transform="scale(0.015625)"/>
      <path id="DejaVuSerif-Bold-44" d="M 3525 2041 
L 3525 378 
L 4000 378 
L 4000 0 
L 2419 0 
L 2419 422 
Q 2200 159 1931 34 
Q 1663 -91 1319 -91 
Q 809 -91 536 182 
Q 263 456 263 966 
Q 263 1525 655 1803 
Q 1047 2081 1838 2081 
L 2419 2081 
L 2419 2278 
Q 2419 2681 2228 2873 
Q 2038 3066 1638 3066 
Q 1306 3066 1126 2930 
Q 947 2794 872 2484 
L 519 2484 
L 519 3200 
Q 816 3306 1134 3359 
Q 1453 3413 1806 3413 
Q 2697 3413 3111 3081 
Q 3525 2750 3525 2041 
z
M 2419 1044 
L 2419 1709 
L 2003 1709 
Q 1694 1709 1528 1540 
Q 1363 1372 1363 1056 
Q 1363 741 1483 584 
Q 1603 428 1850 428 
Q 2106 428 2262 597 
Q 2419 766 2419 1044 
z
" transform="scale(0.015625)"/>
      <path id="DejaVuSerif-Bold-57" d="M 634 2944 
L 153 2944 
L 153 3322 
L 634 3322 
L 634 4353 
L 1741 4353 
L 1741 3322 
L 2663 3322 
L 2663 2944 
L 1741 2944 
L 1741 909 
Q 1741 475 1809 369 
Q 1878 263 2059 263 
Q 2259 263 2356 397 
Q 2453 531 2459 813 
L 2925 813 
Q 2897 313 2651 111 
Q 2406 -91 1806 -91 
Q 1122 -91 878 123 
Q 634 338 634 909 
L 634 2944 
z
" transform="scale(0.015625)"/>
      <path id="DejaVuSerif-Bold-4c" d="M 588 4263 
Q 588 4516 763 4689 
Q 938 4863 1191 4863 
Q 1438 4863 1611 4689 
Q 1784 4516 1784 4263 
Q 1784 4016 1611 3842 
Q 1438 3669 1191 3669 
Q 938 3669 763 3841 
Q 588 4013 588 4263 
z
M 1797 378 
L 2272 378 
L 2272 0 
L 219 0 
L 219 378 
L 691 378 
L 691 2944 
L 219 2944 
L 219 3322 
L 1797 3322 
L 1797 378 
z
" transform="scale(0.015625)"/>
      <path id="DejaVuSerif-Bold-52" d="M 2138 263 
Q 2488 263 2630 563 
Q 2772 863 2772 1663 
Q 2772 2463 2631 2761 
Q 2491 3059 2138 3059 
Q 1784 3059 1640 2757 
Q 1497 2456 1497 1663 
Q 1497 869 1640 566 
Q 1784 263 2138 263 
z
M 2138 -91 
Q 1259 -91 761 376 
Q 263 844 263 1663 
Q 263 2484 761 2948 
Q 1259 3413 2138 3413 
Q 3019 3413 3516 2948 
Q 4013 2484 4013 1663 
Q 4013 844 3514 376 
Q 3016 -91 2138 -91 
z
" transform="scale(0.015625)"/>
      <path id="DejaVuSerif-Bold-51" d="M 219 0 
L 219 378 
L 691 378 
L 691 2944 
L 219 2944 
L 219 3322 
L 1797 3322 
L 1797 2853 
Q 1997 3150 2253 3281 
Q 2509 3413 2900 3413 
Q 3459 3413 3745 3083 
Q 4031 2753 4031 2113 
L 4031 378 
L 4506 378 
L 4506 0 
L 2522 0 
L 2522 378 
L 2925 378 
L 2925 2144 
Q 2925 2566 2817 2730 
Q 2709 2894 2444 2894 
Q 2109 2894 1953 2648 
Q 1797 2403 1797 1869 
L 1797 378 
L 2203 378 
L 2203 0 
L 219 0 
z
" transform="scale(0.015625)"/>
      <path id="DejaVuSerif-Bold-3" transform="scale(0.015625)"/>
      <path id="DejaVuSerif-Bold-36" d="M 494 225 
L 494 1331 
L 891 1331 
Q 981 806 1318 547 
Q 1656 288 2253 288 
Q 2738 288 2991 472 
Q 3244 656 3244 1013 
Q 3244 1294 3072 1450 
Q 2900 1606 2363 1741 
L 1663 1913 
Q 978 2088 700 2398 
Q 422 2709 422 3284 
Q 422 3978 883 4364 
Q 1344 4750 2175 4750 
Q 2584 4750 3026 4681 
Q 3469 4613 3944 4475 
L 3944 3444 
L 3547 3444 
Q 3456 3925 3150 4148 
Q 2844 4372 2278 4372 
Q 1816 4372 1580 4211 
Q 1344 4050 1344 3731 
Q 1344 3441 1506 3289 
Q 1669 3138 2303 2975 
L 3003 2803 
Q 3653 2641 3945 2297 
Q 4238 1953 4238 1350 
Q 4238 644 3750 276 
Q 3263 -91 2316 -91 
Q 1859 -91 1409 -12 
Q 959 66 494 225 
z
" transform="scale(0.015625)"/>
      <path id="DejaVuSerif-Bold-58" d="M 3963 3322 
L 3963 378 
L 4434 378 
L 4434 0 
L 2853 0 
L 2853 469 
Q 2656 172 2400 40 
Q 2144 -91 1753 -91 
Q 1194 -91 908 239 
Q 622 569 622 1209 
L 622 2944 
L 147 2944 
L 147 3322 
L 1728 3322 
L 1728 1381 
Q 1728 763 1831 595 
Q 1934 428 2209 428 
Q 2544 428 2698 675 
Q 2853 922 2853 1459 
L 2853 2944 
L 2450 2944 
L 2450 3322 
L 3963 3322 
z
" transform="scale(0.015625)"/>
      <path id="DejaVuSerif-Bold-47" d="M 2747 1497 
L 2747 1825 
Q 2747 2406 2597 2665 
Q 2447 2925 2119 2925 
Q 1775 2925 1636 2651 
Q 1497 2378 1497 1663 
Q 1497 947 1637 672 
Q 1778 397 2119 397 
Q 2447 397 2597 656 
Q 2747 916 2747 1497 
z
M 3853 378 
L 4325 378 
L 4325 0 
L 2747 0 
L 2747 422 
Q 2606 163 2367 36 
Q 2128 -91 1778 -91 
Q 1072 -91 667 378 
Q 263 847 263 1663 
Q 263 2481 667 2947 
Q 1072 3413 1778 3413 
Q 2128 3413 2367 3286 
Q 2606 3159 2747 2900 
L 2747 4488 
L 2272 4488 
L 2272 4863 
L 3853 4863 
L 3853 378 
z
" transform="scale(0.015625)"/>
      <path id="DejaVuSerif-Bold-5c" d="M 1997 -750 
Q 1847 -1116 1634 -1269 
Q 1422 -1422 1063 -1422 
Q 909 -1422 721 -1387 
Q 534 -1353 313 -1288 
L 313 -594 
L 666 -597 
Q 675 -838 779 -953 
Q 884 -1069 1094 -1069 
Q 1297 -1069 1422 -958 
Q 1547 -847 1672 -538 
L 1722 -422 
L 275 2944 
L -84 2944 
L -84 3322 
L 1831 3322 
L 1831 2944 
L 1434 2944 
L 2278 978 
L 3066 2944 
L 2625 2944 
L 2625 3322 
L 3872 3322 
L 3872 2944 
L 3469 2944 
L 1997 -750 
z
" transform="scale(0.015625)"/>
      <path id="DejaVuSerif-Bold-37" d="M 1159 0 
L 1159 378 
L 1778 378 
L 1778 4238 
L 500 4238 
L 500 3500 
L 72 3500 
L 72 4666 
L 4697 4666 
L 4697 3500 
L 4275 3500 
L 4275 4238 
L 2988 4238 
L 2988 378 
L 3609 378 
L 3609 0 
L 1159 0 
z
" transform="scale(0.015625)"/>
      <path id="DejaVuSerif-Bold-5a" d="M 3450 3322 
L 4206 1106 
L 4831 2944 
L 4397 2944 
L 4397 3322 
L 5638 3322 
L 5638 2944 
L 5247 2944 
L 4244 0 
L 3481 0 
L 2778 2081 
L 2069 0 
L 1313 0 
L 306 2944 
L -56 2944 
L -56 3322 
L 1825 3322 
L 1825 2944 
L 1434 2944 
L 2047 1147 
L 2791 3322 
L 3450 3322 
z
" transform="scale(0.015625)"/>
      <path id="DejaVuSerif-Bold-25" d="M 300 0 
L 300 378 
L 897 378 
L 897 4288 
L 300 4288 
L 300 4666 
L 3066 4666 
Q 3919 4666 4347 4378 
Q 4775 4091 4775 3513 
Q 4775 3097 4479 2853 
Q 4184 2609 3603 2547 
Q 4306 2481 4681 2172 
Q 5056 1863 5056 1350 
Q 5056 656 4532 328 
Q 4009 0 2894 0 
L 300 0 
z
M 2100 2719 
L 2509 2719 
Q 3047 2719 3306 2914 
Q 3566 3109 3566 3513 
Q 3566 3919 3314 4103 
Q 3063 4288 2509 4288 
L 2100 4288 
L 2100 2719 
z
M 2100 378 
L 2547 378 
Q 3144 378 3431 615 
Q 3719 853 3719 1350 
Q 3719 1850 3428 2097 
Q 3138 2344 2547 2344 
L 2100 2344 
L 2100 378 
z
" transform="scale(0.015625)"/>
      <path id="DejaVuSerif-Bold-10" d="M 347 2138 
L 2309 2138 
L 2309 1294 
L 347 1294 
L 347 2138 
z
" transform="scale(0.015625)"/>
      <path id="DejaVuSerif-Bold-b" d="M 2694 -997 
Q 1641 -606 1122 122 
Q 603 850 603 1931 
Q 603 3013 1115 3731 
Q 1628 4450 2694 4863 
L 2694 4488 
Q 2200 4188 1983 3598 
Q 1766 3009 1766 1931 
Q 1766 856 1983 267 
Q 2200 -322 2694 -622 
L 2694 -997 
z
" transform="scale(0.015625)"/>
      <path id="DejaVuSerif-Bold-56" d="M 300 97 
L 300 1025 
L 653 1025 
Q 697 653 931 458 
Q 1166 263 1569 263 
Q 1906 263 2086 380 
Q 2266 497 2266 716 
Q 2266 916 2152 1025 
Q 2038 1134 1709 1216 
L 1253 1331 
Q 738 1459 506 1698 
Q 275 1938 275 2344 
Q 275 2884 650 3148 
Q 1025 3413 1806 3413 
Q 2100 3413 2433 3364 
Q 2766 3316 3169 3213 
L 3169 2375 
L 2816 2375 
Q 2788 2716 2573 2887 
Q 2359 3059 1959 3059 
Q 1622 3059 1448 2951 
Q 1275 2844 1275 2638 
Q 1275 2469 1375 2372 
Q 1475 2275 1734 2209 
L 2188 2094 
Q 2841 1928 3091 1684 
Q 3341 1441 3341 1006 
Q 3341 444 2939 176 
Q 2538 -91 1691 -91 
Q 1381 -91 1034 -44 
Q 688 3 300 97 
z
" transform="scale(0.015625)"/>
      <path id="DejaVuSerif-Bold-48" d="M 2566 1875 
Q 2566 2531 2444 2795 
Q 2322 3059 2028 3059 
Q 1744 3059 1620 2800 
Q 1497 2541 1497 1931 
L 1497 1875 
L 2566 1875 
z
M 3781 1503 
L 1497 1503 
L 1497 1478 
Q 1497 834 1690 548 
Q 1884 263 2316 263 
Q 2675 263 2897 453 
Q 3119 644 3181 1006 
L 3700 1006 
Q 3566 441 3166 175 
Q 2766 -91 2047 -91 
Q 1184 -91 723 364 
Q 263 819 263 1663 
Q 263 2488 734 2950 
Q 1206 3413 2047 3413 
Q 2872 3413 3312 2927 
Q 3753 2441 3781 1503 
z
" transform="scale(0.015625)"/>
      <path id="DejaVuSerif-Bold-c" d="M 325 -997 
L 325 -622 
Q 819 -322 1036 267 
Q 1253 856 1253 1931 
Q 1253 3009 1036 3598 
Q 819 4188 325 4488 
L 325 4863 
Q 1391 4450 1905 3731 
Q 2419 3013 2419 1931 
Q 2419 850 1898 122 
Q 1378 -606 325 -997 
z
" transform="scale(0.015625)"/>
     </defs>
     <use xlink:href="#DejaVuSerif-Bold-24"/>
     <use xlink:href="#DejaVuSerif-Bold-45" transform="translate(77.59375 0)"/>
     <use xlink:href="#DejaVuSerif-Bold-4f" transform="translate(147.515625 0)"/>
     <use xlink:href="#DejaVuSerif-Bold-44" transform="translate(185.5 0)"/>
     <use xlink:href="#DejaVuSerif-Bold-57" transform="translate(250.296875 0)"/>
     <use xlink:href="#DejaVuSerif-Bold-4c" transform="translate(296.484375 0)"/>
     <use xlink:href="#DejaVuSerif-Bold-52" transform="translate(334.46875 0)"/>
     <use xlink:href="#DejaVuSerif-Bold-51" transform="translate(401.171875 0)"/>
     <use xlink:href="#DejaVuSerif-Bold-3" transform="translate(473.875 0)"/>
     <use xlink:href="#DejaVuSerif-Bold-36" transform="translate(508.6875 0)"/>
     <use xlink:href="#DejaVuSerif-Bold-57" transform="translate(580.90625 0)"/>
     <use xlink:href="#DejaVuSerif-Bold-58" transform="translate(627.09375 0)"/>
     <use xlink:href="#DejaVuSerif-Bold-47" transform="translate(699.796875 0)"/>
     <use xlink:href="#DejaVuSerif-Bold-5c" transform="translate(769.71875 0)"/>
     <use xlink:href="#DejaVuSerif-Bold-3" transform="translate(827.828125 0)"/>
     <use xlink:href="#DejaVuSerif-Bold-52" transform="translate(862.640625 0)"/>
     <use xlink:href="#DejaVuSerif-Bold-51" transform="translate(929.34375 0)"/>
     <use xlink:href="#DejaVuSerif-Bold-3" transform="translate(1002.046875 0)"/>
     <use xlink:href="#DejaVuSerif-Bold-37" transform="translate(1036.859375 0)"/>
     <use xlink:href="#DejaVuSerif-Bold-5a" transform="translate(1100.296875 0)"/>
     <use xlink:href="#DejaVuSerif-Bold-4c" transform="translate(1186.375 0)"/>
     <use xlink:href="#DejaVuSerif-Bold-25" transform="translate(1224.359375 0)"/>
     <use xlink:href="#DejaVuSerif-Bold-52" transform="translate(1308.875 0)"/>
     <use xlink:href="#DejaVuSerif-Bold-57" transform="translate(1375.578125 0)"/>
     <use xlink:href="#DejaVuSerif-Bold-10" transform="translate(1421.765625 0)"/>
     <use xlink:href="#DejaVuSerif-Bold-15" transform="translate(1463.265625 0)"/>
     <use xlink:href="#DejaVuSerif-Bold-13" transform="translate(1532.84375 0)"/>
     <use xlink:href="#DejaVuSerif-Bold-3" transform="translate(1602.421875 0)"/>
     <use xlink:href="#DejaVuSerif-Bold-b" transform="translate(1637.234375 0)"/>
     <use xlink:href="#DejaVuSerif-Bold-56" transform="translate(1684.546875 0)"/>
     <use xlink:href="#DejaVuSerif-Bold-48" transform="translate(1740.84375 0)"/>
     <use xlink:href="#DejaVuSerif-Bold-48" transform="translate(1804.46875 0)"/>
     <use xlink:href="#DejaVuSerif-Bold-47" transform="translate(1868.09375 0)"/>
     <use xlink:href="#DejaVuSerif-Bold-3" transform="translate(1938.015625 0)"/>
     <use xlink:href="#DejaVuSerif-Bold-17" transform="translate(1972.828125 0)"/>
     <use xlink:href="#DejaVuSerif-Bold-15" transform="translate(2042.40625 0)"/>
     <use xlink:href="#DejaVuSerif-Bold-c" transform="translate(2111.984375 0)"/>
    </g>
   </g>
   <g id="legend_1">
    <g id="patch_17">
     <path d="M 472.134688 286.629812 
L 575.472188 286.629812 
L 575.472188 238.627469 
L 472.134688 238.627469 
z
" style="fill: #ffffff; stroke: #d0d7de; stroke-linejoin: miter"/>
    </g>
    <g id="patch_18">
     <path d="M 476.134688 250.225906 
L 496.134688 250.225906 
L 496.134688 243.225906 
L 476.134688 243.225906 
z
" style="fill: #0969da; stroke: #ffffff; stroke-width: 0.7; stroke-linejoin: miter"/>
    </g>
    <g id="text_28">
     <!-- Accuracy (%) -->
     <g style="fill: #1f2328" transform="translate(504.134688 250.225906) scale(0.1 -0.1)">
      <defs>
       <path id="DejaVuSerif-24" d="M 1281 1691 
L 2994 1691 
L 2138 3909 
L 1281 1691 
z
M -38 0 
L -38 331 
L 372 331 
L 2034 4666 
L 2559 4666 
L 4225 331 
L 4684 331 
L 4684 0 
L 2988 0 
L 2988 331 
L 3506 331 
L 3116 1356 
L 1153 1356 
L 763 331 
L 1275 331 
L 1275 0 
L -38 0 
z
" transform="scale(0.015625)"/>
       <path id="DejaVuSerif-b" d="M 2041 -997 
Q 1281 -656 893 83 
Q 506 822 506 1931 
Q 506 3044 893 3783 
Q 1281 4522 2041 4863 
L 2041 4556 
Q 1559 4225 1350 3623 
Q 1141 3022 1141 1931 
Q 1141 844 1350 242 
Q 1559 -359 2041 -691 
L 2041 -997 
z
" transform="scale(0.015625)"/>
       <path id="DejaVuSerif-8" d="M 1434 4459 
Q 1159 4459 1004 4200 
Q 850 3941 850 3475 
Q 850 3016 1008 2753 
Q 1166 2491 1434 2491 
Q 1700 2491 1854 2752 
Q 2009 3013 2009 3475 
Q 2009 3938 1854 4198 
Q 1700 4459 1434 4459 
z
M 4653 2169 
Q 4381 2169 4226 1906 
Q 4072 1644 4072 1178 
Q 4072 719 4228 458 
Q 4384 197 4653 197 
Q 4922 197 5075 458 
Q 5228 719 5228 1178 
Q 5228 1641 5073 1905 
Q 4919 2169 4653 2169 
z
M 4653 2450 
Q 5147 2450 5437 2106 
Q 5728 1763 5728 1178 
Q 5728 594 5436 251 
Q 5144 -91 4653 -91 
Q 4153 -91 3862 251 
Q 3572 594 3572 1178 
Q 3572 1766 3864 2108 
Q 4156 2450 4653 2450 
z
M 4263 4750 
L 4738 4750 
L 1819 -91 
L 1344 -91 
L 4263 4750 
z
M 1428 4750 
Q 1922 4750 2215 4408 
Q 2509 4066 2509 3481 
Q 2509 2891 2217 2550 
Q 1925 2209 1428 2209 
Q 931 2209 642 2551 
Q 353 2894 353 3481 
Q 353 4063 643 4406 
Q 934 4750 1428 4750 
z
" transform="scale(0.015625)"/>
       <path id="DejaVuSerif-c" d="M 453 -997 
L 453 -691 
Q 934 -359 1145 242 
Q 1356 844 1356 1931 
Q 1356 3022 1145 3623 
Q 934 4225 453 4556 
L 453 4863 
Q 1216 4522 1603 3783 
Q 1991 3044 1991 1931 
Q 1991 822 1603 83 
Q 1216 -656 453 -997 
z
" transform="scale(0.015625)"/>
      </defs>
      <use xlink:href="#DejaVuSerif-24"/>
      <use xlink:href="#DejaVuSerif-46" transform="translate(72.21875 0)"/>
      <use xlink:href="#DejaVuSerif-46" transform="translate(128.21875 0)"/>
      <use xlink:href="#DejaVuSerif-58" transform="translate(184.21875 0)"/>
      <use xlink:href="#DejaVuSerif-55" transform="translate(248.625 0)"/>
      <use xlink:href="#DejaVuSerif-44" transform="translate(296.421875 0)"/>
      <use xlink:href="#DejaVuSerif-46" transform="translate(356.046875 0)"/>
      <use xlink:href="#DejaVuSerif-5c" transform="translate(412.046875 0)"/>
      <use xlink:href="#DejaVuSerif-3" transform="translate(468.546875 0)"/>
      <use xlink:href="#DejaVuSerif-b" transform="translate(500.328125 0)"/>
      <use xlink:href="#DejaVuSerif-8" transform="translate(539.34375 0)"/>
      <use xlink:href="#DejaVuSerif-c" transform="translate(634.359375 0)"/>
     </g>
    </g>
    <g id="patch_19">
     <path d="M 476.134688 265.226688 
L 496.134688 265.226688 
L 496.134688 258.226688 
L 476.134688 258.226688 
z
" style="fill: #cf222e; stroke: #ffffff; stroke-width: 0.7; stroke-linejoin: miter"/>
    </g>
    <g id="text_29">
     <!-- F1 (%) -->
     <g style="fill: #1f2328" transform="translate(504.134688 265.226688) scale(0.1 -0.1)">
      <defs>
       <path id="DejaVuSerif-14" d="M 909 0 
L 909 331 
L 1722 331 
L 1722 4213 
L 781 3603 
L 781 4013 
L 1919 4750 
L 2350 4750 
L 2350 331 
L 3163 331 
L 3163 0 
L 909 0 
z
" transform="scale(0.015625)"/>
      </defs>
      <use xlink:href="#DejaVuSerif-29"/>
      <use xlink:href="#DejaVuSerif-14" transform="translate(69.390625 0)"/>
      <use xlink:href="#DejaVuSerif-3" transform="translate(133.015625 0)"/>
      <use xlink:href="#DejaVuSerif-b" transform="translate(164.796875 0)"/>
      <use xlink:href="#DejaVuSerif-8" transform="translate(203.8125 0)"/>
      <use xlink:href="#DejaVuSerif-c" transform="translate(298.828125 0)"/>
     </g>
    </g>
    <g id="patch_20">
     <path d="M 476.134688 280.227469 
L 496.134688 280.227469 
L 496.134688 273.227469 
L 476.134688 273.227469 
z
" style="fill: #8250df; stroke: #ffffff; stroke-width: 0.7; stroke-linejoin: miter"/>
    </g>
    <g id="text_30">
     <!-- MCC (×100) -->
     <g style="fill: #1f2328" transform="translate(504.134688 280.227469) scale(0.1 -0.1)">
      <defs>
       <path id="DejaVuSerif-30" d="M 353 0 
L 353 331 
L 947 331 
L 947 4331 
L 319 4331 
L 319 4666 
L 1678 4666 
L 3316 1344 
L 4953 4666 
L 6228 4666 
L 6228 4331 
L 5606 4331 
L 5606 331 
L 6203 331 
L 6203 0 
L 4378 0 
L 4378 331 
L 4972 331 
L 4972 3938 
L 3372 684 
L 2931 684 
L 1331 3938 
L 1331 331 
L 1925 331 
L 1925 0 
L 353 0 
z
" transform="scale(0.015625)"/>
       <path id="DejaVuSerif-26" d="M 4513 1234 
Q 4306 581 3820 245 
Q 3334 -91 2591 -91 
Q 2134 -91 1743 65 
Q 1353 222 1050 525 
Q 700 875 529 1320 
Q 359 1766 359 2328 
Q 359 3416 987 4083 
Q 1616 4750 2644 4750 
Q 3025 4750 3456 4650 
Q 3888 4550 4384 4347 
L 4384 3272 
L 4031 3272 
Q 3916 3859 3567 4137 
Q 3219 4416 2591 4416 
Q 1844 4416 1459 3886 
Q 1075 3356 1075 2328 
Q 1075 1303 1459 773 
Q 1844 244 2591 244 
Q 3113 244 3450 492 
Q 3788 741 3938 1234 
L 4513 1234 
z
" transform="scale(0.015625)"/>
       <path id="DejaVuSerif-99" d="M 4481 3450 
L 3034 2003 
L 4481 563 
L 4122 213 
L 2681 1650 
L 1241 213 
L 884 563 
L 2322 2003 
L 884 3450 
L 1241 3803 
L 2681 2363 
L 4122 3803 
L 4481 3450 
z
" transform="scale(0.015625)"/>
      </defs>
      <use xlink:href="#DejaVuSerif-30"/>
      <use xlink:href="#DejaVuSerif-26" transform="translate(102.390625 0)"/>
      <use xlink:href="#DejaVuSerif-26" transform="translate(178.90625 0)"/>
      <use xlink:href="#DejaVuSerif-3" transform="translate(255.421875 0)"/>
      <use xlink:href="#DejaVuSerif-b" transform="translate(287.203125 0)"/>
      <use xlink:href="#DejaVuSerif-99" transform="translate(326.21875 0)"/>
      <use xlink:href="#DejaVuSerif-14" transform="translate(410.015625 0)"/>
      <use xlink:href="#DejaVuSerif-13" transform="translate(473.640625 0)"/>
      <use xlink:href="#DejaVuSerif-13" transform="translate(537.265625 0)"/>
      <use xlink:href="#DejaVuSerif-c" transform="translate(600.890625 0)"/>
     </g>
    </g>
   </g>
  </g>
 </g>
 <defs>
  <clipPath id="p3530771c1d">
   <rect x="50.372188" y="25.517812" width="530.1" height="266.112"/>
  </clipPath>
 </defs>
</svg>
