<?xml version="1.0" encoding="utf-8" standalone="no"?>
<!DOCTYPE svg PUBLIC "-//W3C//DTD SVG 1.1//EN"
  "http://www.w3.org/Graphics/SVG/1.1/DTD/svg11.dtd">
<svg xmlns:xlink="http://www.w3.org/1999/xlink" width="438.161719pt" height="308.043047pt" viewBox="0 0 438.161719 308.043047" xmlns="http://www.w3.org/2000/svg" version="1.1">
 <metadata>
  <rdf:RDF xmlns:dc="http://purl.org/dc/elements/1.1/" xmlns:cc="http://creativecommons.org/ns#" xmlns:rdf="http://www.w3.org/1999/02/22-rdf-syntax-ns#">
   <cc:Work>
    <dc:type rdf:resource="http://purl.org/dc/dcmitype/StillImage"/>
    <dc:date>2026-07-04T00:50:36.744324</dc:date>
    <dc:format>image/svg+xml</dc:format>
    <dc:creator>
     <cc:Agent>
      <dc:title>Matplotlib v3.11.0, https://matplotlib.org/</dc:title>
     </cc:Agent>
    </dc:creator>
   </cc:Work>
  </rdf:RDF>
 </metadata>
 <defs>
  <style type="text/css">*{stroke-linejoin: round; stroke-linecap: butt}</style>
 </defs>
 <g id="figure_1">
  <g id="patch_1">
   <path d="M 0 308.043047 
L 438.161719 308.043047 
L 438.161719 0 
L 0 0 
z
" style="fill: #ffffff"/>
  </g>
  <g id="axes_1">
   <g id="patch_2">
    <path d="M 45.964766 269.16 
L 435.281719 269.16 
L 435.281719 25.52 
L 45.964766 25.52 
z
" style="fill: #ffffff"/>
   </g>
   <g id="matplotlib.axis_1">
    <g id="xtick_1">
     <g id="line2d_1">
      <path d="M 60.049516 269.16 
L 60.049516 25.52 
" clip-path="url(#p2a4157a2df)" style="fill: none; stroke: #d0d7de; stroke-opacity: 0.35; stroke-width: 0.8; stroke-linecap: square"/>
     </g>
     <g id="line2d_2">
      <defs>
       <path id="me81f133b11" d="M 0 0 
L 0 3.5 
" style="stroke: #57606a; stroke-width: 0.8"/>
      </defs>
      <g>
       <use xlink:href="#me81f133b11" x="60.049516" y="269.16" style="fill: #57606a; stroke: #57606a; stroke-width: 0.8"/>
      </g>
     </g>
     <g id="text_1">
      <!-- 0.0 -->
      <g style="fill: #57606a" transform="translate(50.507641 285.277187) scale(0.12 -0.12)">
       <defs>
        <path id="DejaVuSerif-13" d="M 2034 219 
Q 2513 219 2750 744 
Q 2988 1269 2988 2328 
Q 2988 3391 2750 3916 
Q 2513 4441 2034 4441 
Q 1556 4441 1318 3916 
Q 1081 3391 1081 2328 
Q 1081 1269 1318 744 
Q 1556 219 2034 219 
z
M 2034 -91 
Q 1275 -91 848 546 
Q 422 1184 422 2328 
Q 422 3475 848 4112 
Q 1275 4750 2034 4750 
Q 2797 4750 3222 4112 
Q 3647 3475 3647 2328 
Q 3647 1184 3222 546 
Q 2797 -91 2034 -91 
z
" transform="scale(0.015625)"/>
        <path id="DejaVuSerif-11" d="M 603 325 
Q 603 500 722 622 
Q 841 744 1019 744 
Q 1191 744 1312 622 
Q 1434 500 1434 325 
Q 1434 153 1312 31 
Q 1191 -91 1019 -91 
Q 841 -91 722 29 
Q 603 150 603 325 
z
" transform="scale(0.015625)"/>
       </defs>
       <use xlink:href="#DejaVuSerif-13"/>
       <use xlink:href="#DejaVuSerif-11" transform="translate(63.625 0)"/>
       <use xlink:href="#DejaVuSerif-13" transform="translate(95.40625 0)"/>
      </g>
     </g>
    </g>
    <g id="xtick_2">
     <g id="line2d_3">
      <path d="M 132.279007 269.16 
L 132.279007 25.52 
" clip-path="url(#p2a4157a2df)" style="fill: none; stroke: #d0d7de; stroke-opacity: 0.35; stroke-width: 0.8; stroke-linecap: square"/>
     </g>
     <g id="line2d_4">
      <g>
       <use xlink:href="#me81f133b11" x="132.279007" y="269.16" style="fill: #57606a; stroke: #57606a; stroke-width: 0.8"/>
      </g>
     </g>
     <g id="text_2">
      <!-- 0.2 -->
      <g style="fill: #57606a" transform="translate(122.737132 285.277187) scale(0.12 -0.12)">
       <defs>
        <path id="DejaVuSerif-15" d="M 819 3553 
L 469 3553 
L 469 4384 
Q 803 4563 1142 4656 
Q 1481 4750 1806 4750 
Q 2534 4750 2956 4397 
Q 3378 4044 3378 3438 
Q 3378 2753 2422 1800 
Q 2347 1728 2309 1691 
L 1131 513 
L 3078 513 
L 3078 1088 
L 3444 1088 
L 3444 0 
L 434 0 
L 434 341 
L 1850 1753 
Q 2319 2222 2519 2614 
Q 2719 3006 2719 3438 
Q 2719 3909 2473 4175 
Q 2228 4441 1797 4441 
Q 1350 4441 1106 4219 
Q 863 3997 819 3553 
z
" transform="scale(0.015625)"/>
       </defs>
       <use xlink:href="#DejaVuSerif-13"/>
       <use xlink:href="#DejaVuSerif-11" transform="translate(63.625 0)"/>
       <use xlink:href="#DejaVuSerif-15" transform="translate(95.40625 0)"/>
      </g>
     </g>
    </g>
    <g id="xtick_3">
     <g id="line2d_5">
      <path d="M 204.508497 269.16 
L 204.508497 25.52 
" clip-path="url(#p2a4157a2df)" style="fill: none; stroke: #d0d7de; stroke-opacity: 0.35; stroke-width: 0.8; stroke-linecap: square"/>
     </g>
     <g id="line2d_6">
      <g>
       <use xlink:href="#me81f133b11" x="204.508497" y="269.16" style="fill: #57606a; stroke: #57606a; stroke-width: 0.8"/>
      </g>
     </g>
     <g id="text_3">
      <!-- 0.4 -->
      <g style="fill: #57606a" transform="translate(194.966622 285.277187) scale(0.12 -0.12)">
       <defs>
        <path id="DejaVuSerif-17" d="M 2234 1581 
L 2234 4063 
L 641 1581 
L 2234 1581 
z
M 3609 0 
L 1484 0 
L 1484 331 
L 2234 331 
L 2234 1247 
L 197 1247 
L 197 1588 
L 2241 4750 
L 2859 4750 
L 2859 1581 
L 3750 1581 
L 3750 1247 
L 2859 1247 
L 2859 331 
L 3609 331 
L 3609 0 
z
" transform="scale(0.015625)"/>
       </defs>
       <use xlink:href="#DejaVuSerif-13"/>
       <use xlink:href="#DejaVuSerif-11" transform="translate(63.625 0)"/>
       <use xlink:href="#DejaVuSerif-17" transform="translate(95.40625 0)"/>
      </g>
     </g>
    </g>
    <g id="xtick_4">
     <g id="line2d_7">
      <path d="M 276.737987 269.16 
L 276.737987 25.52 
" clip-path="url(#p2a4157a2df)" style="fill: none; stroke: #d0d7de; stroke-opacity: 0.35; stroke-width: 0.8; stroke-linecap: square"/>
     </g>
     <g id="line2d_8">
      <g>
       <use xlink:href="#me81f133b11" x="276.737987" y="269.16" style="fill: #57606a; stroke: #57606a; stroke-width: 0.8"/>
      </g>
     </g>
     <g id="text_4">
      <!-- 0.6 -->
      <g style="fill: #57606a" transform="translate(267.196112 285.277187) scale(0.12 -0.12)">
       <defs>
        <path id="DejaVuSerif-19" d="M 2094 219 
Q 2534 219 2771 542 
Q 3009 866 3009 1472 
Q 3009 2078 2771 2401 
Q 2534 2725 2094 2725 
Q 1647 2725 1412 2412 
Q 1178 2100 1178 1509 
Q 1178 888 1415 553 
Q 1653 219 2094 219 
z
M 1075 2569 
Q 1288 2803 1556 2918 
Q 1825 3034 2163 3034 
Q 2859 3034 3264 2615 
Q 3669 2197 3669 1472 
Q 3669 763 3233 336 
Q 2797 -91 2069 -91 
Q 1278 -91 853 498 
Q 428 1088 428 2181 
Q 428 3406 931 4078 
Q 1434 4750 2350 4750 
Q 2597 4750 2869 4703 
Q 3141 4656 3425 4563 
L 3425 3794 
L 3072 3794 
Q 3034 4109 2831 4275 
Q 2628 4441 2284 4441 
Q 1678 4441 1381 3981 
Q 1084 3522 1075 2569 
z
" transform="scale(0.015625)"/>
       </defs>
       <use xlink:href="#DejaVuSerif-13"/>
       <use xlink:href="#DejaVuSerif-11" transform="translate(63.625 0)"/>
       <use xlink:href="#DejaVuSerif-19" transform="translate(95.40625 0)"/>
      </g>
     </g>
    </g>
    <g id="xtick_5">
     <g id="line2d_9">
      <path d="M 348.967478 269.16 
L 348.967478 25.52 
" clip-path="url(#p2a4157a2df)" style="fill: none; stroke: #d0d7de; stroke-opacity: 0.35; stroke-width: 0.8; stroke-linecap: square"/>
     </g>
     <g id="line2d_10">
      <g>
       <use xlink:href="#me81f133b11" x="348.967478" y="269.16" style="fill: #57606a; stroke: #57606a; stroke-width: 0.8"/>
      </g>
     </g>
     <g id="text_5">
      <!-- 0.8 -->
      <g style="fill: #57606a" transform="translate(339.425603 285.277187) scale(0.12 -0.12)">
       <defs>
        <path id="DejaVuSerif-1b" d="M 2981 1275 
Q 2981 1775 2732 2051 
Q 2484 2328 2034 2328 
Q 1584 2328 1336 2051 
Q 1088 1775 1088 1275 
Q 1088 772 1336 495 
Q 1584 219 2034 219 
Q 2484 219 2732 495 
Q 2981 772 2981 1275 
z
M 2853 3541 
Q 2853 3966 2637 4203 
Q 2422 4441 2034 4441 
Q 1650 4441 1433 4203 
Q 1216 3966 1216 3541 
Q 1216 3113 1433 2875 
Q 1650 2638 2034 2638 
Q 2422 2638 2637 2875 
Q 2853 3113 2853 3541 
z
M 2516 2484 
Q 3047 2413 3344 2092 
Q 3641 1772 3641 1275 
Q 3641 619 3225 264 
Q 2809 -91 2034 -91 
Q 1263 -91 845 264 
Q 428 619 428 1275 
Q 428 1772 725 2092 
Q 1022 2413 1556 2484 
Q 1084 2569 832 2842 
Q 581 3116 581 3541 
Q 581 4103 968 4426 
Q 1356 4750 2034 4750 
Q 2713 4750 3100 4426 
Q 3488 4103 3488 3541 
Q 3488 3116 3236 2842 
Q 2984 2569 2516 2484 
z
" transform="scale(0.015625)"/>
       </defs>
       <use xlink:href="#DejaVuSerif-13"/>
       <use xlink:href="#DejaVuSerif-11" transform="translate(63.625 0)"/>
       <use xlink:href="#DejaVuSerif-1b" transform="translate(95.40625 0)"/>
      </g>
     </g>
    </g>
    <g id="xtick_6">
     <g id="line2d_11">
      <path d="M 421.196968 269.16 
L 421.196968 25.52 
" clip-path="url(#p2a4157a2df)" style="fill: none; stroke: #d0d7de; stroke-opacity: 0.35; stroke-width: 0.8; stroke-linecap: square"/>
     </g>
     <g id="line2d_12">
      <g>
       <use xlink:href="#me81f133b11" x="421.196968" y="269.16" style="fill: #57606a; stroke: #57606a; stroke-width: 0.8"/>
      </g>
     </g>
     <g id="text_6">
      <!-- 1.0 -->
      <g style="fill: #57606a" transform="translate(411.655093 285.277187) scale(0.12 -0.12)">
       <defs>
        <path id="DejaVuSerif-14" d="M 909 0 
L 909 331 
L 1722 331 
L 1722 4213 
L 781 3603 
L 781 4013 
L 1919 4750 
L 2350 4750 
L 2350 331 
L 3163 331 
L 3163 0 
L 909 0 
z
" transform="scale(0.015625)"/>
       </defs>
       <use xlink:href="#DejaVuSerif-14"/>
       <use xlink:href="#DejaVuSerif-11" transform="translate(63.625 0)"/>
       <use xlink:href="#DejaVuSerif-13" transform="translate(95.40625 0)"/>
      </g>
     </g>
    </g>
    <g id="text_7">
     <!-- Predicted probability for true class  $p_t$ -->
     <g style="fill: #1f2328" transform="translate(114.913242 302.04) scale(0.13 -0.13)">
      <defs>
       <path id="DejaVuSerif-33" d="M 1581 2375 
L 2406 2375 
Q 2872 2375 3115 2626 
Q 3359 2878 3359 3353 
Q 3359 3831 3115 4081 
Q 2872 4331 2406 4331 
L 1581 4331 
L 1581 2375 
z
M 353 0 
L 353 331 
L 947 331 
L 947 4331 
L 353 4331 
L 353 4666 
L 2559 4666 
Q 3259 4666 3668 4311 
Q 4078 3956 4078 3353 
Q 4078 2753 3668 2397 
Q 3259 2041 2559 2041 
L 1581 2041 
L 1581 331 
L 2303 331 
L 2303 0 
L 353 0 
z
" transform="scale(0.015625)"/>
       <path id="DejaVuSerif-55" d="M 3059 3328 
L 3059 2497 
L 2728 2497 
Q 2713 2744 2591 2866 
Q 2469 2988 2234 2988 
Q 1809 2988 1582 2694 
Q 1356 2400 1356 1850 
L 1356 331 
L 2022 331 
L 2022 0 
L 263 0 
L 263 331 
L 781 331 
L 781 2994 
L 231 2994 
L 231 3322 
L 1356 3322 
L 1356 2731 
Q 1525 3078 1790 3245 
Q 2056 3413 2438 3413 
Q 2578 3413 2733 3391 
Q 2888 3369 3059 3328 
z
" transform="scale(0.015625)"/>
       <path id="DejaVuSerif-48" d="M 3469 1600 
L 991 1600 
L 991 1575 
Q 991 903 1244 561 
Q 1497 219 1991 219 
Q 2369 219 2611 417 
Q 2853 616 2950 1006 
L 3413 1006 
Q 3275 459 2904 184 
Q 2534 -91 1931 -91 
Q 1203 -91 761 389 
Q 319 869 319 1663 
Q 319 2450 753 2931 
Q 1188 3413 1894 3413 
Q 2647 3413 3050 2948 
Q 3453 2484 3469 1600 
z
M 2791 1931 
Q 2772 2513 2545 2808 
Q 2319 3103 1894 3103 
Q 1497 3103 1269 2806 
Q 1041 2509 991 1931 
L 2791 1931 
z
" transform="scale(0.015625)"/>
       <path id="DejaVuSerif-47" d="M 3359 331 
L 3909 331 
L 3909 0 
L 2784 0 
L 2784 519 
Q 2616 206 2355 57 
Q 2094 -91 1709 -91 
Q 1097 -91 708 395 
Q 319 881 319 1663 
Q 319 2444 706 2928 
Q 1094 3413 1709 3413 
Q 2094 3413 2355 3264 
Q 2616 3116 2784 2803 
L 2784 4531 
L 2241 4531 
L 2241 4863 
L 3359 4863 
L 3359 331 
z
M 2784 1497 
L 2784 1825 
Q 2784 2422 2554 2737 
Q 2325 3053 1888 3053 
Q 1444 3053 1217 2703 
Q 991 2353 991 1663 
Q 991 975 1217 622 
Q 1444 269 1888 269 
Q 2325 269 2554 583 
Q 2784 897 2784 1497 
z
" transform="scale(0.015625)"/>
       <path id="DejaVuSerif-4c" d="M 622 4353 
Q 622 4497 726 4603 
Q 831 4709 978 4709 
Q 1122 4709 1226 4603 
Q 1331 4497 1331 4353 
Q 1331 4206 1228 4103 
Q 1125 4000 978 4000 
Q 831 4000 726 4103 
Q 622 4206 622 4353 
z
M 1356 331 
L 1900 331 
L 1900 0 
L 231 0 
L 231 331 
L 781 331 
L 781 2988 
L 231 2988 
L 231 3322 
L 1356 3322 
L 1356 331 
z
" transform="scale(0.015625)"/>
       <path id="DejaVuSerif-46" d="M 3291 997 
Q 3169 466 2822 187 
Q 2475 -91 1925 -91 
Q 1200 -91 759 389 
Q 319 869 319 1663 
Q 319 2459 759 2936 
Q 1200 3413 1925 3413 
Q 2241 3413 2553 3339 
Q 2866 3266 3181 3116 
L 3181 2266 
L 2847 2266 
Q 2781 2703 2561 2903 
Q 2341 3103 1931 3103 
Q 1466 3103 1228 2742 
Q 991 2381 991 1663 
Q 991 944 1227 581 
Q 1463 219 1931 219 
Q 2303 219 2525 412 
Q 2747 606 2828 997 
L 3291 997 
z
" transform="scale(0.015625)"/>
       <path id="DejaVuSerif-57" d="M 691 2988 
L 184 2988 
L 184 3322 
L 691 3322 
L 691 4353 
L 1269 4353 
L 1269 3322 
L 2350 3322 
L 2350 2988 
L 1269 2988 
L 1269 878 
Q 1269 456 1350 337 
Q 1431 219 1650 219 
Q 1875 219 1978 351 
Q 2081 484 2088 781 
L 2522 781 
Q 2497 328 2275 118 
Q 2053 -91 1600 -91 
Q 1103 -91 897 129 
Q 691 350 691 878 
L 691 2988 
z
" transform="scale(0.015625)"/>
       <path id="DejaVuSerif-3" transform="scale(0.015625)"/>
       <path id="DejaVuSerif-53" d="M 1313 1825 
L 1313 1497 
Q 1313 897 1542 583 
Q 1772 269 2209 269 
Q 2650 269 2876 622 
Q 3103 975 3103 1663 
Q 3103 2353 2876 2703 
Q 2650 3053 2209 3053 
Q 1772 3053 1542 2737 
Q 1313 2422 1313 1825 
z
M 738 2988 
L 184 2988 
L 184 3322 
L 1313 3322 
L 1313 2803 
Q 1481 3116 1742 3264 
Q 2003 3413 2388 3413 
Q 3000 3413 3387 2928 
Q 3775 2444 3775 1663 
Q 3775 881 3387 395 
Q 3000 -91 2388 -91 
Q 2003 -91 1742 57 
Q 1481 206 1313 519 
L 1313 -997 
L 1856 -997 
L 1856 -1331 
L 184 -1331 
L 184 -997 
L 738 -997 
L 738 2988 
z
" transform="scale(0.015625)"/>
       <path id="DejaVuSerif-52" d="M 1925 219 
Q 2388 219 2623 584 
Q 2859 950 2859 1663 
Q 2859 2375 2623 2739 
Q 2388 3103 1925 3103 
Q 1463 3103 1227 2739 
Q 991 2375 991 1663 
Q 991 950 1228 584 
Q 1466 219 1925 219 
z
M 1925 -91 
Q 1200 -91 759 389 
Q 319 869 319 1663 
Q 319 2456 758 2934 
Q 1197 3413 1925 3413 
Q 2653 3413 3092 2934 
Q 3531 2456 3531 1663 
Q 3531 869 3092 389 
Q 2653 -91 1925 -91 
z
" transform="scale(0.015625)"/>
       <path id="DejaVuSerif-45" d="M 738 331 
L 738 4531 
L 184 4531 
L 184 4863 
L 1313 4863 
L 1313 2803 
Q 1481 3116 1742 3264 
Q 2003 3413 2388 3413 
Q 3000 3413 3387 2928 
Q 3775 2444 3775 1663 
Q 3775 881 3387 395 
Q 3000 -91 2388 -91 
Q 2003 -91 1742 57 
Q 1481 206 1313 519 
L 1313 0 
L 184 0 
L 184 331 
L 738 331 
z
M 1313 1497 
Q 1313 897 1542 583 
Q 1772 269 2209 269 
Q 2650 269 2876 622 
Q 3103 975 3103 1663 
Q 3103 2353 2876 2703 
Q 2650 3053 2209 3053 
Q 1772 3053 1542 2737 
Q 1313 2422 1313 1825 
L 1313 1497 
z
" transform="scale(0.015625)"/>
       <path id="DejaVuSerif-44" d="M 2547 1044 
L 2547 1747 
L 1806 1747 
Q 1378 1747 1168 1562 
Q 959 1378 959 997 
Q 959 650 1171 447 
Q 1384 244 1747 244 
Q 2106 244 2326 466 
Q 2547 688 2547 1044 
z
M 3122 2075 
L 3122 331 
L 3634 331 
L 3634 0 
L 2547 0 
L 2547 359 
Q 2356 128 2106 18 
Q 1856 -91 1522 -91 
Q 969 -91 644 203 
Q 319 497 319 997 
Q 319 1513 691 1797 
Q 1063 2081 1741 2081 
L 2547 2081 
L 2547 2309 
Q 2547 2688 2317 2895 
Q 2088 3103 1672 3103 
Q 1328 3103 1125 2947 
Q 922 2791 872 2484 
L 575 2484 
L 575 3156 
Q 875 3284 1158 3348 
Q 1441 3413 1709 3413 
Q 2400 3413 2761 3070 
Q 3122 2728 3122 2075 
z
" transform="scale(0.015625)"/>
       <path id="DejaVuSerif-4f" d="M 1313 331 
L 1856 331 
L 1856 0 
L 184 0 
L 184 331 
L 738 331 
L 738 4531 
L 184 4531 
L 184 4863 
L 1313 4863 
L 1313 331 
z
" transform="scale(0.015625)"/>
       <path id="DejaVuSerif-5c" d="M 1381 -609 
L 1600 -56 
L 359 2988 
L -19 2988 
L -19 3322 
L 1509 3322 
L 1509 2988 
L 978 2988 
L 1913 703 
L 2847 2988 
L 2350 2988 
L 2350 3322 
L 3597 3322 
L 3597 2988 
L 3225 2988 
L 1703 -750 
Q 1547 -1138 1356 -1280 
Q 1166 -1422 819 -1422 
Q 672 -1422 517 -1397 
Q 363 -1372 206 -1325 
L 206 -691 
L 500 -691 
Q 519 -903 608 -995 
Q 697 -1088 884 -1088 
Q 1056 -1088 1161 -992 
Q 1266 -897 1381 -609 
z
" transform="scale(0.015625)"/>
       <path id="DejaVuSerif-49" d="M 2753 4078 
L 2450 4078 
Q 2447 4313 2317 4434 
Q 2188 4556 1941 4556 
Q 1619 4556 1487 4379 
Q 1356 4203 1356 3750 
L 1356 3322 
L 2284 3322 
L 2284 2988 
L 1356 2988 
L 1356 331 
L 2094 331 
L 2094 0 
L 231 0 
L 231 331 
L 781 331 
L 781 2988 
L 231 2988 
L 231 3322 
L 781 3322 
L 781 3738 
Q 781 4294 1070 4578 
Q 1359 4863 1919 4863 
Q 2128 4863 2337 4825 
Q 2547 4788 2753 4709 
L 2753 4078 
z
" transform="scale(0.015625)"/>
       <path id="DejaVuSerif-58" d="M 2266 3322 
L 3341 3322 
L 3341 331 
L 3884 331 
L 3884 0 
L 2766 0 
L 2766 588 
Q 2606 256 2353 82 
Q 2100 -91 1766 -91 
Q 1213 -91 952 223 
Q 691 538 691 1209 
L 691 2988 
L 172 2988 
L 172 3322 
L 1269 3322 
L 1269 1388 
Q 1269 781 1417 556 
Q 1566 331 1947 331 
Q 2347 331 2556 625 
Q 2766 919 2766 1478 
L 2766 2988 
L 2266 2988 
L 2266 3322 
z
" transform="scale(0.015625)"/>
       <path id="DejaVuSerif-56" d="M 359 184 
L 359 959 
L 691 959 
Q 703 588 923 403 
Q 1144 219 1575 219 
Q 1963 219 2166 364 
Q 2369 509 2369 788 
Q 2369 1006 2220 1140 
Q 2072 1275 1594 1428 
L 1178 1569 
Q 750 1706 558 1912 
Q 366 2119 366 2438 
Q 366 2894 700 3153 
Q 1034 3413 1625 3413 
Q 1888 3413 2178 3344 
Q 2469 3275 2778 3144 
L 2778 2419 
L 2447 2419 
Q 2434 2741 2221 2922 
Q 2009 3103 1644 3103 
Q 1281 3103 1095 2975 
Q 909 2847 909 2591 
Q 909 2381 1050 2254 
Q 1191 2128 1613 1997 
L 2069 1856 
Q 2541 1709 2748 1489 
Q 2956 1269 2956 922 
Q 2956 450 2595 179 
Q 2234 -91 1600 -91 
Q 1278 -91 972 -22 
Q 666 47 359 184 
z
" transform="scale(0.015625)"/>
       <path id="DejaVuSans-Oblique-53" d="M 3175 2156 
Q 3175 2616 2975 2859 
Q 2775 3103 2400 3103 
Q 2144 3103 1911 2972 
Q 1678 2841 1497 2591 
Q 1319 2344 1212 1994 
Q 1106 1644 1106 1300 
Q 1106 863 1306 627 
Q 1506 391 1875 391 
Q 2147 391 2380 519 
Q 2613 647 2778 891 
Q 2956 1147 3065 1494 
Q 3175 1841 3175 2156 
z
M 1394 2969 
Q 1625 3272 1939 3428 
Q 2253 3584 2638 3584 
Q 3175 3584 3472 3232 
Q 3769 2881 3769 2247 
Q 3769 1728 3584 1258 
Q 3400 788 3053 416 
Q 2822 169 2531 39 
Q 2241 -91 1919 -91 
Q 1547 -91 1294 64 
Q 1041 219 916 525 
L 556 -1331 
L -19 -1331 
L 922 3500 
L 1497 3500 
L 1394 2969 
z
" transform="scale(0.015625)"/>
       <path id="DejaVuSans-Oblique-57" d="M 2706 3500 
L 2619 3053 
L 1472 3053 
L 1100 1153 
Q 1081 1047 1072 975 
Q 1063 903 1063 863 
Q 1063 663 1183 572 
Q 1303 481 1569 481 
L 2150 481 
L 2053 0 
L 1503 0 
Q 991 0 739 200 
Q 488 400 488 806 
Q 488 878 497 964 
Q 506 1050 525 1153 
L 897 3053 
L 409 3053 
L 500 3500 
L 978 3500 
L 1172 4494 
L 1747 4494 
L 1556 3500 
L 2706 3500 
z
" transform="scale(0.015625)"/>
      </defs>
      <use xlink:href="#DejaVuSerif-33" transform="translate(0 0.015625)"/>
      <use xlink:href="#DejaVuSerif-55" transform="translate(67.285156 0.015625)"/>
      <use xlink:href="#DejaVuSerif-48" transform="translate(115.087891 0.015625)"/>
      <use xlink:href="#DejaVuSerif-47" transform="translate(174.267578 0.015625)"/>
      <use xlink:href="#DejaVuSerif-4c" transform="translate(238.28125 0.015625)"/>
      <use xlink:href="#DejaVuSerif-46" transform="translate(270.263672 0.015625)"/>
      <use xlink:href="#DejaVuSerif-57" transform="translate(326.269531 0.015625)"/>
      <use xlink:href="#DejaVuSerif-48" transform="translate(366.455078 0.015625)"/>
      <use xlink:href="#DejaVuSerif-47" transform="translate(425.634766 0.015625)"/>
      <use xlink:href="#DejaVuSerif-3" transform="translate(489.648438 0.015625)"/>
      <use xlink:href="#DejaVuSerif-53" transform="translate(521.435547 0.015625)"/>
      <use xlink:href="#DejaVuSerif-55" transform="translate(585.449219 0.015625)"/>
      <use xlink:href="#DejaVuSerif-52" transform="translate(633.251953 0.015625)"/>
      <use xlink:href="#DejaVuSerif-45" transform="translate(693.457031 0.015625)"/>
      <use xlink:href="#DejaVuSerif-44" transform="translate(757.470703 0.015625)"/>
      <use xlink:href="#DejaVuSerif-45" transform="translate(817.089844 0.015625)"/>
      <use xlink:href="#DejaVuSerif-4c" transform="translate(881.103516 0.015625)"/>
      <use xlink:href="#DejaVuSerif-4f" transform="translate(913.085938 0.015625)"/>
      <use xlink:href="#DejaVuSerif-4c" transform="translate(945.068359 0.015625)"/>
      <use xlink:href="#DejaVuSerif-57" transform="translate(977.050781 0.015625)"/>
      <use xlink:href="#DejaVuSerif-5c" transform="translate(1017.236328 0.015625)"/>
      <use xlink:href="#DejaVuSerif-3" transform="translate(1073.730469 0.015625)"/>
      <use xlink:href="#DejaVuSerif-49" transform="translate(1105.517578 0.015625)"/>
      <use xlink:href="#DejaVuSerif-52" transform="translate(1142.529297 0.015625)"/>
      <use xlink:href="#DejaVuSerif-55" transform="translate(1202.734375 0.015625)"/>
      <use xlink:href="#DejaVuSerif-3" transform="translate(1250.537109 0.015625)"/>
      <use xlink:href="#DejaVuSerif-57" transform="translate(1282.324219 0.015625)"/>
      <use xlink:href="#DejaVuSerif-55" transform="translate(1322.509766 0.015625)"/>
      <use xlink:href="#DejaVuSerif-58" transform="translate(1370.3125 0.015625)"/>
      <use xlink:href="#DejaVuSerif-48" transform="translate(1434.716797 0.015625)"/>
      <use xlink:href="#DejaVuSerif-3" transform="translate(1493.896484 0.015625)"/>
      <use xlink:href="#DejaVuSerif-46" transform="translate(1525.683594 0.015625)"/>
      <use xlink:href="#DejaVuSerif-4f" transform="translate(1581.689453 0.015625)"/>
      <use xlink:href="#DejaVuSerif-44" transform="translate(1613.671875 0.015625)"/>
      <use xlink:href="#DejaVuSerif-56" transform="translate(1673.291016 0.015625)"/>
      <use xlink:href="#DejaVuSerif-56" transform="translate(1724.609375 0.015625)"/>
      <use xlink:href="#DejaVuSerif-3" transform="translate(1775.927734 0.015625)"/>
      <use xlink:href="#DejaVuSerif-3" transform="translate(1807.714844 0.015625)"/>
      <use xlink:href="#DejaVuSans-Oblique-53" transform="translate(1839.501953 0.015625)"/>
      <use xlink:href="#DejaVuSans-Oblique-57" transform="translate(1902.978516 -14.984326) scale(0.7)"/>
     </g>
    </g>
   </g>
   <g id="matplotlib.axis_2">
    <g id="ytick_1">
     <g id="line2d_13">
      <path d="M 45.964766 269.16 
L 435.281719 269.16 
" clip-path="url(#p2a4157a2df)" style="fill: none; stroke: #d0d7de; stroke-opacity: 0.35; stroke-width: 0.8; stroke-linecap: square"/>
     </g>
     <g id="line2d_14">
      <defs>
       <path id="m8c47bebbe8" d="M 0 0 
L -3.5 0 
" style="stroke: #57606a; stroke-width: 0.8"/>
      </defs>
      <g>
       <use xlink:href="#m8c47bebbe8" x="45.964766" y="269.16" style="fill: #57606a; stroke: #57606a; stroke-width: 0.8"/>
      </g>
     </g>
     <g id="text_8">
      <!-- 0.0 -->
      <g style="fill: #57606a" transform="translate(19.881016 273.718594) scale(0.12 -0.12)">
       <use xlink:href="#DejaVuSerif-13"/>
       <use xlink:href="#DejaVuSerif-11" transform="translate(63.625 0)"/>
       <use xlink:href="#DejaVuSerif-13" transform="translate(95.40625 0)"/>
      </g>
     </g>
    </g>
    <g id="ytick_2">
     <g id="line2d_15">
      <path d="M 45.964766 242.088889 
L 435.281719 242.088889 
" clip-path="url(#p2a4157a2df)" style="fill: none; stroke: #d0d7de; stroke-opacity: 0.35; stroke-width: 0.8; stroke-linecap: square"/>
     </g>
     <g id="line2d_16">
      <g>
       <use xlink:href="#m8c47bebbe8" x="45.964766" y="242.088889" style="fill: #57606a; stroke: #57606a; stroke-width: 0.8"/>
      </g>
     </g>
     <g id="text_9">
      <!-- 0.5 -->
      <g style="fill: #57606a" transform="translate(19.881016 246.647483) scale(0.12 -0.12)">
       <defs>
        <path id="DejaVuSerif-18" d="M 3219 4666 
L 3219 4153 
L 1081 4153 
L 1081 2816 
Q 1244 2928 1461 2984 
Q 1678 3041 1947 3041 
Q 2703 3041 3140 2622 
Q 3578 2203 3578 1478 
Q 3578 738 3136 323 
Q 2694 -91 1894 -91 
Q 1572 -91 1234 -12 
Q 897 66 544 225 
L 544 1131 
L 897 1131 
Q 925 688 1179 453 
Q 1434 219 1894 219 
Q 2388 219 2653 544 
Q 2919 869 2919 1478 
Q 2919 2084 2655 2407 
Q 2391 2731 1894 2731 
Q 1613 2731 1398 2631 
Q 1184 2531 1019 2322 
L 750 2322 
L 750 4666 
L 3219 4666 
z
" transform="scale(0.015625)"/>
       </defs>
       <use xlink:href="#DejaVuSerif-13"/>
       <use xlink:href="#DejaVuSerif-11" transform="translate(63.625 0)"/>
       <use xlink:href="#DejaVuSerif-18" transform="translate(95.40625 0)"/>
      </g>
     </g>
    </g>
    <g id="ytick_3">
     <g id="line2d_17">
      <path d="M 45.964766 215.017778 
L 435.281719 215.017778 
" clip-path="url(#p2a4157a2df)" style="fill: none; stroke: #d0d7de; stroke-opacity: 0.35; stroke-width: 0.8; stroke-linecap: square"/>
     </g>
     <g id="line2d_18">
      <g>
       <use xlink:href="#m8c47bebbe8" x="45.964766" y="215.017778" style="fill: #57606a; stroke: #57606a; stroke-width: 0.8"/>
      </g>
     </g>
     <g id="text_10">
      <!-- 1.0 -->
      <g style="fill: #57606a" transform="translate(19.881016 219.576372) scale(0.12 -0.12)">
       <use xlink:href="#DejaVuSerif-14"/>
       <use xlink:href="#DejaVuSerif-11" transform="translate(63.625 0)"/>
       <use xlink:href="#DejaVuSerif-13" transform="translate(95.40625 0)"/>
      </g>
     </g>
    </g>
    <g id="ytick_4">
     <g id="line2d_19">
      <path d="M 45.964766 187.946667 
L 435.281719 187.946667 
" clip-path="url(#p2a4157a2df)" style="fill: none; stroke: #d0d7de; stroke-opacity: 0.35; stroke-width: 0.8; stroke-linecap: square"/>
     </g>
     <g id="line2d_20">
      <g>
       <use xlink:href="#m8c47bebbe8" x="45.964766" y="187.946667" style="fill: #57606a; stroke: #57606a; stroke-width: 0.8"/>
      </g>
     </g>
     <g id="text_11">
      <!-- 1.5 -->
      <g style="fill: #57606a" transform="translate(19.881016 192.50526) scale(0.12 -0.12)">
       <use xlink:href="#DejaVuSerif-14"/>
       <use xlink:href="#DejaVuSerif-11" transform="translate(63.625 0)"/>
       <use xlink:href="#DejaVuSerif-18" transform="translate(95.40625 0)"/>
      </g>
     </g>
    </g>
    <g id="ytick_5">
     <g id="line2d_21">
      <path d="M 45.964766 160.875556 
L 435.281719 160.875556 
" clip-path="url(#p2a4157a2df)" style="fill: none; stroke: #d0d7de; stroke-opacity: 0.35; stroke-width: 0.8; stroke-linecap: square"/>
     </g>
     <g id="line2d_22">
      <g>
       <use xlink:href="#m8c47bebbe8" x="45.964766" y="160.875556" style="fill: #57606a; stroke: #57606a; stroke-width: 0.8"/>
      </g>
     </g>
     <g id="text_12">
      <!-- 2.0 -->
      <g style="fill: #57606a" transform="translate(19.881016 165.434149) scale(0.12 -0.12)">
       <use xlink:href="#DejaVuSerif-15"/>
       <use xlink:href="#DejaVuSerif-11" transform="translate(63.625 0)"/>
       <use xlink:href="#DejaVuSerif-13" transform="translate(95.40625 0)"/>
      </g>
     </g>
    </g>
    <g id="ytick_6">
     <g id="line2d_23">
      <path d="M 45.964766 133.804444 
L 435.281719 133.804444 
" clip-path="url(#p2a4157a2df)" style="fill: none; stroke: #d0d7de; stroke-opacity: 0.35; stroke-width: 0.8; stroke-linecap: square"/>
     </g>
     <g id="line2d_24">
      <g>
       <use xlink:href="#m8c47bebbe8" x="45.964766" y="133.804444" style="fill: #57606a; stroke: #57606a; stroke-width: 0.8"/>
      </g>
     </g>
     <g id="text_13">
      <!-- 2.5 -->
      <g style="fill: #57606a" transform="translate(19.881016 138.363038) scale(0.12 -0.12)">
       <use xlink:href="#DejaVuSerif-15"/>
       <use xlink:href="#DejaVuSerif-11" transform="translate(63.625 0)"/>
       <use xlink:href="#DejaVuSerif-18" transform="translate(95.40625 0)"/>
      </g>
     </g>
    </g>
    <g id="ytick_7">
     <g id="line2d_25">
      <path d="M 45.964766 106.733333 
L 435.281719 106.733333 
" clip-path="url(#p2a4157a2df)" style="fill: none; stroke: #d0d7de; stroke-opacity: 0.35; stroke-width: 0.8; stroke-linecap: square"/>
     </g>
     <g id="line2d_26">
      <g>
       <use xlink:href="#m8c47bebbe8" x="45.964766" y="106.733333" style="fill: #57606a; stroke: #57606a; stroke-width: 0.8"/>
      </g>
     </g>
     <g id="text_14">
      <!-- 3.0 -->
      <g style="fill: #57606a" transform="translate(19.881016 111.291927) scale(0.12 -0.12)">
       <defs>
        <path id="DejaVuSerif-16" d="M 622 4469 
Q 988 4606 1323 4678 
Q 1659 4750 1953 4750 
Q 2638 4750 3022 4454 
Q 3406 4159 3406 3634 
Q 3406 3213 3140 2930 
Q 2875 2647 2388 2547 
Q 2963 2466 3280 2130 
Q 3597 1794 3597 1259 
Q 3597 606 3158 257 
Q 2719 -91 1894 -91 
Q 1528 -91 1179 -12 
Q 831 66 488 225 
L 488 1131 
L 838 1131 
Q 869 681 1141 450 
Q 1413 219 1906 219 
Q 2384 219 2661 495 
Q 2938 772 2938 1253 
Q 2938 1803 2653 2086 
Q 2369 2369 1819 2369 
L 1522 2369 
L 1522 2688 
L 1678 2688 
Q 2225 2688 2498 2914 
Q 2772 3141 2772 3597 
Q 2772 4006 2547 4223 
Q 2322 4441 1900 4441 
Q 1478 4441 1245 4241 
Q 1013 4041 972 3647 
L 622 3647 
L 622 4469 
z
" transform="scale(0.015625)"/>
       </defs>
       <use xlink:href="#DejaVuSerif-16"/>
       <use xlink:href="#DejaVuSerif-11" transform="translate(63.625 0)"/>
       <use xlink:href="#DejaVuSerif-13" transform="translate(95.40625 0)"/>
      </g>
     </g>
    </g>
    <g id="ytick_8">
     <g id="line2d_27">
      <path d="M 45.964766 79.662222 
L 435.281719 79.662222 
" clip-path="url(#p2a4157a2df)" style="fill: none; stroke: #d0d7de; stroke-opacity: 0.35; stroke-width: 0.8; stroke-linecap: square"/>
     </g>
     <g id="line2d_28">
      <g>
       <use xlink:href="#m8c47bebbe8" x="45.964766" y="79.662222" style="fill: #57606a; stroke: #57606a; stroke-width: 0.8"/>
      </g>
     </g>
     <g id="text_15">
      <!-- 3.5 -->
      <g style="fill: #57606a" transform="translate(19.881016 84.220816) scale(0.12 -0.12)">
       <use xlink:href="#DejaVuSerif-16"/>
       <use xlink:href="#DejaVuSerif-11" transform="translate(63.625 0)"/>
       <use xlink:href="#DejaVuSerif-18" transform="translate(95.40625 0)"/>
      </g>
     </g>
    </g>
    <g id="ytick_9">
     <g id="line2d_29">
      <path d="M 45.964766 52.591111 
L 435.281719 52.591111 
" clip-path="url(#p2a4157a2df)" style="fill: none; stroke: #d0d7de; stroke-opacity: 0.35; stroke-width: 0.8; stroke-linecap: square"/>
     </g>
     <g id="line2d_30">
      <g>
       <use xlink:href="#m8c47bebbe8" x="45.964766" y="52.591111" style="fill: #57606a; stroke: #57606a; stroke-width: 0.8"/>
      </g>
     </g>
     <g id="text_16">
      <!-- 4.0 -->
      <g style="fill: #57606a" transform="translate(19.881016 57.149705) scale(0.12 -0.12)">
       <use xlink:href="#DejaVuSerif-17"/>
       <use xlink:href="#DejaVuSerif-11" transform="translate(63.625 0)"/>
       <use xlink:href="#DejaVuSerif-13" transform="translate(95.40625 0)"/>
      </g>
     </g>
    </g>
    <g id="ytick_10">
     <g id="line2d_31">
      <path d="M 45.964766 25.52 
L 435.281719 25.52 
" clip-path="url(#p2a4157a2df)" style="fill: none; stroke: #d0d7de; stroke-opacity: 0.35; stroke-width: 0.8; stroke-linecap: square"/>
     </g>
     <g id="line2d_32">
      <g>
       <use xlink:href="#m8c47bebbe8" x="45.964766" y="25.52" style="fill: #57606a; stroke: #57606a; stroke-width: 0.8"/>
      </g>
     </g>
     <g id="text_17">
      <!-- 4.5 -->
      <g style="fill: #57606a" transform="translate(19.881016 30.078594) scale(0.12 -0.12)">
       <use xlink:href="#DejaVuSerif-17"/>
       <use xlink:href="#DejaVuSerif-11" transform="translate(63.625 0)"/>
       <use xlink:href="#DejaVuSerif-18" transform="translate(95.40625 0)"/>
      </g>
     </g>
    </g>
    <g id="text_18">
     <!-- Loss contribution -->
     <g style="fill: #1f2328" transform="translate(12.757969 204.981797) rotate(-90) scale(0.13 -0.13)">
      <defs>
       <path id="DejaVuSerif-2f" d="M 353 0 
L 353 331 
L 947 331 
L 947 4331 
L 353 4331 
L 353 4666 
L 2175 4666 
L 2175 4331 
L 1581 4331 
L 1581 384 
L 3713 384 
L 3713 1166 
L 4097 1166 
L 4097 0 
L 353 0 
z
" transform="scale(0.015625)"/>
       <path id="DejaVuSerif-51" d="M 263 0 
L 263 331 
L 781 331 
L 781 2988 
L 231 2988 
L 231 3322 
L 1356 3322 
L 1356 2731 
Q 1516 3069 1770 3241 
Q 2025 3413 2363 3413 
Q 2913 3413 3172 3097 
Q 3431 2781 3431 2113 
L 3431 331 
L 3944 331 
L 3944 0 
L 2356 0 
L 2356 331 
L 2853 331 
L 2853 1931 
Q 2853 2541 2703 2767 
Q 2553 2994 2175 2994 
Q 1775 2994 1565 2701 
Q 1356 2409 1356 1850 
L 1356 331 
L 1856 331 
L 1856 0 
L 263 0 
z
" transform="scale(0.015625)"/>
      </defs>
      <use xlink:href="#DejaVuSerif-2f"/>
      <use xlink:href="#DejaVuSerif-52" transform="translate(66.40625 0)"/>
      <use xlink:href="#DejaVuSerif-56" transform="translate(126.609375 0)"/>
      <use xlink:href="#DejaVuSerif-56" transform="translate(177.921875 0)"/>
      <use xlink:href="#DejaVuSerif-3" transform="translate(229.234375 0)"/>
      <use xlink:href="#DejaVuSerif-46" transform="translate(261.015625 0)"/>
      <use xlink:href="#DejaVuSerif-52" transform="translate(317.015625 0)"/>
      <use xlink:href="#DejaVuSerif-51" transform="translate(377.21875 0)"/>
      <use xlink:href="#DejaVuSerif-57" transform="translate(441.625 0)"/>
      <use xlink:href="#DejaVuSerif-55" transform="translate(481.8125 0)"/>
      <use xlink:href="#DejaVuSerif-4c" transform="translate(529.609375 0)"/>
      <use xlink:href="#DejaVuSerif-45" transform="translate(561.59375 0)"/>
      <use xlink:href="#DejaVuSerif-58" transform="translate(625.609375 0)"/>
      <use xlink:href="#DejaVuSerif-57" transform="translate(690.015625 0)"/>
      <use xlink:href="#DejaVuSerif-4c" transform="translate(730.203125 0)"/>
      <use xlink:href="#DejaVuSerif-52" transform="translate(762.1875 0)"/>
      <use xlink:href="#DejaVuSerif-51" transform="translate(822.390625 0)"/>
     </g>
    </g>
   </g>
   <g id="line2d_33">
    <path d="M 63.660991 19.825852 
L 64.844685 35.174778 
L 66.028379 47.119715 
L 67.212073 56.899784 
L 68.395767 65.180589 
L 69.579461 72.361282 
L 70.763155 78.700181 
L 73.130543 89.509419 
L 75.497931 98.515629 
L 77.865319 106.235198 
L 80.232707 112.990213 
L 82.600095 118.99516 
L 84.967483 124.40009 
L 87.334871 129.314092 
L 89.702259 133.81897 
L 92.069647 137.977643 
L 95.620728 143.671883 
L 99.17181 148.82383 
L 102.722892 153.527854 
L 106.273974 157.85565 
L 109.825056 161.862967 
L 113.376138 165.594015 
L 118.110914 170.199643 
L 122.84569 174.44402 
L 127.580466 178.379719 
L 132.315242 182.04861 
L 138.233712 186.310554 
L 144.152182 190.261351 
L 150.070652 193.943359 
L 155.989122 197.390833 
L 163.091286 201.25743 
L 170.19345 204.866201 
L 177.295614 208.249393 
L 185.581472 211.946507 
L 193.86733 215.40722 
L 203.336882 219.10908 
L 212.806433 222.57395 
L 223.459679 226.223975 
L 234.112925 229.643396 
L 245.949865 233.205474 
L 258.970499 236.870734 
L 271.991133 240.303523 
L 286.195461 243.815714 
L 301.583483 247.379872 
L 318.155198 250.972696 
L 334.726914 254.341868 
L 352.482324 257.733208 
L 371.421428 261.130802 
L 391.544226 264.521393 
L 412.850718 267.894068 
L 417.585494 268.615852 
L 417.585494 268.615852 
" clip-path="url(#p2a4157a2df)" style="fill: none; stroke-dasharray: 2.2,3.63; stroke-dashoffset: 0; stroke: #57606a; stroke-width: 2.2"/>
   </g>
   <g id="line2d_34">
    <path d="M 63.660991 22.319194 
L 64.844685 38.281538 
L 66.028379 50.795633 
L 67.212073 61.109493 
L 68.395767 69.894628 
L 69.579461 77.554399 
L 70.763155 84.350277 
L 73.130543 96.016496 
L 75.497931 105.815099 
L 77.865319 114.272459 
L 80.232707 121.717962 
L 82.600095 128.371673 
L 84.967483 134.388039 
L 87.334871 139.879708 
L 89.702259 144.931419 
L 92.069647 149.60856 
L 95.620728 156.031833 
L 99.17181 161.859578 
L 102.722892 167.191011 
L 106.273974 172.101862 
L 109.825056 176.651298 
L 113.376138 180.886451 
L 116.92722 184.845505 
L 121.661996 189.748219 
L 126.396772 194.275642 
L 131.131548 198.475928 
L 135.866324 202.38814 
L 140.6011 206.044426 
L 146.51957 210.295289 
L 152.43804 214.231136 
L 158.35651 217.887459 
L 164.27498 221.293736 
L 170.19345 224.474735 
L 177.295614 228.02395 
L 184.397778 231.3096 
L 191.499942 234.357496 
L 198.602106 237.189557 
L 206.887963 240.24575 
L 215.173821 243.059137 
L 223.459679 245.651449 
L 232.929231 248.36723 
L 242.398783 250.84252 
L 251.868335 253.097845 
L 262.521581 255.394155 
L 273.174827 257.456297 
L 283.828073 259.303125 
L 295.665013 261.122514 
L 307.501953 262.715892 
L 320.522586 264.227864 
L 333.54322 265.506754 
L 346.563854 266.569821 
L 360.768182 267.501138 
L 374.97251 268.210901 
L 390.360532 268.747397 
L 405.748554 269.05875 
L 417.585494 269.154559 
L 417.585494 269.154559 
" clip-path="url(#p2a4157a2df)" style="fill: none; stroke-dasharray: 14.08,3.52,2.2,3.52; stroke-dashoffset: 0; stroke: #0969da; stroke-width: 2.2"/>
   </g>
   <g id="line2d_35">
    <path d="M 63.660991 24.787602 
L 64.844685 41.347048 
L 66.028379 54.410695 
L 67.212073 65.235712 
L 68.395767 74.499724 
L 69.579461 82.61048 
L 70.763155 89.832759 
L 73.130543 102.287881 
L 75.497931 112.802327 
L 77.865319 121.913232 
L 80.232707 129.95795 
L 82.600095 137.162704 
L 84.967483 143.686854 
L 87.334871 149.647071 
L 89.702259 155.131458 
L 92.069647 160.208255 
L 95.620728 167.17439 
L 99.17181 173.483192 
L 102.722892 179.239721 
L 106.273974 184.524655 
L 109.825056 189.40141 
L 113.376138 193.920823 
L 116.92722 198.124333 
L 120.478302 202.046218 
L 125.213078 206.886288 
L 129.947854 211.332556 
L 134.68263 215.430931 
L 139.417406 219.219401 
L 144.152182 222.729815 
L 148.886958 225.989182 
L 153.621734 229.020647 
L 159.540204 232.519727 
L 165.458674 235.727363 
L 171.377144 238.672157 
L 177.295614 241.378721 
L 183.214084 243.86843 
L 190.316248 246.596022 
L 197.418412 249.066387 
L 204.520576 251.304015 
L 211.622739 253.330352 
L 219.908597 255.45249 
L 228.194455 257.339179 
L 236.480313 259.013671 
L 245.949865 260.693846 
L 255.419417 262.150877 
L 266.072663 263.553136 
L 276.725909 264.733619 
L 288.562849 265.81766 
L 301.583483 266.770805 
L 315.787811 267.568127 
L 331.175832 268.195536 
L 347.747548 268.650803 
L 367.870346 268.971398 
L 392.72792 269.132375 
L 417.585494 269.159946 
L 417.585494 269.159946 
" clip-path="url(#p2a4157a2df)" style="fill: none; stroke: #cf222e; stroke-width: 2.2; stroke-linecap: square"/>
   </g>
   <g id="line2d_36">
    <path d="M 63.660991 32.045707 
L 64.844685 50.301517 
L 66.028379 64.90074 
L 67.212073 77.129823 
L 68.395767 87.686241 
L 69.579461 96.992194 
L 71.946849 112.870839 
L 74.314237 126.128908 
L 76.681625 137.510903 
L 79.049013 147.471442 
L 81.416401 156.310403 
L 83.783789 164.237154 
L 86.151177 171.404383 
L 88.518565 177.927364 
L 90.885953 183.895603 
L 93.253341 189.380228 
L 95.620728 194.438885 
L 97.988116 199.119074 
L 100.355504 203.460502 
L 103.906586 209.409626 
L 107.457668 214.764969 
L 111.00875 219.602405 
L 114.559832 223.984312 
L 118.110914 227.962748 
L 121.661996 231.581723 
L 125.213078 234.878856 
L 128.76416 237.88661 
L 132.315242 240.633235 
L 135.866324 243.143497 
L 139.417406 245.439243 
L 144.152182 248.199739 
L 148.886958 250.653366 
L 153.621734 252.834953 
L 158.35651 254.774814 
L 163.091286 256.499488 
L 169.009756 258.388024 
L 174.928226 260.01633 
L 180.846696 261.418604 
L 187.94886 262.844333 
L 195.051024 264.030765 
L 203.336882 265.161679 
L 211.622739 266.066635 
L 221.092291 266.876481 
L 231.745537 267.56074 
L 244.766171 268.14991 
L 260.154193 268.596363 
L 279.093297 268.904658 
L 305.134565 269.088048 
L 352.482324 269.157151 
L 417.585494 269.16 
L 417.585494 269.16 
" clip-path="url(#p2a4157a2df)" style="fill: none; stroke-dasharray: 8.14,3.52; stroke-dashoffset: 0; stroke: #bc4c00; stroke-width: 2.2"/>
   </g>
   <g id="patch_3">
    <path d="M 45.964766 269.16 
L 45.964766 25.52 
" style="fill: none; stroke: #d0d7de; stroke-width: 0.8; stroke-linejoin: miter; stroke-linecap: square"/>
   </g>
   <g id="patch_4">
    <path d="M 45.964766 269.16 
L 435.281719 269.16 
" style="fill: none; stroke: #d0d7de; stroke-width: 0.8; stroke-linejoin: miter; stroke-linecap: square"/>
   </g>
   <g id="text_19">
    <!-- Focal Loss ($\gamma = 2$ used in AdaRelBot) -->
    <g style="fill: #1f2328" transform="translate(98.663242 13.52) scale(0.14 -0.14)">
     <defs>
      <path id="DejaVuSerif-Bold-29" d="M 300 0 
L 300 378 
L 897 378 
L 897 4288 
L 300 4288 
L 300 4666 
L 4459 4666 
L 4459 3566 
L 4031 3566 
L 4031 4238 
L 2106 4238 
L 2106 2741 
L 3291 2741 
L 3291 3334 
L 3719 3334 
L 3719 1722 
L 3291 1722 
L 3291 2316 
L 2106 2316 
L 2106 378 
L 2841 378 
L 2841 0 
L 300 0 
z
" transform="scale(0.015625)"/>
      <path id="DejaVuSerif-Bold-52" d="M 2138 263 
Q 2488 263 2630 563 
Q 2772 863 2772 1663 
Q 2772 2463 2631 2761 
Q 2491 3059 2138 3059 
Q 1784 3059 1640 2757 
Q 1497 2456 1497 1663 
Q 1497 869 1640 566 
Q 1784 263 2138 263 
z
M 2138 -91 
Q 1259 -91 761 376 
Q 263 844 263 1663 
Q 263 2484 761 2948 
Q 1259 3413 2138 3413 
Q 3019 3413 3516 2948 
Q 4013 2484 4013 1663 
Q 4013 844 3514 376 
Q 3016 -91 2138 -91 
z
" transform="scale(0.015625)"/>
      <path id="DejaVuSerif-Bold-46" d="M 3609 1038 
Q 3491 469 3123 189 
Q 2756 -91 2125 -91 
Q 1238 -91 750 368 
Q 263 828 263 1663 
Q 263 2488 744 2950 
Q 1225 3413 2081 3413 
Q 2428 3413 2781 3347 
Q 3134 3281 3500 3150 
L 3500 2228 
L 3150 2228 
Q 3100 2650 2903 2854 
Q 2706 3059 2350 3059 
Q 1888 3059 1692 2746 
Q 1497 2434 1497 1663 
Q 1497 909 1687 586 
Q 1878 263 2309 263 
Q 2644 263 2845 463 
Q 3047 663 3091 1038 
L 3609 1038 
z
" transform="scale(0.015625)"/>
      <path id="DejaVuSerif-Bold-44" d="M 3525 2041 
L 3525 378 
L 4000 378 
L 4000 0 
L 2419 0 
L 2419 422 
Q 2200 159 1931 34 
Q 1663 -91 1319 -91 
Q 809 -91 536 182 
Q 263 456 263 966 
Q 263 1525 655 1803 
Q 1047 2081 1838 2081 
L 2419 2081 
L 2419 2278 
Q 2419 2681 2228 2873 
Q 2038 3066 1638 3066 
Q 1306 3066 1126 2930 
Q 947 2794 872 2484 
L 519 2484 
L 519 3200 
Q 816 3306 1134 3359 
Q 1453 3413 1806 3413 
Q 2697 3413 3111 3081 
Q 3525 2750 3525 2041 
z
M 2419 1044 
L 2419 1709 
L 2003 1709 
Q 1694 1709 1528 1540 
Q 1363 1372 1363 1056 
Q 1363 741 1483 584 
Q 1603 428 1850 428 
Q 2106 428 2262 597 
Q 2419 766 2419 1044 
z
" transform="scale(0.015625)"/>
      <path id="DejaVuSerif-Bold-4f" d="M 1797 378 
L 2272 378 
L 2272 0 
L 219 0 
L 219 378 
L 691 378 
L 691 4488 
L 219 4488 
L 219 4863 
L 1797 4863 
L 1797 378 
z
" transform="scale(0.015625)"/>
      <path id="DejaVuSerif-Bold-3" transform="scale(0.015625)"/>
      <path id="DejaVuSerif-Bold-2f" d="M 300 0 
L 300 378 
L 897 378 
L 897 4288 
L 300 4288 
L 300 4666 
L 2700 4666 
L 2700 4288 
L 2100 4288 
L 2100 428 
L 3938 428 
L 3938 1166 
L 4359 1166 
L 4359 0 
L 300 0 
z
" transform="scale(0.015625)"/>
      <path id="DejaVuSerif-Bold-56" d="M 300 97 
L 300 1025 
L 653 1025 
Q 697 653 931 458 
Q 1166 263 1569 263 
Q 1906 263 2086 380 
Q 2266 497 2266 716 
Q 2266 916 2152 1025 
Q 2038 1134 1709 1216 
L 1253 1331 
Q 738 1459 506 1698 
Q 275 1938 275 2344 
Q 275 2884 650 3148 
Q 1025 3413 1806 3413 
Q 2100 3413 2433 3364 
Q 2766 3316 3169 3213 
L 3169 2375 
L 2816 2375 
Q 2788 2716 2573 2887 
Q 2359 3059 1959 3059 
Q 1622 3059 1448 2951 
Q 1275 2844 1275 2638 
Q 1275 2469 1375 2372 
Q 1475 2275 1734 2209 
L 2188 2094 
Q 2841 1928 3091 1684 
Q 3341 1441 3341 1006 
Q 3341 444 2939 176 
Q 2538 -91 1691 -91 
Q 1381 -91 1034 -44 
Q 688 3 300 97 
z
" transform="scale(0.015625)"/>
      <path id="DejaVuSerif-Bold-b" d="M 2694 -997 
Q 1641 -606 1122 122 
Q 603 850 603 1931 
Q 603 3013 1115 3731 
Q 1628 4450 2694 4863 
L 2694 4488 
Q 2200 4188 1983 3598 
Q 1766 3009 1766 1931 
Q 1766 856 1983 267 
Q 2200 -322 2694 -622 
L 2694 -997 
z
" transform="scale(0.015625)"/>
      <path id="DejaVuSans-Oblique-347" d="M 1491 2950 
L 1838 788 
L 3456 3500 
L 4066 3500 
L 1972 0 
L 1713 -1331 
L 1138 -1331 
L 1397 0 
L 988 2613 
Q 925 3006 628 3006 
L 475 3006 
L 569 3500 
L 788 3500 
Q 1403 3500 1491 2950 
z
" transform="scale(0.015625)"/>
      <path id="DejaVuSans-20" d="M 678 2906 
L 4684 2906 
L 4684 2381 
L 678 2381 
L 678 2906 
z
M 678 1631 
L 4684 1631 
L 4684 1100 
L 678 1100 
L 678 1631 
z
" transform="scale(0.015625)"/>
      <path id="DejaVuSans-15" d="M 1228 531 
L 3431 531 
L 3431 0 
L 469 0 
L 469 531 
Q 828 903 1448 1529 
Q 2069 2156 2228 2338 
Q 2531 2678 2651 2914 
Q 2772 3150 2772 3378 
Q 2772 3750 2511 3984 
Q 2250 4219 1831 4219 
Q 1534 4219 1204 4116 
Q 875 4013 500 3803 
L 500 4441 
Q 881 4594 1212 4672 
Q 1544 4750 1819 4750 
Q 2544 4750 2975 4387 
Q 3406 4025 3406 3419 
Q 3406 3131 3298 2873 
Q 3191 2616 2906 2266 
Q 2828 2175 2409 1742 
Q 1991 1309 1228 531 
z
" transform="scale(0.015625)"/>
      <path id="DejaVuSerif-Bold-58" d="M 3963 3322 
L 3963 378 
L 4434 378 
L 4434 0 
L 2853 0 
L 2853 469 
Q 2656 172 2400 40 
Q 2144 -91 1753 -91 
Q 1194 -91 908 239 
Q 622 569 622 1209 
L 622 2944 
L 147 2944 
L 147 3322 
L 1728 3322 
L 1728 1381 
Q 1728 763 1831 595 
Q 1934 428 2209 428 
Q 2544 428 2698 675 
Q 2853 922 2853 1459 
L 2853 2944 
L 2450 2944 
L 2450 3322 
L 3963 3322 
z
" transform="scale(0.015625)"/>
      <path id="DejaVuSerif-Bold-48" d="M 2566 1875 
Q 2566 2531 2444 2795 
Q 2322 3059 2028 3059 
Q 1744 3059 1620 2800 
Q 1497 2541 1497 1931 
L 1497 1875 
L 2566 1875 
z
M 3781 1503 
L 1497 1503 
L 1497 1478 
Q 1497 834 1690 548 
Q 1884 263 2316 263 
Q 2675 263 2897 453 
Q 3119 644 3181 1006 
L 3700 1006 
Q 3566 441 3166 175 
Q 2766 -91 2047 -91 
Q 1184 -91 723 364 
Q 263 819 263 1663 
Q 263 2488 734 2950 
Q 1206 3413 2047 3413 
Q 2872 3413 3312 2927 
Q 3753 2441 3781 1503 
z
" transform="scale(0.015625)"/>
      <path id="DejaVuSerif-Bold-47" d="M 2747 1497 
L 2747 1825 
Q 2747 2406 2597 2665 
Q 2447 2925 2119 2925 
Q 1775 2925 1636 2651 
Q 1497 2378 1497 1663 
Q 1497 947 1637 672 
Q 1778 397 2119 397 
Q 2447 397 2597 656 
Q 2747 916 2747 1497 
z
M 3853 378 
L 4325 378 
L 4325 0 
L 2747 0 
L 2747 422 
Q 2606 163 2367 36 
Q 2128 -91 1778 -91 
Q 1072 -91 667 378 
Q 263 847 263 1663 
Q 263 2481 667 2947 
Q 1072 3413 1778 3413 
Q 2128 3413 2367 3286 
Q 2606 3159 2747 2900 
L 2747 4488 
L 2272 4488 
L 2272 4863 
L 3853 4863 
L 3853 378 
z
" transform="scale(0.015625)"/>
      <path id="DejaVuSerif-Bold-4c" d="M 588 4263 
Q 588 4516 763 4689 
Q 938 4863 1191 4863 
Q 1438 4863 1611 4689 
Q 1784 4516 1784 4263 
Q 1784 4016 1611 3842 
Q 1438 3669 1191 3669 
Q 938 3669 763 3841 
Q 588 4013 588 4263 
z
M 1797 378 
L 2272 378 
L 2272 0 
L 219 0 
L 219 378 
L 691 378 
L 691 2944 
L 219 2944 
L 219 3322 
L 1797 3322 
L 1797 378 
z
" transform="scale(0.015625)"/>
      <path id="DejaVuSerif-Bold-51" d="M 219 0 
L 219 378 
L 691 378 
L 691 2944 
L 219 2944 
L 219 3322 
L 1797 3322 
L 1797 2853 
Q 1997 3150 2253 3281 
Q 2509 3413 2900 3413 
Q 3459 3413 3745 3083 
Q 4031 2753 4031 2113 
L 4031 378 
L 4506 378 
L 4506 0 
L 2522 0 
L 2522 378 
L 2925 378 
L 2925 2144 
Q 2925 2566 2817 2730 
Q 2709 2894 2444 2894 
Q 2109 2894 1953 2648 
Q 1797 2403 1797 1869 
L 1797 378 
L 2203 378 
L 2203 0 
L 219 0 
z
" transform="scale(0.015625)"/>
      <path id="DejaVuSerif-Bold-24" d="M -50 0 
L -50 378 
L 331 378 
L 2088 4666 
L 2834 4666 
L 4594 378 
L 5038 378 
L 5038 0 
L 2853 0 
L 2853 378 
L 3309 378 
L 2925 1331 
L 1172 1331 
L 781 378 
L 1338 378 
L 1338 0 
L -50 0 
z
M 1325 1709 
L 2772 1709 
L 2053 3494 
L 1325 1709 
z
" transform="scale(0.015625)"/>
      <path id="DejaVuSerif-Bold-35" d="M 3397 2278 
Q 3675 2238 3865 2094 
Q 4056 1950 4197 1678 
L 4878 378 
L 5356 378 
L 5356 0 
L 3822 0 
L 3078 1409 
Q 2863 1847 2711 1967 
Q 2559 2088 2291 2088 
L 2100 2088 
L 2100 378 
L 2700 378 
L 2700 0 
L 300 0 
L 300 378 
L 897 378 
L 897 4288 
L 300 4288 
L 300 4666 
L 2963 4666 
Q 3775 4666 4217 4339 
Q 4659 4013 4659 3413 
Q 4659 2925 4345 2642 
Q 4031 2359 3397 2278 
z
M 2100 2463 
L 2509 2463 
Q 2947 2463 3183 2700 
Q 3419 2938 3419 3378 
Q 3419 3819 3183 4053 
Q 2947 4288 2509 4288 
L 2100 4288 
L 2100 2463 
z
" transform="scale(0.015625)"/>
      <path id="DejaVuSerif-Bold-25" d="M 300 0 
L 300 378 
L 897 378 
L 897 4288 
L 300 4288 
L 300 4666 
L 3066 4666 
Q 3919 4666 4347 4378 
Q 4775 4091 4775 3513 
Q 4775 3097 4479 2853 
Q 4184 2609 3603 2547 
Q 4306 2481 4681 2172 
Q 5056 1863 5056 1350 
Q 5056 656 4532 328 
Q 4009 0 2894 0 
L 300 0 
z
M 2100 2719 
L 2509 2719 
Q 3047 2719 3306 2914 
Q 3566 3109 3566 3513 
Q 3566 3919 3314 4103 
Q 3063 4288 2509 4288 
L 2100 4288 
L 2100 2719 
z
M 2100 378 
L 2547 378 
Q 3144 378 3431 615 
Q 3719 853 3719 1350 
Q 3719 1850 3428 2097 
Q 3138 2344 2547 2344 
L 2100 2344 
L 2100 378 
z
" transform="scale(0.015625)"/>
      <path id="DejaVuSerif-Bold-57" d="M 634 2944 
L 153 2944 
L 153 3322 
L 634 3322 
L 634 4353 
L 1741 4353 
L 1741 3322 
L 2663 3322 
L 2663 2944 
L 1741 2944 
L 1741 909 
Q 1741 475 1809 369 
Q 1878 263 2059 263 
Q 2259 263 2356 397 
Q 2453 531 2459 813 
L 2925 813 
Q 2897 313 2651 111 
Q 2406 -91 1806 -91 
Q 1122 -91 878 123 
Q 634 338 634 909 
L 634 2944 
z
" transform="scale(0.015625)"/>
      <path id="DejaVuSerif-Bold-c" d="M 325 -997 
L 325 -622 
Q 819 -322 1036 267 
Q 1253 856 1253 1931 
Q 1253 3009 1036 3598 
Q 819 4188 325 4488 
L 325 4863 
Q 1391 4450 1905 3731 
Q 2419 3013 2419 1931 
Q 2419 850 1898 122 
Q 1378 -606 325 -997 
z
" transform="scale(0.015625)"/>
     </defs>
     <use xlink:href="#DejaVuSerif-Bold-29" transform="translate(0 0.015625)"/>
     <use xlink:href="#DejaVuSerif-Bold-52" transform="translate(65.996094 0.015625)"/>
     <use xlink:href="#DejaVuSerif-Bold-46" transform="translate(132.695312 0.015625)"/>
     <use xlink:href="#DejaVuSerif-Bold-44" transform="translate(193.583984 0.015625)"/>
     <use xlink:href="#DejaVuSerif-Bold-4f" transform="translate(258.378906 0.015625)"/>
     <use xlink:href="#DejaVuSerif-Bold-3" transform="translate(296.367188 0.015625)"/>
     <use xlink:href="#DejaVuSerif-Bold-2f" transform="translate(331.181641 0.015625)"/>
     <use xlink:href="#DejaVuSerif-Bold-52" transform="translate(401.494141 0.015625)"/>
     <use xlink:href="#DejaVuSerif-Bold-56" transform="translate(468.193359 0.015625)"/>
     <use xlink:href="#DejaVuSerif-Bold-56" transform="translate(524.492188 0.015625)"/>
     <use xlink:href="#DejaVuSerif-Bold-3" transform="translate(580.791016 0.015625)"/>
     <use xlink:href="#DejaVuSerif-Bold-b" transform="translate(615.605469 0.015625)"/>
     <use xlink:href="#DejaVuSans-Oblique-347" transform="translate(662.919922 0.015625)"/>
     <use xlink:href="#DejaVuSans-20" transform="translate(741.582031 0.015625)"/>
     <use xlink:href="#DejaVuSans-15" transform="translate(844.853516 0.015625)"/>
     <use xlink:href="#DejaVuSerif-Bold-3" transform="translate(908.476562 0.015625)"/>
     <use xlink:href="#DejaVuSerif-Bold-58" transform="translate(943.291016 0.015625)"/>
     <use xlink:href="#DejaVuSerif-Bold-56" transform="translate(1015.996094 0.015625)"/>
     <use xlink:href="#DejaVuSerif-Bold-48" transform="translate(1072.294922 0.015625)"/>
     <use xlink:href="#DejaVuSerif-Bold-47" transform="translate(1135.917969 0.015625)"/>
     <use xlink:href="#DejaVuSerif-Bold-3" transform="translate(1205.839844 0.015625)"/>
     <use xlink:href="#DejaVuSerif-Bold-4c" transform="translate(1240.654297 0.015625)"/>
     <use xlink:href="#DejaVuSerif-Bold-51" transform="translate(1278.642578 0.015625)"/>
     <use xlink:href="#DejaVuSerif-Bold-3" transform="translate(1351.347656 0.015625)"/>
     <use xlink:href="#DejaVuSerif-Bold-24" transform="translate(1386.162109 0.015625)"/>
     <use xlink:href="#DejaVuSerif-Bold-47" transform="translate(1463.75 0.015625)"/>
     <use xlink:href="#DejaVuSerif-Bold-44" transform="translate(1533.671875 0.015625)"/>
     <use xlink:href="#DejaVuSerif-Bold-35" transform="translate(1598.466797 0.015625)"/>
     <use xlink:href="#DejaVuSerif-Bold-48" transform="translate(1681.572266 0.015625)"/>
     <use xlink:href="#DejaVuSerif-Bold-4f" transform="translate(1745.195312 0.015625)"/>
     <use xlink:href="#DejaVuSerif-Bold-25" transform="translate(1783.183594 0.015625)"/>
     <use xlink:href="#DejaVuSerif-Bold-52" transform="translate(1867.705078 0.015625)"/>
     <use xlink:href="#DejaVuSerif-Bold-57" transform="translate(1934.404297 0.015625)"/>
     <use xlink:href="#DejaVuSerif-Bold-c" transform="translate(1980.595703 0.015625)"/>
    </g>
   </g>
   <g id="legend_1">
    <g id="patch_5">
     <path d="M 369.681719 93.523125 
L 430.281719 93.523125 
L 430.281719 30.52 
L 369.681719 30.52 
z
" style="fill: #ffffff; stroke: #d0d7de; stroke-linejoin: miter"/>
    </g>
    <g id="line2d_37">
     <path d="M 373.681719 38.618437 
L 383.681719 38.618437 
L 393.681719 38.618437 
" style="fill: none; stroke-dasharray: 2.2,3.63; stroke-dashoffset: 0; stroke: #57606a; stroke-width: 2.2"/>
    </g>
    <g id="text_20">
     <!-- $\gamma = 0$ -->
     <g style="fill: #1f2328" transform="translate(401.681719 42.118437) scale(0.1 -0.1)">
      <defs>
       <path id="DejaVuSans-13" d="M 2034 4250 
Q 1547 4250 1301 3770 
Q 1056 3291 1056 2328 
Q 1056 1369 1301 889 
Q 1547 409 2034 409 
Q 2525 409 2770 889 
Q 3016 1369 3016 2328 
Q 3016 3291 2770 3770 
Q 2525 4250 2034 4250 
z
M 2034 4750 
Q 2819 4750 3233 4129 
Q 3647 3509 3647 2328 
Q 3647 1150 3233 529 
Q 2819 -91 2034 -91 
Q 1250 -91 836 529 
Q 422 1150 422 2328 
Q 422 3509 836 4129 
Q 1250 4750 2034 4750 
z
" transform="scale(0.015625)"/>
      </defs>
      <use xlink:href="#DejaVuSans-Oblique-347" transform="translate(0 0.78125)"/>
      <use xlink:href="#DejaVuSans-20" transform="translate(78.662109 0.78125)"/>
      <use xlink:href="#DejaVuSans-13" transform="translate(181.933594 0.78125)"/>
     </g>
    </g>
    <g id="line2d_38">
     <path d="M 373.681719 53.619219 
L 383.681719 53.619219 
L 393.681719 53.619219 
" style="fill: none; stroke-dasharray: 14.08,3.52,2.2,3.52; stroke-dashoffset: 0; stroke: #0969da; stroke-width: 2.2"/>
    </g>
    <g id="text_21">
     <!-- $\gamma = 1$ -->
     <g style="fill: #1f2328" transform="translate(401.681719 57.119219) scale(0.1 -0.1)">
      <defs>
       <path id="DejaVuSans-14" d="M 794 531 
L 1825 531 
L 1825 4091 
L 703 3866 
L 703 4441 
L 1819 4666 
L 2450 4666 
L 2450 531 
L 3481 531 
L 3481 0 
L 794 0 
L 794 531 
z
" transform="scale(0.015625)"/>
      </defs>
      <use xlink:href="#DejaVuSans-Oblique-347" transform="translate(0 0.09375)"/>
      <use xlink:href="#DejaVuSans-20" transform="translate(78.662109 0.09375)"/>
      <use xlink:href="#DejaVuSans-14" transform="translate(181.933594 0.09375)"/>
     </g>
    </g>
    <g id="line2d_39">
     <path d="M 373.681719 68.62 
L 383.681719 68.62 
L 393.681719 68.62 
" style="fill: none; stroke: #cf222e; stroke-width: 2.2; stroke-linecap: square"/>
    </g>
    <g id="text_22">
     <!-- $\gamma = 2$ -->
     <g style="fill: #1f2328" transform="translate(401.681719 72.12) scale(0.1 -0.1)">
      <use xlink:href="#DejaVuSans-Oblique-347" transform="translate(0 0.78125)"/>
      <use xlink:href="#DejaVuSans-20" transform="translate(78.662109 0.78125)"/>
      <use xlink:href="#DejaVuSans-15" transform="translate(181.933594 0.78125)"/>
     </g>
    </g>
    <g id="line2d_40">
     <path d="M 373.681719 83.620781 
L 383.681719 83.620781 
L 393.681719 83.620781 
" style="fill: none; stroke-dasharray: 8.14,3.52; stroke-dashoffset: 0; stroke: #bc4c00; stroke-width: 2.2"/>
    </g>
    <g id="text_23">
     <!-- $\gamma = 5$ -->
     <g style="fill: #1f2328" transform="translate(401.681719 87.120781) scale(0.1 -0.1)">
      <defs>
       <path id="DejaVuSans-18" d="M 691 4666 
L 3169 4666 
L 3169 4134 
L 1269 4134 
L 1269 2991 
Q 1406 3038 1543 3061 
Q 1681 3084 1819 3084 
Q 2600 3084 3056 2656 
Q 3513 2228 3513 1497 
Q 3513 744 3044 326 
Q 2575 -91 1722 -91 
Q 1428 -91 1123 -41 
Q 819 9 494 109 
L 494 744 
Q 775 591 1075 516 
Q 1375 441 1709 441 
Q 2250 441 2565 725 
Q 2881 1009 2881 1497 
Q 2881 1984 2565 2268 
Q 2250 2553 1709 2553 
Q 1456 2553 1204 2497 
Q 953 2441 691 2322 
L 691 4666 
z
" transform="scale(0.015625)"/>
      </defs>
      <use xlink:href="#DejaVuSans-Oblique-347" transform="translate(0 0.09375)"/>
      <use xlink:href="#DejaVuSans-20" transform="translate(78.662109 0.09375)"/>
      <use xlink:href="#DejaVuSans-18" transform="translate(181.933594 0.09375)"/>
     </g>
    </g>
   </g>
  </g>
 </g>
 <defs>
  <clipPath id="p2a4157a2df">
   <rect x="45.964766" y="25.52" width="389.316953" height="243.64"/>
  </clipPath>
 </defs>
</svg>
