<?xml version="1.0" encoding="utf-8" standalone="no"?>
<!DOCTYPE svg PUBLIC "-//W3C//DTD SVG 1.1//EN"
  "http://www.w3.org/Graphics/SVG/1.1/DTD/svg11.dtd">
<svg xmlns:xlink="http://www.w3.org/1999/xlink" width="252pt" height="216pt" viewBox="0 0 252 216" xmlns="http://www.w3.org/2000/svg" version="1.1">
 <metadata>
  <rdf:RDF xmlns:dc="http://purl.org/dc/elements/1.1/" xmlns:cc="http://creativecommons.org/ns#" xmlns:rdf="http://www.w3.org/1999/02/22-rdf-syntax-ns#">
   <cc:Work>
    <dc:type rdf:resource="http://purl.org/dc/dcmitype/StillImage"/>
    <dc:date>2026-07-04T20:27:40.187630</dc:date>
    <dc:format>image/svg+xml</dc:format>
    <dc:creator>
     <cc:Agent>
      <dc:title>Matplotlib v3.11.0, https://matplotlib.org/</dc:title>
     </cc:Agent>
    </dc:creator>
   </cc:Work>
  </rdf:RDF>
 </metadata>
 <defs>
  <style type="text/css">*{stroke-linejoin: round; stroke-linecap: butt}</style>
 </defs>
 <g id="figure_1">
  <g id="patch_1">
   <path d="M 0 216 
L 252 216 
L 252 0 
L 0 0 
z
" style="fill: #ffffff"/>
  </g>
  <g id="axes_1">
   <g id="patch_2">
    <path d="M 43.76 177.2 
L 238.475769 177.2 
L 238.475769 24.48 
L 43.76 24.48 
z
" style="fill: #ffffff"/>
   </g>
   <g id="matplotlib.axis_1">
    <g id="xtick_1">
     <g id="line2d_1">
      <defs>
       <path id="m5f340d5e3c" d="M 0 0 
L 0 3.5 
" style="stroke: #000000; stroke-width: 0.8"/>
      </defs>
      <g>
       <use xlink:href="#m5f340d5e3c" x="47.504534" y="177.2" style="stroke: #000000; stroke-width: 0.8"/>
      </g>
     </g>
     <g id="text_1">
      <!-- 0.0 -->
      <g transform="translate(41.143284 190.278125) scale(0.08 -0.08)">
       <defs>
        <path id="DejaVuSans-13" d="M 2034 4250 
Q 1547 4250 1301 3770 
Q 1056 3291 1056 2328 
Q 1056 1369 1301 889 
Q 1547 409 2034 409 
Q 2525 409 2770 889 
Q 3016 1369 3016 2328 
Q 3016 3291 2770 3770 
Q 2525 4250 2034 4250 
z
M 2034 4750 
Q 2819 4750 3233 4129 
Q 3647 3509 3647 2328 
Q 3647 1150 3233 529 
Q 2819 -91 2034 -91 
Q 1250 -91 836 529 
Q 422 1150 422 2328 
Q 422 3509 836 4129 
Q 1250 4750 2034 4750 
z
" transform="scale(0.015625)"/>
        <path id="DejaVuSans-11" d="M 684 794 
L 1344 794 
L 1344 0 
L 684 0 
L 684 794 
z
" transform="scale(0.015625)"/>
       </defs>
       <use xlink:href="#DejaVuSans-13"/>
       <use xlink:href="#DejaVuSans-11" transform="translate(63.625 0)"/>
       <use xlink:href="#DejaVuSans-13" transform="translate(95.40625 0)"/>
      </g>
     </g>
    </g>
    <g id="xtick_2">
     <g id="line2d_2">
      <g>
       <use xlink:href="#m5f340d5e3c" x="84.949874" y="177.2" style="stroke: #000000; stroke-width: 0.8"/>
      </g>
     </g>
     <g id="text_2">
      <!-- 0.2 -->
      <g transform="translate(78.588624 190.278125) scale(0.08 -0.08)">
       <defs>
        <path id="DejaVuSans-15" d="M 1228 531 
L 3431 531 
L 3431 0 
L 469 0 
L 469 531 
Q 828 903 1448 1529 
Q 2069 2156 2228 2338 
Q 2531 2678 2651 2914 
Q 2772 3150 2772 3378 
Q 2772 3750 2511 3984 
Q 2250 4219 1831 4219 
Q 1534 4219 1204 4116 
Q 875 4013 500 3803 
L 500 4441 
Q 881 4594 1212 4672 
Q 1544 4750 1819 4750 
Q 2544 4750 2975 4387 
Q 3406 4025 3406 3419 
Q 3406 3131 3298 2873 
Q 3191 2616 2906 2266 
Q 2828 2175 2409 1742 
Q 1991 1309 1228 531 
z
" transform="scale(0.015625)"/>
       </defs>
       <use xlink:href="#DejaVuSans-13"/>
       <use xlink:href="#DejaVuSans-11" transform="translate(63.625 0)"/>
       <use xlink:href="#DejaVuSans-15" transform="translate(95.40625 0)"/>
      </g>
     </g>
    </g>
    <g id="xtick_3">
     <g id="line2d_3">
      <g>
       <use xlink:href="#m5f340d5e3c" x="122.395214" y="177.2" style="stroke: #000000; stroke-width: 0.8"/>
      </g>
     </g>
     <g id="text_3">
      <!-- 0.4 -->
      <g transform="translate(116.033964 190.278125) scale(0.08 -0.08)">
       <defs>
        <path id="DejaVuSans-17" d="M 2419 4116 
L 825 1625 
L 2419 1625 
L 2419 4116 
z
M 2253 4666 
L 3047 4666 
L 3047 1625 
L 3713 1625 
L 3713 1100 
L 3047 1100 
L 3047 0 
L 2419 0 
L 2419 1100 
L 313 1100 
L 313 1709 
L 2253 4666 
z
" transform="scale(0.015625)"/>
       </defs>
       <use xlink:href="#DejaVuSans-13"/>
       <use xlink:href="#DejaVuSans-11" transform="translate(63.625 0)"/>
       <use xlink:href="#DejaVuSans-17" transform="translate(95.40625 0)"/>
      </g>
     </g>
    </g>
    <g id="xtick_4">
     <g id="line2d_4">
      <g>
       <use xlink:href="#m5f340d5e3c" x="159.840555" y="177.2" style="stroke: #000000; stroke-width: 0.8"/>
      </g>
     </g>
     <g id="text_4">
      <!-- 0.6 -->
      <g transform="translate(153.479305 190.278125) scale(0.08 -0.08)">
       <defs>
        <path id="DejaVuSans-19" d="M 2113 2584 
Q 1688 2584 1439 2293 
Q 1191 2003 1191 1497 
Q 1191 994 1439 701 
Q 1688 409 2113 409 
Q 2538 409 2786 701 
Q 3034 994 3034 1497 
Q 3034 2003 2786 2293 
Q 2538 2584 2113 2584 
z
M 3366 4563 
L 3366 3988 
Q 3128 4100 2886 4159 
Q 2644 4219 2406 4219 
Q 1781 4219 1451 3797 
Q 1122 3375 1075 2522 
Q 1259 2794 1537 2939 
Q 1816 3084 2150 3084 
Q 2853 3084 3261 2657 
Q 3669 2231 3669 1497 
Q 3669 778 3244 343 
Q 2819 -91 2113 -91 
Q 1303 -91 875 529 
Q 447 1150 447 2328 
Q 447 3434 972 4092 
Q 1497 4750 2381 4750 
Q 2619 4750 2861 4703 
Q 3103 4656 3366 4563 
z
" transform="scale(0.015625)"/>
       </defs>
       <use xlink:href="#DejaVuSans-13"/>
       <use xlink:href="#DejaVuSans-11" transform="translate(63.625 0)"/>
       <use xlink:href="#DejaVuSans-19" transform="translate(95.40625 0)"/>
      </g>
     </g>
    </g>
    <g id="xtick_5">
     <g id="line2d_5">
      <g>
       <use xlink:href="#m5f340d5e3c" x="197.285895" y="177.2" style="stroke: #000000; stroke-width: 0.8"/>
      </g>
     </g>
     <g id="text_5">
      <!-- 0.8 -->
      <g transform="translate(190.924645 190.278125) scale(0.08 -0.08)">
       <defs>
        <path id="DejaVuSans-1b" d="M 2034 2216 
Q 1584 2216 1326 1975 
Q 1069 1734 1069 1313 
Q 1069 891 1326 650 
Q 1584 409 2034 409 
Q 2484 409 2743 651 
Q 3003 894 3003 1313 
Q 3003 1734 2745 1975 
Q 2488 2216 2034 2216 
z
M 1403 2484 
Q 997 2584 770 2862 
Q 544 3141 544 3541 
Q 544 4100 942 4425 
Q 1341 4750 2034 4750 
Q 2731 4750 3128 4425 
Q 3525 4100 3525 3541 
Q 3525 3141 3298 2862 
Q 3072 2584 2669 2484 
Q 3125 2378 3379 2068 
Q 3634 1759 3634 1313 
Q 3634 634 3220 271 
Q 2806 -91 2034 -91 
Q 1263 -91 848 271 
Q 434 634 434 1313 
Q 434 1759 690 2068 
Q 947 2378 1403 2484 
z
M 1172 3481 
Q 1172 3119 1398 2916 
Q 1625 2713 2034 2713 
Q 2441 2713 2670 2916 
Q 2900 3119 2900 3481 
Q 2900 3844 2670 4047 
Q 2441 4250 2034 4250 
Q 1625 4250 1398 4047 
Q 1172 3844 1172 3481 
z
" transform="scale(0.015625)"/>
       </defs>
       <use xlink:href="#DejaVuSans-13"/>
       <use xlink:href="#DejaVuSans-11" transform="translate(63.625 0)"/>
       <use xlink:href="#DejaVuSans-1b" transform="translate(95.40625 0)"/>
      </g>
     </g>
    </g>
    <g id="xtick_6">
     <g id="line2d_6">
      <g>
       <use xlink:href="#m5f340d5e3c" x="234.731235" y="177.2" style="stroke: #000000; stroke-width: 0.8"/>
      </g>
     </g>
     <g id="text_6">
      <!-- 1.0 -->
      <g transform="translate(228.369985 190.278125) scale(0.08 -0.08)">
       <defs>
        <path id="DejaVuSans-14" d="M 794 531 
L 1825 531 
L 1825 4091 
L 703 3866 
L 703 4441 
L 1819 4666 
L 2450 4666 
L 2450 531 
L 3481 531 
L 3481 0 
L 794 0 
L 794 531 
z
" transform="scale(0.015625)"/>
       </defs>
       <use xlink:href="#DejaVuSans-14"/>
       <use xlink:href="#DejaVuSans-11" transform="translate(63.625 0)"/>
       <use xlink:href="#DejaVuSans-13" transform="translate(95.40625 0)"/>
      </g>
     </g>
    </g>
    <g id="text_7">
     <!-- False Positive Rate -->
     <g transform="translate(99.295306 203.038594) scale(0.09 -0.09)">
      <defs>
       <path id="DejaVuSans-29" d="M 628 4666 
L 3309 4666 
L 3309 4134 
L 1259 4134 
L 1259 2759 
L 3109 2759 
L 3109 2228 
L 1259 2228 
L 1259 0 
L 628 0 
L 628 4666 
z
" transform="scale(0.015625)"/>
       <path id="DejaVuSans-44" d="M 2194 1759 
Q 1497 1759 1228 1600 
Q 959 1441 959 1056 
Q 959 750 1161 570 
Q 1363 391 1709 391 
Q 2188 391 2477 730 
Q 2766 1069 2766 1631 
L 2766 1759 
L 2194 1759 
z
M 3341 1997 
L 3341 0 
L 2766 0 
L 2766 531 
Q 2569 213 2275 61 
Q 1981 -91 1556 -91 
Q 1019 -91 701 211 
Q 384 513 384 1019 
Q 384 1609 779 1909 
Q 1175 2209 1959 2209 
L 2766 2209 
L 2766 2266 
Q 2766 2663 2505 2880 
Q 2244 3097 1772 3097 
Q 1472 3097 1187 3025 
Q 903 2953 641 2809 
L 641 3341 
Q 956 3463 1253 3523 
Q 1550 3584 1831 3584 
Q 2591 3584 2966 3190 
Q 3341 2797 3341 1997 
z
" transform="scale(0.015625)"/>
       <path id="DejaVuSans-4f" d="M 603 4863 
L 1178 4863 
L 1178 0 
L 603 0 
L 603 4863 
z
" transform="scale(0.015625)"/>
       <path id="DejaVuSans-56" d="M 2834 3397 
L 2834 2853 
Q 2591 2978 2328 3040 
Q 2066 3103 1784 3103 
Q 1356 3103 1142 2972 
Q 928 2841 928 2578 
Q 928 2378 1081 2264 
Q 1234 2150 1697 2047 
L 1894 2003 
Q 2506 1872 2764 1633 
Q 3022 1394 3022 966 
Q 3022 478 2636 193 
Q 2250 -91 1575 -91 
Q 1294 -91 989 -36 
Q 684 19 347 128 
L 347 722 
Q 666 556 975 473 
Q 1284 391 1588 391 
Q 1994 391 2212 530 
Q 2431 669 2431 922 
Q 2431 1156 2273 1281 
Q 2116 1406 1581 1522 
L 1381 1569 
Q 847 1681 609 1914 
Q 372 2147 372 2553 
Q 372 3047 722 3315 
Q 1072 3584 1716 3584 
Q 2034 3584 2315 3537 
Q 2597 3491 2834 3397 
z
" transform="scale(0.015625)"/>
       <path id="DejaVuSans-48" d="M 3597 1894 
L 3597 1613 
L 953 1613 
Q 991 1019 1311 708 
Q 1631 397 2203 397 
Q 2534 397 2845 478 
Q 3156 559 3463 722 
L 3463 178 
Q 3153 47 2828 -22 
Q 2503 -91 2169 -91 
Q 1331 -91 842 396 
Q 353 884 353 1716 
Q 353 2575 817 3079 
Q 1281 3584 2069 3584 
Q 2775 3584 3186 3129 
Q 3597 2675 3597 1894 
z
M 3022 2063 
Q 3016 2534 2758 2815 
Q 2500 3097 2075 3097 
Q 1594 3097 1305 2825 
Q 1016 2553 972 2059 
L 3022 2063 
z
" transform="scale(0.015625)"/>
       <path id="DejaVuSans-3" transform="scale(0.015625)"/>
       <path id="DejaVuSans-33" d="M 1259 4147 
L 1259 2394 
L 2053 2394 
Q 2494 2394 2734 2622 
Q 2975 2850 2975 3272 
Q 2975 3691 2734 3919 
Q 2494 4147 2053 4147 
L 1259 4147 
z
M 628 4666 
L 2053 4666 
Q 2838 4666 3239 4311 
Q 3641 3956 3641 3272 
Q 3641 2581 3239 2228 
Q 2838 1875 2053 1875 
L 1259 1875 
L 1259 0 
L 628 0 
L 628 4666 
z
" transform="scale(0.015625)"/>
       <path id="DejaVuSans-52" d="M 1959 3097 
Q 1497 3097 1228 2736 
Q 959 2375 959 1747 
Q 959 1119 1226 758 
Q 1494 397 1959 397 
Q 2419 397 2687 759 
Q 2956 1122 2956 1747 
Q 2956 2369 2687 2733 
Q 2419 3097 1959 3097 
z
M 1959 3584 
Q 2709 3584 3137 3096 
Q 3566 2609 3566 1747 
Q 3566 888 3137 398 
Q 2709 -91 1959 -91 
Q 1206 -91 779 398 
Q 353 888 353 1747 
Q 353 2609 779 3096 
Q 1206 3584 1959 3584 
z
" transform="scale(0.015625)"/>
       <path id="DejaVuSans-4c" d="M 603 3500 
L 1178 3500 
L 1178 0 
L 603 0 
L 603 3500 
z
M 603 4863 
L 1178 4863 
L 1178 4134 
L 603 4134 
L 603 4863 
z
" transform="scale(0.015625)"/>
       <path id="DejaVuSans-57" d="M 1172 4494 
L 1172 3500 
L 2356 3500 
L 2356 3053 
L 1172 3053 
L 1172 1153 
Q 1172 725 1289 603 
Q 1406 481 1766 481 
L 2356 481 
L 2356 0 
L 1766 0 
Q 1100 0 847 248 
Q 594 497 594 1153 
L 594 3053 
L 172 3053 
L 172 3500 
L 594 3500 
L 594 4494 
L 1172 4494 
z
" transform="scale(0.015625)"/>
       <path id="DejaVuSans-59" d="M 191 3500 
L 800 3500 
L 1894 563 
L 2988 3500 
L 3597 3500 
L 2284 0 
L 1503 0 
L 191 3500 
z
" transform="scale(0.015625)"/>
       <path id="DejaVuSans-35" d="M 2841 2188 
Q 3044 2119 3236 1894 
Q 3428 1669 3622 1275 
L 4263 0 
L 3584 0 
L 2988 1197 
Q 2756 1666 2539 1819 
Q 2322 1972 1947 1972 
L 1259 1972 
L 1259 0 
L 628 0 
L 628 4666 
L 2053 4666 
Q 2853 4666 3247 4331 
Q 3641 3997 3641 3322 
Q 3641 2881 3436 2590 
Q 3231 2300 2841 2188 
z
M 1259 4147 
L 1259 2491 
L 2053 2491 
Q 2509 2491 2742 2702 
Q 2975 2913 2975 3322 
Q 2975 3731 2742 3939 
Q 2509 4147 2053 4147 
L 1259 4147 
z
" transform="scale(0.015625)"/>
      </defs>
      <use xlink:href="#DejaVuSans-29"/>
      <use xlink:href="#DejaVuSans-44" transform="translate(48.34375 0)"/>
      <use xlink:href="#DejaVuSans-4f" transform="translate(109.625 0)"/>
      <use xlink:href="#DejaVuSans-56" transform="translate(137.40625 0)"/>
      <use xlink:href="#DejaVuSans-48" transform="translate(189.5 0)"/>
      <use xlink:href="#DejaVuSans-3" transform="translate(251.03125 0)"/>
      <use xlink:href="#DejaVuSans-33" transform="translate(282.8125 0)"/>
      <use xlink:href="#DejaVuSans-52" transform="translate(339.546875 0)"/>
      <use xlink:href="#DejaVuSans-56" transform="translate(400.734375 0)"/>
      <use xlink:href="#DejaVuSans-4c" transform="translate(452.828125 0)"/>
      <use xlink:href="#DejaVuSans-57" transform="translate(480.609375 0)"/>
      <use xlink:href="#DejaVuSans-4c" transform="translate(519.8125 0)"/>
      <use xlink:href="#DejaVuSans-59" transform="translate(547.59375 0)"/>
      <use xlink:href="#DejaVuSans-48" transform="translate(606.78125 0)"/>
      <use xlink:href="#DejaVuSans-3" transform="translate(668.3125 0)"/>
      <use xlink:href="#DejaVuSans-35" transform="translate(700.09375 0)"/>
      <use xlink:href="#DejaVuSans-44" transform="translate(767.375 0)"/>
      <use xlink:href="#DejaVuSans-57" transform="translate(828.65625 0)"/>
      <use xlink:href="#DejaVuSans-48" transform="translate(867.859375 0)"/>
     </g>
    </g>
   </g>
   <g id="matplotlib.axis_2">
    <g id="ytick_1">
     <g id="line2d_7">
      <defs>
       <path id="mccdd51e66f" d="M 0 0 
L -3.5 0 
" style="stroke: #000000; stroke-width: 0.8"/>
      </defs>
      <g>
       <use xlink:href="#mccdd51e66f" x="43.76" y="174.263077" style="stroke: #000000; stroke-width: 0.8"/>
      </g>
     </g>
     <g id="text_8">
      <!-- 0.0 -->
      <g transform="translate(24.0375 177.302139) scale(0.08 -0.08)">
       <use xlink:href="#DejaVuSans-13"/>
       <use xlink:href="#DejaVuSans-11" transform="translate(63.625 0)"/>
       <use xlink:href="#DejaVuSans-13" transform="translate(95.40625 0)"/>
      </g>
     </g>
    </g>
    <g id="ytick_2">
     <g id="line2d_8">
      <g>
       <use xlink:href="#mccdd51e66f" x="43.76" y="144.893846" style="stroke: #000000; stroke-width: 0.8"/>
      </g>
     </g>
     <g id="text_9">
      <!-- 0.2 -->
      <g transform="translate(24.0375 147.932909) scale(0.08 -0.08)">
       <use xlink:href="#DejaVuSans-13"/>
       <use xlink:href="#DejaVuSans-11" transform="translate(63.625 0)"/>
       <use xlink:href="#DejaVuSans-15" transform="translate(95.40625 0)"/>
      </g>
     </g>
    </g>
    <g id="ytick_3">
     <g id="line2d_9">
      <g>
       <use xlink:href="#mccdd51e66f" x="43.76" y="115.524615" style="stroke: #000000; stroke-width: 0.8"/>
      </g>
     </g>
     <g id="text_10">
      <!-- 0.4 -->
      <g transform="translate(24.0375 118.563678) scale(0.08 -0.08)">
       <use xlink:href="#DejaVuSans-13"/>
       <use xlink:href="#DejaVuSans-11" transform="translate(63.625 0)"/>
       <use xlink:href="#DejaVuSans-17" transform="translate(95.40625 0)"/>
      </g>
     </g>
    </g>
    <g id="ytick_4">
     <g id="line2d_10">
      <g>
       <use xlink:href="#mccdd51e66f" x="43.76" y="86.155385" style="stroke: #000000; stroke-width: 0.8"/>
      </g>
     </g>
     <g id="text_11">
      <!-- 0.6 -->
      <g transform="translate(24.0375 89.194447) scale(0.08 -0.08)">
       <use xlink:href="#DejaVuSans-13"/>
       <use xlink:href="#DejaVuSans-11" transform="translate(63.625 0)"/>
       <use xlink:href="#DejaVuSans-19" transform="translate(95.40625 0)"/>
      </g>
     </g>
    </g>
    <g id="ytick_5">
     <g id="line2d_11">
      <g>
       <use xlink:href="#mccdd51e66f" x="43.76" y="56.786154" style="stroke: #000000; stroke-width: 0.8"/>
      </g>
     </g>
     <g id="text_12">
      <!-- 0.8 -->
      <g transform="translate(24.0375 59.825216) scale(0.08 -0.08)">
       <use xlink:href="#DejaVuSans-13"/>
       <use xlink:href="#DejaVuSans-11" transform="translate(63.625 0)"/>
       <use xlink:href="#DejaVuSans-1b" transform="translate(95.40625 0)"/>
      </g>
     </g>
    </g>
    <g id="ytick_6">
     <g id="line2d_12">
      <g>
       <use xlink:href="#mccdd51e66f" x="43.76" y="27.416923" style="stroke: #000000; stroke-width: 0.8"/>
      </g>
     </g>
     <g id="text_13">
      <!-- 1.0 -->
      <g transform="translate(24.0375 30.455986) scale(0.08 -0.08)">
       <use xlink:href="#DejaVuSans-14"/>
       <use xlink:href="#DejaVuSans-11" transform="translate(63.625 0)"/>
       <use xlink:href="#DejaVuSans-13" transform="translate(95.40625 0)"/>
      </g>
     </g>
    </g>
    <g id="text_14">
     <!-- True Positive Rate -->
     <g transform="translate(17.875391 140.92375) rotate(-90) scale(0.09 -0.09)">
      <defs>
       <path id="DejaVuSans-37" d="M -19 4666 
L 3928 4666 
L 3928 4134 
L 2272 4134 
L 2272 0 
L 1638 0 
L 1638 4134 
L -19 4134 
L -19 4666 
z
" transform="scale(0.015625)"/>
       <path id="DejaVuSans-55" d="M 2631 2963 
Q 2534 3019 2420 3045 
Q 2306 3072 2169 3072 
Q 1681 3072 1420 2755 
Q 1159 2438 1159 1844 
L 1159 0 
L 581 0 
L 581 3500 
L 1159 3500 
L 1159 2956 
Q 1341 3275 1631 3429 
Q 1922 3584 2338 3584 
Q 2397 3584 2469 3576 
Q 2541 3569 2628 3553 
L 2631 2963 
z
" transform="scale(0.015625)"/>
       <path id="DejaVuSans-58" d="M 544 1381 
L 544 3500 
L 1119 3500 
L 1119 1403 
Q 1119 906 1312 657 
Q 1506 409 1894 409 
Q 2359 409 2629 706 
Q 2900 1003 2900 1516 
L 2900 3500 
L 3475 3500 
L 3475 0 
L 2900 0 
L 2900 538 
Q 2691 219 2414 64 
Q 2138 -91 1772 -91 
Q 1169 -91 856 284 
Q 544 659 544 1381 
z
M 1991 3584 
L 1991 3584 
z
" transform="scale(0.015625)"/>
      </defs>
      <use xlink:href="#DejaVuSans-37"/>
      <use xlink:href="#DejaVuSans-55" transform="translate(46.375 0)"/>
      <use xlink:href="#DejaVuSans-58" transform="translate(87.484375 0)"/>
      <use xlink:href="#DejaVuSans-48" transform="translate(150.859375 0)"/>
      <use xlink:href="#DejaVuSans-3" transform="translate(212.390625 0)"/>
      <use xlink:href="#DejaVuSans-33" transform="translate(244.171875 0)"/>
      <use xlink:href="#DejaVuSans-52" transform="translate(300.90625 0)"/>
      <use xlink:href="#DejaVuSans-56" transform="translate(362.09375 0)"/>
      <use xlink:href="#DejaVuSans-4c" transform="translate(414.1875 0)"/>
      <use xlink:href="#DejaVuSans-57" transform="translate(441.96875 0)"/>
      <use xlink:href="#DejaVuSans-4c" transform="translate(481.171875 0)"/>
      <use xlink:href="#DejaVuSans-59" transform="translate(508.953125 0)"/>
      <use xlink:href="#DejaVuSans-48" transform="translate(568.140625 0)"/>
      <use xlink:href="#DejaVuSans-3" transform="translate(629.671875 0)"/>
      <use xlink:href="#DejaVuSans-35" transform="translate(661.453125 0)"/>
      <use xlink:href="#DejaVuSans-44" transform="translate(728.734375 0)"/>
      <use xlink:href="#DejaVuSans-57" transform="translate(790.015625 0)"/>
      <use xlink:href="#DejaVuSans-48" transform="translate(829.21875 0)"/>
     </g>
    </g>
   </g>
   <g id="line2d_13">
    <path d="M 47.504534 174.263077 
L 47.504534 145.811635 
L 47.849335 145.811635 
L 47.849335 144.664399 
L 48.194135 144.664399 
L 48.194135 119.425216 
L 48.538936 119.425216 
L 48.538936 118.736875 
L 48.883736 118.736875 
L 48.883736 117.589639 
L 49.228537 117.589639 
L 49.228537 116.442404 
L 49.573337 116.442404 
L 49.573337 115.065721 
L 49.918138 115.065721 
L 49.918138 114.606827 
L 50.262938 114.606827 
L 50.262938 112.541803 
L 50.607739 112.541803 
L 50.607739 111.624014 
L 50.95254 111.624014 
L 50.95254 108.870649 
L 51.29734 108.870649 
L 51.29734 105.428942 
L 51.986941 105.428942 
L 51.986941 104.511154 
L 52.331742 104.511154 
L 52.331742 104.281707 
L 52.676542 104.281707 
L 52.676542 104.05226 
L 53.021343 104.05226 
L 53.021343 103.822812 
L 53.710944 103.822812 
L 53.710944 103.363918 
L 54.055745 103.363918 
L 54.055745 102.675577 
L 54.400545 102.675577 
L 54.400545 101.757788 
L 54.745346 101.757788 
L 54.745346 100.381106 
L 55.779747 100.381106 
L 55.779747 96.021611 
L 56.124548 96.021611 
L 56.124548 95.562716 
L 56.469348 95.562716 
L 56.469348 94.874375 
L 56.814149 94.874375 
L 56.814149 94.644928 
L 57.15895 94.644928 
L 57.15895 93.038798 
L 57.50375 93.038798 
L 57.50375 91.662115 
L 57.848551 91.662115 
L 57.848551 91.432668 
L 58.193351 91.432668 
L 58.193351 88.449856 
L 59.227753 88.449856 
L 59.227753 87.532067 
L 59.572553 87.532067 
L 59.572553 87.073173 
L 59.917354 87.073173 
L 59.917354 81.795889 
L 60.262155 81.795889 
L 60.262155 79.271971 
L 60.951756 79.271971 
L 60.951756 78.813077 
L 61.296556 78.813077 
L 61.296556 78.58363 
L 61.986157 78.58363 
L 61.986157 77.895288 
L 62.330958 77.895288 
L 62.330958 77.206947 
L 63.36536 77.206947 
L 63.36536 75.141923 
L 64.054961 75.141923 
L 64.054961 74.683029 
L 64.399761 74.683029 
L 64.399761 72.847452 
L 65.089362 72.847452 
L 65.089362 72.618005 
L 65.434163 72.618005 
L 65.434163 72.388558 
L 65.778963 72.388558 
L 65.778963 68.946851 
L 66.123764 68.946851 
L 66.123764 68.029063 
L 66.468565 68.029063 
L 66.468565 67.799615 
L 66.813365 67.799615 
L 66.813365 67.570168 
L 67.158166 67.570168 
L 67.158166 67.111274 
L 67.502966 67.111274 
L 67.502966 66.881827 
L 67.847767 66.881827 
L 67.847767 66.193486 
L 69.226969 66.193486 
L 69.226969 65.275697 
L 69.57177 65.275697 
L 69.57177 62.751779 
L 69.91657 62.751779 
L 69.91657 62.292885 
L 70.261371 62.292885 
L 70.261371 60.686755 
L 70.606171 60.686755 
L 70.606171 60.227861 
L 71.985373 60.227861 
L 71.985373 58.851178 
L 72.330174 58.851178 
L 72.330174 54.72113 
L 72.674975 54.72113 
L 72.674975 52.426659 
L 73.019775 52.426659 
L 73.019775 51.049976 
L 73.364576 51.049976 
L 73.364576 50.591082 
L 74.743778 50.591082 
L 74.743778 50.361635 
L 75.088578 50.361635 
L 75.088578 48.984952 
L 75.77818 48.984952 
L 75.77818 48.755505 
L 76.12298 48.755505 
L 76.12298 48.296611 
L 76.467781 48.296611 
L 76.467781 48.067163 
L 77.502182 48.067163 
L 77.502182 47.608269 
L 77.846983 47.608269 
L 77.846983 46.690481 
L 78.191783 46.690481 
L 78.191783 46.231587 
L 78.536584 46.231587 
L 78.536584 45.313798 
L 78.881384 45.313798 
L 78.881384 44.166562 
L 79.570986 44.166562 
L 79.570986 43.707668 
L 80.260587 43.707668 
L 80.260587 43.248774 
L 80.950188 43.248774 
L 80.950188 42.78988 
L 81.984589 42.78988 
L 81.984589 41.872091 
L 82.674191 41.872091 
L 82.674191 40.495409 
L 83.363792 40.495409 
L 83.363792 38.889279 
L 84.742994 38.889279 
L 84.742994 37.742043 
L 85.087794 37.742043 
L 85.087794 37.512596 
L 85.432595 37.512596 
L 85.432595 37.053702 
L 85.777396 37.053702 
L 85.777396 36.824255 
L 86.122196 36.824255 
L 86.122196 36.594808 
L 87.156598 36.594808 
L 87.156598 36.365361 
L 87.501398 36.365361 
L 87.501398 35.906466 
L 88.5358 35.906466 
L 88.5358 35.677019 
L 89.225401 35.677019 
L 89.225401 35.218125 
L 89.915002 35.218125 
L 89.915002 34.988678 
L 90.259803 34.988678 
L 90.259803 34.759231 
L 91.294204 34.759231 
L 91.294204 34.529784 
L 91.983806 34.529784 
L 91.983806 34.300337 
L 93.018207 34.300337 
L 93.018207 34.070889 
L 96.121412 34.070889 
L 96.121412 33.611995 
L 96.466213 33.611995 
L 96.466213 33.153101 
L 97.155814 33.153101 
L 97.155814 32.694207 
L 97.500614 32.694207 
L 97.500614 32.235313 
L 98.190216 32.235313 
L 98.190216 32.005865 
L 99.224617 32.005865 
L 99.224617 31.776418 
L 99.914218 31.776418 
L 99.914218 31.546971 
L 100.259019 31.546971 
L 100.259019 31.317524 
L 101.638221 31.317524 
L 101.638221 31.088077 
L 104.396626 31.088077 
L 104.396626 30.85863 
L 105.086227 30.85863 
L 105.086227 30.629183 
L 105.775828 30.629183 
L 105.775828 30.399736 
L 106.810229 30.399736 
L 106.810229 30.170288 
L 107.15503 30.170288 
L 107.15503 29.711394 
L 107.844631 29.711394 
L 107.844631 29.481947 
L 108.534232 29.481947 
L 108.534232 29.2525 
L 109.568634 29.2525 
L 109.568634 29.023053 
L 111.292637 29.023053 
L 111.292637 28.793606 
L 115.775044 28.793606 
L 115.775044 28.564159 
L 117.843847 28.564159 
L 117.843847 28.334712 
L 120.947052 28.334712 
L 120.947052 27.875817 
L 121.291853 27.875817 
L 121.291853 27.64637 
L 122.326254 27.64637 
L 122.326254 27.416923 
L 234.731235 27.416923 
L 234.731235 27.416923 
" clip-path="url(#p0e5e0335da)" style="fill: none; stroke: #4682b4; stroke-width: 1.8; stroke-linecap: square"/>
   </g>
   <g id="line2d_14">
    <path d="M 47.504534 174.263077 
L 234.731235 27.416923 
" clip-path="url(#p0e5e0335da)" style="fill: none; stroke-dasharray: 2.96,1.28; stroke-dashoffset: 0; stroke: #000000; stroke-opacity: 0.5; stroke-width: 0.8"/>
   </g>
   <g id="patch_3">
    <path d="M 43.76 177.2 
L 43.76 24.48 
" style="fill: none; stroke: #000000; stroke-width: 0.8; stroke-linejoin: miter; stroke-linecap: square"/>
   </g>
   <g id="patch_4">
    <path d="M 238.475769 177.2 
L 238.475769 24.48 
" style="fill: none; stroke: #000000; stroke-width: 0.8; stroke-linejoin: miter; stroke-linecap: square"/>
   </g>
   <g id="patch_5">
    <path d="M 43.76 177.2 
L 238.475769 177.2 
" style="fill: none; stroke: #000000; stroke-width: 0.8; stroke-linejoin: miter; stroke-linecap: square"/>
   </g>
   <g id="patch_6">
    <path d="M 43.76 24.48 
L 238.475769 24.48 
" style="fill: none; stroke: #000000; stroke-width: 0.8; stroke-linejoin: miter; stroke-linecap: square"/>
   </g>
   <g id="text_15">
    <!-- ROC Curve (TwiBot-20) -->
    <g transform="translate(84.063978 18.48) scale(0.1 -0.1)">
     <defs>
      <path id="DejaVuSans-32" d="M 2522 4238 
Q 1834 4238 1429 3725 
Q 1025 3213 1025 2328 
Q 1025 1447 1429 934 
Q 1834 422 2522 422 
Q 3209 422 3611 934 
Q 4013 1447 4013 2328 
Q 4013 3213 3611 3725 
Q 3209 4238 2522 4238 
z
M 2522 4750 
Q 3503 4750 4090 4092 
Q 4678 3434 4678 2328 
Q 4678 1225 4090 567 
Q 3503 -91 2522 -91 
Q 1538 -91 948 565 
Q 359 1222 359 2328 
Q 359 3434 948 4092 
Q 1538 4750 2522 4750 
z
" transform="scale(0.015625)"/>
      <path id="DejaVuSans-26" d="M 4122 4306 
L 4122 3641 
Q 3803 3938 3442 4084 
Q 3081 4231 2675 4231 
Q 1875 4231 1450 3742 
Q 1025 3253 1025 2328 
Q 1025 1406 1450 917 
Q 1875 428 2675 428 
Q 3081 428 3442 575 
Q 3803 722 4122 1019 
L 4122 359 
Q 3791 134 3420 21 
Q 3050 -91 2638 -91 
Q 1578 -91 968 557 
Q 359 1206 359 2328 
Q 359 3453 968 4101 
Q 1578 4750 2638 4750 
Q 3056 4750 3426 4639 
Q 3797 4528 4122 4306 
z
" transform="scale(0.015625)"/>
      <path id="DejaVuSans-b" d="M 1984 4856 
Q 1566 4138 1362 3434 
Q 1159 2731 1159 2009 
Q 1159 1288 1364 580 
Q 1569 -128 1984 -844 
L 1484 -844 
Q 1016 -109 783 600 
Q 550 1309 550 2009 
Q 550 2706 781 3412 
Q 1013 4119 1484 4856 
L 1984 4856 
z
" transform="scale(0.015625)"/>
      <path id="DejaVuSans-5a" d="M 269 3500 
L 844 3500 
L 1563 769 
L 2278 3500 
L 2956 3500 
L 3675 769 
L 4391 3500 
L 4966 3500 
L 4050 0 
L 3372 0 
L 2619 2869 
L 1863 0 
L 1184 0 
L 269 3500 
z
" transform="scale(0.015625)"/>
      <path id="DejaVuSans-25" d="M 1259 2228 
L 1259 519 
L 2272 519 
Q 2781 519 3026 730 
Q 3272 941 3272 1375 
Q 3272 1813 3026 2020 
Q 2781 2228 2272 2228 
L 1259 2228 
z
M 1259 4147 
L 1259 2741 
L 2194 2741 
Q 2656 2741 2882 2914 
Q 3109 3088 3109 3444 
Q 3109 3797 2882 3972 
Q 2656 4147 2194 4147 
L 1259 4147 
z
M 628 4666 
L 2241 4666 
Q 2963 4666 3353 4366 
Q 3744 4066 3744 3513 
Q 3744 3084 3544 2831 
Q 3344 2578 2956 2516 
Q 3422 2416 3680 2098 
Q 3938 1781 3938 1306 
Q 3938 681 3513 340 
Q 3088 0 2303 0 
L 628 0 
L 628 4666 
z
" transform="scale(0.015625)"/>
      <path id="DejaVuSans-10" d="M 313 2009 
L 1997 2009 
L 1997 1497 
L 313 1497 
L 313 2009 
z
" transform="scale(0.015625)"/>
      <path id="DejaVuSans-c" d="M 513 4856 
L 1013 4856 
Q 1481 4119 1714 3412 
Q 1947 2706 1947 2009 
Q 1947 1309 1714 600 
Q 1481 -109 1013 -844 
L 513 -844 
Q 928 -128 1133 580 
Q 1338 1288 1338 2009 
Q 1338 2731 1133 3434 
Q 928 4138 513 4856 
z
" transform="scale(0.015625)"/>
     </defs>
     <use xlink:href="#DejaVuSans-35"/>
     <use xlink:href="#DejaVuSans-32" transform="translate(69.484375 0)"/>
     <use xlink:href="#DejaVuSans-26" transform="translate(148.203125 0)"/>
     <use xlink:href="#DejaVuSans-3" transform="translate(218.03125 0)"/>
     <use xlink:href="#DejaVuSans-26" transform="translate(249.8125 0)"/>
     <use xlink:href="#DejaVuSans-58" transform="translate(319.640625 0)"/>
     <use xlink:href="#DejaVuSans-55" transform="translate(383.015625 0)"/>
     <use xlink:href="#DejaVuSans-59" transform="translate(424.125 0)"/>
     <use xlink:href="#DejaVuSans-48" transform="translate(483.3125 0)"/>
     <use xlink:href="#DejaVuSans-3" transform="translate(544.84375 0)"/>
     <use xlink:href="#DejaVuSans-b" transform="translate(576.625 0)"/>
     <use xlink:href="#DejaVuSans-37" transform="translate(615.640625 0)"/>
     <use xlink:href="#DejaVuSans-5a" transform="translate(660.171875 0)"/>
     <use xlink:href="#DejaVuSans-4c" transform="translate(741.953125 0)"/>
     <use xlink:href="#DejaVuSans-25" transform="translate(769.734375 0)"/>
     <use xlink:href="#DejaVuSans-52" transform="translate(838.34375 0)"/>
     <use xlink:href="#DejaVuSans-57" transform="translate(899.53125 0)"/>
     <use xlink:href="#DejaVuSans-10" transform="translate(938.734375 0)"/>
     <use xlink:href="#DejaVuSans-15" transform="translate(974.8125 0)"/>
     <use xlink:href="#DejaVuSans-13" transform="translate(1038.4375 0)"/>
     <use xlink:href="#DejaVuSans-c" transform="translate(1102.0625 0)"/>
    </g>
   </g>
   <g id="legend_1">
    <g id="patch_7">
     <path d="M 145.320144 172.7 
L 232.175769 172.7 
Q 233.975769 172.7 233.975769 170.9 
L 233.975769 158.299297 
Q 233.975769 156.499297 232.175769 156.499297 
L 145.320144 156.499297 
Q 143.520144 156.499297 143.520144 158.299297 
L 143.520144 170.9 
Q 143.520144 172.7 145.320144 172.7 
z
" style="fill: #ffffff; opacity: 0.8; stroke: #cccccc; stroke-linejoin: miter"/>
    </g>
    <g id="line2d_15">
     <path d="M 147.120144 163.787891 
L 156.120144 163.787891 
L 165.120144 163.787891 
" style="fill: none; stroke: #4682b4; stroke-width: 1.8; stroke-linecap: square"/>
    </g>
    <g id="text_16">
     <!-- AUC = 0.932 -->
     <g transform="translate(172.320144 166.937891) scale(0.09 -0.09)">
      <defs>
       <path id="DejaVuSans-24" d="M 2188 4044 
L 1331 1722 
L 3047 1722 
L 2188 4044 
z
M 1831 4666 
L 2547 4666 
L 4325 0 
L 3669 0 
L 3244 1197 
L 1141 1197 
L 716 0 
L 50 0 
L 1831 4666 
z
" transform="scale(0.015625)"/>
       <path id="DejaVuSans-38" d="M 556 4666 
L 1191 4666 
L 1191 1831 
Q 1191 1081 1462 751 
Q 1734 422 2344 422 
Q 2950 422 3222 751 
Q 3494 1081 3494 1831 
L 3494 4666 
L 4128 4666 
L 4128 1753 
Q 4128 841 3676 375 
Q 3225 -91 2344 -91 
Q 1459 -91 1007 375 
Q 556 841 556 1753 
L 556 4666 
z
" transform="scale(0.015625)"/>
       <path id="DejaVuSans-20" d="M 678 2906 
L 4684 2906 
L 4684 2381 
L 678 2381 
L 678 2906 
z
M 678 1631 
L 4684 1631 
L 4684 1100 
L 678 1100 
L 678 1631 
z
" transform="scale(0.015625)"/>
       <path id="DejaVuSans-1c" d="M 703 97 
L 703 672 
Q 941 559 1184 500 
Q 1428 441 1663 441 
Q 2288 441 2617 861 
Q 2947 1281 2994 2138 
Q 2813 1869 2534 1725 
Q 2256 1581 1919 1581 
Q 1219 1581 811 2004 
Q 403 2428 403 3163 
Q 403 3881 828 4315 
Q 1253 4750 1959 4750 
Q 2769 4750 3195 4129 
Q 3622 3509 3622 2328 
Q 3622 1225 3098 567 
Q 2575 -91 1691 -91 
Q 1453 -91 1209 -44 
Q 966 3 703 97 
z
M 1959 2075 
Q 2384 2075 2632 2365 
Q 2881 2656 2881 3163 
Q 2881 3666 2632 3958 
Q 2384 4250 1959 4250 
Q 1534 4250 1286 3958 
Q 1038 3666 1038 3163 
Q 1038 2656 1286 2365 
Q 1534 2075 1959 2075 
z
" transform="scale(0.015625)"/>
       <path id="DejaVuSans-16" d="M 2597 2516 
Q 3050 2419 3304 2112 
Q 3559 1806 3559 1356 
Q 3559 666 3084 287 
Q 2609 -91 1734 -91 
Q 1441 -91 1130 -33 
Q 819 25 488 141 
L 488 750 
Q 750 597 1062 519 
Q 1375 441 1716 441 
Q 2309 441 2620 675 
Q 2931 909 2931 1356 
Q 2931 1769 2642 2001 
Q 2353 2234 1838 2234 
L 1294 2234 
L 1294 2753 
L 1863 2753 
Q 2328 2753 2575 2939 
Q 2822 3125 2822 3475 
Q 2822 3834 2567 4026 
Q 2313 4219 1838 4219 
Q 1578 4219 1281 4162 
Q 984 4106 628 3988 
L 628 4550 
Q 988 4650 1302 4700 
Q 1616 4750 1894 4750 
Q 2613 4750 3031 4423 
Q 3450 4097 3450 3541 
Q 3450 3153 3228 2886 
Q 3006 2619 2597 2516 
z
" transform="scale(0.015625)"/>
      </defs>
      <use xlink:href="#DejaVuSans-24"/>
      <use xlink:href="#DejaVuSans-38" transform="translate(68.40625 0)"/>
      <use xlink:href="#DejaVuSans-26" transform="translate(141.59375 0)"/>
      <use xlink:href="#DejaVuSans-3" transform="translate(211.421875 0)"/>
      <use xlink:href="#DejaVuSans-20" transform="translate(243.203125 0)"/>
      <use xlink:href="#DejaVuSans-3" transform="translate(327 0)"/>
      <use xlink:href="#DejaVuSans-13" transform="translate(358.78125 0)"/>
      <use xlink:href="#DejaVuSans-11" transform="translate(422.40625 0)"/>
      <use xlink:href="#DejaVuSans-1c" transform="translate(454.1875 0)"/>
      <use xlink:href="#DejaVuSans-16" transform="translate(517.8125 0)"/>
      <use xlink:href="#DejaVuSans-15" transform="translate(581.4375 0)"/>
     </g>
    </g>
   </g>
  </g>
 </g>
 <defs>
  <clipPath id="p0e5e0335da">
   <rect x="43.76" y="24.48" width="194.715769" height="152.72"/>
  </clipPath>
 </defs>
</svg>
