<?xml version="1.0" encoding="utf-8" standalone="no"?>
<!DOCTYPE svg PUBLIC "-//W3C//DTD SVG 1.1//EN"
  "http://www.w3.org/Graphics/SVG/1.1/DTD/svg11.dtd">
<svg xmlns:xlink="http://www.w3.org/1999/xlink" width="725.914562pt" height="310.84pt" viewBox="0 0 725.914562 310.84" xmlns="http://www.w3.org/2000/svg" version="1.1">
 <metadata>
  <rdf:RDF xmlns:dc="http://purl.org/dc/elements/1.1/" xmlns:cc="http://creativecommons.org/ns#" xmlns:rdf="http://www.w3.org/1999/02/22-rdf-syntax-ns#">
   <cc:Work>
    <dc:type rdf:resource="http://purl.org/dc/dcmitype/StillImage"/>
    <dc:date>2026-07-04T00:56:46.097400</dc:date>
    <dc:format>image/svg+xml</dc:format>
    <dc:creator>
     <cc:Agent>
      <dc:title>Matplotlib v3.11.0, https://matplotlib.org/</dc:title>
     </cc:Agent>
    </dc:creator>
   </cc:Work>
  </rdf:RDF>
 </metadata>
 <defs>
  <style type="text/css">*{stroke-linejoin: round; stroke-linecap: butt}</style>
 </defs>
 <g id="figure_1">
  <g id="patch_1">
   <path d="M 0 310.84 
L 725.914562 310.84 
L 725.914562 0 
L 0 0 
z
" style="fill: #ffffff"/>
  </g>
  <g id="axes_1">
   <g id="patch_2">
    <path d="M 43.374375 273.957187 
L 385.885562 273.957187 
L 385.885562 22.76 
L 43.374375 22.76 
z
" style="fill: #ffffff"/>
   </g>
   <g id="matplotlib.axis_1">
    <g id="xtick_1">
     <g id="line2d_1">
      <path d="M 55.765782 273.957187 
L 55.765782 22.76 
" clip-path="url(#pad0ca1b07c)" style="fill: none; stroke: #d0d7de; stroke-opacity: 0.35; stroke-width: 0.8; stroke-linecap: square"/>
     </g>
     <g id="line2d_2">
      <defs>
       <path id="mc981bd4589" d="M 0 0 
L 0 3.5 
" style="stroke: #57606a; stroke-width: 0.8"/>
      </defs>
      <g>
       <use xlink:href="#mc981bd4589" x="55.765782" y="273.957187" style="fill: #57606a; stroke: #57606a; stroke-width: 0.8"/>
      </g>
     </g>
     <g id="text_1">
      <!-- 0.0 -->
      <g style="fill: #57606a" transform="translate(47.019063 289.314609) scale(0.11 -0.11)">
       <defs>
        <path id="DejaVuSerif-13" d="M 2034 219 
Q 2513 219 2750 744 
Q 2988 1269 2988 2328 
Q 2988 3391 2750 3916 
Q 2513 4441 2034 4441 
Q 1556 4441 1318 3916 
Q 1081 3391 1081 2328 
Q 1081 1269 1318 744 
Q 1556 219 2034 219 
z
M 2034 -91 
Q 1275 -91 848 546 
Q 422 1184 422 2328 
Q 422 3475 848 4112 
Q 1275 4750 2034 4750 
Q 2797 4750 3222 4112 
Q 3647 3475 3647 2328 
Q 3647 1184 3222 546 
Q 2797 -91 2034 -91 
z
" transform="scale(0.015625)"/>
        <path id="DejaVuSerif-11" d="M 603 325 
Q 603 500 722 622 
Q 841 744 1019 744 
Q 1191 744 1312 622 
Q 1434 500 1434 325 
Q 1434 153 1312 31 
Q 1191 -91 1019 -91 
Q 841 -91 722 29 
Q 603 150 603 325 
z
" transform="scale(0.015625)"/>
       </defs>
       <use xlink:href="#DejaVuSerif-13"/>
       <use xlink:href="#DejaVuSerif-11" transform="translate(63.625 0)"/>
       <use xlink:href="#DejaVuSerif-13" transform="translate(95.40625 0)"/>
      </g>
     </g>
    </g>
    <g id="xtick_2">
     <g id="line2d_3">
      <path d="M 119.311456 273.957187 
L 119.311456 22.76 
" clip-path="url(#pad0ca1b07c)" style="fill: none; stroke: #d0d7de; stroke-opacity: 0.35; stroke-width: 0.8; stroke-linecap: square"/>
     </g>
     <g id="line2d_4">
      <g>
       <use xlink:href="#mc981bd4589" x="119.311456" y="273.957187" style="fill: #57606a; stroke: #57606a; stroke-width: 0.8"/>
      </g>
     </g>
     <g id="text_2">
      <!-- 0.2 -->
      <g style="fill: #57606a" transform="translate(110.564738 289.314609) scale(0.11 -0.11)">
       <defs>
        <path id="DejaVuSerif-15" d="M 819 3553 
L 469 3553 
L 469 4384 
Q 803 4563 1142 4656 
Q 1481 4750 1806 4750 
Q 2534 4750 2956 4397 
Q 3378 4044 3378 3438 
Q 3378 2753 2422 1800 
Q 2347 1728 2309 1691 
L 1131 513 
L 3078 513 
L 3078 1088 
L 3444 1088 
L 3444 0 
L 434 0 
L 434 341 
L 1850 1753 
Q 2319 2222 2519 2614 
Q 2719 3006 2719 3438 
Q 2719 3909 2473 4175 
Q 2228 4441 1797 4441 
Q 1350 4441 1106 4219 
Q 863 3997 819 3553 
z
" transform="scale(0.015625)"/>
       </defs>
       <use xlink:href="#DejaVuSerif-13"/>
       <use xlink:href="#DejaVuSerif-11" transform="translate(63.625 0)"/>
       <use xlink:href="#DejaVuSerif-15" transform="translate(95.40625 0)"/>
      </g>
     </g>
    </g>
    <g id="xtick_3">
     <g id="line2d_5">
      <path d="M 182.857131 273.957187 
L 182.857131 22.76 
" clip-path="url(#pad0ca1b07c)" style="fill: none; stroke: #d0d7de; stroke-opacity: 0.35; stroke-width: 0.8; stroke-linecap: square"/>
     </g>
     <g id="line2d_6">
      <g>
       <use xlink:href="#mc981bd4589" x="182.857131" y="273.957187" style="fill: #57606a; stroke: #57606a; stroke-width: 0.8"/>
      </g>
     </g>
     <g id="text_3">
      <!-- 0.4 -->
      <g style="fill: #57606a" transform="translate(174.110413 289.314609) scale(0.11 -0.11)">
       <defs>
        <path id="DejaVuSerif-17" d="M 2234 1581 
L 2234 4063 
L 641 1581 
L 2234 1581 
z
M 3609 0 
L 1484 0 
L 1484 331 
L 2234 331 
L 2234 1247 
L 197 1247 
L 197 1588 
L 2241 4750 
L 2859 4750 
L 2859 1581 
L 3750 1581 
L 3750 1247 
L 2859 1247 
L 2859 331 
L 3609 331 
L 3609 0 
z
" transform="scale(0.015625)"/>
       </defs>
       <use xlink:href="#DejaVuSerif-13"/>
       <use xlink:href="#DejaVuSerif-11" transform="translate(63.625 0)"/>
       <use xlink:href="#DejaVuSerif-17" transform="translate(95.40625 0)"/>
      </g>
     </g>
    </g>
    <g id="xtick_4">
     <g id="line2d_7">
      <path d="M 246.402806 273.957187 
L 246.402806 22.76 
" clip-path="url(#pad0ca1b07c)" style="fill: none; stroke: #d0d7de; stroke-opacity: 0.35; stroke-width: 0.8; stroke-linecap: square"/>
     </g>
     <g id="line2d_8">
      <g>
       <use xlink:href="#mc981bd4589" x="246.402806" y="273.957187" style="fill: #57606a; stroke: #57606a; stroke-width: 0.8"/>
      </g>
     </g>
     <g id="text_4">
      <!-- 0.6 -->
      <g style="fill: #57606a" transform="translate(237.656087 289.314609) scale(0.11 -0.11)">
       <defs>
        <path id="DejaVuSerif-19" d="M 2094 219 
Q 2534 219 2771 542 
Q 3009 866 3009 1472 
Q 3009 2078 2771 2401 
Q 2534 2725 2094 2725 
Q 1647 2725 1412 2412 
Q 1178 2100 1178 1509 
Q 1178 888 1415 553 
Q 1653 219 2094 219 
z
M 1075 2569 
Q 1288 2803 1556 2918 
Q 1825 3034 2163 3034 
Q 2859 3034 3264 2615 
Q 3669 2197 3669 1472 
Q 3669 763 3233 336 
Q 2797 -91 2069 -91 
Q 1278 -91 853 498 
Q 428 1088 428 2181 
Q 428 3406 931 4078 
Q 1434 4750 2350 4750 
Q 2597 4750 2869 4703 
Q 3141 4656 3425 4563 
L 3425 3794 
L 3072 3794 
Q 3034 4109 2831 4275 
Q 2628 4441 2284 4441 
Q 1678 4441 1381 3981 
Q 1084 3522 1075 2569 
z
" transform="scale(0.015625)"/>
       </defs>
       <use xlink:href="#DejaVuSerif-13"/>
       <use xlink:href="#DejaVuSerif-11" transform="translate(63.625 0)"/>
       <use xlink:href="#DejaVuSerif-19" transform="translate(95.40625 0)"/>
      </g>
     </g>
    </g>
    <g id="xtick_5">
     <g id="line2d_9">
      <path d="M 309.948481 273.957187 
L 309.948481 22.76 
" clip-path="url(#pad0ca1b07c)" style="fill: none; stroke: #d0d7de; stroke-opacity: 0.35; stroke-width: 0.8; stroke-linecap: square"/>
     </g>
     <g id="line2d_10">
      <g>
       <use xlink:href="#mc981bd4589" x="309.948481" y="273.957187" style="fill: #57606a; stroke: #57606a; stroke-width: 0.8"/>
      </g>
     </g>
     <g id="text_5">
      <!-- 0.8 -->
      <g style="fill: #57606a" transform="translate(301.201762 289.314609) scale(0.11 -0.11)">
       <defs>
        <path id="DejaVuSerif-1b" d="M 2981 1275 
Q 2981 1775 2732 2051 
Q 2484 2328 2034 2328 
Q 1584 2328 1336 2051 
Q 1088 1775 1088 1275 
Q 1088 772 1336 495 
Q 1584 219 2034 219 
Q 2484 219 2732 495 
Q 2981 772 2981 1275 
z
M 2853 3541 
Q 2853 3966 2637 4203 
Q 2422 4441 2034 4441 
Q 1650 4441 1433 4203 
Q 1216 3966 1216 3541 
Q 1216 3113 1433 2875 
Q 1650 2638 2034 2638 
Q 2422 2638 2637 2875 
Q 2853 3113 2853 3541 
z
M 2516 2484 
Q 3047 2413 3344 2092 
Q 3641 1772 3641 1275 
Q 3641 619 3225 264 
Q 2809 -91 2034 -91 
Q 1263 -91 845 264 
Q 428 619 428 1275 
Q 428 1772 725 2092 
Q 1022 2413 1556 2484 
Q 1084 2569 832 2842 
Q 581 3116 581 3541 
Q 581 4103 968 4426 
Q 1356 4750 2034 4750 
Q 2713 4750 3100 4426 
Q 3488 4103 3488 3541 
Q 3488 3116 3236 2842 
Q 2984 2569 2516 2484 
z
" transform="scale(0.015625)"/>
       </defs>
       <use xlink:href="#DejaVuSerif-13"/>
       <use xlink:href="#DejaVuSerif-11" transform="translate(63.625 0)"/>
       <use xlink:href="#DejaVuSerif-1b" transform="translate(95.40625 0)"/>
      </g>
     </g>
    </g>
    <g id="xtick_6">
     <g id="line2d_11">
      <path d="M 373.494156 273.957187 
L 373.494156 22.76 
" clip-path="url(#pad0ca1b07c)" style="fill: none; stroke: #d0d7de; stroke-opacity: 0.35; stroke-width: 0.8; stroke-linecap: square"/>
     </g>
     <g id="line2d_12">
      <g>
       <use xlink:href="#mc981bd4589" x="373.494156" y="273.957187" style="fill: #57606a; stroke: #57606a; stroke-width: 0.8"/>
      </g>
     </g>
     <g id="text_6">
      <!-- 1.0 -->
      <g style="fill: #57606a" transform="translate(364.747437 289.314609) scale(0.11 -0.11)">
       <defs>
        <path id="DejaVuSerif-14" d="M 909 0 
L 909 331 
L 1722 331 
L 1722 4213 
L 781 3603 
L 781 4013 
L 1919 4750 
L 2350 4750 
L 2350 331 
L 3163 331 
L 3163 0 
L 909 0 
z
" transform="scale(0.015625)"/>
       </defs>
       <use xlink:href="#DejaVuSerif-14"/>
       <use xlink:href="#DejaVuSerif-11" transform="translate(63.625 0)"/>
       <use xlink:href="#DejaVuSerif-13" transform="translate(95.40625 0)"/>
      </g>
     </g>
    </g>
    <g id="text_7">
     <!-- Predicted probability for true class  $p_t$ -->
     <g style="fill: #1f2328" transform="translate(98.589969 305.077187) scale(0.12 -0.12)">
      <defs>
       <path id="DejaVuSerif-33" d="M 1581 2375 
L 2406 2375 
Q 2872 2375 3115 2626 
Q 3359 2878 3359 3353 
Q 3359 3831 3115 4081 
Q 2872 4331 2406 4331 
L 1581 4331 
L 1581 2375 
z
M 353 0 
L 353 331 
L 947 331 
L 947 4331 
L 353 4331 
L 353 4666 
L 2559 4666 
Q 3259 4666 3668 4311 
Q 4078 3956 4078 3353 
Q 4078 2753 3668 2397 
Q 3259 2041 2559 2041 
L 1581 2041 
L 1581 331 
L 2303 331 
L 2303 0 
L 353 0 
z
" transform="scale(0.015625)"/>
       <path id="DejaVuSerif-55" d="M 3059 3328 
L 3059 2497 
L 2728 2497 
Q 2713 2744 2591 2866 
Q 2469 2988 2234 2988 
Q 1809 2988 1582 2694 
Q 1356 2400 1356 1850 
L 1356 331 
L 2022 331 
L 2022 0 
L 263 0 
L 263 331 
L 781 331 
L 781 2994 
L 231 2994 
L 231 3322 
L 1356 3322 
L 1356 2731 
Q 1525 3078 1790 3245 
Q 2056 3413 2438 3413 
Q 2578 3413 2733 3391 
Q 2888 3369 3059 3328 
z
" transform="scale(0.015625)"/>
       <path id="DejaVuSerif-48" d="M 3469 1600 
L 991 1600 
L 991 1575 
Q 991 903 1244 561 
Q 1497 219 1991 219 
Q 2369 219 2611 417 
Q 2853 616 2950 1006 
L 3413 1006 
Q 3275 459 2904 184 
Q 2534 -91 1931 -91 
Q 1203 -91 761 389 
Q 319 869 319 1663 
Q 319 2450 753 2931 
Q 1188 3413 1894 3413 
Q 2647 3413 3050 2948 
Q 3453 2484 3469 1600 
z
M 2791 1931 
Q 2772 2513 2545 2808 
Q 2319 3103 1894 3103 
Q 1497 3103 1269 2806 
Q 1041 2509 991 1931 
L 2791 1931 
z
" transform="scale(0.015625)"/>
       <path id="DejaVuSerif-47" d="M 3359 331 
L 3909 331 
L 3909 0 
L 2784 0 
L 2784 519 
Q 2616 206 2355 57 
Q 2094 -91 1709 -91 
Q 1097 -91 708 395 
Q 319 881 319 1663 
Q 319 2444 706 2928 
Q 1094 3413 1709 3413 
Q 2094 3413 2355 3264 
Q 2616 3116 2784 2803 
L 2784 4531 
L 2241 4531 
L 2241 4863 
L 3359 4863 
L 3359 331 
z
M 2784 1497 
L 2784 1825 
Q 2784 2422 2554 2737 
Q 2325 3053 1888 3053 
Q 1444 3053 1217 2703 
Q 991 2353 991 1663 
Q 991 975 1217 622 
Q 1444 269 1888 269 
Q 2325 269 2554 583 
Q 2784 897 2784 1497 
z
" transform="scale(0.015625)"/>
       <path id="DejaVuSerif-4c" d="M 622 4353 
Q 622 4497 726 4603 
Q 831 4709 978 4709 
Q 1122 4709 1226 4603 
Q 1331 4497 1331 4353 
Q 1331 4206 1228 4103 
Q 1125 4000 978 4000 
Q 831 4000 726 4103 
Q 622 4206 622 4353 
z
M 1356 331 
L 1900 331 
L 1900 0 
L 231 0 
L 231 331 
L 781 331 
L 781 2988 
L 231 2988 
L 231 3322 
L 1356 3322 
L 1356 331 
z
" transform="scale(0.015625)"/>
       <path id="DejaVuSerif-46" d="M 3291 997 
Q 3169 466 2822 187 
Q 2475 -91 1925 -91 
Q 1200 -91 759 389 
Q 319 869 319 1663 
Q 319 2459 759 2936 
Q 1200 3413 1925 3413 
Q 2241 3413 2553 3339 
Q 2866 3266 3181 3116 
L 3181 2266 
L 2847 2266 
Q 2781 2703 2561 2903 
Q 2341 3103 1931 3103 
Q 1466 3103 1228 2742 
Q 991 2381 991 1663 
Q 991 944 1227 581 
Q 1463 219 1931 219 
Q 2303 219 2525 412 
Q 2747 606 2828 997 
L 3291 997 
z
" transform="scale(0.015625)"/>
       <path id="DejaVuSerif-57" d="M 691 2988 
L 184 2988 
L 184 3322 
L 691 3322 
L 691 4353 
L 1269 4353 
L 1269 3322 
L 2350 3322 
L 2350 2988 
L 1269 2988 
L 1269 878 
Q 1269 456 1350 337 
Q 1431 219 1650 219 
Q 1875 219 1978 351 
Q 2081 484 2088 781 
L 2522 781 
Q 2497 328 2275 118 
Q 2053 -91 1600 -91 
Q 1103 -91 897 129 
Q 691 350 691 878 
L 691 2988 
z
" transform="scale(0.015625)"/>
       <path id="DejaVuSerif-3" transform="scale(0.015625)"/>
       <path id="DejaVuSerif-53" d="M 1313 1825 
L 1313 1497 
Q 1313 897 1542 583 
Q 1772 269 2209 269 
Q 2650 269 2876 622 
Q 3103 975 3103 1663 
Q 3103 2353 2876 2703 
Q 2650 3053 2209 3053 
Q 1772 3053 1542 2737 
Q 1313 2422 1313 1825 
z
M 738 2988 
L 184 2988 
L 184 3322 
L 1313 3322 
L 1313 2803 
Q 1481 3116 1742 3264 
Q 2003 3413 2388 3413 
Q 3000 3413 3387 2928 
Q 3775 2444 3775 1663 
Q 3775 881 3387 395 
Q 3000 -91 2388 -91 
Q 2003 -91 1742 57 
Q 1481 206 1313 519 
L 1313 -997 
L 1856 -997 
L 1856 -1331 
L 184 -1331 
L 184 -997 
L 738 -997 
L 738 2988 
z
" transform="scale(0.015625)"/>
       <path id="DejaVuSerif-52" d="M 1925 219 
Q 2388 219 2623 584 
Q 2859 950 2859 1663 
Q 2859 2375 2623 2739 
Q 2388 3103 1925 3103 
Q 1463 3103 1227 2739 
Q 991 2375 991 1663 
Q 991 950 1228 584 
Q 1466 219 1925 219 
z
M 1925 -91 
Q 1200 -91 759 389 
Q 319 869 319 1663 
Q 319 2456 758 2934 
Q 1197 3413 1925 3413 
Q 2653 3413 3092 2934 
Q 3531 2456 3531 1663 
Q 3531 869 3092 389 
Q 2653 -91 1925 -91 
z
" transform="scale(0.015625)"/>
       <path id="DejaVuSerif-45" d="M 738 331 
L 738 4531 
L 184 4531 
L 184 4863 
L 1313 4863 
L 1313 2803 
Q 1481 3116 1742 3264 
Q 2003 3413 2388 3413 
Q 3000 3413 3387 2928 
Q 3775 2444 3775 1663 
Q 3775 881 3387 395 
Q 3000 -91 2388 -91 
Q 2003 -91 1742 57 
Q 1481 206 1313 519 
L 1313 0 
L 184 0 
L 184 331 
L 738 331 
z
M 1313 1497 
Q 1313 897 1542 583 
Q 1772 269 2209 269 
Q 2650 269 2876 622 
Q 3103 975 3103 1663 
Q 3103 2353 2876 2703 
Q 2650 3053 2209 3053 
Q 1772 3053 1542 2737 
Q 1313 2422 1313 1825 
L 1313 1497 
z
" transform="scale(0.015625)"/>
       <path id="DejaVuSerif-44" d="M 2547 1044 
L 2547 1747 
L 1806 1747 
Q 1378 1747 1168 1562 
Q 959 1378 959 997 
Q 959 650 1171 447 
Q 1384 244 1747 244 
Q 2106 244 2326 466 
Q 2547 688 2547 1044 
z
M 3122 2075 
L 3122 331 
L 3634 331 
L 3634 0 
L 2547 0 
L 2547 359 
Q 2356 128 2106 18 
Q 1856 -91 1522 -91 
Q 969 -91 644 203 
Q 319 497 319 997 
Q 319 1513 691 1797 
Q 1063 2081 1741 2081 
L 2547 2081 
L 2547 2309 
Q 2547 2688 2317 2895 
Q 2088 3103 1672 3103 
Q 1328 3103 1125 2947 
Q 922 2791 872 2484 
L 575 2484 
L 575 3156 
Q 875 3284 1158 3348 
Q 1441 3413 1709 3413 
Q 2400 3413 2761 3070 
Q 3122 2728 3122 2075 
z
" transform="scale(0.015625)"/>
       <path id="DejaVuSerif-4f" d="M 1313 331 
L 1856 331 
L 1856 0 
L 184 0 
L 184 331 
L 738 331 
L 738 4531 
L 184 4531 
L 184 4863 
L 1313 4863 
L 1313 331 
z
" transform="scale(0.015625)"/>
       <path id="DejaVuSerif-5c" d="M 1381 -609 
L 1600 -56 
L 359 2988 
L -19 2988 
L -19 3322 
L 1509 3322 
L 1509 2988 
L 978 2988 
L 1913 703 
L 2847 2988 
L 2350 2988 
L 2350 3322 
L 3597 3322 
L 3597 2988 
L 3225 2988 
L 1703 -750 
Q 1547 -1138 1356 -1280 
Q 1166 -1422 819 -1422 
Q 672 -1422 517 -1397 
Q 363 -1372 206 -1325 
L 206 -691 
L 500 -691 
Q 519 -903 608 -995 
Q 697 -1088 884 -1088 
Q 1056 -1088 1161 -992 
Q 1266 -897 1381 -609 
z
" transform="scale(0.015625)"/>
       <path id="DejaVuSerif-49" d="M 2753 4078 
L 2450 4078 
Q 2447 4313 2317 4434 
Q 2188 4556 1941 4556 
Q 1619 4556 1487 4379 
Q 1356 4203 1356 3750 
L 1356 3322 
L 2284 3322 
L 2284 2988 
L 1356 2988 
L 1356 331 
L 2094 331 
L 2094 0 
L 231 0 
L 231 331 
L 781 331 
L 781 2988 
L 231 2988 
L 231 3322 
L 781 3322 
L 781 3738 
Q 781 4294 1070 4578 
Q 1359 4863 1919 4863 
Q 2128 4863 2337 4825 
Q 2547 4788 2753 4709 
L 2753 4078 
z
" transform="scale(0.015625)"/>
       <path id="DejaVuSerif-58" d="M 2266 3322 
L 3341 3322 
L 3341 331 
L 3884 331 
L 3884 0 
L 2766 0 
L 2766 588 
Q 2606 256 2353 82 
Q 2100 -91 1766 -91 
Q 1213 -91 952 223 
Q 691 538 691 1209 
L 691 2988 
L 172 2988 
L 172 3322 
L 1269 3322 
L 1269 1388 
Q 1269 781 1417 556 
Q 1566 331 1947 331 
Q 2347 331 2556 625 
Q 2766 919 2766 1478 
L 2766 2988 
L 2266 2988 
L 2266 3322 
z
" transform="scale(0.015625)"/>
       <path id="DejaVuSerif-56" d="M 359 184 
L 359 959 
L 691 959 
Q 703 588 923 403 
Q 1144 219 1575 219 
Q 1963 219 2166 364 
Q 2369 509 2369 788 
Q 2369 1006 2220 1140 
Q 2072 1275 1594 1428 
L 1178 1569 
Q 750 1706 558 1912 
Q 366 2119 366 2438 
Q 366 2894 700 3153 
Q 1034 3413 1625 3413 
Q 1888 3413 2178 3344 
Q 2469 3275 2778 3144 
L 2778 2419 
L 2447 2419 
Q 2434 2741 2221 2922 
Q 2009 3103 1644 3103 
Q 1281 3103 1095 2975 
Q 909 2847 909 2591 
Q 909 2381 1050 2254 
Q 1191 2128 1613 1997 
L 2069 1856 
Q 2541 1709 2748 1489 
Q 2956 1269 2956 922 
Q 2956 450 2595 179 
Q 2234 -91 1600 -91 
Q 1278 -91 972 -22 
Q 666 47 359 184 
z
" transform="scale(0.015625)"/>
       <path id="DejaVuSans-Oblique-53" d="M 3175 2156 
Q 3175 2616 2975 2859 
Q 2775 3103 2400 3103 
Q 2144 3103 1911 2972 
Q 1678 2841 1497 2591 
Q 1319 2344 1212 1994 
Q 1106 1644 1106 1300 
Q 1106 863 1306 627 
Q 1506 391 1875 391 
Q 2147 391 2380 519 
Q 2613 647 2778 891 
Q 2956 1147 3065 1494 
Q 3175 1841 3175 2156 
z
M 1394 2969 
Q 1625 3272 1939 3428 
Q 2253 3584 2638 3584 
Q 3175 3584 3472 3232 
Q 3769 2881 3769 2247 
Q 3769 1728 3584 1258 
Q 3400 788 3053 416 
Q 2822 169 2531 39 
Q 2241 -91 1919 -91 
Q 1547 -91 1294 64 
Q 1041 219 916 525 
L 556 -1331 
L -19 -1331 
L 922 3500 
L 1497 3500 
L 1394 2969 
z
" transform="scale(0.015625)"/>
       <path id="DejaVuSans-Oblique-57" d="M 2706 3500 
L 2619 3053 
L 1472 3053 
L 1100 1153 
Q 1081 1047 1072 975 
Q 1063 903 1063 863 
Q 1063 663 1183 572 
Q 1303 481 1569 481 
L 2150 481 
L 2053 0 
L 1503 0 
Q 991 0 739 200 
Q 488 400 488 806 
Q 488 878 497 964 
Q 506 1050 525 1153 
L 897 3053 
L 409 3053 
L 500 3500 
L 978 3500 
L 1172 4494 
L 1747 4494 
L 1556 3500 
L 2706 3500 
z
" transform="scale(0.015625)"/>
      </defs>
      <use xlink:href="#DejaVuSerif-33" transform="translate(0 0.015625)"/>
      <use xlink:href="#DejaVuSerif-55" transform="translate(67.285156 0.015625)"/>
      <use xlink:href="#DejaVuSerif-48" transform="translate(115.087891 0.015625)"/>
      <use xlink:href="#DejaVuSerif-47" transform="translate(174.267578 0.015625)"/>
      <use xlink:href="#DejaVuSerif-4c" transform="translate(238.28125 0.015625)"/>
      <use xlink:href="#DejaVuSerif-46" transform="translate(270.263672 0.015625)"/>
      <use xlink:href="#DejaVuSerif-57" transform="translate(326.269531 0.015625)"/>
      <use xlink:href="#DejaVuSerif-48" transform="translate(366.455078 0.015625)"/>
      <use xlink:href="#DejaVuSerif-47" transform="translate(425.634766 0.015625)"/>
      <use xlink:href="#DejaVuSerif-3" transform="translate(489.648438 0.015625)"/>
      <use xlink:href="#DejaVuSerif-53" transform="translate(521.435547 0.015625)"/>
      <use xlink:href="#DejaVuSerif-55" transform="translate(585.449219 0.015625)"/>
      <use xlink:href="#DejaVuSerif-52" transform="translate(633.251953 0.015625)"/>
      <use xlink:href="#DejaVuSerif-45" transform="translate(693.457031 0.015625)"/>
      <use xlink:href="#DejaVuSerif-44" transform="translate(757.470703 0.015625)"/>
      <use xlink:href="#DejaVuSerif-45" transform="translate(817.089844 0.015625)"/>
      <use xlink:href="#DejaVuSerif-4c" transform="translate(881.103516 0.015625)"/>
      <use xlink:href="#DejaVuSerif-4f" transform="translate(913.085938 0.015625)"/>
      <use xlink:href="#DejaVuSerif-4c" transform="translate(945.068359 0.015625)"/>
      <use xlink:href="#DejaVuSerif-57" transform="translate(977.050781 0.015625)"/>
      <use xlink:href="#DejaVuSerif-5c" transform="translate(1017.236328 0.015625)"/>
      <use xlink:href="#DejaVuSerif-3" transform="translate(1073.730469 0.015625)"/>
      <use xlink:href="#DejaVuSerif-49" transform="translate(1105.517578 0.015625)"/>
      <use xlink:href="#DejaVuSerif-52" transform="translate(1142.529297 0.015625)"/>
      <use xlink:href="#DejaVuSerif-55" transform="translate(1202.734375 0.015625)"/>
      <use xlink:href="#DejaVuSerif-3" transform="translate(1250.537109 0.015625)"/>
      <use xlink:href="#DejaVuSerif-57" transform="translate(1282.324219 0.015625)"/>
      <use xlink:href="#DejaVuSerif-55" transform="translate(1322.509766 0.015625)"/>
      <use xlink:href="#DejaVuSerif-58" transform="translate(1370.3125 0.015625)"/>
      <use xlink:href="#DejaVuSerif-48" transform="translate(1434.716797 0.015625)"/>
      <use xlink:href="#DejaVuSerif-3" transform="translate(1493.896484 0.015625)"/>
      <use xlink:href="#DejaVuSerif-46" transform="translate(1525.683594 0.015625)"/>
      <use xlink:href="#DejaVuSerif-4f" transform="translate(1581.689453 0.015625)"/>
      <use xlink:href="#DejaVuSerif-44" transform="translate(1613.671875 0.015625)"/>
      <use xlink:href="#DejaVuSerif-56" transform="translate(1673.291016 0.015625)"/>
      <use xlink:href="#DejaVuSerif-56" transform="translate(1724.609375 0.015625)"/>
      <use xlink:href="#DejaVuSerif-3" transform="translate(1775.927734 0.015625)"/>
      <use xlink:href="#DejaVuSerif-3" transform="translate(1807.714844 0.015625)"/>
      <use xlink:href="#DejaVuSans-Oblique-53" transform="translate(1839.501953 0.015625)"/>
      <use xlink:href="#DejaVuSans-Oblique-57" transform="translate(1902.978516 -14.984326) scale(0.7)"/>
     </g>
    </g>
   </g>
   <g id="matplotlib.axis_2">
    <g id="ytick_1">
     <g id="line2d_13">
      <path d="M 43.374375 273.957187 
L 385.885562 273.957187 
" clip-path="url(#pad0ca1b07c)" style="fill: none; stroke: #d0d7de; stroke-opacity: 0.35; stroke-width: 0.8; stroke-linecap: square"/>
     </g>
     <g id="line2d_14">
      <defs>
       <path id="m7747829142" d="M 0 0 
L -3.5 0 
" style="stroke: #57606a; stroke-width: 0.8"/>
      </defs>
      <g>
       <use xlink:href="#m7747829142" x="43.374375" y="273.957187" style="fill: #57606a; stroke: #57606a; stroke-width: 0.8"/>
      </g>
     </g>
     <g id="text_8">
      <!-- 0.0 -->
      <g style="fill: #57606a" transform="translate(18.880938 278.135898) scale(0.11 -0.11)">
       <use xlink:href="#DejaVuSerif-13"/>
       <use xlink:href="#DejaVuSerif-11" transform="translate(63.625 0)"/>
       <use xlink:href="#DejaVuSerif-13" transform="translate(95.40625 0)"/>
      </g>
     </g>
    </g>
    <g id="ytick_2">
     <g id="line2d_15">
      <path d="M 43.374375 246.046389 
L 385.885562 246.046389 
" clip-path="url(#pad0ca1b07c)" style="fill: none; stroke: #d0d7de; stroke-opacity: 0.35; stroke-width: 0.8; stroke-linecap: square"/>
     </g>
     <g id="line2d_16">
      <g>
       <use xlink:href="#m7747829142" x="43.374375" y="246.046389" style="fill: #57606a; stroke: #57606a; stroke-width: 0.8"/>
      </g>
     </g>
     <g id="text_9">
      <!-- 0.5 -->
      <g style="fill: #57606a" transform="translate(18.880938 250.2251) scale(0.11 -0.11)">
       <defs>
        <path id="DejaVuSerif-18" d="M 3219 4666 
L 3219 4153 
L 1081 4153 
L 1081 2816 
Q 1244 2928 1461 2984 
Q 1678 3041 1947 3041 
Q 2703 3041 3140 2622 
Q 3578 2203 3578 1478 
Q 3578 738 3136 323 
Q 2694 -91 1894 -91 
Q 1572 -91 1234 -12 
Q 897 66 544 225 
L 544 1131 
L 897 1131 
Q 925 688 1179 453 
Q 1434 219 1894 219 
Q 2388 219 2653 544 
Q 2919 869 2919 1478 
Q 2919 2084 2655 2407 
Q 2391 2731 1894 2731 
Q 1613 2731 1398 2631 
Q 1184 2531 1019 2322 
L 750 2322 
L 750 4666 
L 3219 4666 
z
" transform="scale(0.015625)"/>
       </defs>
       <use xlink:href="#DejaVuSerif-13"/>
       <use xlink:href="#DejaVuSerif-11" transform="translate(63.625 0)"/>
       <use xlink:href="#DejaVuSerif-18" transform="translate(95.40625 0)"/>
      </g>
     </g>
    </g>
    <g id="ytick_3">
     <g id="line2d_17">
      <path d="M 43.374375 218.13559 
L 385.885562 218.13559 
" clip-path="url(#pad0ca1b07c)" style="fill: none; stroke: #d0d7de; stroke-opacity: 0.35; stroke-width: 0.8; stroke-linecap: square"/>
     </g>
     <g id="line2d_18">
      <g>
       <use xlink:href="#m7747829142" x="43.374375" y="218.13559" style="fill: #57606a; stroke: #57606a; stroke-width: 0.8"/>
      </g>
     </g>
     <g id="text_10">
      <!-- 1.0 -->
      <g style="fill: #57606a" transform="translate(18.880938 222.314301) scale(0.11 -0.11)">
       <use xlink:href="#DejaVuSerif-14"/>
       <use xlink:href="#DejaVuSerif-11" transform="translate(63.625 0)"/>
       <use xlink:href="#DejaVuSerif-13" transform="translate(95.40625 0)"/>
      </g>
     </g>
    </g>
    <g id="ytick_4">
     <g id="line2d_19">
      <path d="M 43.374375 190.224792 
L 385.885562 190.224792 
" clip-path="url(#pad0ca1b07c)" style="fill: none; stroke: #d0d7de; stroke-opacity: 0.35; stroke-width: 0.8; stroke-linecap: square"/>
     </g>
     <g id="line2d_20">
      <g>
       <use xlink:href="#m7747829142" x="43.374375" y="190.224792" style="fill: #57606a; stroke: #57606a; stroke-width: 0.8"/>
      </g>
     </g>
     <g id="text_11">
      <!-- 1.5 -->
      <g style="fill: #57606a" transform="translate(18.880938 194.403503) scale(0.11 -0.11)">
       <use xlink:href="#DejaVuSerif-14"/>
       <use xlink:href="#DejaVuSerif-11" transform="translate(63.625 0)"/>
       <use xlink:href="#DejaVuSerif-18" transform="translate(95.40625 0)"/>
      </g>
     </g>
    </g>
    <g id="ytick_5">
     <g id="line2d_21">
      <path d="M 43.374375 162.313993 
L 385.885562 162.313993 
" clip-path="url(#pad0ca1b07c)" style="fill: none; stroke: #d0d7de; stroke-opacity: 0.35; stroke-width: 0.8; stroke-linecap: square"/>
     </g>
     <g id="line2d_22">
      <g>
       <use xlink:href="#m7747829142" x="43.374375" y="162.313993" style="fill: #57606a; stroke: #57606a; stroke-width: 0.8"/>
      </g>
     </g>
     <g id="text_12">
      <!-- 2.0 -->
      <g style="fill: #57606a" transform="translate(18.880938 166.492704) scale(0.11 -0.11)">
       <use xlink:href="#DejaVuSerif-15"/>
       <use xlink:href="#DejaVuSerif-11" transform="translate(63.625 0)"/>
       <use xlink:href="#DejaVuSerif-13" transform="translate(95.40625 0)"/>
      </g>
     </g>
    </g>
    <g id="ytick_6">
     <g id="line2d_23">
      <path d="M 43.374375 134.403194 
L 385.885562 134.403194 
" clip-path="url(#pad0ca1b07c)" style="fill: none; stroke: #d0d7de; stroke-opacity: 0.35; stroke-width: 0.8; stroke-linecap: square"/>
     </g>
     <g id="line2d_24">
      <g>
       <use xlink:href="#m7747829142" x="43.374375" y="134.403194" style="fill: #57606a; stroke: #57606a; stroke-width: 0.8"/>
      </g>
     </g>
     <g id="text_13">
      <!-- 2.5 -->
      <g style="fill: #57606a" transform="translate(18.880938 138.581905) scale(0.11 -0.11)">
       <use xlink:href="#DejaVuSerif-15"/>
       <use xlink:href="#DejaVuSerif-11" transform="translate(63.625 0)"/>
       <use xlink:href="#DejaVuSerif-18" transform="translate(95.40625 0)"/>
      </g>
     </g>
    </g>
    <g id="ytick_7">
     <g id="line2d_25">
      <path d="M 43.374375 106.492396 
L 385.885562 106.492396 
" clip-path="url(#pad0ca1b07c)" style="fill: none; stroke: #d0d7de; stroke-opacity: 0.35; stroke-width: 0.8; stroke-linecap: square"/>
     </g>
     <g id="line2d_26">
      <g>
       <use xlink:href="#m7747829142" x="43.374375" y="106.492396" style="fill: #57606a; stroke: #57606a; stroke-width: 0.8"/>
      </g>
     </g>
     <g id="text_14">
      <!-- 3.0 -->
      <g style="fill: #57606a" transform="translate(18.880938 110.671107) scale(0.11 -0.11)">
       <defs>
        <path id="DejaVuSerif-16" d="M 622 4469 
Q 988 4606 1323 4678 
Q 1659 4750 1953 4750 
Q 2638 4750 3022 4454 
Q 3406 4159 3406 3634 
Q 3406 3213 3140 2930 
Q 2875 2647 2388 2547 
Q 2963 2466 3280 2130 
Q 3597 1794 3597 1259 
Q 3597 606 3158 257 
Q 2719 -91 1894 -91 
Q 1528 -91 1179 -12 
Q 831 66 488 225 
L 488 1131 
L 838 1131 
Q 869 681 1141 450 
Q 1413 219 1906 219 
Q 2384 219 2661 495 
Q 2938 772 2938 1253 
Q 2938 1803 2653 2086 
Q 2369 2369 1819 2369 
L 1522 2369 
L 1522 2688 
L 1678 2688 
Q 2225 2688 2498 2914 
Q 2772 3141 2772 3597 
Q 2772 4006 2547 4223 
Q 2322 4441 1900 4441 
Q 1478 4441 1245 4241 
Q 1013 4041 972 3647 
L 622 3647 
L 622 4469 
z
" transform="scale(0.015625)"/>
       </defs>
       <use xlink:href="#DejaVuSerif-16"/>
       <use xlink:href="#DejaVuSerif-11" transform="translate(63.625 0)"/>
       <use xlink:href="#DejaVuSerif-13" transform="translate(95.40625 0)"/>
      </g>
     </g>
    </g>
    <g id="ytick_8">
     <g id="line2d_27">
      <path d="M 43.374375 78.581597 
L 385.885562 78.581597 
" clip-path="url(#pad0ca1b07c)" style="fill: none; stroke: #d0d7de; stroke-opacity: 0.35; stroke-width: 0.8; stroke-linecap: square"/>
     </g>
     <g id="line2d_28">
      <g>
       <use xlink:href="#m7747829142" x="43.374375" y="78.581597" style="fill: #57606a; stroke: #57606a; stroke-width: 0.8"/>
      </g>
     </g>
     <g id="text_15">
      <!-- 3.5 -->
      <g style="fill: #57606a" transform="translate(18.880938 82.760308) scale(0.11 -0.11)">
       <use xlink:href="#DejaVuSerif-16"/>
       <use xlink:href="#DejaVuSerif-11" transform="translate(63.625 0)"/>
       <use xlink:href="#DejaVuSerif-18" transform="translate(95.40625 0)"/>
      </g>
     </g>
    </g>
    <g id="ytick_9">
     <g id="line2d_29">
      <path d="M 43.374375 50.670799 
L 385.885562 50.670799 
" clip-path="url(#pad0ca1b07c)" style="fill: none; stroke: #d0d7de; stroke-opacity: 0.35; stroke-width: 0.8; stroke-linecap: square"/>
     </g>
     <g id="line2d_30">
      <g>
       <use xlink:href="#m7747829142" x="43.374375" y="50.670799" style="fill: #57606a; stroke: #57606a; stroke-width: 0.8"/>
      </g>
     </g>
     <g id="text_16">
      <!-- 4.0 -->
      <g style="fill: #57606a" transform="translate(18.880938 54.84951) scale(0.11 -0.11)">
       <use xlink:href="#DejaVuSerif-17"/>
       <use xlink:href="#DejaVuSerif-11" transform="translate(63.625 0)"/>
       <use xlink:href="#DejaVuSerif-13" transform="translate(95.40625 0)"/>
      </g>
     </g>
    </g>
    <g id="ytick_10">
     <g id="line2d_31">
      <path d="M 43.374375 22.76 
L 385.885562 22.76 
" clip-path="url(#pad0ca1b07c)" style="fill: none; stroke: #d0d7de; stroke-opacity: 0.35; stroke-width: 0.8; stroke-linecap: square"/>
     </g>
     <g id="line2d_32">
      <g>
       <use xlink:href="#m7747829142" x="43.374375" y="22.76" style="fill: #57606a; stroke: #57606a; stroke-width: 0.8"/>
      </g>
     </g>
     <g id="text_17">
      <!-- 4.5 -->
      <g style="fill: #57606a" transform="translate(18.880938 26.938711) scale(0.11 -0.11)">
       <use xlink:href="#DejaVuSerif-17"/>
       <use xlink:href="#DejaVuSerif-11" transform="translate(63.625 0)"/>
       <use xlink:href="#DejaVuSerif-18" transform="translate(95.40625 0)"/>
      </g>
     </g>
    </g>
    <g id="text_18">
     <!-- Loss contribution -->
     <g style="fill: #1f2328" transform="translate(11.998125 201.566406) rotate(-90) scale(0.12 -0.12)">
      <defs>
       <path id="DejaVuSerif-2f" d="M 353 0 
L 353 331 
L 947 331 
L 947 4331 
L 353 4331 
L 353 4666 
L 2175 4666 
L 2175 4331 
L 1581 4331 
L 1581 384 
L 3713 384 
L 3713 1166 
L 4097 1166 
L 4097 0 
L 353 0 
z
" transform="scale(0.015625)"/>
       <path id="DejaVuSerif-51" d="M 263 0 
L 263 331 
L 781 331 
L 781 2988 
L 231 2988 
L 231 3322 
L 1356 3322 
L 1356 2731 
Q 1516 3069 1770 3241 
Q 2025 3413 2363 3413 
Q 2913 3413 3172 3097 
Q 3431 2781 3431 2113 
L 3431 331 
L 3944 331 
L 3944 0 
L 2356 0 
L 2356 331 
L 2853 331 
L 2853 1931 
Q 2853 2541 2703 2767 
Q 2553 2994 2175 2994 
Q 1775 2994 1565 2701 
Q 1356 2409 1356 1850 
L 1356 331 
L 1856 331 
L 1856 0 
L 263 0 
z
" transform="scale(0.015625)"/>
      </defs>
      <use xlink:href="#DejaVuSerif-2f"/>
      <use xlink:href="#DejaVuSerif-52" transform="translate(66.40625 0)"/>
      <use xlink:href="#DejaVuSerif-56" transform="translate(126.609375 0)"/>
      <use xlink:href="#DejaVuSerif-56" transform="translate(177.921875 0)"/>
      <use xlink:href="#DejaVuSerif-3" transform="translate(229.234375 0)"/>
      <use xlink:href="#DejaVuSerif-46" transform="translate(261.015625 0)"/>
      <use xlink:href="#DejaVuSerif-52" transform="translate(317.015625 0)"/>
      <use xlink:href="#DejaVuSerif-51" transform="translate(377.21875 0)"/>
      <use xlink:href="#DejaVuSerif-57" transform="translate(441.625 0)"/>
      <use xlink:href="#DejaVuSerif-55" transform="translate(481.8125 0)"/>
      <use xlink:href="#DejaVuSerif-4c" transform="translate(529.609375 0)"/>
      <use xlink:href="#DejaVuSerif-45" transform="translate(561.59375 0)"/>
      <use xlink:href="#DejaVuSerif-58" transform="translate(625.609375 0)"/>
      <use xlink:href="#DejaVuSerif-57" transform="translate(690.015625 0)"/>
      <use xlink:href="#DejaVuSerif-4c" transform="translate(730.203125 0)"/>
      <use xlink:href="#DejaVuSerif-52" transform="translate(762.1875 0)"/>
      <use xlink:href="#DejaVuSerif-51" transform="translate(822.390625 0)"/>
     </g>
    </g>
   </g>
   <g id="line2d_33">
    <path d="M 58.943065 16.889232 
L 59.984449 32.714248 
L 61.025833 45.029691 
L 62.067217 55.113117 
L 63.108601 63.650775 
L 64.149985 71.054198 
L 66.232753 83.439633 
L 68.315521 93.569867 
L 70.398289 102.141032 
L 72.481057 109.569625 
L 74.563825 116.124744 
L 76.646593 121.990356 
L 78.729361 127.297808 
L 80.812129 132.144158 
L 83.936281 138.705836 
L 87.060433 144.576699 
L 90.184584 149.888449 
L 93.308736 154.738382 
L 96.432888 159.200417 
L 99.55704 163.332032 
L 103.722576 168.404333 
L 107.888112 173.053879 
L 112.053648 177.345752 
L 116.219184 181.331072 
L 120.38472 185.050726 
L 125.591639 189.376725 
L 130.798559 193.391451 
L 136.005479 197.136707 
L 142.253783 201.322619 
L 148.502087 205.216418 
L 154.750391 208.856228 
L 162.040078 212.82286 
L 169.329766 216.52623 
L 176.619454 219.999119 
L 184.950526 223.720354 
L 193.281597 227.208949 
L 202.654053 230.889452 
L 212.026509 234.342224 
L 222.440349 237.943681 
L 233.895572 241.6541 
L 245.350796 245.133187 
L 257.847403 248.69651 
L 271.385395 252.316212 
L 285.964771 255.968525 
L 300.544146 259.396477 
L 316.164906 262.849733 
L 332.827049 266.311963 
L 350.530577 269.769501 
L 369.275488 273.211047 
L 370.316872 273.396162 
L 370.316872 273.396162 
" clip-path="url(#pad0ca1b07c)" style="fill: none; stroke-dasharray: 2.2,3.63; stroke-dashoffset: 0; stroke: #57606a; stroke-width: 2.2"/>
   </g>
   <g id="line2d_34">
    <path d="M 58.943065 19.459912 
L 59.984449 35.917373 
L 61.025833 48.819628 
L 62.067217 59.453402 
L 63.108601 68.511033 
L 64.149985 76.408394 
L 66.232753 89.71588 
L 68.315521 100.694864 
L 70.398289 110.053769 
L 72.481057 118.21784 
L 74.563825 125.462723 
L 76.646593 131.977474 
L 78.729361 137.897505 
L 80.812129 143.323199 
L 83.936281 150.69752 
L 87.060433 157.320028 
L 90.184584 163.328538 
L 93.308736 168.82534 
L 96.432888 173.888516 
L 99.55704 178.579065 
L 102.681192 182.945583 
L 106.846728 188.330561 
L 111.012264 193.283337 
L 115.1778 197.862627 
L 119.343336 202.115481 
L 123.508871 206.080207 
L 127.674407 209.78844 
L 132.881327 214.102916 
L 138.088247 218.100499 
L 143.295167 221.816414 
L 148.502087 225.279986 
L 154.750391 229.137681 
L 160.998694 232.703161 
L 167.246998 236.006275 
L 173.495302 239.072196 
L 180.78499 242.377755 
L 188.074678 245.418484 
L 195.364365 248.218906 
L 202.654053 250.799997 
L 210.985125 253.504347 
L 219.316197 255.969056 
L 227.647268 258.214143 
L 237.019724 260.498866 
L 246.39218 262.548948 
L 255.764636 264.382934 
L 266.178475 266.186857 
L 276.592315 267.763289 
L 287.006155 269.129126 
L 298.461378 270.405973 
L 309.916602 271.463291 
L 322.41321 272.384249 
L 334.909817 273.079534 
L 348.447809 273.595872 
L 361.9858 273.882594 
L 370.316872 273.951577 
L 370.316872 273.951577 
" clip-path="url(#pad0ca1b07c)" style="fill: none; stroke-dasharray: 14.08,3.52,2.2,3.52; stroke-dashoffset: 0; stroke: #0969da; stroke-width: 2.2"/>
   </g>
   <g id="line2d_35">
    <path d="M 58.943065 22.004885 
L 59.984449 39.077969 
L 61.025833 52.546822 
L 62.067217 63.707608 
L 63.108601 73.25897 
L 64.149985 81.621303 
L 66.232753 95.785368 
L 68.315521 107.538436 
L 70.398289 117.602097 
L 72.481057 126.411084 
L 74.563825 134.248232 
L 76.646593 141.308248 
L 78.729361 147.731116 
L 80.812129 153.621002 
L 83.936281 161.625994 
L 87.060433 168.808203 
L 90.184584 175.312691 
L 93.308736 181.247775 
L 96.432888 186.696636 
L 99.55704 191.724658 
L 102.681192 196.384253 
L 105.805344 200.718148 
L 109.97088 206.050257 
L 114.136416 210.933979 
L 118.301952 215.424409 
L 122.467487 219.566629 
L 126.633023 223.398076 
L 130.798559 226.950226 
L 134.964095 230.24985 
L 140.171015 234.053988 
L 145.377935 237.537568 
L 150.584855 240.733012 
L 155.791774 243.668056 
L 160.998694 246.36666 
L 166.205614 248.849701 
L 172.453918 251.570469 
L 178.702222 254.034836 
L 184.950526 256.266937 
L 191.198829 258.287963 
L 198.488517 260.40394 
L 205.778205 262.284325 
L 213.067893 263.952254 
L 221.398965 265.624537 
L 229.730036 267.073232 
L 239.102492 268.465613 
L 248.474948 269.635767 
L 258.888787 270.707948 
L 270.344011 271.647812 
L 282.840619 272.430704 
L 296.37861 273.043009 
L 311.99937 273.507385 
L 329.702897 273.799934 
L 352.613345 273.940798 
L 370.316872 273.957131 
L 370.316872 273.957131 
" clip-path="url(#pad0ca1b07c)" style="fill: none; stroke: #cf222e; stroke-width: 2.2; stroke-linecap: square"/>
   </g>
   <g id="line2d_36">
    <path d="M 58.943065 29.48812 
L 59.984449 48.310186 
L 61.025833 63.362246 
L 62.067217 75.970648 
L 63.108601 86.854504 
L 65.191369 105.038851 
L 67.274137 119.935209 
L 69.356905 132.564736 
L 71.439673 143.520486 
L 73.522441 153.180051 
L 75.605209 161.800188 
L 77.687977 169.564352 
L 79.770745 176.608801 
L 81.853513 183.037927 
L 83.936281 188.933778 
L 86.019049 194.362226 
L 89.1432 201.743743 
L 92.267352 208.337937 
L 95.391504 214.257799 
L 98.515656 219.593339 
L 101.639808 224.417705 
L 104.76396 228.791354 
L 107.888112 232.76497 
L 111.012264 236.381566 
L 114.136416 239.67803 
L 117.260568 242.68629 
L 120.38472 245.4342 
L 123.508871 247.946233 
L 127.674407 250.965723 
L 131.839943 253.648836 
L 136.005479 256.034152 
L 140.171015 258.155148 
L 144.336551 260.041046 
L 148.502087 261.717497 
L 153.709007 263.552719 
L 158.915926 265.134368 
L 164.122846 266.495699 
L 170.37115 267.878761 
L 176.619454 269.02856 
L 183.909142 270.1232 
L 191.198829 270.997771 
L 199.529901 271.778936 
L 208.902357 272.437316 
L 220.357581 273.002275 
L 233.895572 273.428293 
L 250.557716 273.72034 
L 274.509547 273.896035 
L 319.289058 273.955678 
L 370.316872 273.957187 
L 370.316872 273.957187 
" clip-path="url(#pad0ca1b07c)" style="fill: none; stroke-dasharray: 8.14,3.52; stroke-dashoffset: 0; stroke: #bc4c00; stroke-width: 2.2"/>
   </g>
   <g id="patch_3">
    <path d="M 43.374375 273.957187 
L 43.374375 22.76 
" style="fill: none; stroke: #d0d7de; stroke-width: 0.8; stroke-linejoin: miter; stroke-linecap: square"/>
   </g>
   <g id="patch_4">
    <path d="M 43.374375 273.957187 
L 385.885562 273.957187 
" style="fill: none; stroke: #d0d7de; stroke-width: 0.8; stroke-linejoin: miter; stroke-linecap: square"/>
   </g>
   <g id="text_19">
    <!-- Focal Loss ($\gamma = 2$) -->
    <g style="fill: #1f2328" transform="translate(152.489969 12.76) scale(0.13 -0.13)">
     <defs>
      <path id="DejaVuSerif-Bold-29" d="M 300 0 
L 300 378 
L 897 378 
L 897 4288 
L 300 4288 
L 300 4666 
L 4459 4666 
L 4459 3566 
L 4031 3566 
L 4031 4238 
L 2106 4238 
L 2106 2741 
L 3291 2741 
L 3291 3334 
L 3719 3334 
L 3719 1722 
L 3291 1722 
L 3291 2316 
L 2106 2316 
L 2106 378 
L 2841 378 
L 2841 0 
L 300 0 
z
" transform="scale(0.015625)"/>
      <path id="DejaVuSerif-Bold-52" d="M 2138 263 
Q 2488 263 2630 563 
Q 2772 863 2772 1663 
Q 2772 2463 2631 2761 
Q 2491 3059 2138 3059 
Q 1784 3059 1640 2757 
Q 1497 2456 1497 1663 
Q 1497 869 1640 566 
Q 1784 263 2138 263 
z
M 2138 -91 
Q 1259 -91 761 376 
Q 263 844 263 1663 
Q 263 2484 761 2948 
Q 1259 3413 2138 3413 
Q 3019 3413 3516 2948 
Q 4013 2484 4013 1663 
Q 4013 844 3514 376 
Q 3016 -91 2138 -91 
z
" transform="scale(0.015625)"/>
      <path id="DejaVuSerif-Bold-46" d="M 3609 1038 
Q 3491 469 3123 189 
Q 2756 -91 2125 -91 
Q 1238 -91 750 368 
Q 263 828 263 1663 
Q 263 2488 744 2950 
Q 1225 3413 2081 3413 
Q 2428 3413 2781 3347 
Q 3134 3281 3500 3150 
L 3500 2228 
L 3150 2228 
Q 3100 2650 2903 2854 
Q 2706 3059 2350 3059 
Q 1888 3059 1692 2746 
Q 1497 2434 1497 1663 
Q 1497 909 1687 586 
Q 1878 263 2309 263 
Q 2644 263 2845 463 
Q 3047 663 3091 1038 
L 3609 1038 
z
" transform="scale(0.015625)"/>
      <path id="DejaVuSerif-Bold-44" d="M 3525 2041 
L 3525 378 
L 4000 378 
L 4000 0 
L 2419 0 
L 2419 422 
Q 2200 159 1931 34 
Q 1663 -91 1319 -91 
Q 809 -91 536 182 
Q 263 456 263 966 
Q 263 1525 655 1803 
Q 1047 2081 1838 2081 
L 2419 2081 
L 2419 2278 
Q 2419 2681 2228 2873 
Q 2038 3066 1638 3066 
Q 1306 3066 1126 2930 
Q 947 2794 872 2484 
L 519 2484 
L 519 3200 
Q 816 3306 1134 3359 
Q 1453 3413 1806 3413 
Q 2697 3413 3111 3081 
Q 3525 2750 3525 2041 
z
M 2419 1044 
L 2419 1709 
L 2003 1709 
Q 1694 1709 1528 1540 
Q 1363 1372 1363 1056 
Q 1363 741 1483 584 
Q 1603 428 1850 428 
Q 2106 428 2262 597 
Q 2419 766 2419 1044 
z
" transform="scale(0.015625)"/>
      <path id="DejaVuSerif-Bold-4f" d="M 1797 378 
L 2272 378 
L 2272 0 
L 219 0 
L 219 378 
L 691 378 
L 691 4488 
L 219 4488 
L 219 4863 
L 1797 4863 
L 1797 378 
z
" transform="scale(0.015625)"/>
      <path id="DejaVuSerif-Bold-3" transform="scale(0.015625)"/>
      <path id="DejaVuSerif-Bold-2f" d="M 300 0 
L 300 378 
L 897 378 
L 897 4288 
L 300 4288 
L 300 4666 
L 2700 4666 
L 2700 4288 
L 2100 4288 
L 2100 428 
L 3938 428 
L 3938 1166 
L 4359 1166 
L 4359 0 
L 300 0 
z
" transform="scale(0.015625)"/>
      <path id="DejaVuSerif-Bold-56" d="M 300 97 
L 300 1025 
L 653 1025 
Q 697 653 931 458 
Q 1166 263 1569 263 
Q 1906 263 2086 380 
Q 2266 497 2266 716 
Q 2266 916 2152 1025 
Q 2038 1134 1709 1216 
L 1253 1331 
Q 738 1459 506 1698 
Q 275 1938 275 2344 
Q 275 2884 650 3148 
Q 1025 3413 1806 3413 
Q 2100 3413 2433 3364 
Q 2766 3316 3169 3213 
L 3169 2375 
L 2816 2375 
Q 2788 2716 2573 2887 
Q 2359 3059 1959 3059 
Q 1622 3059 1448 2951 
Q 1275 2844 1275 2638 
Q 1275 2469 1375 2372 
Q 1475 2275 1734 2209 
L 2188 2094 
Q 2841 1928 3091 1684 
Q 3341 1441 3341 1006 
Q 3341 444 2939 176 
Q 2538 -91 1691 -91 
Q 1381 -91 1034 -44 
Q 688 3 300 97 
z
" transform="scale(0.015625)"/>
      <path id="DejaVuSerif-Bold-b" d="M 2694 -997 
Q 1641 -606 1122 122 
Q 603 850 603 1931 
Q 603 3013 1115 3731 
Q 1628 4450 2694 4863 
L 2694 4488 
Q 2200 4188 1983 3598 
Q 1766 3009 1766 1931 
Q 1766 856 1983 267 
Q 2200 -322 2694 -622 
L 2694 -997 
z
" transform="scale(0.015625)"/>
      <path id="DejaVuSans-Oblique-347" d="M 1491 2950 
L 1838 788 
L 3456 3500 
L 4066 3500 
L 1972 0 
L 1713 -1331 
L 1138 -1331 
L 1397 0 
L 988 2613 
Q 925 3006 628 3006 
L 475 3006 
L 569 3500 
L 788 3500 
Q 1403 3500 1491 2950 
z
" transform="scale(0.015625)"/>
      <path id="DejaVuSans-20" d="M 678 2906 
L 4684 2906 
L 4684 2381 
L 678 2381 
L 678 2906 
z
M 678 1631 
L 4684 1631 
L 4684 1100 
L 678 1100 
L 678 1631 
z
" transform="scale(0.015625)"/>
      <path id="DejaVuSans-15" d="M 1228 531 
L 3431 531 
L 3431 0 
L 469 0 
L 469 531 
Q 828 903 1448 1529 
Q 2069 2156 2228 2338 
Q 2531 2678 2651 2914 
Q 2772 3150 2772 3378 
Q 2772 3750 2511 3984 
Q 2250 4219 1831 4219 
Q 1534 4219 1204 4116 
Q 875 4013 500 3803 
L 500 4441 
Q 881 4594 1212 4672 
Q 1544 4750 1819 4750 
Q 2544 4750 2975 4387 
Q 3406 4025 3406 3419 
Q 3406 3131 3298 2873 
Q 3191 2616 2906 2266 
Q 2828 2175 2409 1742 
Q 1991 1309 1228 531 
z
" transform="scale(0.015625)"/>
      <path id="DejaVuSerif-Bold-c" d="M 325 -997 
L 325 -622 
Q 819 -322 1036 267 
Q 1253 856 1253 1931 
Q 1253 3009 1036 3598 
Q 819 4188 325 4488 
L 325 4863 
Q 1391 4450 1905 3731 
Q 2419 3013 2419 1931 
Q 2419 850 1898 122 
Q 1378 -606 325 -997 
z
" transform="scale(0.015625)"/>
     </defs>
     <use xlink:href="#DejaVuSerif-Bold-29" transform="translate(0 0.015625)"/>
     <use xlink:href="#DejaVuSerif-Bold-52" transform="translate(65.996094 0.015625)"/>
     <use xlink:href="#DejaVuSerif-Bold-46" transform="translate(132.695312 0.015625)"/>
     <use xlink:href="#DejaVuSerif-Bold-44" transform="translate(193.583984 0.015625)"/>
     <use xlink:href="#DejaVuSerif-Bold-4f" transform="translate(258.378906 0.015625)"/>
     <use xlink:href="#DejaVuSerif-Bold-3" transform="translate(296.367188 0.015625)"/>
     <use xlink:href="#DejaVuSerif-Bold-2f" transform="translate(331.181641 0.015625)"/>
     <use xlink:href="#DejaVuSerif-Bold-52" transform="translate(401.494141 0.015625)"/>
     <use xlink:href="#DejaVuSerif-Bold-56" transform="translate(468.193359 0.015625)"/>
     <use xlink:href="#DejaVuSerif-Bold-56" transform="translate(524.492188 0.015625)"/>
     <use xlink:href="#DejaVuSerif-Bold-3" transform="translate(580.791016 0.015625)"/>
     <use xlink:href="#DejaVuSerif-Bold-b" transform="translate(615.605469 0.015625)"/>
     <use xlink:href="#DejaVuSans-Oblique-347" transform="translate(662.919922 0.015625)"/>
     <use xlink:href="#DejaVuSans-20" transform="translate(741.582031 0.015625)"/>
     <use xlink:href="#DejaVuSans-15" transform="translate(844.853516 0.015625)"/>
     <use xlink:href="#DejaVuSerif-Bold-c" transform="translate(908.476562 0.015625)"/>
    </g>
   </g>
   <g id="legend_1">
    <g id="patch_5">
     <path d="M 326.845562 83.962812 
L 381.385562 83.962812 
L 381.385562 27.26 
L 326.845562 27.26 
z
" style="fill: #ffffff; stroke: #d0d7de; stroke-linejoin: miter"/>
    </g>
    <g id="line2d_37">
     <path d="M 330.445562 34.548594 
L 339.445562 34.548594 
L 348.445562 34.548594 
" style="fill: none; stroke-dasharray: 2.2,3.63; stroke-dashoffset: 0; stroke: #57606a; stroke-width: 2.2"/>
    </g>
    <g id="text_20">
     <!-- $\gamma = 0$ -->
     <g style="fill: #1f2328" transform="translate(355.645562 37.698594) scale(0.09 -0.09)">
      <defs>
       <path id="DejaVuSans-13" d="M 2034 4250 
Q 1547 4250 1301 3770 
Q 1056 3291 1056 2328 
Q 1056 1369 1301 889 
Q 1547 409 2034 409 
Q 2525 409 2770 889 
Q 3016 1369 3016 2328 
Q 3016 3291 2770 3770 
Q 2525 4250 2034 4250 
z
M 2034 4750 
Q 2819 4750 3233 4129 
Q 3647 3509 3647 2328 
Q 3647 1150 3233 529 
Q 2819 -91 2034 -91 
Q 1250 -91 836 529 
Q 422 1150 422 2328 
Q 422 3509 836 4129 
Q 1250 4750 2034 4750 
z
" transform="scale(0.015625)"/>
      </defs>
      <use xlink:href="#DejaVuSans-Oblique-347" transform="translate(0 0.78125)"/>
      <use xlink:href="#DejaVuSans-20" transform="translate(78.662109 0.78125)"/>
      <use xlink:href="#DejaVuSans-13" transform="translate(181.933594 0.78125)"/>
     </g>
    </g>
    <g id="line2d_38">
     <path d="M 330.445562 48.049297 
L 339.445562 48.049297 
L 348.445562 48.049297 
" style="fill: none; stroke-dasharray: 14.08,3.52,2.2,3.52; stroke-dashoffset: 0; stroke: #0969da; stroke-width: 2.2"/>
    </g>
    <g id="text_21">
     <!-- $\gamma = 1$ -->
     <g style="fill: #1f2328" transform="translate(355.645562 51.199297) scale(0.09 -0.09)">
      <defs>
       <path id="DejaVuSans-14" d="M 794 531 
L 1825 531 
L 1825 4091 
L 703 3866 
L 703 4441 
L 1819 4666 
L 2450 4666 
L 2450 531 
L 3481 531 
L 3481 0 
L 794 0 
L 794 531 
z
" transform="scale(0.015625)"/>
      </defs>
      <use xlink:href="#DejaVuSans-Oblique-347" transform="translate(0 0.09375)"/>
      <use xlink:href="#DejaVuSans-20" transform="translate(78.662109 0.09375)"/>
      <use xlink:href="#DejaVuSans-14" transform="translate(181.933594 0.09375)"/>
     </g>
    </g>
    <g id="line2d_39">
     <path d="M 330.445562 61.55 
L 339.445562 61.55 
L 348.445562 61.55 
" style="fill: none; stroke: #cf222e; stroke-width: 2.2; stroke-linecap: square"/>
    </g>
    <g id="text_22">
     <!-- $\gamma = 2$ -->
     <g style="fill: #1f2328" transform="translate(355.645562 64.7) scale(0.09 -0.09)">
      <use xlink:href="#DejaVuSans-Oblique-347" transform="translate(0 0.78125)"/>
      <use xlink:href="#DejaVuSans-20" transform="translate(78.662109 0.78125)"/>
      <use xlink:href="#DejaVuSans-15" transform="translate(181.933594 0.78125)"/>
     </g>
    </g>
    <g id="line2d_40">
     <path d="M 330.445562 75.050703 
L 339.445562 75.050703 
L 348.445562 75.050703 
" style="fill: none; stroke-dasharray: 8.14,3.52; stroke-dashoffset: 0; stroke: #bc4c00; stroke-width: 2.2"/>
    </g>
    <g id="text_23">
     <!-- $\gamma = 5$ -->
     <g style="fill: #1f2328" transform="translate(355.645562 78.200703) scale(0.09 -0.09)">
      <defs>
       <path id="DejaVuSans-18" d="M 691 4666 
L 3169 4666 
L 3169 4134 
L 1269 4134 
L 1269 2991 
Q 1406 3038 1543 3061 
Q 1681 3084 1819 3084 
Q 2600 3084 3056 2656 
Q 3513 2228 3513 1497 
Q 3513 744 3044 326 
Q 2575 -91 1722 -91 
Q 1428 -91 1123 -41 
Q 819 9 494 109 
L 494 744 
Q 775 591 1075 516 
Q 1375 441 1709 441 
Q 2250 441 2565 725 
Q 2881 1009 2881 1497 
Q 2881 1984 2565 2268 
Q 2250 2553 1709 2553 
Q 1456 2553 1204 2497 
Q 953 2441 691 2322 
L 691 4666 
z
" transform="scale(0.015625)"/>
      </defs>
      <use xlink:href="#DejaVuSans-Oblique-347" transform="translate(0 0.09375)"/>
      <use xlink:href="#DejaVuSans-20" transform="translate(78.662109 0.09375)"/>
      <use xlink:href="#DejaVuSans-18" transform="translate(181.933594 0.09375)"/>
     </g>
    </g>
   </g>
  </g>
  <g id="axes_2">
   <g id="patch_6">
    <path d="M 471.837375 273.957187 
L 723.034562 273.957187 
L 723.034562 22.76 
L 471.837375 22.76 
z
" style="fill: #ffffff"/>
   </g>
   <g id="matplotlib.axis_3">
    <g id="xtick_7">
     <g id="line2d_41">
      <path d="M 479.687287 273.957187 
L 479.687287 22.76 
" clip-path="url(#pdc656d7909)" style="fill: none; stroke: #d0d7de; stroke-opacity: 0.3; stroke-width: 0.8; stroke-linecap: square"/>
     </g>
     <g id="line2d_42">
      <g>
       <use xlink:href="#mc981bd4589" x="479.687287" y="273.957187" style="fill: #57606a; stroke: #57606a; stroke-width: 0.8"/>
      </g>
     </g>
     <g id="text_24">
      <!-- −3 -->
      <g style="fill: #57606a" transform="translate(471.579084 289.314609) scale(0.11 -0.11)">
       <defs>
        <path id="DejaVuSerif-8cf" d="M 678 2259 
L 4684 2259 
L 4684 1753 
L 678 1753 
L 678 2259 
z
" transform="scale(0.015625)"/>
       </defs>
       <use xlink:href="#DejaVuSerif-8cf"/>
       <use xlink:href="#DejaVuSerif-16" transform="translate(83.796875 0)"/>
      </g>
     </g>
    </g>
    <g id="xtick_8">
     <g id="line2d_43">
      <path d="M 518.936848 273.957187 
L 518.936848 22.76 
" clip-path="url(#pdc656d7909)" style="fill: none; stroke: #d0d7de; stroke-opacity: 0.3; stroke-width: 0.8; stroke-linecap: square"/>
     </g>
     <g id="line2d_44">
      <g>
       <use xlink:href="#mc981bd4589" x="518.936848" y="273.957187" style="fill: #57606a; stroke: #57606a; stroke-width: 0.8"/>
      </g>
     </g>
     <g id="text_25">
      <!-- −2 -->
      <g style="fill: #57606a" transform="translate(510.828645 289.314609) scale(0.11 -0.11)">
       <use xlink:href="#DejaVuSerif-8cf"/>
       <use xlink:href="#DejaVuSerif-15" transform="translate(83.796875 0)"/>
      </g>
     </g>
    </g>
    <g id="xtick_9">
     <g id="line2d_45">
      <path d="M 558.186408 273.957187 
L 558.186408 22.76 
" clip-path="url(#pdc656d7909)" style="fill: none; stroke: #d0d7de; stroke-opacity: 0.3; stroke-width: 0.8; stroke-linecap: square"/>
     </g>
     <g id="line2d_46">
      <g>
       <use xlink:href="#mc981bd4589" x="558.186408" y="273.957187" style="fill: #57606a; stroke: #57606a; stroke-width: 0.8"/>
      </g>
     </g>
     <g id="text_26">
      <!-- −1 -->
      <g style="fill: #57606a" transform="translate(550.078205 289.314609) scale(0.11 -0.11)">
       <use xlink:href="#DejaVuSerif-8cf"/>
       <use xlink:href="#DejaVuSerif-14" transform="translate(83.796875 0)"/>
      </g>
     </g>
    </g>
    <g id="xtick_10">
     <g id="line2d_47">
      <path d="M 597.435969 273.957187 
L 597.435969 22.76 
" clip-path="url(#pdc656d7909)" style="fill: none; stroke: #d0d7de; stroke-opacity: 0.3; stroke-width: 0.8; stroke-linecap: square"/>
     </g>
     <g id="line2d_48">
      <g>
       <use xlink:href="#mc981bd4589" x="597.435969" y="273.957187" style="fill: #57606a; stroke: #57606a; stroke-width: 0.8"/>
      </g>
     </g>
     <g id="text_27">
      <!-- 0 -->
      <g style="fill: #57606a" transform="translate(593.936594 289.314609) scale(0.11 -0.11)">
       <use xlink:href="#DejaVuSerif-13"/>
      </g>
     </g>
    </g>
    <g id="xtick_11">
     <g id="line2d_49">
      <path d="M 636.685529 273.957187 
L 636.685529 22.76 
" clip-path="url(#pdc656d7909)" style="fill: none; stroke: #d0d7de; stroke-opacity: 0.3; stroke-width: 0.8; stroke-linecap: square"/>
     </g>
     <g id="line2d_50">
      <g>
       <use xlink:href="#mc981bd4589" x="636.685529" y="273.957187" style="fill: #57606a; stroke: #57606a; stroke-width: 0.8"/>
      </g>
     </g>
     <g id="text_28">
      <!-- 1 -->
      <g style="fill: #57606a" transform="translate(633.186154 289.314609) scale(0.11 -0.11)">
       <use xlink:href="#DejaVuSerif-14"/>
      </g>
     </g>
    </g>
    <g id="xtick_12">
     <g id="line2d_51">
      <path d="M 675.93509 273.957187 
L 675.93509 22.76 
" clip-path="url(#pdc656d7909)" style="fill: none; stroke: #d0d7de; stroke-opacity: 0.3; stroke-width: 0.8; stroke-linecap: square"/>
     </g>
     <g id="line2d_52">
      <g>
       <use xlink:href="#mc981bd4589" x="675.93509" y="273.957187" style="fill: #57606a; stroke: #57606a; stroke-width: 0.8"/>
      </g>
     </g>
     <g id="text_29">
      <!-- 2 -->
      <g style="fill: #57606a" transform="translate(672.435715 289.314609) scale(0.11 -0.11)">
       <use xlink:href="#DejaVuSerif-15"/>
      </g>
     </g>
    </g>
    <g id="xtick_13">
     <g id="line2d_53">
      <path d="M 715.18465 273.957187 
L 715.18465 22.76 
" clip-path="url(#pdc656d7909)" style="fill: none; stroke: #d0d7de; stroke-opacity: 0.3; stroke-width: 0.8; stroke-linecap: square"/>
     </g>
     <g id="line2d_54">
      <g>
       <use xlink:href="#mc981bd4589" x="715.18465" y="273.957187" style="fill: #57606a; stroke: #57606a; stroke-width: 0.8"/>
      </g>
     </g>
     <g id="text_30">
      <!-- 3 -->
      <g style="fill: #57606a" transform="translate(711.685275 289.314609) scale(0.11 -0.11)">
       <use xlink:href="#DejaVuSerif-16"/>
      </g>
     </g>
    </g>
    <g id="text_31">
     <!-- Embedding dimension 1 -->
     <g style="fill: #1f2328" transform="translate(523.696906 305.075312) scale(0.12 -0.12)">
      <defs>
       <path id="DejaVuSerif-28" d="M 353 0 
L 353 331 
L 947 331 
L 947 4331 
L 353 4331 
L 353 4666 
L 4109 4666 
L 4109 3628 
L 3725 3628 
L 3725 4281 
L 1581 4281 
L 1581 2719 
L 3109 2719 
L 3109 3303 
L 3494 3303 
L 3494 1753 
L 3109 1753 
L 3109 2338 
L 1581 2338 
L 1581 384 
L 3775 384 
L 3775 1038 
L 4159 1038 
L 4159 0 
L 353 0 
z
" transform="scale(0.015625)"/>
       <path id="DejaVuSerif-50" d="M 3316 2675 
Q 3481 3041 3739 3227 
Q 3997 3413 4341 3413 
Q 4863 3413 5119 3089 
Q 5375 2766 5375 2113 
L 5375 331 
L 5894 331 
L 5894 0 
L 4300 0 
L 4300 331 
L 4800 331 
L 4800 2047 
Q 4800 2556 4650 2772 
Q 4500 2988 4153 2988 
Q 3769 2988 3567 2697 
Q 3366 2406 3366 1850 
L 3366 331 
L 3866 331 
L 3866 0 
L 2291 0 
L 2291 331 
L 2791 331 
L 2791 2069 
Q 2791 2566 2641 2777 
Q 2491 2988 2144 2988 
Q 1759 2988 1557 2697 
Q 1356 2406 1356 1850 
L 1356 331 
L 1856 331 
L 1856 0 
L 263 0 
L 263 331 
L 781 331 
L 781 2994 
L 231 2994 
L 231 3322 
L 1356 3322 
L 1356 2731 
Q 1516 3063 1762 3238 
Q 2009 3413 2322 3413 
Q 2709 3413 2968 3220 
Q 3228 3028 3316 2675 
z
" transform="scale(0.015625)"/>
       <path id="DejaVuSerif-4a" d="M 3359 2988 
L 3359 72 
Q 3359 -644 2965 -1033 
Q 2572 -1422 1844 -1422 
Q 1516 -1422 1216 -1362 
Q 916 -1303 641 -1184 
L 641 -488 
L 941 -488 
Q 997 -813 1206 -963 
Q 1416 -1113 1806 -1113 
Q 2313 -1113 2548 -827 
Q 2784 -541 2784 72 
L 2784 519 
Q 2616 206 2355 57 
Q 2094 -91 1709 -91 
Q 1097 -91 708 395 
Q 319 881 319 1663 
Q 319 2444 706 2928 
Q 1094 3413 1709 3413 
Q 2094 3413 2355 3264 
Q 2616 3116 2784 2803 
L 2784 3322 
L 3909 3322 
L 3909 2988 
L 3359 2988 
z
M 2784 1825 
Q 2784 2422 2554 2737 
Q 2325 3053 1888 3053 
Q 1444 3053 1217 2703 
Q 991 2353 991 1663 
Q 991 975 1217 622 
Q 1444 269 1888 269 
Q 2325 269 2554 583 
Q 2784 897 2784 1497 
L 2784 1825 
z
" transform="scale(0.015625)"/>
      </defs>
      <use xlink:href="#DejaVuSerif-28"/>
      <use xlink:href="#DejaVuSerif-50" transform="translate(73 0)"/>
      <use xlink:href="#DejaVuSerif-45" transform="translate(167.828125 0)"/>
      <use xlink:href="#DejaVuSerif-48" transform="translate(231.84375 0)"/>
      <use xlink:href="#DejaVuSerif-47" transform="translate(291.03125 0)"/>
      <use xlink:href="#DejaVuSerif-47" transform="translate(355.046875 0)"/>
      <use xlink:href="#DejaVuSerif-4c" transform="translate(419.0625 0)"/>
      <use xlink:href="#DejaVuSerif-51" transform="translate(451.046875 0)"/>
      <use xlink:href="#DejaVuSerif-4a" transform="translate(515.453125 0)"/>
      <use xlink:href="#DejaVuSerif-3" transform="translate(579.46875 0)"/>
      <use xlink:href="#DejaVuSerif-47" transform="translate(611.25 0)"/>
      <use xlink:href="#DejaVuSerif-4c" transform="translate(675.265625 0)"/>
      <use xlink:href="#DejaVuSerif-50" transform="translate(707.25 0)"/>
      <use xlink:href="#DejaVuSerif-48" transform="translate(802.078125 0)"/>
      <use xlink:href="#DejaVuSerif-51" transform="translate(861.265625 0)"/>
      <use xlink:href="#DejaVuSerif-56" transform="translate(925.671875 0)"/>
      <use xlink:href="#DejaVuSerif-4c" transform="translate(976.984375 0)"/>
      <use xlink:href="#DejaVuSerif-52" transform="translate(1008.96875 0)"/>
      <use xlink:href="#DejaVuSerif-51" transform="translate(1069.171875 0)"/>
      <use xlink:href="#DejaVuSerif-3" transform="translate(1133.578125 0)"/>
      <use xlink:href="#DejaVuSerif-14" transform="translate(1165.359375 0)"/>
     </g>
    </g>
   </g>
   <g id="matplotlib.axis_4">
    <g id="ytick_11">
     <g id="line2d_55">
      <path d="M 471.837375 266.107275 
L 723.034562 266.107275 
" clip-path="url(#pdc656d7909)" style="fill: none; stroke: #d0d7de; stroke-opacity: 0.3; stroke-width: 0.8; stroke-linecap: square"/>
     </g>
     <g id="line2d_56">
      <g>
       <use xlink:href="#m7747829142" x="471.837375" y="266.107275" style="fill: #57606a; stroke: #57606a; stroke-width: 0.8"/>
      </g>
     </g>
     <g id="text_32">
      <!-- −3 -->
      <g style="fill: #57606a" transform="translate(448.620969 270.285986) scale(0.11 -0.11)">
       <use xlink:href="#DejaVuSerif-8cf"/>
       <use xlink:href="#DejaVuSerif-16" transform="translate(83.796875 0)"/>
      </g>
     </g>
    </g>
    <g id="ytick_12">
     <g id="line2d_57">
      <path d="M 471.837375 226.857715 
L 723.034562 226.857715 
" clip-path="url(#pdc656d7909)" style="fill: none; stroke: #d0d7de; stroke-opacity: 0.3; stroke-width: 0.8; stroke-linecap: square"/>
     </g>
     <g id="line2d_58">
      <g>
       <use xlink:href="#m7747829142" x="471.837375" y="226.857715" style="fill: #57606a; stroke: #57606a; stroke-width: 0.8"/>
      </g>
     </g>
     <g id="text_33">
      <!-- −2 -->
      <g style="fill: #57606a" transform="translate(448.620969 231.036426) scale(0.11 -0.11)">
       <use xlink:href="#DejaVuSerif-8cf"/>
       <use xlink:href="#DejaVuSerif-15" transform="translate(83.796875 0)"/>
      </g>
     </g>
    </g>
    <g id="ytick_13">
     <g id="line2d_59">
      <path d="M 471.837375 187.608154 
L 723.034562 187.608154 
" clip-path="url(#pdc656d7909)" style="fill: none; stroke: #d0d7de; stroke-opacity: 0.3; stroke-width: 0.8; stroke-linecap: square"/>
     </g>
     <g id="line2d_60">
      <g>
       <use xlink:href="#m7747829142" x="471.837375" y="187.608154" style="fill: #57606a; stroke: #57606a; stroke-width: 0.8"/>
      </g>
     </g>
     <g id="text_34">
      <!-- −1 -->
      <g style="fill: #57606a" transform="translate(448.620969 191.786865) scale(0.11 -0.11)">
       <use xlink:href="#DejaVuSerif-8cf"/>
       <use xlink:href="#DejaVuSerif-14" transform="translate(83.796875 0)"/>
      </g>
     </g>
    </g>
    <g id="ytick_14">
     <g id="line2d_61">
      <path d="M 471.837375 148.358594 
L 723.034562 148.358594 
" clip-path="url(#pdc656d7909)" style="fill: none; stroke: #d0d7de; stroke-opacity: 0.3; stroke-width: 0.8; stroke-linecap: square"/>
     </g>
     <g id="line2d_62">
      <g>
       <use xlink:href="#m7747829142" x="471.837375" y="148.358594" style="fill: #57606a; stroke: #57606a; stroke-width: 0.8"/>
      </g>
     </g>
     <g id="text_35">
      <!-- 0 -->
      <g style="fill: #57606a" transform="translate(457.838625 152.537305) scale(0.11 -0.11)">
       <use xlink:href="#DejaVuSerif-13"/>
      </g>
     </g>
    </g>
    <g id="ytick_15">
     <g id="line2d_63">
      <path d="M 471.837375 109.109033 
L 723.034562 109.109033 
" clip-path="url(#pdc656d7909)" style="fill: none; stroke: #d0d7de; stroke-opacity: 0.3; stroke-width: 0.8; stroke-linecap: square"/>
     </g>
     <g id="line2d_64">
      <g>
       <use xlink:href="#m7747829142" x="471.837375" y="109.109033" style="fill: #57606a; stroke: #57606a; stroke-width: 0.8"/>
      </g>
     </g>
     <g id="text_36">
      <!-- 1 -->
      <g style="fill: #57606a" transform="translate(457.838625 113.287744) scale(0.11 -0.11)">
       <use xlink:href="#DejaVuSerif-14"/>
      </g>
     </g>
    </g>
    <g id="ytick_16">
     <g id="line2d_65">
      <path d="M 471.837375 69.859473 
L 723.034562 69.859473 
" clip-path="url(#pdc656d7909)" style="fill: none; stroke: #d0d7de; stroke-opacity: 0.3; stroke-width: 0.8; stroke-linecap: square"/>
     </g>
     <g id="line2d_66">
      <g>
       <use xlink:href="#m7747829142" x="471.837375" y="69.859473" style="fill: #57606a; stroke: #57606a; stroke-width: 0.8"/>
      </g>
     </g>
     <g id="text_37">
      <!-- 2 -->
      <g style="fill: #57606a" transform="translate(457.838625 74.038184) scale(0.11 -0.11)">
       <use xlink:href="#DejaVuSerif-15"/>
      </g>
     </g>
    </g>
    <g id="ytick_17">
     <g id="line2d_67">
      <path d="M 471.837375 30.609912 
L 723.034562 30.609912 
" clip-path="url(#pdc656d7909)" style="fill: none; stroke: #d0d7de; stroke-opacity: 0.3; stroke-width: 0.8; stroke-linecap: square"/>
     </g>
     <g id="line2d_68">
      <g>
       <use xlink:href="#m7747829142" x="471.837375" y="30.609912" style="fill: #57606a; stroke: #57606a; stroke-width: 0.8"/>
      </g>
     </g>
     <g id="text_38">
      <!-- 3 -->
      <g style="fill: #57606a" transform="translate(457.838625 34.788623) scale(0.11 -0.11)">
       <use xlink:href="#DejaVuSerif-16"/>
      </g>
     </g>
    </g>
    <g id="text_39">
     <!-- Embedding dimension 2 -->
     <g style="fill: #1f2328" transform="translate(441.738156 222.097656) rotate(-90) scale(0.12 -0.12)">
      <use xlink:href="#DejaVuSerif-28"/>
      <use xlink:href="#DejaVuSerif-50" transform="translate(73 0)"/>
      <use xlink:href="#DejaVuSerif-45" transform="translate(167.828125 0)"/>
      <use xlink:href="#DejaVuSerif-48" transform="translate(231.84375 0)"/>
      <use xlink:href="#DejaVuSerif-47" transform="translate(291.03125 0)"/>
      <use xlink:href="#DejaVuSerif-47" transform="translate(355.046875 0)"/>
      <use xlink:href="#DejaVuSerif-4c" transform="translate(419.0625 0)"/>
      <use xlink:href="#DejaVuSerif-51" transform="translate(451.046875 0)"/>
      <use xlink:href="#DejaVuSerif-4a" transform="translate(515.453125 0)"/>
      <use xlink:href="#DejaVuSerif-3" transform="translate(579.46875 0)"/>
      <use xlink:href="#DejaVuSerif-47" transform="translate(611.25 0)"/>
      <use xlink:href="#DejaVuSerif-4c" transform="translate(675.265625 0)"/>
      <use xlink:href="#DejaVuSerif-50" transform="translate(707.25 0)"/>
      <use xlink:href="#DejaVuSerif-48" transform="translate(802.078125 0)"/>
      <use xlink:href="#DejaVuSerif-51" transform="translate(861.265625 0)"/>
      <use xlink:href="#DejaVuSerif-56" transform="translate(925.671875 0)"/>
      <use xlink:href="#DejaVuSerif-4c" transform="translate(976.984375 0)"/>
      <use xlink:href="#DejaVuSerif-52" transform="translate(1008.96875 0)"/>
      <use xlink:href="#DejaVuSerif-51" transform="translate(1069.171875 0)"/>
      <use xlink:href="#DejaVuSerif-3" transform="translate(1133.578125 0)"/>
      <use xlink:href="#DejaVuSerif-15" transform="translate(1165.359375 0)"/>
     </g>
    </g>
   </g>
   <g id="line2d_69">
    <path d="M 471.837375 254.332407 
L 703.409782 22.76 
" clip-path="url(#pdc656d7909)" style="fill: none; stroke-dasharray: 5.18,2.24; stroke-dashoffset: 0; stroke: #57606a; stroke-opacity: 0.6; stroke-width: 1.4"/>
   </g>
   <g id="patch_7">
    <path d="M 471.837375 273.957187 
L 471.837375 22.76 
" style="fill: none; stroke: #d0d7de; stroke-width: 0.8; stroke-linejoin: miter; stroke-linecap: square"/>
   </g>
   <g id="patch_8">
    <path d="M 471.837375 273.957187 
L 723.034562 273.957187 
" style="fill: none; stroke: #d0d7de; stroke-width: 0.8; stroke-linejoin: miter; stroke-linecap: square"/>
   </g>
   <g id="patch_9">
    <path d="M 512.261509 205.203629 
Q 524.581663 196.96112 535.786721 189.46464 
" style="fill: none; stroke: #0969da; stroke-width: 1.2; stroke-linecap: round"/>
    <path d="M 531.7937 189.970387 
L 535.786721 189.46464 
L 533.795506 192.962505 
" style="fill: none; stroke: #0969da; stroke-width: 1.2; stroke-linecap: round"/>
   </g>
   <g id="text_40">
    <!-- Human -->
    <g style="fill: #0969da" transform="translate(474.791062 216.055957) scale(0.09 -0.09)">
     <defs>
      <path id="DejaVuSerif-2b" d="M 353 0 
L 353 331 
L 947 331 
L 947 4331 
L 353 4331 
L 353 4666 
L 2175 4666 
L 2175 4331 
L 1581 4331 
L 1581 2719 
L 4000 2719 
L 4000 4331 
L 3406 4331 
L 3406 4666 
L 5228 4666 
L 5228 4331 
L 4634 4331 
L 4634 331 
L 5228 331 
L 5228 0 
L 3406 0 
L 3406 331 
L 4000 331 
L 4000 2338 
L 1581 2338 
L 1581 331 
L 2175 331 
L 2175 0 
L 353 0 
z
" transform="scale(0.015625)"/>
     </defs>
     <use xlink:href="#DejaVuSerif-2b"/>
     <use xlink:href="#DejaVuSerif-58" transform="translate(87.203125 0)"/>
     <use xlink:href="#DejaVuSerif-50" transform="translate(151.609375 0)"/>
     <use xlink:href="#DejaVuSerif-44" transform="translate(246.4375 0)"/>
     <use xlink:href="#DejaVuSerif-51" transform="translate(306.0625 0)"/>
    </g>
    <!-- prototype -->
    <g style="fill: #0969da" transform="translate(469.308796 226.857715) scale(0.09 -0.09)">
     <use xlink:href="#DejaVuSerif-53"/>
     <use xlink:href="#DejaVuSerif-55" transform="translate(64.015625 0)"/>
     <use xlink:href="#DejaVuSerif-52" transform="translate(111.8125 0)"/>
     <use xlink:href="#DejaVuSerif-57" transform="translate(172.015625 0)"/>
     <use xlink:href="#DejaVuSerif-52" transform="translate(212.203125 0)"/>
     <use xlink:href="#DejaVuSerif-57" transform="translate(272.40625 0)"/>
     <use xlink:href="#DejaVuSerif-5c" transform="translate(312.59375 0)"/>
     <use xlink:href="#DejaVuSerif-53" transform="translate(369.09375 0)"/>
     <use xlink:href="#DejaVuSerif-48" transform="translate(433.109375 0)"/>
    </g>
   </g>
   <g id="patch_10">
    <path d="M 686.372364 76.391453 
Q 672.017476 92.014377 658.570331 106.649373 
" style="fill: none; stroke: #cf222e; stroke-width: 1.2; stroke-linecap: round"/>
    <path d="M 662.331507 105.216348 
L 658.570331 106.649373 
L 659.680617 102.780618 
" style="fill: none; stroke: #cf222e; stroke-width: 1.2; stroke-linecap: round"/>
   </g>
   <g id="text_41">
    <!-- Bot -->
    <g style="fill: #cf222e" transform="translate(691.660451 59.057715) scale(0.09 -0.09)">
     <defs>
      <path id="DejaVuSerif-25" d="M 1581 331 
L 2516 331 
Q 3078 331 3337 575 
Q 3597 819 3597 1350 
Q 3597 1878 3339 2120 
Q 3081 2363 2516 2363 
L 1581 2363 
L 1581 331 
z
M 1581 2694 
L 2375 2694 
Q 2888 2694 3123 2891 
Q 3359 3088 3359 3513 
Q 3359 3941 3123 4136 
Q 2888 4331 2375 4331 
L 1581 4331 
L 1581 2694 
z
M 353 0 
L 353 331 
L 947 331 
L 947 4331 
L 353 4331 
L 353 4666 
L 2656 4666 
Q 3363 4666 3720 4377 
Q 4078 4088 4078 3513 
Q 4078 3097 3829 2850 
Q 3581 2603 3103 2547 
Q 3697 2472 4005 2167 
Q 4313 1863 4313 1350 
Q 4313 656 3875 328 
Q 3438 0 2509 0 
L 353 0 
z
" transform="scale(0.015625)"/>
     </defs>
     <use xlink:href="#DejaVuSerif-25"/>
     <use xlink:href="#DejaVuSerif-52" transform="translate(73.484375 0)"/>
     <use xlink:href="#DejaVuSerif-57" transform="translate(133.6875 0)"/>
    </g>
    <!-- prototype -->
    <g style="fill: #cf222e" transform="translate(677.331467 69.859473) scale(0.09 -0.09)">
     <use xlink:href="#DejaVuSerif-53"/>
     <use xlink:href="#DejaVuSerif-55" transform="translate(64.015625 0)"/>
     <use xlink:href="#DejaVuSerif-52" transform="translate(111.8125 0)"/>
     <use xlink:href="#DejaVuSerif-57" transform="translate(172.015625 0)"/>
     <use xlink:href="#DejaVuSerif-52" transform="translate(212.203125 0)"/>
     <use xlink:href="#DejaVuSerif-57" transform="translate(272.40625 0)"/>
     <use xlink:href="#DejaVuSerif-5c" transform="translate(312.59375 0)"/>
     <use xlink:href="#DejaVuSerif-53" transform="translate(369.09375 0)"/>
     <use xlink:href="#DejaVuSerif-48" transform="translate(433.109375 0)"/>
    </g>
   </g>
   <g id="text_42">
    <!-- Decision -->
    <g style="fill: #57606a; opacity: 0.8" transform="translate(631.050397 189.780835) scale(0.08 -0.08)">
     <defs>
      <path id="DejaVuSerif-27" d="M 1581 331 
L 2163 331 
Q 3072 331 3558 850 
Q 4044 1369 4044 2338 
Q 4044 3306 3559 3818 
Q 3075 4331 2163 4331 
L 1581 4331 
L 1581 331 
z
M 353 0 
L 353 331 
L 947 331 
L 947 4331 
L 353 4331 
L 353 4666 
L 2209 4666 
Q 3416 4666 4089 4050 
Q 4763 3434 4763 2338 
Q 4763 1238 4088 619 
Q 3413 0 2209 0 
L 353 0 
z
" transform="scale(0.015625)"/>
     </defs>
     <use xlink:href="#DejaVuSerif-27"/>
     <use xlink:href="#DejaVuSerif-48" transform="translate(80.171875 0)"/>
     <use xlink:href="#DejaVuSerif-46" transform="translate(139.359375 0)"/>
     <use xlink:href="#DejaVuSerif-4c" transform="translate(195.359375 0)"/>
     <use xlink:href="#DejaVuSerif-56" transform="translate(227.34375 0)"/>
     <use xlink:href="#DejaVuSerif-4c" transform="translate(278.65625 0)"/>
     <use xlink:href="#DejaVuSerif-52" transform="translate(310.640625 0)"/>
     <use xlink:href="#DejaVuSerif-51" transform="translate(370.84375 0)"/>
    </g>
    <!-- boundary -->
    <g style="fill: #57606a; opacity: 0.8" transform="translate(629.221647 199.383022) scale(0.08 -0.08)">
     <use xlink:href="#DejaVuSerif-45"/>
     <use xlink:href="#DejaVuSerif-52" transform="translate(64.015625 0)"/>
     <use xlink:href="#DejaVuSerif-58" transform="translate(124.21875 0)"/>
     <use xlink:href="#DejaVuSerif-51" transform="translate(188.625 0)"/>
     <use xlink:href="#DejaVuSerif-47" transform="translate(253.03125 0)"/>
     <use xlink:href="#DejaVuSerif-44" transform="translate(317.046875 0)"/>
     <use xlink:href="#DejaVuSerif-55" transform="translate(376.671875 0)"/>
     <use xlink:href="#DejaVuSerif-5c" transform="translate(424.46875 0)"/>
    </g>
   </g>
   <g id="text_43">
    <!-- Prototype Classification -->
    <g style="fill: #1f2328" transform="translate(510.656906 12.76) scale(0.13 -0.13)">
     <defs>
      <path id="DejaVuSerif-Bold-33" d="M 300 0 
L 300 378 
L 897 378 
L 897 4288 
L 300 4288 
L 300 4666 
L 2956 4666 
Q 3734 4666 4193 4295 
Q 4653 3925 4653 3303 
Q 4653 2678 4192 2304 
Q 3731 1931 2956 1931 
L 2100 1931 
L 2100 378 
L 2853 378 
L 2853 0 
L 300 0 
z
M 2100 2309 
L 2450 2309 
Q 2856 2309 3098 2579 
Q 3341 2850 3341 3303 
Q 3341 3753 3100 4020 
Q 2859 4288 2450 4288 
L 2100 4288 
L 2100 2309 
z
" transform="scale(0.015625)"/>
      <path id="DejaVuSerif-Bold-55" d="M 3438 3359 
L 3438 2369 
L 3084 2369 
Q 3066 2634 2941 2764 
Q 2816 2894 2578 2894 
Q 2216 2894 2006 2575 
Q 1797 2256 1797 1691 
L 1797 378 
L 2400 378 
L 2400 0 
L 219 0 
L 219 378 
L 691 378 
L 691 2944 
L 184 2944 
L 184 3322 
L 1797 3322 
L 1797 2731 
Q 1959 3078 2226 3245 
Q 2494 3413 2881 3413 
Q 2978 3413 3117 3398 
Q 3256 3384 3438 3359 
z
" transform="scale(0.015625)"/>
      <path id="DejaVuSerif-Bold-57" d="M 634 2944 
L 153 2944 
L 153 3322 
L 634 3322 
L 634 4353 
L 1741 4353 
L 1741 3322 
L 2663 3322 
L 2663 2944 
L 1741 2944 
L 1741 909 
Q 1741 475 1809 369 
Q 1878 263 2059 263 
Q 2259 263 2356 397 
Q 2453 531 2459 813 
L 2925 813 
Q 2897 313 2651 111 
Q 2406 -91 1806 -91 
Q 1122 -91 878 123 
Q 634 338 634 909 
L 634 2944 
z
" transform="scale(0.015625)"/>
      <path id="DejaVuSerif-Bold-5c" d="M 1997 -750 
Q 1847 -1116 1634 -1269 
Q 1422 -1422 1063 -1422 
Q 909 -1422 721 -1387 
Q 534 -1353 313 -1288 
L 313 -594 
L 666 -597 
Q 675 -838 779 -953 
Q 884 -1069 1094 -1069 
Q 1297 -1069 1422 -958 
Q 1547 -847 1672 -538 
L 1722 -422 
L 275 2944 
L -84 2944 
L -84 3322 
L 1831 3322 
L 1831 2944 
L 1434 2944 
L 2278 978 
L 3066 2944 
L 2625 2944 
L 2625 3322 
L 3872 3322 
L 3872 2944 
L 3469 2944 
L 1997 -750 
z
" transform="scale(0.015625)"/>
      <path id="DejaVuSerif-Bold-53" d="M 1728 1825 
L 1728 1497 
Q 1728 916 1876 656 
Q 2025 397 2356 397 
Q 2697 397 2836 672 
Q 2975 947 2975 1663 
Q 2975 2378 2836 2651 
Q 2697 2925 2356 2925 
Q 2025 2925 1876 2665 
Q 1728 2406 1728 1825 
z
M 622 2944 
L 147 2944 
L 147 3322 
L 1728 3322 
L 1728 2900 
Q 1869 3159 2106 3286 
Q 2344 3413 2694 3413 
Q 3403 3413 3811 2945 
Q 4219 2478 4219 1663 
Q 4219 847 3811 378 
Q 3403 -91 2694 -91 
Q 2344 -91 2106 36 
Q 1869 163 1728 422 
L 1728 -953 
L 2241 -953 
L 2241 -1331 
L 147 -1331 
L 147 -953 
L 622 -953 
L 622 2944 
z
" transform="scale(0.015625)"/>
      <path id="DejaVuSerif-Bold-48" d="M 2566 1875 
Q 2566 2531 2444 2795 
Q 2322 3059 2028 3059 
Q 1744 3059 1620 2800 
Q 1497 2541 1497 1931 
L 1497 1875 
L 2566 1875 
z
M 3781 1503 
L 1497 1503 
L 1497 1478 
Q 1497 834 1690 548 
Q 1884 263 2316 263 
Q 2675 263 2897 453 
Q 3119 644 3181 1006 
L 3700 1006 
Q 3566 441 3166 175 
Q 2766 -91 2047 -91 
Q 1184 -91 723 364 
Q 263 819 263 1663 
Q 263 2488 734 2950 
Q 1206 3413 2047 3413 
Q 2872 3413 3312 2927 
Q 3753 2441 3781 1503 
z
" transform="scale(0.015625)"/>
      <path id="DejaVuSerif-Bold-26" d="M 4769 1331 
Q 4584 609 4106 259 
Q 3628 -91 2822 -91 
Q 1641 -91 955 561 
Q 269 1213 269 2328 
Q 269 3447 955 4098 
Q 1641 4750 2822 4750 
Q 3238 4750 3688 4650 
Q 4138 4550 4641 4347 
L 4641 3200 
L 4244 3200 
Q 4122 3788 3800 4080 
Q 3478 4372 2950 4372 
Q 2269 4372 1937 3870 
Q 1606 3369 1606 2328 
Q 1606 1288 1937 788 
Q 2269 288 2956 288 
Q 3422 288 3717 547 
Q 4013 806 4147 1331 
L 4769 1331 
z
" transform="scale(0.015625)"/>
      <path id="DejaVuSerif-Bold-4c" d="M 588 4263 
Q 588 4516 763 4689 
Q 938 4863 1191 4863 
Q 1438 4863 1611 4689 
Q 1784 4516 1784 4263 
Q 1784 4016 1611 3842 
Q 1438 3669 1191 3669 
Q 938 3669 763 3841 
Q 588 4013 588 4263 
z
M 1797 378 
L 2272 378 
L 2272 0 
L 219 0 
L 219 378 
L 691 378 
L 691 2944 
L 219 2944 
L 219 3322 
L 1797 3322 
L 1797 378 
z
" transform="scale(0.015625)"/>
      <path id="DejaVuSerif-Bold-cde" d="M 3781 3963 
L 3431 3963 
Q 3397 4231 3209 4372 
Q 3022 4513 2694 4513 
Q 2231 4513 2014 4291 
Q 1797 4069 1797 3591 
L 1797 3322 
L 4031 3322 
L 4031 378 
L 4506 378 
L 4506 0 
L 2522 0 
L 2522 378 
L 2925 378 
L 2925 2944 
L 1797 2944 
L 1797 378 
L 2203 378 
L 2203 0 
L 219 0 
L 219 378 
L 691 378 
L 691 2944 
L 197 2944 
L 197 3322 
L 691 3322 
L 691 3559 
Q 691 4203 1131 4533 
Q 1572 4863 2438 4863 
Q 2741 4863 3077 4825 
Q 3413 4788 3781 4709 
L 3781 3963 
z
" transform="scale(0.015625)"/>
      <path id="DejaVuSerif-Bold-51" d="M 219 0 
L 219 378 
L 691 378 
L 691 2944 
L 219 2944 
L 219 3322 
L 1797 3322 
L 1797 2853 
Q 1997 3150 2253 3281 
Q 2509 3413 2900 3413 
Q 3459 3413 3745 3083 
Q 4031 2753 4031 2113 
L 4031 378 
L 4506 378 
L 4506 0 
L 2522 0 
L 2522 378 
L 2925 378 
L 2925 2144 
Q 2925 2566 2817 2730 
Q 2709 2894 2444 2894 
Q 2109 2894 1953 2648 
Q 1797 2403 1797 1869 
L 1797 378 
L 2203 378 
L 2203 0 
L 219 0 
z
" transform="scale(0.015625)"/>
     </defs>
     <use xlink:href="#DejaVuSerif-Bold-33"/>
     <use xlink:href="#DejaVuSerif-Bold-55" transform="translate(75.203125 0)"/>
     <use xlink:href="#DejaVuSerif-Bold-52" transform="translate(127.890625 0)"/>
     <use xlink:href="#DejaVuSerif-Bold-57" transform="translate(194.59375 0)"/>
     <use xlink:href="#DejaVuSerif-Bold-52" transform="translate(240.78125 0)"/>
     <use xlink:href="#DejaVuSerif-Bold-57" transform="translate(307.484375 0)"/>
     <use xlink:href="#DejaVuSerif-Bold-5c" transform="translate(353.671875 0)"/>
     <use xlink:href="#DejaVuSerif-Bold-53" transform="translate(411.78125 0)"/>
     <use xlink:href="#DejaVuSerif-Bold-48" transform="translate(481.703125 0)"/>
     <use xlink:href="#DejaVuSerif-Bold-3" transform="translate(545.328125 0)"/>
     <use xlink:href="#DejaVuSerif-Bold-26" transform="translate(580.140625 0)"/>
     <use xlink:href="#DejaVuSerif-Bold-4f" transform="translate(659.734375 0)"/>
     <use xlink:href="#DejaVuSerif-Bold-44" transform="translate(697.71875 0)"/>
     <use xlink:href="#DejaVuSerif-Bold-56" transform="translate(762.515625 0)"/>
     <use xlink:href="#DejaVuSerif-Bold-56" transform="translate(818.8125 0)"/>
     <use xlink:href="#DejaVuSerif-Bold-4c" transform="translate(875.109375 0)"/>
     <use xlink:href="#DejaVuSerif-Bold-cde" transform="translate(913.09375 0)"/>
     <use xlink:href="#DejaVuSerif-Bold-46" transform="translate(985.796875 0)"/>
     <use xlink:href="#DejaVuSerif-Bold-44" transform="translate(1046.6875 0)"/>
     <use xlink:href="#DejaVuSerif-Bold-57" transform="translate(1111.484375 0)"/>
     <use xlink:href="#DejaVuSerif-Bold-4c" transform="translate(1157.671875 0)"/>
     <use xlink:href="#DejaVuSerif-Bold-52" transform="translate(1195.65625 0)"/>
     <use xlink:href="#DejaVuSerif-Bold-51" transform="translate(1262.359375 0)"/>
    </g>
   </g>
   <g id="PathCollection_1">
    <defs>
     <path id="m3e0f277148" d="M 0 4.1833 
C 1.109424 4.1833 2.173559 3.742521 2.95804 2.95804 
C 3.742521 2.173559 4.1833 1.109424 4.1833 0 
C 4.1833 -1.109424 3.742521 -2.173559 2.95804 -2.95804 
C 2.173559 -3.742521 1.109424 -4.1833 0 -4.1833 
C -1.109424 -4.1833 -2.173559 -3.742521 -2.95804 -2.95804 
C -3.742521 -2.173559 -4.1833 -1.109424 -4.1833 0 
C -4.1833 1.109424 -3.742521 2.173559 -2.95804 2.95804 
C -2.173559 3.742521 -1.109424 4.1833 0 4.1833 
z
" style="stroke: #ffffff; stroke-opacity: 0.75"/>
    </defs>
    <g clip-path="url(#pdc656d7909)">
     <use xlink:href="#m3e0f277148" x="560.546836" y="172.296744" style="fill: #0969da; fill-opacity: 0.75; stroke: #ffffff; stroke-opacity: 0.75"/>
     <use xlink:href="#m3e0f277148" x="541.194159" y="176.568962" style="fill: #0969da; fill-opacity: 0.75; stroke: #ffffff; stroke-opacity: 0.75"/>
     <use xlink:href="#m3e0f277148" x="551.939449" y="176.754041" style="fill: #0969da; fill-opacity: 0.75; stroke: #ffffff; stroke-opacity: 0.75"/>
     <use xlink:href="#m3e0f277148" x="562.307615" y="176.686633" style="fill: #0969da; fill-opacity: 0.75; stroke: #ffffff; stroke-opacity: 0.75"/>
     <use xlink:href="#m3e0f277148" x="559.662967" y="178.829885" style="fill: #0969da; fill-opacity: 0.75; stroke: #ffffff; stroke-opacity: 0.75"/>
     <use xlink:href="#m3e0f277148" x="554.308229" y="171.086017" style="fill: #0969da; fill-opacity: 0.75; stroke: #ffffff; stroke-opacity: 0.75"/>
     <use xlink:href="#m3e0f277148" x="530.319042" y="184.149676" style="fill: #0969da; fill-opacity: 0.75; stroke: #ffffff; stroke-opacity: 0.75"/>
     <use xlink:href="#m3e0f277148" x="543.874824" y="188.534728" style="fill: #0969da; fill-opacity: 0.75; stroke: #ffffff; stroke-opacity: 0.75"/>
     <use xlink:href="#m3e0f277148" x="546.556772" y="159.221716" style="fill: #0969da; fill-opacity: 0.75; stroke: #ffffff; stroke-opacity: 0.75"/>
     <use xlink:href="#m3e0f277148" x="538.442274" y="166.456667" style="fill: #0969da; fill-opacity: 0.75; stroke: #ffffff; stroke-opacity: 0.75"/>
     <use xlink:href="#m3e0f277148" x="527.218331" y="184.358674" style="fill: #0969da; fill-opacity: 0.75; stroke: #ffffff; stroke-opacity: 0.75"/>
     <use xlink:href="#m3e0f277148" x="552.572291" y="171.705103" style="fill: #0969da; fill-opacity: 0.75; stroke: #ffffff; stroke-opacity: 0.75"/>
     <use xlink:href="#m3e0f277148" x="560.106862" y="168.859757" style="fill: #0969da; fill-opacity: 0.75; stroke: #ffffff; stroke-opacity: 0.75"/>
     <use xlink:href="#m3e0f277148" x="545.545939" y="186.109729" style="fill: #0969da; fill-opacity: 0.75; stroke: #ffffff; stroke-opacity: 0.75"/>
     <use xlink:href="#m3e0f277148" x="562.122808" y="182.386256" style="fill: #0969da; fill-opacity: 0.75; stroke: #ffffff; stroke-opacity: 0.75"/>
     <use xlink:href="#m3e0f277148" x="532.811951" y="195.326601" style="fill: #0969da; fill-opacity: 0.75; stroke: #ffffff; stroke-opacity: 0.75"/>
     <use xlink:href="#m3e0f277148" x="537.705662" y="172.928573" style="fill: #0969da; fill-opacity: 0.75; stroke: #ffffff; stroke-opacity: 0.75"/>
     <use xlink:href="#m3e0f277148" x="552.293048" y="170.272806" style="fill: #0969da; fill-opacity: 0.75; stroke: #ffffff; stroke-opacity: 0.75"/>
     <use xlink:href="#m3e0f277148" x="544.467179" y="177.580328" style="fill: #0969da; fill-opacity: 0.75; stroke: #ffffff; stroke-opacity: 0.75"/>
     <use xlink:href="#m3e0f277148" x="558.930448" y="184.007843" style="fill: #0969da; fill-opacity: 0.75; stroke: #ffffff; stroke-opacity: 0.75"/>
    </g>
   </g>
   <g id="PathCollection_2">
    <defs>
     <path id="mf4858f3939" d="M 0 4.1833 
C 1.109424 4.1833 2.173559 3.742521 2.95804 2.95804 
C 3.742521 2.173559 4.1833 1.109424 4.1833 0 
C 4.1833 -1.109424 3.742521 -2.173559 2.95804 -2.95804 
C 2.173559 -3.742521 1.109424 -4.1833 0 -4.1833 
C -1.109424 -4.1833 -2.173559 -3.742521 -2.95804 -2.95804 
C -3.742521 -2.173559 -4.1833 -1.109424 -4.1833 0 
C -4.1833 1.109424 -3.742521 2.173559 -2.95804 2.95804 
C -2.173559 3.742521 -1.109424 4.1833 0 4.1833 
z
" style="stroke: #ffffff; stroke-opacity: 0.75"/>
    </defs>
    <g clip-path="url(#pdc656d7909)">
     <use xlink:href="#mf4858f3939" x="648.721445" y="131.245567" style="fill: #cf222e; fill-opacity: 0.75; stroke: #ffffff; stroke-opacity: 0.75"/>
     <use xlink:href="#mf4858f3939" x="654.844649" y="104.038082" style="fill: #cf222e; fill-opacity: 0.75; stroke: #ffffff; stroke-opacity: 0.75"/>
     <use xlink:href="#mf4858f3939" x="617.733396" y="134.847436" style="fill: #cf222e; fill-opacity: 0.75; stroke: #ffffff; stroke-opacity: 0.75"/>
     <use xlink:href="#mf4858f3939" x="646.291629" y="121.303279" style="fill: #cf222e; fill-opacity: 0.75; stroke: #ffffff; stroke-opacity: 0.75"/>
     <use xlink:href="#mf4858f3939" x="644.304638" y="128.677505" style="fill: #cf222e; fill-opacity: 0.75; stroke: #ffffff; stroke-opacity: 0.75"/>
     <use xlink:href="#mf4858f3939" x="656.616036" y="106.274148" style="fill: #cf222e; fill-opacity: 0.75; stroke: #ffffff; stroke-opacity: 0.75"/>
     <use xlink:href="#mf4858f3939" x="645.442528" y="101.473643" style="fill: #cf222e; fill-opacity: 0.75; stroke: #ffffff; stroke-opacity: 0.75"/>
     <use xlink:href="#mf4858f3939" x="650.957779" y="128.763343" style="fill: #cf222e; fill-opacity: 0.75; stroke: #ffffff; stroke-opacity: 0.75"/>
     <use xlink:href="#mf4858f3939" x="649.601099" y="130.131448" style="fill: #cf222e; fill-opacity: 0.75; stroke: #ffffff; stroke-opacity: 0.75"/>
     <use xlink:href="#mf4858f3939" x="656.603017" y="117.644795" style="fill: #cf222e; fill-opacity: 0.75; stroke: #ffffff; stroke-opacity: 0.75"/>
     <use xlink:href="#mf4858f3939" x="641.995923" y="126.31311" style="fill: #cf222e; fill-opacity: 0.75; stroke: #ffffff; stroke-opacity: 0.75"/>
     <use xlink:href="#mf4858f3939" x="661.329915" y="119.08177" style="fill: #cf222e; fill-opacity: 0.75; stroke: #ffffff; stroke-opacity: 0.75"/>
     <use xlink:href="#mf4858f3939" x="638.651354" y="121.796326" style="fill: #cf222e; fill-opacity: 0.75; stroke: #ffffff; stroke-opacity: 0.75"/>
     <use xlink:href="#mf4858f3939" x="651.847957" y="111.938714" style="fill: #cf222e; fill-opacity: 0.75; stroke: #ffffff; stroke-opacity: 0.75"/>
     <use xlink:href="#mf4858f3939" x="650.205292" y="111.040608" style="fill: #cf222e; fill-opacity: 0.75; stroke: #ffffff; stroke-opacity: 0.75"/>
     <use xlink:href="#mf4858f3939" x="673.955996" y="122.542009" style="fill: #cf222e; fill-opacity: 0.75; stroke: #ffffff; stroke-opacity: 0.75"/>
     <use xlink:href="#mf4858f3939" x="637.498586" y="128.138023" style="fill: #cf222e; fill-opacity: 0.75; stroke: #ffffff; stroke-opacity: 0.75"/>
     <use xlink:href="#mf4858f3939" x="652.997364" y="101.449862" style="fill: #cf222e; fill-opacity: 0.75; stroke: #ffffff; stroke-opacity: 0.75"/>
     <use xlink:href="#mf4858f3939" x="642.970106" y="128.500466" style="fill: #cf222e; fill-opacity: 0.75; stroke: #ffffff; stroke-opacity: 0.75"/>
     <use xlink:href="#mf4858f3939" x="633.209258" y="108.021527" style="fill: #cf222e; fill-opacity: 0.75; stroke: #ffffff; stroke-opacity: 0.75"/>
    </g>
   </g>
   <g id="PathCollection_3">
    <defs>
     <path id="md39bf2edb0" d="M -0 10.488088 
L 10.488088 0 
L 0 -10.488088 
L -10.488088 -0 
z
" style="stroke: #1f2328; stroke-width: 1.5"/>
    </defs>
    <g clip-path="url(#pdc656d7909)">
     <use xlink:href="#md39bf2edb0" x="538.561628" y="187.608154" style="fill: #0969da; stroke: #1f2328; stroke-width: 1.5"/>
    </g>
   </g>
   <g id="PathCollection_4">
    <defs>
     <path id="md819a9c345" d="M -0 10.488088 
L 10.488088 0 
L 0 -10.488088 
L -10.488088 -0 
z
" style="stroke: #1f2328; stroke-width: 1.5"/>
    </defs>
    <g clip-path="url(#pdc656d7909)">
     <use xlink:href="#md819a9c345" x="656.31031" y="109.109033" style="fill: #cf222e; stroke: #1f2328; stroke-width: 1.5"/>
    </g>
   </g>
   <g id="legend_2">
    <g id="patch_11">
     <path d="M 476.337375 269.457187 
L 542.079563 269.457187 
L 542.079563 239.755781 
L 476.337375 239.755781 
z
" style="fill: #ffffff; stroke: #d0d7de; stroke-linejoin: miter"/>
    </g>
    <g id="PathCollection_5">
     <g>
      <use xlink:href="#m3e0f277148" x="488.937375" y="247.831875" style="fill: #0969da; fill-opacity: 0.75; stroke: #ffffff; stroke-opacity: 0.75"/>
     </g>
    </g>
    <g id="text_44">
     <!-- Human -->
     <g style="fill: #1f2328" transform="translate(505.137375 250.194375) scale(0.09 -0.09)">
      <use xlink:href="#DejaVuSerif-2b"/>
      <use xlink:href="#DejaVuSerif-58" transform="translate(87.203125 0)"/>
      <use xlink:href="#DejaVuSerif-50" transform="translate(151.609375 0)"/>
      <use xlink:href="#DejaVuSerif-44" transform="translate(246.4375 0)"/>
      <use xlink:href="#DejaVuSerif-51" transform="translate(306.0625 0)"/>
     </g>
    </g>
    <g id="PathCollection_6">
     <g>
      <use xlink:href="#mf4858f3939" x="488.937375" y="261.332578" style="fill: #cf222e; fill-opacity: 0.75; stroke: #ffffff; stroke-opacity: 0.75"/>
     </g>
    </g>
    <g id="text_45">
     <!-- Bot -->
     <g style="fill: #1f2328" transform="translate(505.137375 263.695078) scale(0.09 -0.09)">
      <use xlink:href="#DejaVuSerif-25"/>
      <use xlink:href="#DejaVuSerif-52" transform="translate(73.484375 0)"/>
      <use xlink:href="#DejaVuSerif-57" transform="translate(133.6875 0)"/>
     </g>
    </g>
   </g>
  </g>
 </g>
 <defs>
  <clipPath id="pad0ca1b07c">
   <rect x="43.374375" y="22.76" width="342.511187" height="251.197187"/>
  </clipPath>
  <clipPath id="pdc656d7909">
   <rect x="471.837375" y="22.76" width="251.197187" height="251.197187"/>
  </clipPath>
 </defs>
</svg>
