<?xml version="1.0" encoding="utf-8" standalone="no"?>
<!DOCTYPE svg PUBLIC "-//W3C//DTD SVG 1.1//EN"
  "http://www.w3.org/Graphics/SVG/1.1/DTD/svg11.dtd">
<svg xmlns:xlink="http://www.w3.org/1999/xlink" width="667.498727pt" height="350.776696pt" viewBox="0 0 667.498727 350.776696" xmlns="http://www.w3.org/2000/svg" version="1.1">
 <metadata>
  <rdf:RDF xmlns:dc="http://purl.org/dc/elements/1.1/" xmlns:cc="http://creativecommons.org/ns#" xmlns:rdf="http://www.w3.org/1999/02/22-rdf-syntax-ns#">
   <cc:Work>
    <dc:type rdf:resource="http://purl.org/dc/dcmitype/StillImage"/>
    <dc:date>2026-07-03T08:28:10.803471</dc:date>
    <dc:format>image/svg+xml</dc:format>
    <dc:creator>
     <cc:Agent>
      <dc:title>Matplotlib v3.11.0, https://matplotlib.org/</dc:title>
     </cc:Agent>
    </dc:creator>
   </cc:Work>
  </rdf:RDF>
 </metadata>
 <defs>
  <style type="text/css">*{stroke-linejoin: round; stroke-linecap: butt}</style>
 </defs>
 <g id="figure_1">
  <g id="patch_1">
   <path d="M 0 350.776696 
L 667.498727 350.776696 
L 667.498727 0 
L 0 0 
z
" style="fill: #ffffff"/>
  </g>
  <g id="axes_1">
   <g id="patch_2">
    <path d="M 274.769908 169.052099 
Q 272.887683 160.805534 271.378637 154.193973 
" style="fill: none; opacity: 0.7; stroke: #555555; stroke-width: 1.5; stroke-linecap: round"/>
    <path d="M 270.318865 158.538727 
L 271.378637 154.193973 
L 274.218577 157.648643 
" style="fill: none; opacity: 0.7; stroke: #555555; stroke-width: 1.5; stroke-linecap: round"/>
   </g>
   <g id="text_1">
    <g id="patch_3">
     <path d="M 272.89333 156.312431 
L 290.967549 156.312431 
Q 292.017549 156.312431 292.017549 155.262431 
L 292.017549 148.262431 
Q 292.017549 147.212431 290.967549 147.212431 
L 272.89333 147.212431 
Q 271.84333 147.212431 271.84333 148.262431 
L 271.84333 155.262431 
Q 271.84333 156.312431 272.89333 156.312431 
z
" style="fill: #ffffff; opacity: 0.85"/>
    </g>
    <!-- H↔H -->
    <g style="fill: #444444" transform="translate(272.89333 153.58079) scale(0.07 -0.07)">
     <defs>
      <path id="DejaVuSerif-2b" d="M 353 0 
L 353 331 
L 947 331 
L 947 4331 
L 353 4331 
L 353 4666 
L 2175 4666 
L 2175 4331 
L 1581 4331 
L 1581 2719 
L 4000 2719 
L 4000 4331 
L 3406 4331 
L 3406 4666 
L 5228 4666 
L 5228 4331 
L 4634 4331 
L 4634 331 
L 5228 331 
L 5228 0 
L 3406 0 
L 3406 331 
L 4000 331 
L 4000 2338 
L 1581 2338 
L 1581 331 
L 2175 331 
L 2175 0 
L 353 0 
z
" transform="scale(0.015625)"/>
      <path id="DejaVuSerif-856" d="M 4391 2322 
L 3788 3375 
L 3822 3375 
L 5125 2084 
L 5125 2053 
L 3822 763 
L 3788 763 
L 4391 1816 
L 972 1816 
L 1575 763 
L 1541 763 
L 238 2053 
L 238 2084 
L 1541 3375 
L 1575 3375 
L 972 2322 
L 4391 2322 
z
" transform="scale(0.015625)"/>
     </defs>
     <use xlink:href="#DejaVuSerif-2b"/>
     <use xlink:href="#DejaVuSerif-856" transform="translate(87.203125 0)"/>
     <use xlink:href="#DejaVuSerif-2b" transform="translate(171 0)"/>
    </g>
   </g>
   <g id="patch_4">
    <path d="M 256.882211 123.231447 
Q 251.608335 116.618216 247.380083 111.316156 
" style="fill: none; opacity: 0.7; stroke: #555555; stroke-width: 1.5; stroke-linecap: round"/>
    <path d="M 248.310379 115.690461 
L 247.380083 111.316156 
L 251.437705 113.196502 
" style="fill: none; opacity: 0.7; stroke: #555555; stroke-width: 1.5; stroke-linecap: round"/>
   </g>
   <g id="text_2">
    <g id="patch_5">
     <path d="M 251.613866 112.125169 
L 269.688085 112.125169 
Q 270.738085 112.125169 270.738085 111.075169 
L 270.738085 104.075169 
Q 270.738085 103.025169 269.688085 103.025169 
L 251.613866 103.025169 
Q 250.563866 103.025169 250.563866 104.075169 
L 250.563866 111.075169 
Q 250.563866 112.125169 251.613866 112.125169 
z
" style="fill: #ffffff; opacity: 0.85"/>
    </g>
    <!-- H↔H -->
    <g style="fill: #444444" transform="translate(251.613866 109.393528) scale(0.07 -0.07)">
     <use xlink:href="#DejaVuSerif-2b"/>
     <use xlink:href="#DejaVuSerif-856" transform="translate(87.203125 0)"/>
     <use xlink:href="#DejaVuSerif-2b" transform="translate(171 0)"/>
    </g>
   </g>
   <g id="patch_6">
    <path d="M 59.893398 152.558405 
Q 58.011173 160.80497 56.502128 167.41653 
" style="fill: none; opacity: 0.7; stroke: #555555; stroke-width: 1.5; stroke-linecap: round"/>
    <path d="M 59.342067 163.961861 
L 56.502128 167.41653 
L 55.442355 163.071777 
" style="fill: none; opacity: 0.7; stroke: #555555; stroke-width: 1.5; stroke-linecap: round"/>
   </g>
   <g id="text_3">
    <g id="patch_7">
     <path d="M 58.977133 156.312431 
L 75.130726 156.312431 
Q 76.180726 156.312431 76.180726 155.262431 
L 76.180726 148.262431 
Q 76.180726 147.212431 75.130726 147.212431 
L 58.977133 147.212431 
Q 57.927133 147.212431 57.927133 148.262431 
L 57.927133 155.262431 
Q 57.927133 156.312431 58.977133 156.312431 
z
" style="fill: #ffffff; opacity: 0.85"/>
    </g>
    <!-- B↔B -->
    <g style="fill: #444444" transform="translate(58.977133 153.58079) scale(0.07 -0.07)">
     <defs>
      <path id="DejaVuSerif-25" d="M 1581 331 
L 2516 331 
Q 3078 331 3337 575 
Q 3597 819 3597 1350 
Q 3597 1878 3339 2120 
Q 3081 2363 2516 2363 
L 1581 2363 
L 1581 331 
z
M 1581 2694 
L 2375 2694 
Q 2888 2694 3123 2891 
Q 3359 3088 3359 3513 
Q 3359 3941 3123 4136 
Q 2888 4331 2375 4331 
L 1581 4331 
L 1581 2694 
z
M 353 0 
L 353 331 
L 947 331 
L 947 4331 
L 353 4331 
L 353 4666 
L 2656 4666 
Q 3363 4666 3720 4377 
Q 4078 4088 4078 3513 
Q 4078 3097 3829 2850 
Q 3581 2603 3103 2547 
Q 3697 2472 4005 2167 
Q 4313 1863 4313 1350 
Q 4313 656 3875 328 
Q 3438 0 2509 0 
L 353 0 
z
" transform="scale(0.015625)"/>
     </defs>
     <use xlink:href="#DejaVuSerif-25"/>
     <use xlink:href="#DejaVuSerif-856" transform="translate(73.484375 0)"/>
     <use xlink:href="#DejaVuSerif-25" transform="translate(157.28125 0)"/>
    </g>
   </g>
   <g id="patch_8">
    <path d="M 56.12882 201.602566 
Q 58.011044 209.849131 59.52009 216.460692 
" style="fill: none; opacity: 0.7; stroke: #555555; stroke-width: 1.5; stroke-linecap: round"/>
    <path d="M 60.579862 212.115938 
L 59.52009 216.460692 
L 56.68015 213.006022 
" style="fill: none; opacity: 0.7; stroke: #555555; stroke-width: 1.5; stroke-linecap: round"/>
   </g>
   <g id="text_4">
    <g id="patch_9">
     <path d="M 58.977133 205.356592 
L 75.130726 205.356592 
Q 76.180726 205.356592 76.180726 204.306592 
L 76.180726 197.306592 
Q 76.180726 196.256592 75.130726 196.256592 
L 58.977133 196.256592 
Q 57.927133 196.256592 57.927133 197.306592 
L 57.927133 204.306592 
Q 57.927133 205.356592 58.977133 205.356592 
z
" style="fill: #ffffff; opacity: 0.85"/>
    </g>
    <!-- B↔B -->
    <g style="fill: #444444" transform="translate(58.977133 202.624952) scale(0.07 -0.07)">
     <use xlink:href="#DejaVuSerif-25"/>
     <use xlink:href="#DejaVuSerif-856" transform="translate(73.484375 0)"/>
     <use xlink:href="#DejaVuSerif-25" transform="translate(157.28125 0)"/>
    </g>
   </g>
   <g id="patch_10">
    <path d="M 173.908294 75.126103 
Q 165.449653 75.126103 158.668064 75.126103 
" style="fill: none; opacity: 0.7; stroke: #555555; stroke-width: 1.5; stroke-linecap: round"/>
    <path d="M 162.668064 77.126103 
L 158.668064 75.126103 
L 162.668064 73.126103 
" style="fill: none; opacity: 0.7; stroke: #555555; stroke-width: 1.5; stroke-linecap: round"/>
   </g>
   <g id="text_5">
    <g id="patch_11">
     <path d="M 165.455075 70.633282 
L 183.529294 70.633282 
Q 184.579294 70.633282 184.579294 69.583282 
L 184.579294 62.583282 
Q 184.579294 61.533282 183.529294 61.533282 
L 165.455075 61.533282 
Q 164.405075 61.533282 164.405075 62.583282 
L 164.405075 69.583282 
Q 164.405075 70.633282 165.455075 70.633282 
z
" style="fill: #ffffff; opacity: 0.85"/>
    </g>
    <!-- H↔H -->
    <g style="fill: #444444" transform="translate(165.455075 67.901641) scale(0.07 -0.07)">
     <use xlink:href="#DejaVuSerif-2b"/>
     <use xlink:href="#DejaVuSerif-856" transform="translate(87.203125 0)"/>
     <use xlink:href="#DejaVuSerif-2b" transform="translate(171 0)"/>
    </g>
   </g>
   <g id="patch_12">
    <path d="M 110.013609 280.945017 
Q 117.634581 284.615084 123.744582 287.557505 
" style="fill: none; opacity: 0.7; stroke: #555555; stroke-width: 1.5; stroke-linecap: round"/>
    <path d="M 121.008474 284.020033 
L 123.744582 287.557505 
L 119.272939 287.623908 
" style="fill: none; opacity: 0.7; stroke: #555555; stroke-width: 1.5; stroke-linecap: round"/>
   </g>
   <g id="text_6">
    <g id="patch_13">
     <path d="M 118.600866 280.122389 
L 134.75446 280.122389 
Q 135.80446 280.122389 135.80446 279.072389 
L 135.80446 272.072389 
Q 135.80446 271.022389 134.75446 271.022389 
L 118.600866 271.022389 
Q 117.550866 271.022389 117.550866 272.072389 
L 117.550866 279.072389 
Q 117.550866 280.122389 118.600866 280.122389 
z
" style="fill: #ffffff; opacity: 0.85"/>
    </g>
    <!-- B↔B -->
    <g style="fill: #444444" transform="translate(118.600866 277.390748) scale(0.07 -0.07)">
     <use xlink:href="#DejaVuSerif-25"/>
     <use xlink:href="#DejaVuSerif-856" transform="translate(73.484375 0)"/>
     <use xlink:href="#DejaVuSerif-25" transform="translate(157.28125 0)"/>
    </g>
   </g>
   <g id="text_7">
    <!-- Birds of a feather — GNNs thrive here -->
    <g style="fill: #555555" transform="translate(77.602332 334.533875) scale(0.09 -0.09)">
     <defs>
      <path id="DejaVuSerif-Italic-25" d="M 1194 331 
L 2128 331 
Q 2691 331 2998 575 
Q 3306 819 3409 1350 
Q 3512 1878 3301 2120 
Q 3091 2363 2525 2363 
L 1591 2363 
L 1194 331 
z
M 1653 2694 
L 2447 2694 
Q 2959 2694 3234 2891 
Q 3509 3088 3591 3513 
Q 3675 3941 3476 4136 
Q 3278 4331 2766 4331 
L 1972 4331 
L 1653 2694 
z
M -97 0 
L -35 331 
L 559 331 
L 1337 4331 
L 744 4331 
L 809 4666 
L 3112 4666 
Q 3819 4666 4120 4377 
Q 4422 4088 4309 3513 
Q 4231 3097 3934 2850 
Q 3637 2603 3147 2547 
Q 3728 2472 3976 2167 
Q 4225 1863 4125 1350 
Q 3991 656 3489 328 
Q 2987 0 2059 0 
L -97 0 
z
" transform="scale(0.015625)"/>
      <path id="DejaVuSerif-Italic-4c" d="M 1009 4353 
Q 1038 4497 1163 4603 
Q 1288 4709 1434 4709 
Q 1578 4709 1663 4603 
Q 1728 4522 1728 4422 
Q 1728 4388 1719 4353 
Q 1691 4206 1567 4103 
Q 1444 4000 1297 4000 
Q 1150 4000 1066 4103 
Q 1003 4181 1003 4281 
Q 1003 4316 1009 4353 
z
M 963 331 
L 1506 331 
L 1444 0 
L 325 0 
L 903 2988 
L 353 2988 
L 419 3322 
L 1544 3322 
L 963 331 
z
" transform="scale(0.015625)"/>
      <path id="DejaVuSerif-Italic-55" d="M 3375 3328 
L 3213 2497 
L 2881 2497 
Q 2891 2559 2891 2613 
Q 2891 2775 2816 2866 
Q 2719 2988 2484 2988 
Q 2059 2988 1775 2694 
Q 1491 2400 1384 1850 
L 1025 0 
L 450 0 
L 1031 2994 
L 481 2994 
L 544 3322 
L 1669 3322 
L 1556 2731 
Q 1791 3078 2089 3245 
Q 2388 3413 2769 3413 
Q 2909 3413 3059 3391 
Q 3209 3369 3375 3328 
z
" transform="scale(0.015625)"/>
      <path id="DejaVuSerif-Italic-47" d="M 3841 4863 
L 2897 0 
L 2322 0 
L 2422 519 
Q 2191 206 1902 57 
Q 1613 -91 1228 -91 
Q 616 -91 322 394 
Q 125 716 125 1166 
Q 125 1397 178 1663 
Q 331 2444 812 2928 
Q 1294 3413 1909 3413 
Q 2294 3413 2525 3264 
Q 2756 3116 2866 2803 
L 3200 4531 
L 2656 4531 
L 2722 4863 
L 3841 4863 
z
M 2613 1497 
L 2675 1825 
Q 2722 2069 2722 2266 
Q 2722 2550 2622 2738 
Q 2456 3053 2019 3053 
Q 1575 3053 1279 2703 
Q 984 2353 850 1663 
Q 788 1347 788 1103 
Q 788 813 875 622 
Q 1031 269 1475 269 
Q 1913 269 2203 583 
Q 2494 897 2613 1497 
z
" transform="scale(0.015625)"/>
      <path id="DejaVuSerif-Italic-56" d="M 222 959 
L 553 959 
Q 541 869 541 788 
Q 541 219 1313 219 
Q 2088 219 2200 788 
Q 2209 844 2209 944 
Q 2209 1041 2103 1158 
Q 1997 1275 1550 1428 
L 1159 1569 
Q 759 1706 629 1882 
Q 500 2059 500 2263 
Q 500 2344 516 2438 
Q 606 2894 990 3153 
Q 1375 3413 1931 3413 
Q 2484 3413 3066 3144 
L 2925 2419 
L 2594 2419 
Q 2606 2491 2606 2553 
Q 2606 2781 2448 2942 
Q 2291 3103 1925 3103 
Q 1191 3103 1091 2591 
Q 1078 2538 1078 2444 
Q 1078 2347 1179 2237 
Q 1281 2128 1678 1997 
L 2106 1856 
Q 2550 1709 2716 1488 
Q 2831 1331 2831 1178 
Q 2831 522 2306 181 
Q 1894 -91 1262 -91 
Q 631 -91 72 184 
L 222 959 
z
" transform="scale(0.015625)"/>
      <path id="DejaVuSerif-Italic-3" transform="scale(0.015625)"/>
      <path id="DejaVuSerif-Italic-52" d="M 1644 219 
Q 2106 219 2414 584 
Q 2722 950 2859 1663 
Q 2922 1988 2922 2241 
Q 2922 2541 2834 2738 
Q 2669 3103 2206 3103 
Q 1744 3103 1436 2739 
Q 1128 2375 991 1663 
Q 928 1338 928 1088 
Q 928 784 1019 584 
Q 1184 219 1644 219 
z
M 1584 -91 
Q 859 -91 513 388 
Q 272 722 272 1203 
Q 272 1419 319 1663 
Q 472 2456 1005 2934 
Q 1538 3413 2266 3413 
Q 2994 3413 3341 2934 
Q 3578 2603 3578 2122 
Q 3578 1906 3531 1663 
Q 3378 869 2845 389 
Q 2313 -91 1584 -91 
z
" transform="scale(0.015625)"/>
      <path id="DejaVuSerif-Italic-49" d="M 3191 4078 
L 2887 4078 
Q 2900 4144 2900 4203 
Q 2900 4347 2825 4434 
Q 2719 4556 2472 4556 
Q 2150 4556 1984 4379 
Q 1819 4203 1731 3750 
L 1647 3322 
L 2575 3322 
L 2509 2988 
L 1581 2988 
L 962 -206 
Q 853 -763 509 -1047 
Q 166 -1331 -394 -1331 
L -356 -1025 
Q -28 -1025 131 -850 
Q 297 -663 387 -206 
L 1006 2988 
L 456 2988 
L 522 3322 
L 1072 3322 
L 1153 3738 
Q 1262 4297 1606 4578 
Q 1950 4863 2509 4863 
Q 2719 4863 2920 4825 
Q 3122 4788 3316 4709 
L 3191 4078 
z
" transform="scale(0.015625)"/>
      <path id="DejaVuSerif-Italic-44" d="M 2325 519 
Q 1909 -91 1238 -91 
Q 688 -91 409 281 
Q 216 544 216 919 
Q 216 1078 250 1256 
Q 463 2359 1231 2928 
Q 1884 3413 2675 3413 
Q 3206 3413 3388 3322 
L 2806 331 
L 3300 331 
L 3238 0 
L 2225 0 
L 2325 519 
z
M 822 938 
Q 822 269 1469 269 
Q 1863 269 2130 583 
Q 2397 897 2516 1497 
L 2806 3003 
L 2806 3003 
Q 2806 3094 2556 3094 
Q 1956 3094 1491 2625 
Q 1028 2153 863 1297 
Q 822 1097 822 938 
z
" transform="scale(0.015625)"/>
      <path id="DejaVuSerif-Italic-48" d="M 938 1275 
Q 925 1156 925 1050 
Q 925 756 1031 563 
Q 1216 219 1709 219 
Q 2072 219 2250 328 
Q 2569 525 2644 778 
L 3066 778 
Q 2941 381 2475 103 
Q 2150 -91 1506 -91 
Q 863 -91 516 388 
Q 272 722 272 1206 
Q 272 1419 319 1659 
Q 472 2450 1000 2931 
Q 1528 3413 2278 3413 
Q 3500 3413 3500 2547 
Q 3500 1913 2859 1603 
Q 2206 1288 938 1275 
z
M 2541 1975 
Q 2891 2181 2891 2569 
Q 2891 3103 2181 3103 
Q 1763 3103 1472 2784 
Q 1181 2466 1003 1606 
Q 2006 1653 2541 1975 
z
" transform="scale(0.015625)"/>
      <path id="DejaVuSerif-Italic-57" d="M 856 2988 
L 350 2988 
L 416 3322 
L 922 3322 
L 1122 4353 
L 1700 4353 
L 1500 3322 
L 2581 3322 
L 2516 2988 
L 1434 2988 
L 1025 878 
Q 978 631 978 488 
Q 978 388 1000 338 
Q 1059 219 1278 219 
Q 1503 219 1633 351 
Q 1763 484 1825 781 
L 2259 781 
Q 2147 328 1884 118 
Q 1622 -91 1169 -91 
Q 672 -91 506 131 
Q 406 266 406 516 
Q 406 675 447 878 
L 856 2988 
z
" transform="scale(0.015625)"/>
      <path id="DejaVuSerif-Italic-4b" d="M 309 0 
L 1191 4531 
L 641 4531 
L 703 4863 
L 1828 4863 
L 1416 2731 
Q 1641 3069 1928 3241 
Q 2216 3413 2553 3413 
Q 3103 3413 3300 3097 
Q 3422 2906 3422 2588 
Q 3422 2378 3369 2113 
L 3022 331 
L 3534 331 
L 3472 0 
L 2381 0 
L 2756 1931 
Q 2819 2253 2819 2469 
Q 2819 2659 2769 2763 
Q 2666 2988 2284 2988 
Q 1884 2988 1617 2697 
Q 1350 2406 1244 1850 
L 884 0 
L 309 0 
z
" transform="scale(0.015625)"/>
      <path id="DejaVuSerif-Italic-782" d="M 322 1906 
L 6159 1906 
L 6078 1491 
L 241 1491 
L 322 1906 
z
" transform="scale(0.015625)"/>
      <path id="DejaVuSerif-Italic-2a" d="M 4281 3272 
Q 4284 3856 3992 4136 
Q 3700 4416 3081 4416 
Q 2275 4416 1776 3897 
Q 1278 3378 1075 2328 
Q 875 1300 1181 772 
Q 1488 244 2281 244 
Q 2634 244 2973 331 
Q 3313 419 3638 594 
L 3872 1797 
L 2994 1797 
L 3059 2131 
L 4572 2131 
L 4231 391 
Q 3769 150 3266 29 
Q 2763 -91 2216 -91 
Q 1159 -91 653 570 
Q 147 1231 359 2328 
Q 575 3434 1340 4092 
Q 2106 4750 3184 4750 
Q 3584 4750 3992 4658 
Q 4400 4566 4844 4378 
L 4631 3272 
L 4281 3272 
z
" transform="scale(0.015625)"/>
      <path id="DejaVuSerif-Italic-31" d="M -128 0 
L -66 331 
L 562 331 
L 1341 4331 
L 712 4331 
L 778 4666 
L 1975 4666 
L 4056 984 
L 4706 4331 
L 4081 4331 
L 4147 4666 
L 5784 4666 
L 5719 4331 
L 5091 4331 
L 4231 -91 
L 3853 -91 
L 1631 3841 
L 947 331 
L 1575 331 
L 1512 0 
L -128 0 
z
" transform="scale(0.015625)"/>
      <path id="DejaVuSerif-Italic-59" d="M 1681 0 
L 1259 0 
L 619 2988 
L 241 2988 
L 303 3322 
L 1163 3322 
L 1725 703 
Q 2084 1016 2325 1413 
Q 2825 2238 3003 2988 
L 2622 2988 
L 2688 3322 
L 3547 3322 
Q 3206 2034 2775 1313 
Q 2400 688 1681 0 
z
" transform="scale(0.015625)"/>
     </defs>
     <use xlink:href="#DejaVuSerif-Italic-25"/>
     <use xlink:href="#DejaVuSerif-Italic-4c" transform="translate(73.484375 0)"/>
     <use xlink:href="#DejaVuSerif-Italic-55" transform="translate(105.46875 0)"/>
     <use xlink:href="#DejaVuSerif-Italic-47" transform="translate(153.265625 0)"/>
     <use xlink:href="#DejaVuSerif-Italic-56" transform="translate(217.28125 0)"/>
     <use xlink:href="#DejaVuSerif-Italic-3" transform="translate(268.59375 0)"/>
     <use xlink:href="#DejaVuSerif-Italic-52" transform="translate(300.375 0)"/>
     <use xlink:href="#DejaVuSerif-Italic-49" transform="translate(360.578125 0)"/>
     <use xlink:href="#DejaVuSerif-Italic-3" transform="translate(397.59375 0)"/>
     <use xlink:href="#DejaVuSerif-Italic-44" transform="translate(429.375 0)"/>
     <use xlink:href="#DejaVuSerif-Italic-3" transform="translate(489 0)"/>
     <use xlink:href="#DejaVuSerif-Italic-49" transform="translate(520.78125 0)"/>
     <use xlink:href="#DejaVuSerif-Italic-48" transform="translate(557.796875 0)"/>
     <use xlink:href="#DejaVuSerif-Italic-44" transform="translate(616.984375 0)"/>
     <use xlink:href="#DejaVuSerif-Italic-57" transform="translate(676.609375 0)"/>
     <use xlink:href="#DejaVuSerif-Italic-4b" transform="translate(716.796875 0)"/>
     <use xlink:href="#DejaVuSerif-Italic-48" transform="translate(781.203125 0)"/>
     <use xlink:href="#DejaVuSerif-Italic-55" transform="translate(840.390625 0)"/>
     <use xlink:href="#DejaVuSerif-Italic-3" transform="translate(888.1875 0)"/>
     <use xlink:href="#DejaVuSerif-Italic-782" transform="translate(919.96875 0)"/>
     <use xlink:href="#DejaVuSerif-Italic-3" transform="translate(1019.96875 0)"/>
     <use xlink:href="#DejaVuSerif-Italic-2a" transform="translate(1051.75 0)"/>
     <use xlink:href="#DejaVuSerif-Italic-31" transform="translate(1131.640625 0)"/>
     <use xlink:href="#DejaVuSerif-Italic-31" transform="translate(1219.140625 0)"/>
     <use xlink:href="#DejaVuSerif-Italic-56" transform="translate(1306.640625 0)"/>
     <use xlink:href="#DejaVuSerif-Italic-3" transform="translate(1357.953125 0)"/>
     <use xlink:href="#DejaVuSerif-Italic-57" transform="translate(1389.734375 0)"/>
     <use xlink:href="#DejaVuSerif-Italic-4b" transform="translate(1429.921875 0)"/>
     <use xlink:href="#DejaVuSerif-Italic-55" transform="translate(1494.328125 0)"/>
     <use xlink:href="#DejaVuSerif-Italic-4c" transform="translate(1542.125 0)"/>
     <use xlink:href="#DejaVuSerif-Italic-59" transform="translate(1574.109375 0)"/>
     <use xlink:href="#DejaVuSerif-Italic-48" transform="translate(1630.609375 0)"/>
     <use xlink:href="#DejaVuSerif-Italic-3" transform="translate(1689.796875 0)"/>
     <use xlink:href="#DejaVuSerif-Italic-4b" transform="translate(1721.578125 0)"/>
     <use xlink:href="#DejaVuSerif-Italic-48" transform="translate(1785.984375 0)"/>
     <use xlink:href="#DejaVuSerif-Italic-55" transform="translate(1845.171875 0)"/>
     <use xlink:href="#DejaVuSerif-Italic-48" transform="translate(1892.96875 0)"/>
    </g>
   </g>
   <g id="text_8">
    <!-- Homophily (ideal) -->
    <g transform="translate(99.529207 17.077969) scale(0.13 -0.13)">
     <defs>
      <path id="DejaVuSerif-Bold-2b" d="M 300 0 
L 300 378 
L 897 378 
L 897 4288 
L 300 4288 
L 300 4666 
L 2700 4666 
L 2700 4288 
L 2100 4288 
L 2100 2719 
L 3956 2719 
L 3956 4288 
L 3359 4288 
L 3359 4666 
L 5759 4666 
L 5759 4288 
L 5159 4288 
L 5159 378 
L 5759 378 
L 5759 0 
L 3359 0 
L 3359 378 
L 3956 378 
L 3956 2291 
L 2100 2291 
L 2100 378 
L 2700 378 
L 2700 0 
L 300 0 
z
" transform="scale(0.015625)"/>
      <path id="DejaVuSerif-Bold-52" d="M 2138 263 
Q 2488 263 2630 563 
Q 2772 863 2772 1663 
Q 2772 2463 2631 2761 
Q 2491 3059 2138 3059 
Q 1784 3059 1640 2757 
Q 1497 2456 1497 1663 
Q 1497 869 1640 566 
Q 1784 263 2138 263 
z
M 2138 -91 
Q 1259 -91 761 376 
Q 263 844 263 1663 
Q 263 2484 761 2948 
Q 1259 3413 2138 3413 
Q 3019 3413 3516 2948 
Q 4013 2484 4013 1663 
Q 4013 844 3514 376 
Q 3016 -91 2138 -91 
z
" transform="scale(0.015625)"/>
      <path id="DejaVuSerif-Bold-50" d="M 3884 2778 
Q 4116 3109 4384 3261 
Q 4653 3413 5013 3413 
Q 5584 3413 5867 3089 
Q 6150 2766 6150 2113 
L 6150 378 
L 6625 378 
L 6625 0 
L 4647 0 
L 4647 378 
L 5044 378 
L 5044 1947 
Q 5044 2569 4948 2731 
Q 4853 2894 4594 2894 
Q 4300 2894 4137 2667 
Q 3975 2441 3975 2022 
L 3975 378 
L 4372 378 
L 4372 0 
L 2472 0 
L 2472 378 
L 2869 378 
L 2869 1947 
Q 2869 2569 2772 2731 
Q 2675 2894 2419 2894 
Q 2122 2894 1959 2667 
Q 1797 2441 1797 2022 
L 1797 378 
L 2194 378 
L 2194 0 
L 219 0 
L 219 378 
L 691 378 
L 691 2944 
L 219 2944 
L 219 3322 
L 1797 3322 
L 1797 2853 
Q 1991 3144 2241 3278 
Q 2491 3413 2834 3413 
Q 3241 3413 3494 3258 
Q 3747 3103 3884 2778 
z
" transform="scale(0.015625)"/>
      <path id="DejaVuSerif-Bold-53" d="M 1728 1825 
L 1728 1497 
Q 1728 916 1876 656 
Q 2025 397 2356 397 
Q 2697 397 2836 672 
Q 2975 947 2975 1663 
Q 2975 2378 2836 2651 
Q 2697 2925 2356 2925 
Q 2025 2925 1876 2665 
Q 1728 2406 1728 1825 
z
M 622 2944 
L 147 2944 
L 147 3322 
L 1728 3322 
L 1728 2900 
Q 1869 3159 2106 3286 
Q 2344 3413 2694 3413 
Q 3403 3413 3811 2945 
Q 4219 2478 4219 1663 
Q 4219 847 3811 378 
Q 3403 -91 2694 -91 
Q 2344 -91 2106 36 
Q 1869 163 1728 422 
L 1728 -953 
L 2241 -953 
L 2241 -1331 
L 147 -1331 
L 147 -953 
L 622 -953 
L 622 2944 
z
" transform="scale(0.015625)"/>
      <path id="DejaVuSerif-Bold-4b" d="M 219 0 
L 219 378 
L 691 378 
L 691 4488 
L 197 4488 
L 197 4863 
L 1797 4863 
L 1797 2853 
Q 1997 3150 2253 3281 
Q 2509 3413 2900 3413 
Q 3459 3413 3745 3083 
Q 4031 2753 4031 2113 
L 4031 378 
L 4506 378 
L 4506 0 
L 2522 0 
L 2522 378 
L 2925 378 
L 2925 2144 
Q 2925 2566 2817 2730 
Q 2709 2894 2444 2894 
Q 2109 2894 1953 2648 
Q 1797 2403 1797 1869 
L 1797 378 
L 2203 378 
L 2203 0 
L 219 0 
z
" transform="scale(0.015625)"/>
      <path id="DejaVuSerif-Bold-4c" d="M 588 4263 
Q 588 4516 763 4689 
Q 938 4863 1191 4863 
Q 1438 4863 1611 4689 
Q 1784 4516 1784 4263 
Q 1784 4016 1611 3842 
Q 1438 3669 1191 3669 
Q 938 3669 763 3841 
Q 588 4013 588 4263 
z
M 1797 378 
L 2272 378 
L 2272 0 
L 219 0 
L 219 378 
L 691 378 
L 691 2944 
L 219 2944 
L 219 3322 
L 1797 3322 
L 1797 378 
z
" transform="scale(0.015625)"/>
      <path id="DejaVuSerif-Bold-4f" d="M 1797 378 
L 2272 378 
L 2272 0 
L 219 0 
L 219 378 
L 691 378 
L 691 4488 
L 219 4488 
L 219 4863 
L 1797 4863 
L 1797 378 
z
" transform="scale(0.015625)"/>
      <path id="DejaVuSerif-Bold-5c" d="M 1997 -750 
Q 1847 -1116 1634 -1269 
Q 1422 -1422 1063 -1422 
Q 909 -1422 721 -1387 
Q 534 -1353 313 -1288 
L 313 -594 
L 666 -597 
Q 675 -838 779 -953 
Q 884 -1069 1094 -1069 
Q 1297 -1069 1422 -958 
Q 1547 -847 1672 -538 
L 1722 -422 
L 275 2944 
L -84 2944 
L -84 3322 
L 1831 3322 
L 1831 2944 
L 1434 2944 
L 2278 978 
L 3066 2944 
L 2625 2944 
L 2625 3322 
L 3872 3322 
L 3872 2944 
L 3469 2944 
L 1997 -750 
z
" transform="scale(0.015625)"/>
      <path id="DejaVuSerif-Bold-3" transform="scale(0.015625)"/>
      <path id="DejaVuSerif-Bold-b" d="M 2694 -997 
Q 1641 -606 1122 122 
Q 603 850 603 1931 
Q 603 3013 1115 3731 
Q 1628 4450 2694 4863 
L 2694 4488 
Q 2200 4188 1983 3598 
Q 1766 3009 1766 1931 
Q 1766 856 1983 267 
Q 2200 -322 2694 -622 
L 2694 -997 
z
" transform="scale(0.015625)"/>
      <path id="DejaVuSerif-Bold-47" d="M 2747 1497 
L 2747 1825 
Q 2747 2406 2597 2665 
Q 2447 2925 2119 2925 
Q 1775 2925 1636 2651 
Q 1497 2378 1497 1663 
Q 1497 947 1637 672 
Q 1778 397 2119 397 
Q 2447 397 2597 656 
Q 2747 916 2747 1497 
z
M 3853 378 
L 4325 378 
L 4325 0 
L 2747 0 
L 2747 422 
Q 2606 163 2367 36 
Q 2128 -91 1778 -91 
Q 1072 -91 667 378 
Q 263 847 263 1663 
Q 263 2481 667 2947 
Q 1072 3413 1778 3413 
Q 2128 3413 2367 3286 
Q 2606 3159 2747 2900 
L 2747 4488 
L 2272 4488 
L 2272 4863 
L 3853 4863 
L 3853 378 
z
" transform="scale(0.015625)"/>
      <path id="DejaVuSerif-Bold-48" d="M 2566 1875 
Q 2566 2531 2444 2795 
Q 2322 3059 2028 3059 
Q 1744 3059 1620 2800 
Q 1497 2541 1497 1931 
L 1497 1875 
L 2566 1875 
z
M 3781 1503 
L 1497 1503 
L 1497 1478 
Q 1497 834 1690 548 
Q 1884 263 2316 263 
Q 2675 263 2897 453 
Q 3119 644 3181 1006 
L 3700 1006 
Q 3566 441 3166 175 
Q 2766 -91 2047 -91 
Q 1184 -91 723 364 
Q 263 819 263 1663 
Q 263 2488 734 2950 
Q 1206 3413 2047 3413 
Q 2872 3413 3312 2927 
Q 3753 2441 3781 1503 
z
" transform="scale(0.015625)"/>
      <path id="DejaVuSerif-Bold-44" d="M 3525 2041 
L 3525 378 
L 4000 378 
L 4000 0 
L 2419 0 
L 2419 422 
Q 2200 159 1931 34 
Q 1663 -91 1319 -91 
Q 809 -91 536 182 
Q 263 456 263 966 
Q 263 1525 655 1803 
Q 1047 2081 1838 2081 
L 2419 2081 
L 2419 2278 
Q 2419 2681 2228 2873 
Q 2038 3066 1638 3066 
Q 1306 3066 1126 2930 
Q 947 2794 872 2484 
L 519 2484 
L 519 3200 
Q 816 3306 1134 3359 
Q 1453 3413 1806 3413 
Q 2697 3413 3111 3081 
Q 3525 2750 3525 2041 
z
M 2419 1044 
L 2419 1709 
L 2003 1709 
Q 1694 1709 1528 1540 
Q 1363 1372 1363 1056 
Q 1363 741 1483 584 
Q 1603 428 1850 428 
Q 2106 428 2262 597 
Q 2419 766 2419 1044 
z
" transform="scale(0.015625)"/>
      <path id="DejaVuSerif-Bold-c" d="M 325 -997 
L 325 -622 
Q 819 -322 1036 267 
Q 1253 856 1253 1931 
Q 1253 3009 1036 3598 
Q 819 4188 325 4488 
L 325 4863 
Q 1391 4450 1905 3731 
Q 2419 3013 2419 1931 
Q 2419 850 1898 122 
Q 1378 -606 325 -997 
z
" transform="scale(0.015625)"/>
     </defs>
     <use xlink:href="#DejaVuSerif-Bold-2b"/>
     <use xlink:href="#DejaVuSerif-Bold-52" transform="translate(94.484375 0)"/>
     <use xlink:href="#DejaVuSerif-Bold-50" transform="translate(161.1875 0)"/>
     <use xlink:href="#DejaVuSerif-Bold-52" transform="translate(267 0)"/>
     <use xlink:href="#DejaVuSerif-Bold-53" transform="translate(333.703125 0)"/>
     <use xlink:href="#DejaVuSerif-Bold-4b" transform="translate(403.625 0)"/>
     <use xlink:href="#DejaVuSerif-Bold-4c" transform="translate(476.328125 0)"/>
     <use xlink:href="#DejaVuSerif-Bold-4f" transform="translate(514.3125 0)"/>
     <use xlink:href="#DejaVuSerif-Bold-5c" transform="translate(552.296875 0)"/>
     <use xlink:href="#DejaVuSerif-Bold-3" transform="translate(610.40625 0)"/>
     <use xlink:href="#DejaVuSerif-Bold-b" transform="translate(645.21875 0)"/>
     <use xlink:href="#DejaVuSerif-Bold-4c" transform="translate(692.53125 0)"/>
     <use xlink:href="#DejaVuSerif-Bold-47" transform="translate(730.515625 0)"/>
     <use xlink:href="#DejaVuSerif-Bold-48" transform="translate(800.4375 0)"/>
     <use xlink:href="#DejaVuSerif-Bold-44" transform="translate(864.0625 0)"/>
     <use xlink:href="#DejaVuSerif-Bold-4f" transform="translate(928.859375 0)"/>
     <use xlink:href="#DejaVuSerif-Bold-c" transform="translate(966.84375 0)"/>
    </g>
   </g>
   <g id="PathCollection_1">
    <defs>
     <path id="m561f518e5e" d="M 0 7.416198 
C 1.966799 7.416198 3.853307 6.634781 5.244044 5.244044 
C 6.634781 3.853307 7.416198 1.966799 7.416198 0 
C 7.416198 -1.966799 6.634781 -3.853307 5.244044 -5.244044 
C 3.853307 -6.634781 1.966799 -7.416198 0 -7.416198 
C -1.966799 -7.416198 -3.853307 -6.634781 -5.244044 -5.244044 
C -6.634781 -3.853307 -7.416198 -1.966799 -7.416198 0 
C -7.416198 1.966799 -6.634781 3.853307 -5.244044 5.244044 
C -3.853307 6.634781 -1.966799 7.416198 0 7.416198 
z
" style="stroke: #ffffff; stroke-width: 1.2"/>
    </defs>
    <g clip-path="url(#p08b227c79b)">
     <use xlink:href="#m561f518e5e" x="278.484623" y="185.327332" style="fill: #2e86ab; stroke: #ffffff; stroke-width: 1.2"/>
    </g>
   </g>
   <g id="PathCollection_2">
    <defs>
     <path id="m42a51f1775" d="M 0 7.416198 
C 1.966799 7.416198 3.853307 6.634781 5.244044 5.244044 
C 6.634781 3.853307 7.416198 1.966799 7.416198 0 
C 7.416198 -1.966799 6.634781 -3.853307 5.244044 -5.244044 
C 3.853307 -6.634781 1.966799 -7.416198 0 -7.416198 
C -1.966799 -7.416198 -3.853307 -6.634781 -5.244044 -5.244044 
C -6.634781 -3.853307 -7.416198 -1.966799 -7.416198 0 
C -7.416198 1.966799 -6.634781 3.853307 -5.244044 5.244044 
C -3.853307 6.634781 -1.966799 7.416198 0 7.416198 
z
" style="stroke: #ffffff; stroke-width: 1.2"/>
    </defs>
    <g clip-path="url(#p08b227c79b)">
     <use xlink:href="#m42a51f1775" x="267.290614" y="136.283171" style="fill: #a23b72; stroke: #ffffff; stroke-width: 1.2"/>
    </g>
   </g>
   <g id="PathCollection_3">
    <g clip-path="url(#p08b227c79b)">
     <use xlink:href="#m42a51f1775" x="235.925695" y="96.952808" style="fill: #a23b72; stroke: #ffffff; stroke-width: 1.2"/>
    </g>
   </g>
   <g id="PathCollection_4">
    <g clip-path="url(#p08b227c79b)">
     <use xlink:href="#m561f518e5e" x="190.602075" y="75.126103" style="fill: #2e86ab; stroke: #ffffff; stroke-width: 1.2"/>
    </g>
   </g>
   <g id="PathCollection_5">
    <g clip-path="url(#p08b227c79b)">
     <use xlink:href="#m561f518e5e" x="140.296652" y="75.126103" style="fill: #2e86ab; stroke: #ffffff; stroke-width: 1.2"/>
    </g>
   </g>
   <g id="PathCollection_6">
    <g clip-path="url(#p08b227c79b)">
     <use xlink:href="#m42a51f1775" x="94.973032" y="96.952808" style="fill: #a23b72; stroke: #ffffff; stroke-width: 1.2"/>
    </g>
   </g>
   <g id="PathCollection_7">
    <g clip-path="url(#p08b227c79b)">
     <use xlink:href="#m42a51f1775" x="63.608114" y="136.283171" style="fill: #a23b72; stroke: #ffffff; stroke-width: 1.2"/>
    </g>
   </g>
   <g id="PathCollection_8">
    <g clip-path="url(#p08b227c79b)">
     <use xlink:href="#m42a51f1775" x="52.414104" y="185.327332" style="fill: #a23b72; stroke: #ffffff; stroke-width: 1.2"/>
    </g>
   </g>
   <g id="PathCollection_9">
    <g clip-path="url(#p08b227c79b)">
     <use xlink:href="#m561f518e5e" x="63.608114" y="234.371494" style="fill: #2e86ab; stroke: #ffffff; stroke-width: 1.2"/>
    </g>
   </g>
   <g id="PathCollection_10">
    <g clip-path="url(#p08b227c79b)">
     <use xlink:href="#m561f518e5e" x="94.973032" y="273.701857" style="fill: #2e86ab; stroke: #ffffff; stroke-width: 1.2"/>
    </g>
   </g>
   <g id="PathCollection_11">
    <g clip-path="url(#p08b227c79b)">
     <use xlink:href="#m561f518e5e" x="140.296652" y="295.528562" style="fill: #2e86ab; stroke: #ffffff; stroke-width: 1.2"/>
    </g>
   </g>
   <g id="PathCollection_12">
    <g clip-path="url(#p08b227c79b)">
     <use xlink:href="#m42a51f1775" x="190.602075" y="295.528562" style="fill: #a23b72; stroke: #ffffff; stroke-width: 1.2"/>
    </g>
   </g>
   <g id="PathCollection_13">
    <g clip-path="url(#p08b227c79b)">
     <use xlink:href="#m561f518e5e" x="235.925695" y="273.701857" style="fill: #2e86ab; stroke: #ffffff; stroke-width: 1.2"/>
    </g>
   </g>
   <g id="PathCollection_14">
    <g clip-path="url(#p08b227c79b)">
     <use xlink:href="#m42a51f1775" x="267.290614" y="234.371494" style="fill: #a23b72; stroke: #ffffff; stroke-width: 1.2"/>
    </g>
   </g>
   <g id="legend_1">
    <g id="patch_14">
     <path d="M 262.861227 339.576696 
L 318.098727 339.576696 
Q 319.698727 339.576696 319.698727 337.976696 
L 319.698727 314.775446 
Q 319.698727 313.175446 318.098727 313.175446 
L 262.861227 313.175446 
Q 261.261227 313.175446 261.261227 314.775446 
L 261.261227 337.976696 
Q 261.261227 339.576696 262.861227 339.576696 
z
" style="fill: #ffffff; opacity: 0.85; stroke: #cccccc; stroke-linejoin: miter"/>
    </g>
    <g id="patch_15">
     <path d="M 264.461227 322.454196 
L 280.461227 322.454196 
L 280.461227 316.854196 
L 264.461227 316.854196 
z
" style="fill: #2e86ab; stroke: #2e86ab; stroke-linejoin: miter"/>
    </g>
    <g id="text_9">
     <!-- Human -->
     <g transform="translate(286.861227 322.454196) scale(0.08 -0.08)">
      <defs>
       <path id="DejaVuSerif-58" d="M 2266 3322 
L 3341 3322 
L 3341 331 
L 3884 331 
L 3884 0 
L 2766 0 
L 2766 588 
Q 2606 256 2353 82 
Q 2100 -91 1766 -91 
Q 1213 -91 952 223 
Q 691 538 691 1209 
L 691 2988 
L 172 2988 
L 172 3322 
L 1269 3322 
L 1269 1388 
Q 1269 781 1417 556 
Q 1566 331 1947 331 
Q 2347 331 2556 625 
Q 2766 919 2766 1478 
L 2766 2988 
L 2266 2988 
L 2266 3322 
z
" transform="scale(0.015625)"/>
       <path id="DejaVuSerif-50" d="M 3316 2675 
Q 3481 3041 3739 3227 
Q 3997 3413 4341 3413 
Q 4863 3413 5119 3089 
Q 5375 2766 5375 2113 
L 5375 331 
L 5894 331 
L 5894 0 
L 4300 0 
L 4300 331 
L 4800 331 
L 4800 2047 
Q 4800 2556 4650 2772 
Q 4500 2988 4153 2988 
Q 3769 2988 3567 2697 
Q 3366 2406 3366 1850 
L 3366 331 
L 3866 331 
L 3866 0 
L 2291 0 
L 2291 331 
L 2791 331 
L 2791 2069 
Q 2791 2566 2641 2777 
Q 2491 2988 2144 2988 
Q 1759 2988 1557 2697 
Q 1356 2406 1356 1850 
L 1356 331 
L 1856 331 
L 1856 0 
L 263 0 
L 263 331 
L 781 331 
L 781 2994 
L 231 2994 
L 231 3322 
L 1356 3322 
L 1356 2731 
Q 1516 3063 1762 3238 
Q 2009 3413 2322 3413 
Q 2709 3413 2968 3220 
Q 3228 3028 3316 2675 
z
" transform="scale(0.015625)"/>
       <path id="DejaVuSerif-44" d="M 2547 1044 
L 2547 1747 
L 1806 1747 
Q 1378 1747 1168 1562 
Q 959 1378 959 997 
Q 959 650 1171 447 
Q 1384 244 1747 244 
Q 2106 244 2326 466 
Q 2547 688 2547 1044 
z
M 3122 2075 
L 3122 331 
L 3634 331 
L 3634 0 
L 2547 0 
L 2547 359 
Q 2356 128 2106 18 
Q 1856 -91 1522 -91 
Q 969 -91 644 203 
Q 319 497 319 997 
Q 319 1513 691 1797 
Q 1063 2081 1741 2081 
L 2547 2081 
L 2547 2309 
Q 2547 2688 2317 2895 
Q 2088 3103 1672 3103 
Q 1328 3103 1125 2947 
Q 922 2791 872 2484 
L 575 2484 
L 575 3156 
Q 875 3284 1158 3348 
Q 1441 3413 1709 3413 
Q 2400 3413 2761 3070 
Q 3122 2728 3122 2075 
z
" transform="scale(0.015625)"/>
       <path id="DejaVuSerif-51" d="M 263 0 
L 263 331 
L 781 331 
L 781 2988 
L 231 2988 
L 231 3322 
L 1356 3322 
L 1356 2731 
Q 1516 3069 1770 3241 
Q 2025 3413 2363 3413 
Q 2913 3413 3172 3097 
Q 3431 2781 3431 2113 
L 3431 331 
L 3944 331 
L 3944 0 
L 2356 0 
L 2356 331 
L 2853 331 
L 2853 1931 
Q 2853 2541 2703 2767 
Q 2553 2994 2175 2994 
Q 1775 2994 1565 2701 
Q 1356 2409 1356 1850 
L 1356 331 
L 1856 331 
L 1856 0 
L 263 0 
z
" transform="scale(0.015625)"/>
      </defs>
      <use xlink:href="#DejaVuSerif-2b"/>
      <use xlink:href="#DejaVuSerif-58" transform="translate(87.203125 0)"/>
      <use xlink:href="#DejaVuSerif-50" transform="translate(151.609375 0)"/>
      <use xlink:href="#DejaVuSerif-44" transform="translate(246.4375 0)"/>
      <use xlink:href="#DejaVuSerif-51" transform="translate(306.0625 0)"/>
     </g>
    </g>
    <g id="patch_16">
     <path d="M 264.461227 334.454821 
L 280.461227 334.454821 
L 280.461227 328.854821 
L 264.461227 328.854821 
z
" style="fill: #a23b72; stroke: #a23b72; stroke-linejoin: miter"/>
    </g>
    <g id="text_10">
     <!-- Bot -->
     <g transform="translate(286.861227 334.454821) scale(0.08 -0.08)">
      <defs>
       <path id="DejaVuSerif-52" d="M 1925 219 
Q 2388 219 2623 584 
Q 2859 950 2859 1663 
Q 2859 2375 2623 2739 
Q 2388 3103 1925 3103 
Q 1463 3103 1227 2739 
Q 991 2375 991 1663 
Q 991 950 1228 584 
Q 1466 219 1925 219 
z
M 1925 -91 
Q 1200 -91 759 389 
Q 319 869 319 1663 
Q 319 2456 758 2934 
Q 1197 3413 1925 3413 
Q 2653 3413 3092 2934 
Q 3531 2456 3531 1663 
Q 3531 869 3092 389 
Q 2653 -91 1925 -91 
z
" transform="scale(0.015625)"/>
       <path id="DejaVuSerif-57" d="M 691 2988 
L 184 2988 
L 184 3322 
L 691 3322 
L 691 4353 
L 1269 4353 
L 1269 3322 
L 2350 3322 
L 2350 2988 
L 1269 2988 
L 1269 878 
Q 1269 456 1350 337 
Q 1431 219 1650 219 
Q 1875 219 1978 351 
Q 2081 484 2088 781 
L 2522 781 
Q 2497 328 2275 118 
Q 2053 -91 1600 -91 
Q 1103 -91 897 129 
Q 691 350 691 878 
L 691 2988 
z
" transform="scale(0.015625)"/>
      </defs>
      <use xlink:href="#DejaVuSerif-25"/>
      <use xlink:href="#DejaVuSerif-52" transform="translate(73.484375 0)"/>
      <use xlink:href="#DejaVuSerif-57" transform="translate(133.6875 0)"/>
     </g>
    </g>
   </g>
   <g id="text_11">
    <!-- H -->
    <g style="fill: #ffffff" transform="translate(274.705248 187.405457) scale(0.08 -0.08)">
     <use xlink:href="#DejaVuSerif-Bold-2b"/>
    </g>
   </g>
   <g id="text_12">
    <!-- B -->
    <g style="fill: #ffffff" transform="translate(263.909989 138.361296) scale(0.08 -0.08)">
     <defs>
      <path id="DejaVuSerif-Bold-25" d="M 300 0 
L 300 378 
L 897 378 
L 897 4288 
L 300 4288 
L 300 4666 
L 3066 4666 
Q 3919 4666 4347 4378 
Q 4775 4091 4775 3513 
Q 4775 3097 4479 2853 
Q 4184 2609 3603 2547 
Q 4306 2481 4681 2172 
Q 5056 1863 5056 1350 
Q 5056 656 4532 328 
Q 4009 0 2894 0 
L 300 0 
z
M 2100 2719 
L 2509 2719 
Q 3047 2719 3306 2914 
Q 3566 3109 3566 3513 
Q 3566 3919 3314 4103 
Q 3063 4288 2509 4288 
L 2100 4288 
L 2100 2719 
z
M 2100 378 
L 2547 378 
Q 3144 378 3431 615 
Q 3719 853 3719 1350 
Q 3719 1850 3428 2097 
Q 3138 2344 2547 2344 
L 2100 2344 
L 2100 378 
z
" transform="scale(0.015625)"/>
     </defs>
     <use xlink:href="#DejaVuSerif-Bold-25"/>
    </g>
   </g>
   <g id="text_13">
    <!-- B -->
    <g style="fill: #ffffff" transform="translate(232.54507 99.030933) scale(0.08 -0.08)">
     <use xlink:href="#DejaVuSerif-Bold-25"/>
    </g>
   </g>
   <g id="text_14">
    <!-- H -->
    <g style="fill: #ffffff" transform="translate(186.8227 77.204228) scale(0.08 -0.08)">
     <use xlink:href="#DejaVuSerif-Bold-2b"/>
    </g>
   </g>
   <g id="text_15">
    <!-- H -->
    <g style="fill: #ffffff" transform="translate(136.517277 77.204228) scale(0.08 -0.08)">
     <use xlink:href="#DejaVuSerif-Bold-2b"/>
    </g>
   </g>
   <g id="text_16">
    <!-- B -->
    <g style="fill: #ffffff" transform="translate(91.592407 99.030933) scale(0.08 -0.08)">
     <use xlink:href="#DejaVuSerif-Bold-25"/>
    </g>
   </g>
   <g id="text_17">
    <!-- B -->
    <g style="fill: #ffffff" transform="translate(60.227489 138.361296) scale(0.08 -0.08)">
     <use xlink:href="#DejaVuSerif-Bold-25"/>
    </g>
   </g>
   <g id="text_18">
    <!-- B -->
    <g style="fill: #ffffff" transform="translate(49.033479 187.405457) scale(0.08 -0.08)">
     <use xlink:href="#DejaVuSerif-Bold-25"/>
    </g>
   </g>
   <g id="text_19">
    <!-- H -->
    <g style="fill: #ffffff" transform="translate(59.828739 236.449619) scale(0.08 -0.08)">
     <use xlink:href="#DejaVuSerif-Bold-2b"/>
    </g>
   </g>
   <g id="text_20">
    <!-- H -->
    <g style="fill: #ffffff" transform="translate(91.193657 275.779982) scale(0.08 -0.08)">
     <use xlink:href="#DejaVuSerif-Bold-2b"/>
    </g>
   </g>
   <g id="text_21">
    <!-- H -->
    <g style="fill: #ffffff" transform="translate(136.517277 297.606687) scale(0.08 -0.08)">
     <use xlink:href="#DejaVuSerif-Bold-2b"/>
    </g>
   </g>
   <g id="text_22">
    <!-- B -->
    <g style="fill: #ffffff" transform="translate(187.22145 297.606687) scale(0.08 -0.08)">
     <use xlink:href="#DejaVuSerif-Bold-25"/>
    </g>
   </g>
   <g id="text_23">
    <!-- H -->
    <g style="fill: #ffffff" transform="translate(232.14632 275.779982) scale(0.08 -0.08)">
     <use xlink:href="#DejaVuSerif-Bold-2b"/>
    </g>
   </g>
   <g id="text_24">
    <!-- B -->
    <g style="fill: #ffffff" transform="translate(263.909989 236.449619) scale(0.08 -0.08)">
     <use xlink:href="#DejaVuSerif-Bold-25"/>
    </g>
   </g>
  </g>
  <g id="axes_2">
   <g id="patch_17">
    <path d="M 598.388293 185.327332 
Q 502.048089 185.327332 407.049525 185.327332 
" style="fill: none; opacity: 0.6; stroke-dasharray: 4.44,1.92; stroke-dashoffset: 0; stroke: #555555; stroke-width: 1.2; stroke-linecap: round"/>
    <path d="M 411.049525 187.327332 
L 407.049525 185.327332 
L 411.049525 183.327332 
" style="fill: none; opacity: 0.6; stroke-dasharray: 4.44,1.92; stroke-dashoffset: 0; stroke: #555555; stroke-width: 1.2; stroke-linecap: round"/>
   </g>
   <g id="text_25">
    <g id="patch_18">
     <path d="M 502.535231 180.834512 
L 519.649138 180.834512 
Q 520.699138 180.834512 520.699138 179.784512 
L 520.699138 172.784512 
Q 520.699138 171.734512 519.649138 171.734512 
L 502.535231 171.734512 
Q 501.485231 171.734512 501.485231 172.784512 
L 501.485231 179.784512 
Q 501.485231 180.834512 502.535231 180.834512 
z
" style="fill: #ffffff; opacity: 0.85"/>
    </g>
    <!-- B↔H -->
    <g style="fill: #444444" transform="translate(502.535231 178.102871) scale(0.07 -0.07)">
     <use xlink:href="#DejaVuSerif-25"/>
     <use xlink:href="#DejaVuSerif-856" transform="translate(73.484375 0)"/>
     <use xlink:href="#DejaVuSerif-2b" transform="translate(157.28125 0)"/>
    </g>
   </g>
   <g id="patch_19">
    <path d="M 588.84774 143.527437 
Q 502.048215 185.327885 416.457467 226.546217 
" style="fill: none; opacity: 0.6; stroke-dasharray: 4.44,1.92; stroke-dashoffset: 0; stroke: #555555; stroke-width: 1.2; stroke-linecap: round"/>
    <path d="M 420.92911 226.61262 
L 416.457467 226.546217 
L 419.193575 223.008745 
" style="fill: none; opacity: 0.6; stroke-dasharray: 4.44,1.92; stroke-dashoffset: 0; stroke: #555555; stroke-width: 1.2; stroke-linecap: round"/>
   </g>
   <g id="text_26">
    <g id="patch_20">
     <path d="M 502.535231 180.834512 
L 519.649138 180.834512 
Q 520.699138 180.834512 520.699138 179.784512 
L 520.699138 172.784512 
Q 520.699138 171.734512 519.649138 171.734512 
L 502.535231 171.734512 
Q 501.485231 171.734512 501.485231 172.784512 
L 501.485231 179.784512 
Q 501.485231 180.834512 502.535231 180.834512 
z
" style="fill: #ffffff; opacity: 0.85"/>
    </g>
    <!-- B↔H -->
    <g style="fill: #444444" transform="translate(502.535231 178.102871) scale(0.07 -0.07)">
     <use xlink:href="#DejaVuSerif-25"/>
     <use xlink:href="#DejaVuSerif-856" transform="translate(73.484375 0)"/>
     <use xlink:href="#DejaVuSerif-2b" transform="translate(157.28125 0)"/>
    </g>
   </g>
   <g id="patch_21">
    <path d="M 562.115704 110.006524 
Q 502.048569 185.328329 442.817933 259.601197 
" style="fill: none; opacity: 0.6; stroke-dasharray: 4.44,1.92; stroke-dashoffset: 0; stroke: #555555; stroke-width: 1.2; stroke-linecap: round"/>
    <path d="M 446.875556 257.72085 
L 442.817933 259.601197 
L 443.74823 255.226891 
" style="fill: none; opacity: 0.6; stroke-dasharray: 4.44,1.92; stroke-dashoffset: 0; stroke: #555555; stroke-width: 1.2; stroke-linecap: round"/>
   </g>
   <g id="text_27">
    <g id="patch_22">
     <path d="M 502.535231 180.834512 
L 519.649138 180.834512 
Q 520.699138 180.834512 520.699138 179.784512 
L 520.699138 172.784512 
Q 520.699138 171.734512 519.649138 171.734512 
L 502.535231 171.734512 
Q 501.485231 171.734512 501.485231 172.784512 
L 501.485231 179.784512 
Q 501.485231 180.834512 502.535231 180.834512 
z
" style="fill: #ffffff; opacity: 0.85"/>
    </g>
    <!-- B↔H -->
    <g style="fill: #444444" transform="translate(502.535231 178.102871) scale(0.07 -0.07)">
     <use xlink:href="#DejaVuSerif-25"/>
     <use xlink:href="#DejaVuSerif-856" transform="translate(73.484375 0)"/>
     <use xlink:href="#DejaVuSerif-2b" transform="translate(157.28125 0)"/>
    </g>
   </g>
   <g id="patch_23">
    <path d="M 523.486792 91.403821 
Q 502.04908 185.328575 480.909911 277.945326 
" style="fill: none; opacity: 0.6; stroke-dasharray: 4.44,1.92; stroke-dashoffset: 0; stroke: #555555; stroke-width: 1.2; stroke-linecap: round"/>
    <path d="M 483.74985 274.490657 
L 480.909911 277.945326 
L 479.850139 273.600573 
" style="fill: none; opacity: 0.6; stroke-dasharray: 4.44,1.92; stroke-dashoffset: 0; stroke: #555555; stroke-width: 1.2; stroke-linecap: round"/>
   </g>
   <g id="text_28">
    <g id="patch_24">
     <path d="M 502.535231 180.834512 
L 519.649138 180.834512 
Q 520.699138 180.834512 520.699138 179.784512 
L 520.699138 172.784512 
Q 520.699138 171.734512 519.649138 171.734512 
L 502.535231 171.734512 
Q 501.485231 171.734512 501.485231 172.784512 
L 501.485231 179.784512 
Q 501.485231 180.834512 502.535231 180.834512 
z
" style="fill: #ffffff; opacity: 0.85"/>
    </g>
    <!-- B↔H -->
    <g style="fill: #444444" transform="translate(502.535231 178.102871) scale(0.07 -0.07)">
     <use xlink:href="#DejaVuSerif-25"/>
     <use xlink:href="#DejaVuSerif-856" transform="translate(73.484375 0)"/>
     <use xlink:href="#DejaVuSerif-2b" transform="translate(157.28125 0)"/>
    </g>
   </g>
   <g id="patch_25">
    <path d="M 598.806315 181.611915 
Q 507.644572 160.804842 417.790832 140.296312 
" style="fill: none; opacity: 0.6; stroke-dasharray: 4.44,1.92; stroke-dashoffset: 0; stroke: #555555; stroke-width: 1.2; stroke-linecap: round"/>
    <path d="M 421.245502 143.136252 
L 417.790832 140.296312 
L 422.135585 139.23654 
" style="fill: none; opacity: 0.6; stroke-dasharray: 4.44,1.92; stroke-dashoffset: 0; stroke: #555555; stroke-width: 1.2; stroke-linecap: round"/>
   </g>
   <g id="text_29">
    <g id="patch_26">
     <path d="M 508.132236 156.312431 
L 525.246142 156.312431 
Q 526.296142 156.312431 526.296142 155.262431 
L 526.296142 148.262431 
Q 526.296142 147.212431 525.246142 147.212431 
L 508.132236 147.212431 
Q 507.082236 147.212431 507.082236 148.262431 
L 507.082236 155.262431 
Q 507.082236 156.312431 508.132236 156.312431 
z
" style="fill: #ffffff; opacity: 0.85"/>
    </g>
    <!-- B↔H -->
    <g style="fill: #444444" transform="translate(508.132236 153.58079) scale(0.07 -0.07)">
     <use xlink:href="#DejaVuSerif-25"/>
     <use xlink:href="#DejaVuSerif-856" transform="translate(73.484375 0)"/>
     <use xlink:href="#DejaVuSerif-2b" transform="translate(157.28125 0)"/>
    </g>
   </g>
   <g id="patch_27">
    <path d="M 480.611935 91.403821 
Q 502.049647 185.328575 523.188816 277.945326 
" style="fill: none; opacity: 0.6; stroke-dasharray: 4.44,1.92; stroke-dashoffset: 0; stroke: #555555; stroke-width: 1.2; stroke-linecap: round"/>
    <path d="M 524.248588 273.600573 
L 523.188816 277.945326 
L 520.348877 274.490657 
" style="fill: none; opacity: 0.6; stroke-dasharray: 4.44,1.92; stroke-dashoffset: 0; stroke: #555555; stroke-width: 1.2; stroke-linecap: round"/>
   </g>
   <g id="text_30">
    <g id="patch_28">
     <path d="M 502.535231 180.834512 
L 519.649138 180.834512 
Q 520.699138 180.834512 520.699138 179.784512 
L 520.699138 172.784512 
Q 520.699138 171.734512 519.649138 171.734512 
L 502.535231 171.734512 
Q 501.485231 171.734512 501.485231 172.784512 
L 501.485231 179.784512 
Q 501.485231 180.834512 502.535231 180.834512 
z
" style="fill: #ffffff; opacity: 0.85"/>
    </g>
    <!-- B↔H -->
    <g style="fill: #444444" transform="translate(502.535231 178.102871) scale(0.07 -0.07)">
     <use xlink:href="#DejaVuSerif-25"/>
     <use xlink:href="#DejaVuSerif-856" transform="translate(73.484375 0)"/>
     <use xlink:href="#DejaVuSerif-2b" transform="translate(157.28125 0)"/>
    </g>
   </g>
   <g id="patch_29">
    <path d="M 441.983024 110.006524 
Q 502.050158 185.328329 561.280794 259.601197 
" style="fill: none; opacity: 0.6; stroke-dasharray: 4.44,1.92; stroke-dashoffset: 0; stroke: #555555; stroke-width: 1.2; stroke-linecap: round"/>
    <path d="M 560.350498 255.226891 
L 561.280794 259.601197 
L 557.223172 257.72085 
" style="fill: none; opacity: 0.6; stroke-dasharray: 4.44,1.92; stroke-dashoffset: 0; stroke: #555555; stroke-width: 1.2; stroke-linecap: round"/>
   </g>
   <g id="text_31">
    <g id="patch_30">
     <path d="M 502.535231 180.834512 
L 519.649138 180.834512 
Q 520.699138 180.834512 520.699138 179.784512 
L 520.699138 172.784512 
Q 520.699138 171.734512 519.649138 171.734512 
L 502.535231 171.734512 
Q 501.485231 171.734512 501.485231 172.784512 
L 501.485231 179.784512 
Q 501.485231 180.834512 502.535231 180.834512 
z
" style="fill: #ffffff; opacity: 0.85"/>
    </g>
    <!-- B↔H -->
    <g style="fill: #444444" transform="translate(502.535231 178.102871) scale(0.07 -0.07)">
     <use xlink:href="#DejaVuSerif-25"/>
     <use xlink:href="#DejaVuSerif-856" transform="translate(73.484375 0)"/>
     <use xlink:href="#DejaVuSerif-2b" transform="translate(157.28125 0)"/>
    </g>
   </g>
   <g id="text_32">
    <!-- Bots hide among humans — GNNs get confused -->
    <g style="fill: #555555" transform="translate(392.453973 334.533875) scale(0.09 -0.09)">
     <defs>
      <path id="DejaVuSerif-Italic-50" d="M 3503 2675 
Q 3741 3041 4034 3227 
Q 4328 3413 4672 3413 
Q 5194 3413 5388 3088 
Q 5503 2894 5503 2578 
Q 5503 2372 5453 2113 
L 5106 331 
L 5625 331 
L 5563 0 
L 4469 0 
L 4866 2047 
Q 4913 2291 4913 2466 
Q 4913 2659 4856 2772 
Q 4750 2988 4403 2988 
Q 4019 2988 3761 2697 
Q 3503 2406 3394 1850 
L 3034 0 
L 2459 0 
L 2863 2069 
Q 2906 2303 2906 2472 
Q 2906 2666 2850 2775 
Q 2741 2988 2394 2988 
Q 2009 2988 1751 2697 
Q 1494 2406 1384 1850 
L 1025 0 
L 450 0 
L 1031 2994 
L 481 2994 
L 544 3322 
L 1669 3322 
L 1556 2731 
Q 1778 3063 2059 3238 
Q 2341 3413 2653 3413 
Q 3041 3413 3262 3220 
Q 3484 3028 3503 2675 
z
" transform="scale(0.015625)"/>
      <path id="DejaVuSerif-Italic-51" d="M 450 0 
L 1031 2988 
L 481 2988 
L 544 3322 
L 1669 3322 
L 1556 2731 
Q 1781 3069 2068 3241 
Q 2356 3413 2694 3413 
Q 3244 3413 3444 3097 
Q 3563 2906 3563 2588 
Q 3563 2378 3509 2113 
L 3163 331 
L 3675 331 
L 3613 0 
L 2522 0 
L 2897 1931 
Q 2959 2253 2959 2469 
Q 2959 2659 2909 2769 
Q 2803 2994 2425 2994 
Q 2025 2994 1759 2701 
Q 1494 2409 1384 1850 
L 1025 0 
L 450 0 
z
" transform="scale(0.015625)"/>
      <path id="DejaVuSerif-Italic-4a" d="M 3822 3322 
L 3188 72 
Q 3044 -672 2581 -1031 
Q 2078 -1422 1381 -1422 
Q 1053 -1422 765 -1362 
Q 478 -1303 225 -1184 
L 363 -488 
L 663 -488 
Q 653 -813 834 -963 
Q 1016 -1113 1406 -1113 
Q 1913 -1113 2203 -825 
Q 2494 -544 2613 72 
L 2700 519 
Q 2472 206 2181 57 
Q 1891 -91 1525 -91 
Q 975 -91 697 281 
Q 522 516 503 841 
Q 491 1031 534 1256 
Q 750 2359 1516 2928 
Q 2169 3409 2931 3413 
Q 3631 3416 3822 3322 
z
M 3184 2988 
Q 3181 3094 2844 3094 
Q 2234 3094 1775 2625 
Q 1316 2153 1147 1297 
Q 1100 1044 1113 853 
Q 1125 659 1203 528 
Q 1356 269 1756 269 
Q 2194 269 2484 583 
Q 2775 897 2891 1497 
L 2953 1825 
L 3184 2988 
z
" transform="scale(0.015625)"/>
      <path id="DejaVuSerif-Italic-58" d="M 3097 3322 
L 3672 3322 
L 3091 331 
L 3634 331 
L 3572 0 
L 2453 0 
L 2566 588 
Q 2341 256 2055 82 
Q 1769 -91 1434 -91 
Q 881 -91 681 225 
Q 559 413 559 734 
Q 559 944 613 1209 
L 956 2988 
L 438 2988 
L 503 3322 
L 1600 3322 
L 1225 1388 
Q 1163 1066 1163 853 
Q 1163 663 1213 556 
Q 1316 331 1697 331 
Q 2097 331 2364 625 
Q 2631 919 2738 1478 
L 3097 3322 
z
" transform="scale(0.015625)"/>
      <path id="DejaVuSerif-Italic-46" d="M 3163 997 
Q 2938 466 2536 187 
Q 2134 -91 1584 -91 
Q 859 -91 513 388 
Q 272 722 272 1203 
Q 272 1419 319 1663 
Q 475 2459 1008 2936 
Q 1541 3413 2266 3413 
Q 2581 3413 2879 3339 
Q 3178 3266 3463 3116 
L 3300 2266 
L 2966 2266 
Q 2966 2309 2966 2347 
Q 2966 2722 2803 2903 
Q 2622 3103 2213 3103 
Q 1747 3103 1439 2742 
Q 1131 2381 991 1663 
Q 928 1334 928 1078 
Q 928 778 1016 581 
Q 1181 219 1650 219 
Q 2022 219 2281 412 
Q 2541 606 2700 997 
L 3163 997 
z
" transform="scale(0.015625)"/>
     </defs>
     <use xlink:href="#DejaVuSerif-Italic-25"/>
     <use xlink:href="#DejaVuSerif-Italic-52" transform="translate(73.484375 0)"/>
     <use xlink:href="#DejaVuSerif-Italic-57" transform="translate(133.6875 0)"/>
     <use xlink:href="#DejaVuSerif-Italic-56" transform="translate(173.875 0)"/>
     <use xlink:href="#DejaVuSerif-Italic-3" transform="translate(225.1875 0)"/>
     <use xlink:href="#DejaVuSerif-Italic-4b" transform="translate(256.96875 0)"/>
     <use xlink:href="#DejaVuSerif-Italic-4c" transform="translate(321.375 0)"/>
     <use xlink:href="#DejaVuSerif-Italic-47" transform="translate(353.359375 0)"/>
     <use xlink:href="#DejaVuSerif-Italic-48" transform="translate(417.375 0)"/>
     <use xlink:href="#DejaVuSerif-Italic-3" transform="translate(476.5625 0)"/>
     <use xlink:href="#DejaVuSerif-Italic-44" transform="translate(508.34375 0)"/>
     <use xlink:href="#DejaVuSerif-Italic-50" transform="translate(567.96875 0)"/>
     <use xlink:href="#DejaVuSerif-Italic-52" transform="translate(662.796875 0)"/>
     <use xlink:href="#DejaVuSerif-Italic-51" transform="translate(723 0)"/>
     <use xlink:href="#DejaVuSerif-Italic-4a" transform="translate(787.40625 0)"/>
     <use xlink:href="#DejaVuSerif-Italic-3" transform="translate(851.421875 0)"/>
     <use xlink:href="#DejaVuSerif-Italic-4b" transform="translate(883.203125 0)"/>
     <use xlink:href="#DejaVuSerif-Italic-58" transform="translate(947.609375 0)"/>
     <use xlink:href="#DejaVuSerif-Italic-50" transform="translate(1012.015625 0)"/>
     <use xlink:href="#DejaVuSerif-Italic-44" transform="translate(1106.84375 0)"/>
     <use xlink:href="#DejaVuSerif-Italic-51" transform="translate(1166.46875 0)"/>
     <use xlink:href="#DejaVuSerif-Italic-56" transform="translate(1230.875 0)"/>
     <use xlink:href="#DejaVuSerif-Italic-3" transform="translate(1282.1875 0)"/>
     <use xlink:href="#DejaVuSerif-Italic-782" transform="translate(1313.96875 0)"/>
     <use xlink:href="#DejaVuSerif-Italic-3" transform="translate(1413.96875 0)"/>
     <use xlink:href="#DejaVuSerif-Italic-2a" transform="translate(1445.75 0)"/>
     <use xlink:href="#DejaVuSerif-Italic-31" transform="translate(1525.640625 0)"/>
     <use xlink:href="#DejaVuSerif-Italic-31" transform="translate(1613.140625 0)"/>
     <use xlink:href="#DejaVuSerif-Italic-56" transform="translate(1700.640625 0)"/>
     <use xlink:href="#DejaVuSerif-Italic-3" transform="translate(1751.953125 0)"/>
     <use xlink:href="#DejaVuSerif-Italic-4a" transform="translate(1783.734375 0)"/>
     <use xlink:href="#DejaVuSerif-Italic-48" transform="translate(1847.75 0)"/>
     <use xlink:href="#DejaVuSerif-Italic-57" transform="translate(1906.9375 0)"/>
     <use xlink:href="#DejaVuSerif-Italic-3" transform="translate(1947.125 0)"/>
     <use xlink:href="#DejaVuSerif-Italic-46" transform="translate(1978.90625 0)"/>
     <use xlink:href="#DejaVuSerif-Italic-52" transform="translate(2034.90625 0)"/>
     <use xlink:href="#DejaVuSerif-Italic-51" transform="translate(2095.109375 0)"/>
     <use xlink:href="#DejaVuSerif-Italic-49" transform="translate(2159.515625 0)"/>
     <use xlink:href="#DejaVuSerif-Italic-58" transform="translate(2196.53125 0)"/>
     <use xlink:href="#DejaVuSerif-Italic-56" transform="translate(2260.9375 0)"/>
     <use xlink:href="#DejaVuSerif-Italic-48" transform="translate(2312.25 0)"/>
     <use xlink:href="#DejaVuSerif-Italic-47" transform="translate(2371.4375 0)"/>
    </g>
   </g>
   <g id="text_33">
    <!-- Heterophily (real-world) -->
    <g transform="translate(413.166942 17.077969) scale(0.13 -0.13)">
     <defs>
      <path id="DejaVuSerif-Bold-57" d="M 634 2944 
L 153 2944 
L 153 3322 
L 634 3322 
L 634 4353 
L 1741 4353 
L 1741 3322 
L 2663 3322 
L 2663 2944 
L 1741 2944 
L 1741 909 
Q 1741 475 1809 369 
Q 1878 263 2059 263 
Q 2259 263 2356 397 
Q 2453 531 2459 813 
L 2925 813 
Q 2897 313 2651 111 
Q 2406 -91 1806 -91 
Q 1122 -91 878 123 
Q 634 338 634 909 
L 634 2944 
z
" transform="scale(0.015625)"/>
      <path id="DejaVuSerif-Bold-55" d="M 3438 3359 
L 3438 2369 
L 3084 2369 
Q 3066 2634 2941 2764 
Q 2816 2894 2578 2894 
Q 2216 2894 2006 2575 
Q 1797 2256 1797 1691 
L 1797 378 
L 2400 378 
L 2400 0 
L 219 0 
L 219 378 
L 691 378 
L 691 2944 
L 184 2944 
L 184 3322 
L 1797 3322 
L 1797 2731 
Q 1959 3078 2226 3245 
Q 2494 3413 2881 3413 
Q 2978 3413 3117 3398 
Q 3256 3384 3438 3359 
z
" transform="scale(0.015625)"/>
      <path id="DejaVuSerif-Bold-10" d="M 347 2138 
L 2309 2138 
L 2309 1294 
L 347 1294 
L 347 2138 
z
" transform="scale(0.015625)"/>
      <path id="DejaVuSerif-Bold-5a" d="M 3450 3322 
L 4206 1106 
L 4831 2944 
L 4397 2944 
L 4397 3322 
L 5638 3322 
L 5638 2944 
L 5247 2944 
L 4244 0 
L 3481 0 
L 2778 2081 
L 2069 0 
L 1313 0 
L 306 2944 
L -56 2944 
L -56 3322 
L 1825 3322 
L 1825 2944 
L 1434 2944 
L 2047 1147 
L 2791 3322 
L 3450 3322 
z
" transform="scale(0.015625)"/>
     </defs>
     <use xlink:href="#DejaVuSerif-Bold-2b"/>
     <use xlink:href="#DejaVuSerif-Bold-48" transform="translate(94.484375 0)"/>
     <use xlink:href="#DejaVuSerif-Bold-57" transform="translate(158.109375 0)"/>
     <use xlink:href="#DejaVuSerif-Bold-48" transform="translate(204.296875 0)"/>
     <use xlink:href="#DejaVuSerif-Bold-55" transform="translate(267.921875 0)"/>
     <use xlink:href="#DejaVuSerif-Bold-52" transform="translate(320.609375 0)"/>
     <use xlink:href="#DejaVuSerif-Bold-53" transform="translate(387.3125 0)"/>
     <use xlink:href="#DejaVuSerif-Bold-4b" transform="translate(457.234375 0)"/>
     <use xlink:href="#DejaVuSerif-Bold-4c" transform="translate(529.9375 0)"/>
     <use xlink:href="#DejaVuSerif-Bold-4f" transform="translate(567.921875 0)"/>
     <use xlink:href="#DejaVuSerif-Bold-5c" transform="translate(605.90625 0)"/>
     <use xlink:href="#DejaVuSerif-Bold-3" transform="translate(664.015625 0)"/>
     <use xlink:href="#DejaVuSerif-Bold-b" transform="translate(698.828125 0)"/>
     <use xlink:href="#DejaVuSerif-Bold-55" transform="translate(746.140625 0)"/>
     <use xlink:href="#DejaVuSerif-Bold-48" transform="translate(798.828125 0)"/>
     <use xlink:href="#DejaVuSerif-Bold-44" transform="translate(862.453125 0)"/>
     <use xlink:href="#DejaVuSerif-Bold-4f" transform="translate(927.25 0)"/>
     <use xlink:href="#DejaVuSerif-Bold-10" transform="translate(965.234375 0)"/>
     <use xlink:href="#DejaVuSerif-Bold-5a" transform="translate(1006.734375 0)"/>
     <use xlink:href="#DejaVuSerif-Bold-52" transform="translate(1092.8125 0)"/>
     <use xlink:href="#DejaVuSerif-Bold-55" transform="translate(1159.515625 0)"/>
     <use xlink:href="#DejaVuSerif-Bold-4f" transform="translate(1212.203125 0)"/>
     <use xlink:href="#DejaVuSerif-Bold-47" transform="translate(1250.1875 0)"/>
     <use xlink:href="#DejaVuSerif-Bold-c" transform="translate(1320.109375 0)"/>
    </g>
   </g>
   <g id="PathCollection_15">
    <g clip-path="url(#p9ef0574191)">
     <use xlink:href="#m42a51f1775" x="615.084623" y="185.327332" style="fill: #a23b72; stroke: #ffffff; stroke-width: 1.2"/>
    </g>
   </g>
   <g id="PathCollection_16">
    <g clip-path="url(#p9ef0574191)">
     <use xlink:href="#m561f518e5e" x="603.890614" y="136.283171" style="fill: #2e86ab; stroke: #ffffff; stroke-width: 1.2"/>
    </g>
   </g>
   <g id="PathCollection_17">
    <g clip-path="url(#p9ef0574191)">
     <use xlink:href="#m42a51f1775" x="572.525695" y="96.952808" style="fill: #a23b72; stroke: #ffffff; stroke-width: 1.2"/>
    </g>
   </g>
   <g id="PathCollection_18">
    <g clip-path="url(#p9ef0574191)">
     <use xlink:href="#m561f518e5e" x="527.202075" y="75.126103" style="fill: #2e86ab; stroke: #ffffff; stroke-width: 1.2"/>
    </g>
   </g>
   <g id="PathCollection_19">
    <g clip-path="url(#p9ef0574191)">
     <use xlink:href="#m42a51f1775" x="476.896652" y="75.126103" style="fill: #a23b72; stroke: #ffffff; stroke-width: 1.2"/>
    </g>
   </g>
   <g id="PathCollection_20">
    <g clip-path="url(#p9ef0574191)">
     <use xlink:href="#m42a51f1775" x="431.573032" y="96.952808" style="fill: #a23b72; stroke: #ffffff; stroke-width: 1.2"/>
    </g>
   </g>
   <g id="PathCollection_21">
    <g clip-path="url(#p9ef0574191)">
     <use xlink:href="#m561f518e5e" x="400.208114" y="136.283171" style="fill: #2e86ab; stroke: #ffffff; stroke-width: 1.2"/>
    </g>
   </g>
   <g id="PathCollection_22">
    <g clip-path="url(#p9ef0574191)">
     <use xlink:href="#m42a51f1775" x="389.014104" y="185.327332" style="fill: #a23b72; stroke: #ffffff; stroke-width: 1.2"/>
    </g>
   </g>
   <g id="PathCollection_23">
    <g clip-path="url(#p9ef0574191)">
     <use xlink:href="#m561f518e5e" x="400.208114" y="234.371494" style="fill: #2e86ab; stroke: #ffffff; stroke-width: 1.2"/>
    </g>
   </g>
   <g id="PathCollection_24">
    <g clip-path="url(#p9ef0574191)">
     <use xlink:href="#m561f518e5e" x="431.573032" y="273.701857" style="fill: #2e86ab; stroke: #ffffff; stroke-width: 1.2"/>
    </g>
   </g>
   <g id="PathCollection_25">
    <g clip-path="url(#p9ef0574191)">
     <use xlink:href="#m561f518e5e" x="476.896652" y="295.528562" style="fill: #2e86ab; stroke: #ffffff; stroke-width: 1.2"/>
    </g>
   </g>
   <g id="PathCollection_26">
    <g clip-path="url(#p9ef0574191)">
     <use xlink:href="#m561f518e5e" x="527.202075" y="295.528562" style="fill: #2e86ab; stroke: #ffffff; stroke-width: 1.2"/>
    </g>
   </g>
   <g id="PathCollection_27">
    <g clip-path="url(#p9ef0574191)">
     <use xlink:href="#m42a51f1775" x="572.525695" y="273.701857" style="fill: #a23b72; stroke: #ffffff; stroke-width: 1.2"/>
    </g>
   </g>
   <g id="PathCollection_28">
    <g clip-path="url(#p9ef0574191)">
     <use xlink:href="#m42a51f1775" x="603.890614" y="234.371494" style="fill: #a23b72; stroke: #ffffff; stroke-width: 1.2"/>
    </g>
   </g>
   <g id="legend_2">
    <g id="patch_31">
     <path d="M 599.461227 339.576696 
L 654.698727 339.576696 
Q 656.298727 339.576696 656.298727 337.976696 
L 656.298727 314.775446 
Q 656.298727 313.175446 654.698727 313.175446 
L 599.461227 313.175446 
Q 597.861227 313.175446 597.861227 314.775446 
L 597.861227 337.976696 
Q 597.861227 339.576696 599.461227 339.576696 
z
" style="fill: #ffffff; opacity: 0.85; stroke: #cccccc; stroke-linejoin: miter"/>
    </g>
    <g id="patch_32">
     <path d="M 601.061227 322.454196 
L 617.061227 322.454196 
L 617.061227 316.854196 
L 601.061227 316.854196 
z
" style="fill: #2e86ab; stroke: #2e86ab; stroke-linejoin: miter"/>
    </g>
    <g id="text_34">
     <!-- Human -->
     <g transform="translate(623.461227 322.454196) scale(0.08 -0.08)">
      <use xlink:href="#DejaVuSerif-2b"/>
      <use xlink:href="#DejaVuSerif-58" transform="translate(87.203125 0)"/>
      <use xlink:href="#DejaVuSerif-50" transform="translate(151.609375 0)"/>
      <use xlink:href="#DejaVuSerif-44" transform="translate(246.4375 0)"/>
      <use xlink:href="#DejaVuSerif-51" transform="translate(306.0625 0)"/>
     </g>
    </g>
    <g id="patch_33">
     <path d="M 601.061227 334.454821 
L 617.061227 334.454821 
L 617.061227 328.854821 
L 601.061227 328.854821 
z
" style="fill: #a23b72; stroke: #a23b72; stroke-linejoin: miter"/>
    </g>
    <g id="text_35">
     <!-- Bot -->
     <g transform="translate(623.461227 334.454821) scale(0.08 -0.08)">
      <use xlink:href="#DejaVuSerif-25"/>
      <use xlink:href="#DejaVuSerif-52" transform="translate(73.484375 0)"/>
      <use xlink:href="#DejaVuSerif-57" transform="translate(133.6875 0)"/>
     </g>
    </g>
   </g>
   <g id="text_36">
    <!-- B -->
    <g style="fill: #ffffff" transform="translate(611.703998 187.405457) scale(0.08 -0.08)">
     <use xlink:href="#DejaVuSerif-Bold-25"/>
    </g>
   </g>
   <g id="text_37">
    <!-- H -->
    <g style="fill: #ffffff" transform="translate(600.111239 138.361296) scale(0.08 -0.08)">
     <use xlink:href="#DejaVuSerif-Bold-2b"/>
    </g>
   </g>
   <g id="text_38">
    <!-- B -->
    <g style="fill: #ffffff" transform="translate(569.14507 99.030933) scale(0.08 -0.08)">
     <use xlink:href="#DejaVuSerif-Bold-25"/>
    </g>
   </g>
   <g id="text_39">
    <!-- H -->
    <g style="fill: #ffffff" transform="translate(523.4227 77.204228) scale(0.08 -0.08)">
     <use xlink:href="#DejaVuSerif-Bold-2b"/>
    </g>
   </g>
   <g id="text_40">
    <!-- B -->
    <g style="fill: #ffffff" transform="translate(473.516027 77.204228) scale(0.08 -0.08)">
     <use xlink:href="#DejaVuSerif-Bold-25"/>
    </g>
   </g>
   <g id="text_41">
    <!-- B -->
    <g style="fill: #ffffff" transform="translate(428.192407 99.030933) scale(0.08 -0.08)">
     <use xlink:href="#DejaVuSerif-Bold-25"/>
    </g>
   </g>
   <g id="text_42">
    <!-- H -->
    <g style="fill: #ffffff" transform="translate(396.428739 138.361296) scale(0.08 -0.08)">
     <use xlink:href="#DejaVuSerif-Bold-2b"/>
    </g>
   </g>
   <g id="text_43">
    <!-- B -->
    <g style="fill: #ffffff" transform="translate(385.633479 187.405457) scale(0.08 -0.08)">
     <use xlink:href="#DejaVuSerif-Bold-25"/>
    </g>
   </g>
   <g id="text_44">
    <!-- H -->
    <g style="fill: #ffffff" transform="translate(396.428739 236.449619) scale(0.08 -0.08)">
     <use xlink:href="#DejaVuSerif-Bold-2b"/>
    </g>
   </g>
   <g id="text_45">
    <!-- H -->
    <g style="fill: #ffffff" transform="translate(427.793657 275.779982) scale(0.08 -0.08)">
     <use xlink:href="#DejaVuSerif-Bold-2b"/>
    </g>
   </g>
   <g id="text_46">
    <!-- H -->
    <g style="fill: #ffffff" transform="translate(473.117277 297.606687) scale(0.08 -0.08)">
     <use xlink:href="#DejaVuSerif-Bold-2b"/>
    </g>
   </g>
   <g id="text_47">
    <!-- H -->
    <g style="fill: #ffffff" transform="translate(523.4227 297.606687) scale(0.08 -0.08)">
     <use xlink:href="#DejaVuSerif-Bold-2b"/>
    </g>
   </g>
   <g id="text_48">
    <!-- B -->
    <g style="fill: #ffffff" transform="translate(569.14507 275.779982) scale(0.08 -0.08)">
     <use xlink:href="#DejaVuSerif-Bold-25"/>
    </g>
   </g>
   <g id="text_49">
    <!-- B -->
    <g style="fill: #ffffff" transform="translate(600.509989 236.449619) scale(0.08 -0.08)">
     <use xlink:href="#DejaVuSerif-Bold-25"/>
    </g>
   </g>
  </g>
 </g>
 <defs>
  <clipPath id="p08b227c79b">
   <rect x="7.2" y="27.077969" width="316.498727" height="316.498727"/>
  </clipPath>
  <clipPath id="p9ef0574191">
   <rect x="343.8" y="27.077969" width="316.498727" height="316.498727"/>
  </clipPath>
 </defs>
</svg>
