<?xml version="1.0" encoding="utf-8" standalone="no"?>
<!DOCTYPE svg PUBLIC "-//W3C//DTD SVG 1.1//EN"
  "http://www.w3.org/Graphics/SVG/1.1/DTD/svg11.dtd">
<svg xmlns:xlink="http://www.w3.org/1999/xlink" width="595.587422pt" height="328.839375pt" viewBox="0 0 595.587422 328.839375" xmlns="http://www.w3.org/2000/svg" version="1.1">
 <metadata>
  <rdf:RDF xmlns:dc="http://purl.org/dc/elements/1.1/" xmlns:cc="http://creativecommons.org/ns#" xmlns:rdf="http://www.w3.org/1999/02/22-rdf-syntax-ns#">
   <cc:Work>
    <dc:type rdf:resource="http://purl.org/dc/dcmitype/StillImage"/>
    <dc:date>2026-07-03T08:46:09.629987</dc:date>
    <dc:format>image/svg+xml</dc:format>
    <dc:creator>
     <cc:Agent>
      <dc:title>Matplotlib v3.11.0, https://matplotlib.org/</dc:title>
     </cc:Agent>
    </dc:creator>
   </cc:Work>
  </rdf:RDF>
 </metadata>
 <defs>
  <style type="text/css">*{stroke-linejoin: round; stroke-linecap: butt}</style>
 </defs>
 <g id="figure_1">
  <g id="patch_1">
   <path d="M 0 328.839375 
L 595.587422 328.839375 
L 595.587422 0 
L 0 0 
z
" style="fill: #0d1117"/>
  </g>
  <g id="axes_1">
   <g id="patch_2">
    <path d="M 47.827422 296.634453 
L 591.987422 296.634453 
L 591.987422 25.477969 
L 47.827422 25.477969 
z
" style="fill: #0d1117"/>
   </g>
   <g id="patch_3">
    <path d="M 72.561967 669.474619 
L 92.08924 669.474619 
L 92.08924 156.107605 
L 72.561967 156.107605 
z
" clip-path="url(#p1aab234c1b)" style="fill: #58a6ff; stroke: #0d1117; stroke-width: 0.6; stroke-linejoin: miter"/>
   </g>
   <g id="patch_4">
    <path d="M 137.652876 669.474619 
L 157.180149 669.474619 
L 157.180149 161.259578 
L 137.652876 161.259578 
z
" clip-path="url(#p1aab234c1b)" style="fill: #58a6ff; stroke: #0d1117; stroke-width: 0.6; stroke-linejoin: miter"/>
   </g>
   <g id="patch_5">
    <path d="M 202.743786 669.474619 
L 222.271058 669.474619 
L 222.271058 145.329135 
L 202.743786 145.329135 
z
" clip-path="url(#p1aab234c1b)" style="fill: #58a6ff; stroke: #0d1117; stroke-width: 0.6; stroke-linejoin: miter"/>
   </g>
   <g id="patch_6">
    <path d="M 267.834695 669.474619 
L 287.361967 669.474619 
L 287.361967 251.215742 
L 267.834695 251.215742 
z
" clip-path="url(#p1aab234c1b)" style="fill: #58a6ff; stroke: #0d1117; stroke-width: 0.6; stroke-linejoin: miter"/>
   </g>
   <g id="patch_7">
    <path d="M 332.925604 669.474619 
L 352.452876 669.474619 
L 352.452876 105.401343 
L 332.925604 105.401343 
z
" clip-path="url(#p1aab234c1b)" style="fill: #58a6ff; stroke: #0d1117; stroke-width: 0.6; stroke-linejoin: miter"/>
   </g>
   <g id="patch_8">
    <path d="M 398.016513 669.474619 
L 417.543786 669.474619 
L 417.543786 98.554641 
L 398.016513 98.554641 
z
" clip-path="url(#p1aab234c1b)" style="fill: #58a6ff; stroke: #0d1117; stroke-width: 0.6; stroke-linejoin: miter"/>
   </g>
   <g id="patch_9">
    <path d="M 463.107422 669.474619 
L 482.634695 669.474619 
L 482.634695 91.911307 
L 463.107422 91.911307 
z
" clip-path="url(#p1aab234c1b)" style="fill: #58a6ff; stroke: #0d1117; stroke-width: 0.6; stroke-linejoin: miter"/>
   </g>
   <g id="patch_10">
    <path d="M 528.198331 669.474619 
L 547.725604 669.474619 
L 547.725604 82.691987 
L 528.198331 82.691987 
z
" clip-path="url(#p1aab234c1b)" style="fill: #58a6ff; stroke: #0d1117; stroke-width: 0.6; stroke-linejoin: miter"/>
   </g>
   <g id="patch_11">
    <path d="M 92.08924 669.474619 
L 111.616513 669.474619 
L 111.616513 131.432365 
L 92.08924 131.432365 
z
" clip-path="url(#p1aab234c1b)" style="fill: #f778ba; stroke: #0d1117; stroke-width: 0.6; stroke-linejoin: miter"/>
   </g>
   <g id="patch_12">
    <path d="M 157.180149 669.474619 
L 176.707422 669.474619 
L 176.707422 175.969818 
L 157.180149 175.969818 
z
" clip-path="url(#p1aab234c1b)" style="fill: #f778ba; stroke: #0d1117; stroke-width: 0.6; stroke-linejoin: miter"/>
   </g>
   <g id="patch_13">
    <path d="M 222.271058 669.474619 
L 241.798331 669.474619 
L 241.798331 123.704405 
L 222.271058 123.704405 
z
" clip-path="url(#p1aab234c1b)" style="fill: #f778ba; stroke: #0d1117; stroke-width: 0.6; stroke-linejoin: miter"/>
   </g>
   <g id="patch_14">
    <path d="M 287.361967 669.474619 
L 306.88924 669.474619 
L 306.88924 181.731893 
L 287.361967 181.731893 
z
" clip-path="url(#p1aab234c1b)" style="fill: #f778ba; stroke: #0d1117; stroke-width: 0.6; stroke-linejoin: miter"/>
   </g>
   <g id="patch_15">
    <path d="M 352.452876 669.474619 
L 371.980149 669.474619 
L 371.980149 75.099605 
L 352.452876 75.099605 
z
" clip-path="url(#p1aab234c1b)" style="fill: #f778ba; stroke: #0d1117; stroke-width: 0.6; stroke-linejoin: miter"/>
   </g>
   <g id="patch_16">
    <path d="M 417.543786 669.474619 
L 437.071058 669.474619 
L 437.071058 80.454946 
L 417.543786 80.454946 
z
" clip-path="url(#p1aab234c1b)" style="fill: #f778ba; stroke: #0d1117; stroke-width: 0.6; stroke-linejoin: miter"/>
   </g>
   <g id="patch_17">
    <path d="M 482.634695 669.474619 
L 502.161967 669.474619 
L 502.161967 80.522735 
L 482.634695 80.522735 
z
" clip-path="url(#p1aab234c1b)" style="fill: #f778ba; stroke: #0d1117; stroke-width: 0.6; stroke-linejoin: miter"/>
   </g>
   <g id="patch_18">
    <path d="M 547.725604 669.474619 
L 567.252876 669.474619 
L 567.252876 70.89668 
L 547.725604 70.89668 
z
" clip-path="url(#p1aab234c1b)" style="fill: #f778ba; stroke: #0d1117; stroke-width: 0.6; stroke-linejoin: miter"/>
   </g>
   <g id="matplotlib.axis_1">
    <g id="xtick_1">
     <g id="line2d_1">
      <defs>
       <path id="mf81577b3d8" d="M 0 0 
L 0 3.5 
" style="stroke: #8b949e; stroke-width: 0.8"/>
      </defs>
      <g>
       <use xlink:href="#mf81577b3d8" x="92.08924" y="296.634453" style="fill: #8b949e; stroke: #8b949e; stroke-width: 0.8"/>
      </g>
     </g>
     <g id="text_1">
      <!-- Lee -->
      <g style="fill: #c9d1d9" transform="translate(83.774084 310.472344) scale(0.09 -0.09)">
       <defs>
        <path id="DejaVuSerif-2f" d="M 353 0 
L 353 331 
L 947 331 
L 947 4331 
L 353 4331 
L 353 4666 
L 2175 4666 
L 2175 4331 
L 1581 4331 
L 1581 384 
L 3713 384 
L 3713 1166 
L 4097 1166 
L 4097 0 
L 353 0 
z
" transform="scale(0.015625)"/>
        <path id="DejaVuSerif-48" d="M 3469 1600 
L 991 1600 
L 991 1575 
Q 991 903 1244 561 
Q 1497 219 1991 219 
Q 2369 219 2611 417 
Q 2853 616 2950 1006 
L 3413 1006 
Q 3275 459 2904 184 
Q 2534 -91 1931 -91 
Q 1203 -91 761 389 
Q 319 869 319 1663 
Q 319 2450 753 2931 
Q 1188 3413 1894 3413 
Q 2647 3413 3050 2948 
Q 3453 2484 3469 1600 
z
M 2791 1931 
Q 2772 2513 2545 2808 
Q 2319 3103 1894 3103 
Q 1497 3103 1269 2806 
Q 1041 2509 991 1931 
L 2791 1931 
z
" transform="scale(0.015625)"/>
       </defs>
       <use xlink:href="#DejaVuSerif-2f"/>
       <use xlink:href="#DejaVuSerif-48" transform="translate(66.40625 0)"/>
       <use xlink:href="#DejaVuSerif-48" transform="translate(125.59375 0)"/>
      </g>
     </g>
    </g>
    <g id="xtick_2">
     <g id="line2d_2">
      <g>
       <use xlink:href="#mf81577b3d8" x="157.180149" y="296.634453" style="fill: #8b949e; stroke: #8b949e; stroke-width: 0.8"/>
      </g>
     </g>
     <g id="text_2">
      <!-- RoBERTa -->
      <g style="fill: #c9d1d9" transform="translate(135.84593 310.472344) scale(0.09 -0.09)">
       <defs>
        <path id="DejaVuSerif-35" d="M 3066 2316 
Q 3284 2256 3442 2114 
Q 3600 1972 3725 1716 
L 4403 331 
L 4972 331 
L 4972 0 
L 3872 0 
L 3144 1484 
Q 2934 1916 2759 2042 
Q 2584 2169 2278 2169 
L 1581 2169 
L 1581 331 
L 2241 331 
L 2241 0 
L 353 0 
L 353 331 
L 947 331 
L 947 4331 
L 353 4331 
L 353 4666 
L 2719 4666 
Q 3400 4666 3770 4341 
Q 4141 4016 4141 3419 
Q 4141 2938 3870 2661 
Q 3600 2384 3066 2316 
z
M 1581 2503 
L 2503 2503 
Q 2975 2503 3200 2726 
Q 3425 2950 3425 3419 
Q 3425 3888 3200 4109 
Q 2975 4331 2503 4331 
L 1581 4331 
L 1581 2503 
z
" transform="scale(0.015625)"/>
        <path id="DejaVuSerif-52" d="M 1925 219 
Q 2388 219 2623 584 
Q 2859 950 2859 1663 
Q 2859 2375 2623 2739 
Q 2388 3103 1925 3103 
Q 1463 3103 1227 2739 
Q 991 2375 991 1663 
Q 991 950 1228 584 
Q 1466 219 1925 219 
z
M 1925 -91 
Q 1200 -91 759 389 
Q 319 869 319 1663 
Q 319 2456 758 2934 
Q 1197 3413 1925 3413 
Q 2653 3413 3092 2934 
Q 3531 2456 3531 1663 
Q 3531 869 3092 389 
Q 2653 -91 1925 -91 
z
" transform="scale(0.015625)"/>
        <path id="DejaVuSerif-25" d="M 1581 331 
L 2516 331 
Q 3078 331 3337 575 
Q 3597 819 3597 1350 
Q 3597 1878 3339 2120 
Q 3081 2363 2516 2363 
L 1581 2363 
L 1581 331 
z
M 1581 2694 
L 2375 2694 
Q 2888 2694 3123 2891 
Q 3359 3088 3359 3513 
Q 3359 3941 3123 4136 
Q 2888 4331 2375 4331 
L 1581 4331 
L 1581 2694 
z
M 353 0 
L 353 331 
L 947 331 
L 947 4331 
L 353 4331 
L 353 4666 
L 2656 4666 
Q 3363 4666 3720 4377 
Q 4078 4088 4078 3513 
Q 4078 3097 3829 2850 
Q 3581 2603 3103 2547 
Q 3697 2472 4005 2167 
Q 4313 1863 4313 1350 
Q 4313 656 3875 328 
Q 3438 0 2509 0 
L 353 0 
z
" transform="scale(0.015625)"/>
        <path id="DejaVuSerif-28" d="M 353 0 
L 353 331 
L 947 331 
L 947 4331 
L 353 4331 
L 353 4666 
L 4109 4666 
L 4109 3628 
L 3725 3628 
L 3725 4281 
L 1581 4281 
L 1581 2719 
L 3109 2719 
L 3109 3303 
L 3494 3303 
L 3494 1753 
L 3109 1753 
L 3109 2338 
L 1581 2338 
L 1581 384 
L 3775 384 
L 3775 1038 
L 4159 1038 
L 4159 0 
L 353 0 
z
" transform="scale(0.015625)"/>
        <path id="DejaVuSerif-37" d="M 1222 0 
L 1222 331 
L 1819 331 
L 1819 4294 
L 447 4294 
L 447 3566 
L 63 3566 
L 63 4666 
L 4206 4666 
L 4206 3566 
L 3822 3566 
L 3822 4294 
L 2450 4294 
L 2450 331 
L 3047 331 
L 3047 0 
L 1222 0 
z
" transform="scale(0.015625)"/>
        <path id="DejaVuSerif-44" d="M 2547 1044 
L 2547 1747 
L 1806 1747 
Q 1378 1747 1168 1562 
Q 959 1378 959 997 
Q 959 650 1171 447 
Q 1384 244 1747 244 
Q 2106 244 2326 466 
Q 2547 688 2547 1044 
z
M 3122 2075 
L 3122 331 
L 3634 331 
L 3634 0 
L 2547 0 
L 2547 359 
Q 2356 128 2106 18 
Q 1856 -91 1522 -91 
Q 969 -91 644 203 
Q 319 497 319 997 
Q 319 1513 691 1797 
Q 1063 2081 1741 2081 
L 2547 2081 
L 2547 2309 
Q 2547 2688 2317 2895 
Q 2088 3103 1672 3103 
Q 1328 3103 1125 2947 
Q 922 2791 872 2484 
L 575 2484 
L 575 3156 
Q 875 3284 1158 3348 
Q 1441 3413 1709 3413 
Q 2400 3413 2761 3070 
Q 3122 2728 3122 2075 
z
" transform="scale(0.015625)"/>
       </defs>
       <use xlink:href="#DejaVuSerif-35"/>
       <use xlink:href="#DejaVuSerif-52" transform="translate(75.296875 0)"/>
       <use xlink:href="#DejaVuSerif-25" transform="translate(135.5 0)"/>
       <use xlink:href="#DejaVuSerif-28" transform="translate(208.984375 0)"/>
       <use xlink:href="#DejaVuSerif-35" transform="translate(281.984375 0)"/>
       <use xlink:href="#DejaVuSerif-37" transform="translate(355.53125 0)"/>
       <use xlink:href="#DejaVuSerif-44" transform="translate(414.46875 0)"/>
      </g>
     </g>
    </g>
    <g id="xtick_3">
     <g id="line2d_3">
      <g>
       <use xlink:href="#mf81577b3d8" x="222.271058" y="296.634453" style="fill: #8b949e; stroke: #8b949e; stroke-width: 0.8"/>
      </g>
     </g>
     <g id="text_3">
      <!-- GAT -->
      <g style="fill: #c9d1d9" transform="translate(212.670589 310.472344) scale(0.09 -0.09)">
       <defs>
        <path id="DejaVuSerif-2a" d="M 4097 3272 
Q 3988 3856 3641 4136 
Q 3294 4416 2675 4416 
Q 1869 4416 1472 3897 
Q 1075 3378 1075 2328 
Q 1075 1300 1484 772 
Q 1894 244 2688 244 
Q 3041 244 3362 331 
Q 3684 419 3975 594 
L 3975 1797 
L 3097 1797 
L 3097 2131 
L 4609 2131 
L 4609 391 
Q 4194 150 3714 29 
Q 3234 -91 2688 -91 
Q 1631 -91 995 570 
Q 359 1231 359 2328 
Q 359 3434 996 4092 
Q 1634 4750 2713 4750 
Q 3113 4750 3539 4658 
Q 3966 4566 4447 4378 
L 4447 3272 
L 4097 3272 
z
" transform="scale(0.015625)"/>
        <path id="DejaVuSerif-24" d="M 1281 1691 
L 2994 1691 
L 2138 3909 
L 1281 1691 
z
M -38 0 
L -38 331 
L 372 331 
L 2034 4666 
L 2559 4666 
L 4225 331 
L 4684 331 
L 4684 0 
L 2988 0 
L 2988 331 
L 3506 331 
L 3116 1356 
L 1153 1356 
L 763 331 
L 1275 331 
L 1275 0 
L -38 0 
z
" transform="scale(0.015625)"/>
       </defs>
       <use xlink:href="#DejaVuSerif-2a"/>
       <use xlink:href="#DejaVuSerif-24" transform="translate(79.890625 0)"/>
       <use xlink:href="#DejaVuSerif-37" transform="translate(146.640625 0)"/>
      </g>
     </g>
    </g>
    <g id="xtick_4">
     <g id="line2d_4">
      <g>
       <use xlink:href="#mf81577b3d8" x="287.361967" y="296.634453" style="fill: #8b949e; stroke: #8b949e; stroke-width: 0.8"/>
      </g>
     </g>
     <g id="text_4">
      <!-- SATAR -->
      <g style="fill: #c9d1d9" transform="translate(271.881967 310.472344) scale(0.09 -0.09)">
       <defs>
        <path id="DejaVuSerif-36" d="M 594 225 
L 594 1288 
L 953 1284 
Q 969 753 1261 498 
Q 1553 244 2150 244 
Q 2706 244 2998 464 
Q 3291 684 3291 1106 
Q 3291 1444 3114 1625 
Q 2938 1806 2369 1978 
L 1753 2163 
Q 1084 2366 811 2669 
Q 538 2972 538 3500 
Q 538 4094 959 4422 
Q 1381 4750 2144 4750 
Q 2469 4750 2856 4679 
Q 3244 4609 3681 4475 
L 3681 3481 
L 3328 3481 
Q 3275 3975 2998 4195 
Q 2722 4416 2156 4416 
Q 1663 4416 1405 4214 
Q 1147 4013 1147 3628 
Q 1147 3294 1340 3103 
Q 1534 2913 2163 2725 
L 2741 2553 
Q 3375 2363 3645 2067 
Q 3916 1772 3916 1275 
Q 3916 597 3481 253 
Q 3047 -91 2188 -91 
Q 1803 -91 1404 -12 
Q 1006 66 594 225 
z
" transform="scale(0.015625)"/>
       </defs>
       <use xlink:href="#DejaVuSerif-36"/>
       <use xlink:href="#DejaVuSerif-24" transform="translate(68.5 0)"/>
       <use xlink:href="#DejaVuSerif-37" transform="translate(135.25 0)"/>
       <use xlink:href="#DejaVuSerif-24" transform="translate(196.484375 0)"/>
       <use xlink:href="#DejaVuSerif-35" transform="translate(268.703125 0)"/>
      </g>
     </g>
    </g>
    <g id="xtick_5">
     <g id="line2d_5">
      <g>
       <use xlink:href="#mf81577b3d8" x="352.452876" y="296.634453" style="fill: #8b949e; stroke: #8b949e; stroke-width: 0.8"/>
      </g>
     </g>
     <g id="text_5">
      <!-- BotRGCN -->
      <g style="fill: #c9d1d9" transform="translate(330.264361 310.472344) scale(0.09 -0.09)">
       <defs>
        <path id="DejaVuSerif-57" d="M 691 2988 
L 184 2988 
L 184 3322 
L 691 3322 
L 691 4353 
L 1269 4353 
L 1269 3322 
L 2350 3322 
L 2350 2988 
L 1269 2988 
L 1269 878 
Q 1269 456 1350 337 
Q 1431 219 1650 219 
Q 1875 219 1978 351 
Q 2081 484 2088 781 
L 2522 781 
Q 2497 328 2275 118 
Q 2053 -91 1600 -91 
Q 1103 -91 897 129 
Q 691 350 691 878 
L 691 2988 
z
" transform="scale(0.015625)"/>
        <path id="DejaVuSerif-26" d="M 4513 1234 
Q 4306 581 3820 245 
Q 3334 -91 2591 -91 
Q 2134 -91 1743 65 
Q 1353 222 1050 525 
Q 700 875 529 1320 
Q 359 1766 359 2328 
Q 359 3416 987 4083 
Q 1616 4750 2644 4750 
Q 3025 4750 3456 4650 
Q 3888 4550 4384 4347 
L 4384 3272 
L 4031 3272 
Q 3916 3859 3567 4137 
Q 3219 4416 2591 4416 
Q 1844 4416 1459 3886 
Q 1075 3356 1075 2328 
Q 1075 1303 1459 773 
Q 1844 244 2591 244 
Q 3113 244 3450 492 
Q 3788 741 3938 1234 
L 4513 1234 
z
" transform="scale(0.015625)"/>
        <path id="DejaVuSerif-31" d="M 313 0 
L 313 331 
L 941 331 
L 941 4331 
L 313 4331 
L 313 4666 
L 1509 4666 
L 4306 984 
L 4306 4331 
L 3681 4331 
L 3681 4666 
L 5319 4666 
L 5319 4331 
L 4691 4331 
L 4691 -91 
L 4313 -91 
L 1325 3841 
L 1325 331 
L 1953 331 
L 1953 0 
L 313 0 
z
" transform="scale(0.015625)"/>
       </defs>
       <use xlink:href="#DejaVuSerif-25"/>
       <use xlink:href="#DejaVuSerif-52" transform="translate(73.484375 0)"/>
       <use xlink:href="#DejaVuSerif-57" transform="translate(133.6875 0)"/>
       <use xlink:href="#DejaVuSerif-35" transform="translate(173.875 0)"/>
       <use xlink:href="#DejaVuSerif-2a" transform="translate(249.171875 0)"/>
       <use xlink:href="#DejaVuSerif-26" transform="translate(329.0625 0)"/>
       <use xlink:href="#DejaVuSerif-31" transform="translate(405.578125 0)"/>
      </g>
     </g>
    </g>
    <g id="xtick_6">
     <g id="line2d_6">
      <g>
       <use xlink:href="#mf81577b3d8" x="417.543786" y="296.634453" style="fill: #8b949e; stroke: #8b949e; stroke-width: 0.8"/>
      </g>
     </g>
     <g id="text_6">
      <!-- BotMoE -->
      <g style="fill: #c9d1d9" transform="translate(399.117692 310.472344) scale(0.09 -0.09)">
       <defs>
        <path id="DejaVuSerif-30" d="M 353 0 
L 353 331 
L 947 331 
L 947 4331 
L 319 4331 
L 319 4666 
L 1678 4666 
L 3316 1344 
L 4953 4666 
L 6228 4666 
L 6228 4331 
L 5606 4331 
L 5606 331 
L 6203 331 
L 6203 0 
L 4378 0 
L 4378 331 
L 4972 331 
L 4972 3938 
L 3372 684 
L 2931 684 
L 1331 3938 
L 1331 331 
L 1925 331 
L 1925 0 
L 353 0 
z
" transform="scale(0.015625)"/>
       </defs>
       <use xlink:href="#DejaVuSerif-25"/>
       <use xlink:href="#DejaVuSerif-52" transform="translate(73.484375 0)"/>
       <use xlink:href="#DejaVuSerif-57" transform="translate(133.6875 0)"/>
       <use xlink:href="#DejaVuSerif-30" transform="translate(173.875 0)"/>
       <use xlink:href="#DejaVuSerif-52" transform="translate(276.265625 0)"/>
       <use xlink:href="#DejaVuSerif-28" transform="translate(336.46875 0)"/>
      </g>
     </g>
    </g>
    <g id="xtick_7">
     <g id="line2d_7">
      <g>
       <use xlink:href="#mf81577b3d8" x="482.634695" y="296.634453" style="fill: #8b949e; stroke: #8b949e; stroke-width: 0.8"/>
      </g>
     </g>
     <g id="text_7">
      <!-- RGT -->
      <g style="fill: #c9d1d9" transform="translate(472.649616 310.472344) scale(0.09 -0.09)">
       <use xlink:href="#DejaVuSerif-35"/>
       <use xlink:href="#DejaVuSerif-2a" transform="translate(75.296875 0)"/>
       <use xlink:href="#DejaVuSerif-37" transform="translate(155.1875 0)"/>
      </g>
     </g>
    </g>
    <g id="xtick_8">
     <g id="line2d_8">
      <g>
       <use xlink:href="#mf81577b3d8" x="547.725604" y="296.634453" style="fill: #8b949e; stroke: #8b949e; stroke-width: 0.8"/>
      </g>
     </g>
     <g id="text_8">
      <!-- AdaRelBot -->
      <g style="fill: #c9d1d9" transform="translate(523.596463 311.373926) scale(0.09 -0.09)">
       <defs>
        <path id="DejaVuSerif-47" d="M 3359 331 
L 3909 331 
L 3909 0 
L 2784 0 
L 2784 519 
Q 2616 206 2355 57 
Q 2094 -91 1709 -91 
Q 1097 -91 708 395 
Q 319 881 319 1663 
Q 319 2444 706 2928 
Q 1094 3413 1709 3413 
Q 2094 3413 2355 3264 
Q 2616 3116 2784 2803 
L 2784 4531 
L 2241 4531 
L 2241 4863 
L 3359 4863 
L 3359 331 
z
M 2784 1497 
L 2784 1825 
Q 2784 2422 2554 2737 
Q 2325 3053 1888 3053 
Q 1444 3053 1217 2703 
Q 991 2353 991 1663 
Q 991 975 1217 622 
Q 1444 269 1888 269 
Q 2325 269 2554 583 
Q 2784 897 2784 1497 
z
" transform="scale(0.015625)"/>
        <path id="DejaVuSerif-4f" d="M 1313 331 
L 1856 331 
L 1856 0 
L 184 0 
L 184 331 
L 738 331 
L 738 4531 
L 184 4531 
L 184 4863 
L 1313 4863 
L 1313 331 
z
" transform="scale(0.015625)"/>
       </defs>
       <use xlink:href="#DejaVuSerif-24"/>
       <use xlink:href="#DejaVuSerif-47" transform="translate(72.21875 0)"/>
       <use xlink:href="#DejaVuSerif-44" transform="translate(136.234375 0)"/>
       <use xlink:href="#DejaVuSerif-35" transform="translate(195.859375 0)"/>
       <use xlink:href="#DejaVuSerif-48" transform="translate(271.15625 0)"/>
       <use xlink:href="#DejaVuSerif-4f" transform="translate(330.34375 0)"/>
       <use xlink:href="#DejaVuSerif-25" transform="translate(362.328125 0)"/>
       <use xlink:href="#DejaVuSerif-52" transform="translate(435.8125 0)"/>
       <use xlink:href="#DejaVuSerif-57" transform="translate(496.015625 0)"/>
      </g>
      <!-- (Ensemble) -->
      <g style="fill: #c9d1d9" transform="translate(521.807713 322.176387) scale(0.09 -0.09)">
       <defs>
        <path id="DejaVuSerif-b" d="M 2041 -997 
Q 1281 -656 893 83 
Q 506 822 506 1931 
Q 506 3044 893 3783 
Q 1281 4522 2041 4863 
L 2041 4556 
Q 1559 4225 1350 3623 
Q 1141 3022 1141 1931 
Q 1141 844 1350 242 
Q 1559 -359 2041 -691 
L 2041 -997 
z
" transform="scale(0.015625)"/>
        <path id="DejaVuSerif-51" d="M 263 0 
L 263 331 
L 781 331 
L 781 2988 
L 231 2988 
L 231 3322 
L 1356 3322 
L 1356 2731 
Q 1516 3069 1770 3241 
Q 2025 3413 2363 3413 
Q 2913 3413 3172 3097 
Q 3431 2781 3431 2113 
L 3431 331 
L 3944 331 
L 3944 0 
L 2356 0 
L 2356 331 
L 2853 331 
L 2853 1931 
Q 2853 2541 2703 2767 
Q 2553 2994 2175 2994 
Q 1775 2994 1565 2701 
Q 1356 2409 1356 1850 
L 1356 331 
L 1856 331 
L 1856 0 
L 263 0 
z
" transform="scale(0.015625)"/>
        <path id="DejaVuSerif-56" d="M 359 184 
L 359 959 
L 691 959 
Q 703 588 923 403 
Q 1144 219 1575 219 
Q 1963 219 2166 364 
Q 2369 509 2369 788 
Q 2369 1006 2220 1140 
Q 2072 1275 1594 1428 
L 1178 1569 
Q 750 1706 558 1912 
Q 366 2119 366 2438 
Q 366 2894 700 3153 
Q 1034 3413 1625 3413 
Q 1888 3413 2178 3344 
Q 2469 3275 2778 3144 
L 2778 2419 
L 2447 2419 
Q 2434 2741 2221 2922 
Q 2009 3103 1644 3103 
Q 1281 3103 1095 2975 
Q 909 2847 909 2591 
Q 909 2381 1050 2254 
Q 1191 2128 1613 1997 
L 2069 1856 
Q 2541 1709 2748 1489 
Q 2956 1269 2956 922 
Q 2956 450 2595 179 
Q 2234 -91 1600 -91 
Q 1278 -91 972 -22 
Q 666 47 359 184 
z
" transform="scale(0.015625)"/>
        <path id="DejaVuSerif-50" d="M 3316 2675 
Q 3481 3041 3739 3227 
Q 3997 3413 4341 3413 
Q 4863 3413 5119 3089 
Q 5375 2766 5375 2113 
L 5375 331 
L 5894 331 
L 5894 0 
L 4300 0 
L 4300 331 
L 4800 331 
L 4800 2047 
Q 4800 2556 4650 2772 
Q 4500 2988 4153 2988 
Q 3769 2988 3567 2697 
Q 3366 2406 3366 1850 
L 3366 331 
L 3866 331 
L 3866 0 
L 2291 0 
L 2291 331 
L 2791 331 
L 2791 2069 
Q 2791 2566 2641 2777 
Q 2491 2988 2144 2988 
Q 1759 2988 1557 2697 
Q 1356 2406 1356 1850 
L 1356 331 
L 1856 331 
L 1856 0 
L 263 0 
L 263 331 
L 781 331 
L 781 2994 
L 231 2994 
L 231 3322 
L 1356 3322 
L 1356 2731 
Q 1516 3063 1762 3238 
Q 2009 3413 2322 3413 
Q 2709 3413 2968 3220 
Q 3228 3028 3316 2675 
z
" transform="scale(0.015625)"/>
        <path id="DejaVuSerif-45" d="M 738 331 
L 738 4531 
L 184 4531 
L 184 4863 
L 1313 4863 
L 1313 2803 
Q 1481 3116 1742 3264 
Q 2003 3413 2388 3413 
Q 3000 3413 3387 2928 
Q 3775 2444 3775 1663 
Q 3775 881 3387 395 
Q 3000 -91 2388 -91 
Q 2003 -91 1742 57 
Q 1481 206 1313 519 
L 1313 0 
L 184 0 
L 184 331 
L 738 331 
z
M 1313 1497 
Q 1313 897 1542 583 
Q 1772 269 2209 269 
Q 2650 269 2876 622 
Q 3103 975 3103 1663 
Q 3103 2353 2876 2703 
Q 2650 3053 2209 3053 
Q 1772 3053 1542 2737 
Q 1313 2422 1313 1825 
L 1313 1497 
z
" transform="scale(0.015625)"/>
        <path id="DejaVuSerif-c" d="M 453 -997 
L 453 -691 
Q 934 -359 1145 242 
Q 1356 844 1356 1931 
Q 1356 3022 1145 3623 
Q 934 4225 453 4556 
L 453 4863 
Q 1216 4522 1603 3783 
Q 1991 3044 1991 1931 
Q 1991 822 1603 83 
Q 1216 -656 453 -997 
z
" transform="scale(0.015625)"/>
       </defs>
       <use xlink:href="#DejaVuSerif-b"/>
       <use xlink:href="#DejaVuSerif-28" transform="translate(39.015625 0)"/>
       <use xlink:href="#DejaVuSerif-51" transform="translate(112.015625 0)"/>
       <use xlink:href="#DejaVuSerif-56" transform="translate(176.421875 0)"/>
       <use xlink:href="#DejaVuSerif-48" transform="translate(227.734375 0)"/>
       <use xlink:href="#DejaVuSerif-50" transform="translate(286.921875 0)"/>
       <use xlink:href="#DejaVuSerif-45" transform="translate(381.75 0)"/>
       <use xlink:href="#DejaVuSerif-4f" transform="translate(445.765625 0)"/>
       <use xlink:href="#DejaVuSerif-48" transform="translate(477.75 0)"/>
       <use xlink:href="#DejaVuSerif-c" transform="translate(536.9375 0)"/>
      </g>
     </g>
    </g>
   </g>
   <g id="matplotlib.axis_2">
    <g id="ytick_1">
     <g id="line2d_9">
      <path d="M 47.827422 296.634453 
L 591.987422 296.634453 
" clip-path="url(#p1aab234c1b)" style="fill: none; stroke-dasharray: 0.5,0.825; stroke-dashoffset: 0; stroke: #30363d; stroke-opacity: 0.15; stroke-width: 0.5"/>
     </g>
     <g id="line2d_10">
      <defs>
       <path id="mdbff347149" d="M 0 0 
L -3.5 0 
" style="stroke: #8b949e; stroke-width: 0.8"/>
      </defs>
      <g>
       <use xlink:href="#mdbff347149" x="47.827422" y="296.634453" style="fill: #8b949e; stroke: #8b949e; stroke-width: 0.8"/>
      </g>
     </g>
     <g id="text_9">
      <!-- 55% -->
      <g style="fill: #8b949e" transform="translate(18.600859 300.433281) scale(0.1 -0.1)">
       <defs>
        <path id="DejaVuSerif-18" d="M 3219 4666 
L 3219 4153 
L 1081 4153 
L 1081 2816 
Q 1244 2928 1461 2984 
Q 1678 3041 1947 3041 
Q 2703 3041 3140 2622 
Q 3578 2203 3578 1478 
Q 3578 738 3136 323 
Q 2694 -91 1894 -91 
Q 1572 -91 1234 -12 
Q 897 66 544 225 
L 544 1131 
L 897 1131 
Q 925 688 1179 453 
Q 1434 219 1894 219 
Q 2388 219 2653 544 
Q 2919 869 2919 1478 
Q 2919 2084 2655 2407 
Q 2391 2731 1894 2731 
Q 1613 2731 1398 2631 
Q 1184 2531 1019 2322 
L 750 2322 
L 750 4666 
L 3219 4666 
z
" transform="scale(0.015625)"/>
        <path id="DejaVuSerif-8" d="M 1434 4459 
Q 1159 4459 1004 4200 
Q 850 3941 850 3475 
Q 850 3016 1008 2753 
Q 1166 2491 1434 2491 
Q 1700 2491 1854 2752 
Q 2009 3013 2009 3475 
Q 2009 3938 1854 4198 
Q 1700 4459 1434 4459 
z
M 4653 2169 
Q 4381 2169 4226 1906 
Q 4072 1644 4072 1178 
Q 4072 719 4228 458 
Q 4384 197 4653 197 
Q 4922 197 5075 458 
Q 5228 719 5228 1178 
Q 5228 1641 5073 1905 
Q 4919 2169 4653 2169 
z
M 4653 2450 
Q 5147 2450 5437 2106 
Q 5728 1763 5728 1178 
Q 5728 594 5436 251 
Q 5144 -91 4653 -91 
Q 4153 -91 3862 251 
Q 3572 594 3572 1178 
Q 3572 1766 3864 2108 
Q 4156 2450 4653 2450 
z
M 4263 4750 
L 4738 4750 
L 1819 -91 
L 1344 -91 
L 4263 4750 
z
M 1428 4750 
Q 1922 4750 2215 4408 
Q 2509 4066 2509 3481 
Q 2509 2891 2217 2550 
Q 1925 2209 1428 2209 
Q 931 2209 642 2551 
Q 353 2894 353 3481 
Q 353 4063 643 4406 
Q 934 4750 1428 4750 
z
" transform="scale(0.015625)"/>
       </defs>
       <use xlink:href="#DejaVuSerif-18"/>
       <use xlink:href="#DejaVuSerif-18" transform="translate(63.625 0)"/>
       <use xlink:href="#DejaVuSerif-8" transform="translate(127.25 0)"/>
      </g>
     </g>
    </g>
    <g id="ytick_2">
     <g id="line2d_11">
      <path d="M 47.827422 262.739893 
L 591.987422 262.739893 
" clip-path="url(#p1aab234c1b)" style="fill: none; stroke-dasharray: 0.5,0.825; stroke-dashoffset: 0; stroke: #30363d; stroke-opacity: 0.15; stroke-width: 0.5"/>
     </g>
     <g id="line2d_12">
      <g>
       <use xlink:href="#mdbff347149" x="47.827422" y="262.739893" style="fill: #8b949e; stroke: #8b949e; stroke-width: 0.8"/>
      </g>
     </g>
     <g id="text_10">
      <!-- 60% -->
      <g style="fill: #8b949e" transform="translate(18.600859 266.538721) scale(0.1 -0.1)">
       <defs>
        <path id="DejaVuSerif-19" d="M 2094 219 
Q 2534 219 2771 542 
Q 3009 866 3009 1472 
Q 3009 2078 2771 2401 
Q 2534 2725 2094 2725 
Q 1647 2725 1412 2412 
Q 1178 2100 1178 1509 
Q 1178 888 1415 553 
Q 1653 219 2094 219 
z
M 1075 2569 
Q 1288 2803 1556 2918 
Q 1825 3034 2163 3034 
Q 2859 3034 3264 2615 
Q 3669 2197 3669 1472 
Q 3669 763 3233 336 
Q 2797 -91 2069 -91 
Q 1278 -91 853 498 
Q 428 1088 428 2181 
Q 428 3406 931 4078 
Q 1434 4750 2350 4750 
Q 2597 4750 2869 4703 
Q 3141 4656 3425 4563 
L 3425 3794 
L 3072 3794 
Q 3034 4109 2831 4275 
Q 2628 4441 2284 4441 
Q 1678 4441 1381 3981 
Q 1084 3522 1075 2569 
z
" transform="scale(0.015625)"/>
        <path id="DejaVuSerif-13" d="M 2034 219 
Q 2513 219 2750 744 
Q 2988 1269 2988 2328 
Q 2988 3391 2750 3916 
Q 2513 4441 2034 4441 
Q 1556 4441 1318 3916 
Q 1081 3391 1081 2328 
Q 1081 1269 1318 744 
Q 1556 219 2034 219 
z
M 2034 -91 
Q 1275 -91 848 546 
Q 422 1184 422 2328 
Q 422 3475 848 4112 
Q 1275 4750 2034 4750 
Q 2797 4750 3222 4112 
Q 3647 3475 3647 2328 
Q 3647 1184 3222 546 
Q 2797 -91 2034 -91 
z
" transform="scale(0.015625)"/>
       </defs>
       <use xlink:href="#DejaVuSerif-19"/>
       <use xlink:href="#DejaVuSerif-13" transform="translate(63.625 0)"/>
       <use xlink:href="#DejaVuSerif-8" transform="translate(127.25 0)"/>
      </g>
     </g>
    </g>
    <g id="ytick_3">
     <g id="line2d_13">
      <path d="M 47.827422 228.845332 
L 591.987422 228.845332 
" clip-path="url(#p1aab234c1b)" style="fill: none; stroke-dasharray: 0.5,0.825; stroke-dashoffset: 0; stroke: #30363d; stroke-opacity: 0.15; stroke-width: 0.5"/>
     </g>
     <g id="line2d_14">
      <g>
       <use xlink:href="#mdbff347149" x="47.827422" y="228.845332" style="fill: #8b949e; stroke: #8b949e; stroke-width: 0.8"/>
      </g>
     </g>
     <g id="text_11">
      <!-- 65% -->
      <g style="fill: #8b949e" transform="translate(18.600859 232.64416) scale(0.1 -0.1)">
       <use xlink:href="#DejaVuSerif-19"/>
       <use xlink:href="#DejaVuSerif-18" transform="translate(63.625 0)"/>
       <use xlink:href="#DejaVuSerif-8" transform="translate(127.25 0)"/>
      </g>
     </g>
    </g>
    <g id="ytick_4">
     <g id="line2d_15">
      <path d="M 47.827422 194.950771 
L 591.987422 194.950771 
" clip-path="url(#p1aab234c1b)" style="fill: none; stroke-dasharray: 0.5,0.825; stroke-dashoffset: 0; stroke: #30363d; stroke-opacity: 0.15; stroke-width: 0.5"/>
     </g>
     <g id="line2d_16">
      <g>
       <use xlink:href="#mdbff347149" x="47.827422" y="194.950771" style="fill: #8b949e; stroke: #8b949e; stroke-width: 0.8"/>
      </g>
     </g>
     <g id="text_12">
      <!-- 70% -->
      <g style="fill: #8b949e" transform="translate(18.600859 198.7496) scale(0.1 -0.1)">
       <defs>
        <path id="DejaVuSerif-1a" d="M 3609 4347 
L 1784 0 
L 1319 0 
L 3059 4153 
L 903 4153 
L 903 3578 
L 538 3578 
L 538 4666 
L 3609 4666 
L 3609 4347 
z
" transform="scale(0.015625)"/>
       </defs>
       <use xlink:href="#DejaVuSerif-1a"/>
       <use xlink:href="#DejaVuSerif-13" transform="translate(63.625 0)"/>
       <use xlink:href="#DejaVuSerif-8" transform="translate(127.25 0)"/>
      </g>
     </g>
    </g>
    <g id="ytick_5">
     <g id="line2d_17">
      <path d="M 47.827422 161.056211 
L 591.987422 161.056211 
" clip-path="url(#p1aab234c1b)" style="fill: none; stroke-dasharray: 0.5,0.825; stroke-dashoffset: 0; stroke: #30363d; stroke-opacity: 0.15; stroke-width: 0.5"/>
     </g>
     <g id="line2d_18">
      <g>
       <use xlink:href="#mdbff347149" x="47.827422" y="161.056211" style="fill: #8b949e; stroke: #8b949e; stroke-width: 0.8"/>
      </g>
     </g>
     <g id="text_13">
      <!-- 75% -->
      <g style="fill: #8b949e" transform="translate(18.600859 164.855039) scale(0.1 -0.1)">
       <use xlink:href="#DejaVuSerif-1a"/>
       <use xlink:href="#DejaVuSerif-18" transform="translate(63.625 0)"/>
       <use xlink:href="#DejaVuSerif-8" transform="translate(127.25 0)"/>
      </g>
     </g>
    </g>
    <g id="ytick_6">
     <g id="line2d_19">
      <path d="M 47.827422 127.16165 
L 591.987422 127.16165 
" clip-path="url(#p1aab234c1b)" style="fill: none; stroke-dasharray: 0.5,0.825; stroke-dashoffset: 0; stroke: #30363d; stroke-opacity: 0.15; stroke-width: 0.5"/>
     </g>
     <g id="line2d_20">
      <g>
       <use xlink:href="#mdbff347149" x="47.827422" y="127.16165" style="fill: #8b949e; stroke: #8b949e; stroke-width: 0.8"/>
      </g>
     </g>
     <g id="text_14">
      <!-- 80% -->
      <g style="fill: #8b949e" transform="translate(18.600859 130.960479) scale(0.1 -0.1)">
       <defs>
        <path id="DejaVuSerif-1b" d="M 2981 1275 
Q 2981 1775 2732 2051 
Q 2484 2328 2034 2328 
Q 1584 2328 1336 2051 
Q 1088 1775 1088 1275 
Q 1088 772 1336 495 
Q 1584 219 2034 219 
Q 2484 219 2732 495 
Q 2981 772 2981 1275 
z
M 2853 3541 
Q 2853 3966 2637 4203 
Q 2422 4441 2034 4441 
Q 1650 4441 1433 4203 
Q 1216 3966 1216 3541 
Q 1216 3113 1433 2875 
Q 1650 2638 2034 2638 
Q 2422 2638 2637 2875 
Q 2853 3113 2853 3541 
z
M 2516 2484 
Q 3047 2413 3344 2092 
Q 3641 1772 3641 1275 
Q 3641 619 3225 264 
Q 2809 -91 2034 -91 
Q 1263 -91 845 264 
Q 428 619 428 1275 
Q 428 1772 725 2092 
Q 1022 2413 1556 2484 
Q 1084 2569 832 2842 
Q 581 3116 581 3541 
Q 581 4103 968 4426 
Q 1356 4750 2034 4750 
Q 2713 4750 3100 4426 
Q 3488 4103 3488 3541 
Q 3488 3116 3236 2842 
Q 2984 2569 2516 2484 
z
" transform="scale(0.015625)"/>
       </defs>
       <use xlink:href="#DejaVuSerif-1b"/>
       <use xlink:href="#DejaVuSerif-13" transform="translate(63.625 0)"/>
       <use xlink:href="#DejaVuSerif-8" transform="translate(127.25 0)"/>
      </g>
     </g>
    </g>
    <g id="ytick_7">
     <g id="line2d_21">
      <path d="M 47.827422 93.26709 
L 591.987422 93.26709 
" clip-path="url(#p1aab234c1b)" style="fill: none; stroke-dasharray: 0.5,0.825; stroke-dashoffset: 0; stroke: #30363d; stroke-opacity: 0.15; stroke-width: 0.5"/>
     </g>
     <g id="line2d_22">
      <g>
       <use xlink:href="#mdbff347149" x="47.827422" y="93.26709" style="fill: #8b949e; stroke: #8b949e; stroke-width: 0.8"/>
      </g>
     </g>
     <g id="text_15">
      <!-- 85% -->
      <g style="fill: #8b949e" transform="translate(18.600859 97.065918) scale(0.1 -0.1)">
       <use xlink:href="#DejaVuSerif-1b"/>
       <use xlink:href="#DejaVuSerif-18" transform="translate(63.625 0)"/>
       <use xlink:href="#DejaVuSerif-8" transform="translate(127.25 0)"/>
      </g>
     </g>
    </g>
    <g id="ytick_8">
     <g id="line2d_23">
      <path d="M 47.827422 59.372529 
L 591.987422 59.372529 
" clip-path="url(#p1aab234c1b)" style="fill: none; stroke-dasharray: 0.5,0.825; stroke-dashoffset: 0; stroke: #30363d; stroke-opacity: 0.15; stroke-width: 0.5"/>
     </g>
     <g id="line2d_24">
      <g>
       <use xlink:href="#mdbff347149" x="47.827422" y="59.372529" style="fill: #8b949e; stroke: #8b949e; stroke-width: 0.8"/>
      </g>
     </g>
     <g id="text_16">
      <!-- 90% -->
      <g style="fill: #8b949e" transform="translate(18.600859 63.171357) scale(0.1 -0.1)">
       <defs>
        <path id="DejaVuSerif-1c" d="M 2994 2091 
Q 2784 1856 2512 1740 
Q 2241 1625 1900 1625 
Q 1206 1625 804 2044 
Q 403 2463 403 3188 
Q 403 3897 839 4323 
Q 1275 4750 2003 4750 
Q 2794 4750 3217 4161 
Q 3641 3572 3641 2478 
Q 3641 1253 3137 581 
Q 2634 -91 1722 -91 
Q 1475 -91 1203 -44 
Q 931 3 647 97 
L 647 872 
L 997 872 
Q 1038 556 1241 387 
Q 1444 219 1784 219 
Q 2391 219 2687 676 
Q 2984 1134 2994 2091 
z
M 1978 4441 
Q 1534 4441 1298 4117 
Q 1063 3794 1063 3188 
Q 1063 2581 1298 2256 
Q 1534 1931 1978 1931 
Q 2422 1931 2658 2245 
Q 2894 2559 2894 3150 
Q 2894 3772 2656 4106 
Q 2419 4441 1978 4441 
z
" transform="scale(0.015625)"/>
       </defs>
       <use xlink:href="#DejaVuSerif-1c"/>
       <use xlink:href="#DejaVuSerif-13" transform="translate(63.625 0)"/>
       <use xlink:href="#DejaVuSerif-8" transform="translate(127.25 0)"/>
      </g>
     </g>
    </g>
    <g id="ytick_9">
     <g id="line2d_25">
      <path d="M 47.827422 25.477969 
L 591.987422 25.477969 
" clip-path="url(#p1aab234c1b)" style="fill: none; stroke-dasharray: 0.5,0.825; stroke-dashoffset: 0; stroke: #30363d; stroke-opacity: 0.15; stroke-width: 0.5"/>
     </g>
     <g id="line2d_26">
      <g>
       <use xlink:href="#mdbff347149" x="47.827422" y="25.477969" style="fill: #8b949e; stroke: #8b949e; stroke-width: 0.8"/>
      </g>
     </g>
     <g id="text_17">
      <!-- 95% -->
      <g style="fill: #8b949e" transform="translate(18.600859 29.276797) scale(0.1 -0.1)">
       <use xlink:href="#DejaVuSerif-1c"/>
       <use xlink:href="#DejaVuSerif-18" transform="translate(63.625 0)"/>
       <use xlink:href="#DejaVuSerif-8" transform="translate(127.25 0)"/>
      </g>
     </g>
    </g>
    <g id="text_18">
     <!-- Score (%) -->
     <g style="fill: #c9d1d9" transform="translate(11.958281 188.36457) rotate(-90) scale(0.11 -0.11)">
      <defs>
       <path id="DejaVuSerif-46" d="M 3291 997 
Q 3169 466 2822 187 
Q 2475 -91 1925 -91 
Q 1200 -91 759 389 
Q 319 869 319 1663 
Q 319 2459 759 2936 
Q 1200 3413 1925 3413 
Q 2241 3413 2553 3339 
Q 2866 3266 3181 3116 
L 3181 2266 
L 2847 2266 
Q 2781 2703 2561 2903 
Q 2341 3103 1931 3103 
Q 1466 3103 1228 2742 
Q 991 2381 991 1663 
Q 991 944 1227 581 
Q 1463 219 1931 219 
Q 2303 219 2525 412 
Q 2747 606 2828 997 
L 3291 997 
z
" transform="scale(0.015625)"/>
       <path id="DejaVuSerif-55" d="M 3059 3328 
L 3059 2497 
L 2728 2497 
Q 2713 2744 2591 2866 
Q 2469 2988 2234 2988 
Q 1809 2988 1582 2694 
Q 1356 2400 1356 1850 
L 1356 331 
L 2022 331 
L 2022 0 
L 263 0 
L 263 331 
L 781 331 
L 781 2994 
L 231 2994 
L 231 3322 
L 1356 3322 
L 1356 2731 
Q 1525 3078 1790 3245 
Q 2056 3413 2438 3413 
Q 2578 3413 2733 3391 
Q 2888 3369 3059 3328 
z
" transform="scale(0.015625)"/>
       <path id="DejaVuSerif-3" transform="scale(0.015625)"/>
      </defs>
      <use xlink:href="#DejaVuSerif-36"/>
      <use xlink:href="#DejaVuSerif-46" transform="translate(68.5 0)"/>
      <use xlink:href="#DejaVuSerif-52" transform="translate(124.5 0)"/>
      <use xlink:href="#DejaVuSerif-55" transform="translate(184.703125 0)"/>
      <use xlink:href="#DejaVuSerif-48" transform="translate(232.5 0)"/>
      <use xlink:href="#DejaVuSerif-3" transform="translate(291.6875 0)"/>
      <use xlink:href="#DejaVuSerif-b" transform="translate(323.46875 0)"/>
      <use xlink:href="#DejaVuSerif-8" transform="translate(362.484375 0)"/>
      <use xlink:href="#DejaVuSerif-c" transform="translate(457.5 0)"/>
     </g>
    </g>
   </g>
   <g id="line2d_27">
    <path d="M 515.180149 296.634453 
L 515.180149 25.477969 
" clip-path="url(#p1aab234c1b)" style="fill: none; stroke-dasharray: 5.18,2.24; stroke-dashoffset: 0; stroke: #f0883e; stroke-opacity: 0.7; stroke-width: 1.4"/>
   </g>
   <g id="patch_19">
    <path d="M 47.827422 296.634453 
L 47.827422 25.477969 
" style="fill: none; stroke: #30363d; stroke-width: 0.8; stroke-linejoin: miter; stroke-linecap: square"/>
   </g>
   <g id="patch_20">
    <path d="M 47.827422 296.634453 
L 591.987422 296.634453 
" style="fill: none; stroke: #30363d; stroke-width: 0.8; stroke-linejoin: miter; stroke-linecap: square"/>
   </g>
   <g id="text_19">
    <!-- 75.7 -->
    <g style="fill: #58a6ff" transform="translate(73.801463 151.7144) scale(0.07 -0.07)">
     <defs>
      <path id="DejaVuSerif-Bold-1a" d="M 3922 3872 
L 1997 0 
L 1363 0 
L 3238 3781 
L 934 3781 
L 934 3150 
L 506 3150 
L 506 4666 
L 3922 4666 
L 3922 3872 
z
" transform="scale(0.015625)"/>
      <path id="DejaVuSerif-Bold-18" d="M 3609 4666 
L 3609 3847 
L 1113 3847 
L 1113 2822 
Q 1319 2981 1572 3062 
Q 1825 3144 2106 3144 
Q 2969 3144 3469 2708 
Q 3969 2272 3969 1522 
Q 3969 759 3469 334 
Q 2969 -91 2069 -91 
Q 1688 -91 1311 -28 
Q 934 34 525 166 
L 525 1184 
L 900 1184 
Q 919 725 1139 500 
Q 1359 275 1791 275 
Q 2250 275 2472 583 
Q 2694 891 2694 1522 
Q 2694 2144 2476 2451 
Q 2259 2759 1819 2759 
Q 1581 2759 1395 2661 
Q 1209 2563 1050 2356 
L 738 2356 
L 738 4666 
L 3609 4666 
z
" transform="scale(0.015625)"/>
      <path id="DejaVuSerif-Bold-11" d="M 519 506 
Q 519 750 694 925 
Q 869 1100 1113 1100 
Q 1359 1100 1534 925 
Q 1709 750 1709 506 
Q 1709 259 1534 84 
Q 1359 -91 1113 -91 
Q 869 -91 694 84 
Q 519 259 519 506 
z
" transform="scale(0.015625)"/>
     </defs>
     <use xlink:href="#DejaVuSerif-Bold-1a"/>
     <use xlink:href="#DejaVuSerif-Bold-18" transform="translate(69.578125 0)"/>
     <use xlink:href="#DejaVuSerif-Bold-11" transform="translate(139.15625 0)"/>
     <use xlink:href="#DejaVuSerif-Bold-1a" transform="translate(173.96875 0)"/>
    </g>
   </g>
   <g id="text_20">
    <!-- 75.0 -->
    <g style="fill: #58a6ff" transform="translate(138.892372 156.866373) scale(0.07 -0.07)">
     <defs>
      <path id="DejaVuSerif-Bold-13" d="M 2228 275 
Q 2603 275 2742 615 
Q 2881 956 2881 2328 
Q 2881 3691 2742 4037 
Q 2603 4384 2228 4384 
Q 1853 4384 1714 4043 
Q 1575 3703 1575 2328 
Q 1575 956 1714 615 
Q 1853 275 2228 275 
z
M 2228 -91 
Q 1294 -91 797 532 
Q 300 1156 300 2328 
Q 300 3500 797 4125 
Q 1294 4750 2228 4750 
Q 3159 4750 3656 4125 
Q 4153 3500 4153 2328 
Q 4153 1156 3656 532 
Q 3159 -91 2228 -91 
z
" transform="scale(0.015625)"/>
     </defs>
     <use xlink:href="#DejaVuSerif-Bold-1a"/>
     <use xlink:href="#DejaVuSerif-Bold-18" transform="translate(69.578125 0)"/>
     <use xlink:href="#DejaVuSerif-Bold-11" transform="translate(139.15625 0)"/>
     <use xlink:href="#DejaVuSerif-Bold-13" transform="translate(173.96875 0)"/>
    </g>
   </g>
   <g id="text_21">
    <!-- 77.3 -->
    <g style="fill: #58a6ff" transform="translate(203.983281 140.935929) scale(0.07 -0.07)">
     <defs>
      <path id="DejaVuSerif-Bold-16" d="M 550 4531 
Q 963 4641 1350 4695 
Q 1738 4750 2106 4750 
Q 2950 4750 3401 4448 
Q 3853 4147 3853 3584 
Q 3853 3163 3593 2900 
Q 3334 2638 2834 2547 
Q 3444 2450 3744 2131 
Q 4044 1813 4044 1259 
Q 4044 606 3526 257 
Q 3009 -91 2028 -91 
Q 1659 -91 1267 -28 
Q 875 34 447 159 
L 447 1184 
L 825 1184 
Q 859 741 1103 508 
Q 1347 275 1778 275 
Q 2253 275 2512 539 
Q 2772 803 2772 1288 
Q 2772 1794 2501 2069 
Q 2231 2344 1734 2344 
L 1528 2344 
L 1528 2719 
L 1691 2719 
Q 2150 2719 2381 2931 
Q 2613 3144 2613 3566 
Q 2613 3963 2395 4173 
Q 2178 4384 1772 4384 
Q 1403 4384 1187 4182 
Q 972 3981 928 3597 
L 550 3597 
L 550 4531 
z
" transform="scale(0.015625)"/>
     </defs>
     <use xlink:href="#DejaVuSerif-Bold-1a"/>
     <use xlink:href="#DejaVuSerif-Bold-1a" transform="translate(69.578125 0)"/>
     <use xlink:href="#DejaVuSerif-Bold-11" transform="translate(139.15625 0)"/>
     <use xlink:href="#DejaVuSerif-Bold-16" transform="translate(173.96875 0)"/>
    </g>
   </g>
   <g id="text_22">
    <!-- 61.7 -->
    <g style="fill: #58a6ff" transform="translate(269.07419 246.822537) scale(0.07 -0.07)">
     <defs>
      <path id="DejaVuSerif-Bold-19" d="M 1575 2766 
Q 1778 2928 2029 3009 
Q 2281 3091 2578 3091 
Q 3294 3091 3701 2672 
Q 4109 2253 4109 1522 
Q 4109 750 3650 329 
Q 3191 -91 2344 -91 
Q 1388 -91 895 486 
Q 403 1063 403 2181 
Q 403 3453 950 4101 
Q 1497 4750 2572 4750 
Q 2853 4750 3175 4703 
Q 3497 4656 3866 4563 
L 3866 3738 
L 3488 3738 
Q 3409 4056 3192 4220 
Q 2975 4384 2631 4384 
Q 2075 4384 1826 4003 
Q 1578 3622 1575 2766 
z
M 2272 275 
Q 2594 275 2731 548 
Q 2869 822 2869 1497 
Q 2869 2172 2731 2445 
Q 2594 2719 2272 2719 
Q 1950 2719 1814 2445 
Q 1678 2172 1678 1497 
Q 1678 822 1814 548 
Q 1950 275 2272 275 
z
" transform="scale(0.015625)"/>
      <path id="DejaVuSerif-Bold-14" d="M 878 0 
L 878 378 
L 1753 378 
L 1753 4153 
L 781 3578 
L 781 4044 
L 1953 4750 
L 2938 4750 
L 2938 378 
L 3816 378 
L 3816 0 
L 878 0 
z
" transform="scale(0.015625)"/>
     </defs>
     <use xlink:href="#DejaVuSerif-Bold-19"/>
     <use xlink:href="#DejaVuSerif-Bold-14" transform="translate(69.578125 0)"/>
     <use xlink:href="#DejaVuSerif-Bold-11" transform="translate(139.15625 0)"/>
     <use xlink:href="#DejaVuSerif-Bold-1a" transform="translate(173.96875 0)"/>
    </g>
   </g>
   <g id="text_23">
    <!-- 83.2 -->
    <g style="fill: #58a6ff" transform="translate(334.165099 101.008137) scale(0.07 -0.07)">
     <defs>
      <path id="DejaVuSerif-Bold-1b" d="M 2975 2484 
Q 3531 2394 3820 2075 
Q 4109 1756 4109 1241 
Q 4109 597 3623 253 
Q 3138 -91 2222 -91 
Q 1306 -91 818 253 
Q 331 597 331 1241 
Q 331 1756 622 2075 
Q 913 2394 1466 2484 
Q 975 2597 731 2861 
Q 488 3125 488 3531 
Q 488 4125 931 4437 
Q 1375 4750 2222 4750 
Q 3066 4750 3511 4437 
Q 3956 4125 3956 3531 
Q 3956 3125 3711 2861 
Q 3466 2597 2975 2484 
z
M 2747 3519 
Q 2747 4013 2628 4198 
Q 2509 4384 2222 4384 
Q 1931 4384 1814 4198 
Q 1697 4013 1697 3519 
Q 1697 3028 1814 2845 
Q 1931 2663 2222 2663 
Q 2513 2663 2630 2845 
Q 2747 3028 2747 3519 
z
M 2869 1294 
Q 2869 1866 2723 2081 
Q 2578 2297 2222 2297 
Q 1863 2297 1719 2081 
Q 1575 1866 1575 1294 
Q 1575 716 1720 495 
Q 1866 275 2222 275 
Q 2575 275 2722 495 
Q 2869 716 2869 1294 
z
" transform="scale(0.015625)"/>
      <path id="DejaVuSerif-Bold-15" d="M 844 3513 
L 469 3513 
L 469 4519 
Q 850 4634 1223 4692 
Q 1597 4750 1978 4750 
Q 2869 4750 3367 4386 
Q 3866 4022 3866 3372 
Q 3866 2909 3591 2542 
Q 3316 2175 2541 1672 
L 1241 819 
L 3450 819 
L 3450 1369 
L 3878 1369 
L 3878 0 
L 428 0 
L 428 763 
L 1119 1241 
Q 2003 1850 2297 2278 
Q 2591 2706 2591 3278 
Q 2591 3819 2367 4101 
Q 2144 4384 1716 4384 
Q 1347 4384 1125 4161 
Q 903 3938 844 3513 
z
" transform="scale(0.015625)"/>
     </defs>
     <use xlink:href="#DejaVuSerif-Bold-1b"/>
     <use xlink:href="#DejaVuSerif-Bold-16" transform="translate(69.578125 0)"/>
     <use xlink:href="#DejaVuSerif-Bold-11" transform="translate(139.15625 0)"/>
     <use xlink:href="#DejaVuSerif-Bold-15" transform="translate(173.96875 0)"/>
    </g>
   </g>
   <g id="text_24">
    <!-- 84.2 -->
    <g style="fill: #58a6ff" transform="translate(399.256009 94.161436) scale(0.07 -0.07)">
     <defs>
      <path id="DejaVuSerif-Bold-17" d="M 4084 0 
L 1516 0 
L 1516 378 
L 2209 378 
L 2209 1228 
L 263 1228 
L 263 1588 
L 2216 4750 
L 3391 4750 
L 3391 1631 
L 4191 1631 
L 4191 1228 
L 3391 1228 
L 3391 378 
L 4084 378 
L 4084 0 
z
M 2209 1631 
L 2209 3897 
L 819 1631 
L 2209 1631 
z
" transform="scale(0.015625)"/>
     </defs>
     <use xlink:href="#DejaVuSerif-Bold-1b"/>
     <use xlink:href="#DejaVuSerif-Bold-17" transform="translate(69.578125 0)"/>
     <use xlink:href="#DejaVuSerif-Bold-11" transform="translate(139.15625 0)"/>
     <use xlink:href="#DejaVuSerif-Bold-15" transform="translate(173.96875 0)"/>
    </g>
   </g>
   <g id="text_25">
    <!-- 85.2 -->
    <g style="fill: #58a6ff" transform="translate(464.346918 87.518102) scale(0.07 -0.07)">
     <use xlink:href="#DejaVuSerif-Bold-1b"/>
     <use xlink:href="#DejaVuSerif-Bold-18" transform="translate(69.578125 0)"/>
     <use xlink:href="#DejaVuSerif-Bold-11" transform="translate(139.15625 0)"/>
     <use xlink:href="#DejaVuSerif-Bold-15" transform="translate(173.96875 0)"/>
    </g>
   </g>
   <g id="text_26">
    <!-- 86.6 -->
    <g style="fill: #58a6ff" transform="translate(529.437827 78.298781) scale(0.07 -0.07)">
     <use xlink:href="#DejaVuSerif-Bold-1b"/>
     <use xlink:href="#DejaVuSerif-Bold-19" transform="translate(69.578125 0)"/>
     <use xlink:href="#DejaVuSerif-Bold-11" transform="translate(139.15625 0)"/>
     <use xlink:href="#DejaVuSerif-Bold-19" transform="translate(173.96875 0)"/>
    </g>
   </g>
   <g id="text_27">
    <!-- 79.4 -->
    <g style="fill: #f778ba" transform="translate(93.328736 127.03916) scale(0.07 -0.07)">
     <defs>
      <path id="DejaVuSerif-Bold-1c" d="M 2181 4384 
Q 1859 4384 1723 4111 
Q 1588 3838 1588 3163 
Q 1588 2488 1723 2214 
Q 1859 1941 2181 1941 
Q 2503 1941 2640 2214 
Q 2778 2488 2778 3163 
Q 2778 3838 2640 4111 
Q 2503 4384 2181 4384 
z
M 2878 1900 
Q 2672 1734 2420 1651 
Q 2169 1569 1875 1569 
Q 1163 1569 755 1986 
Q 347 2403 347 3138 
Q 347 3913 803 4331 
Q 1259 4750 2106 4750 
Q 3063 4750 3556 4172 
Q 4050 3594 4050 2478 
Q 4050 1206 3503 557 
Q 2956 -91 1881 -91 
Q 1600 -91 1278 -44 
Q 956 3 588 97 
L 588 922 
L 966 922 
Q 1044 603 1261 439 
Q 1478 275 1825 275 
Q 2375 275 2625 658 
Q 2875 1041 2878 1900 
z
" transform="scale(0.015625)"/>
     </defs>
     <use xlink:href="#DejaVuSerif-Bold-1a"/>
     <use xlink:href="#DejaVuSerif-Bold-1c" transform="translate(69.578125 0)"/>
     <use xlink:href="#DejaVuSerif-Bold-11" transform="translate(139.15625 0)"/>
     <use xlink:href="#DejaVuSerif-Bold-17" transform="translate(173.96875 0)"/>
    </g>
   </g>
   <g id="text_28">
    <!-- 72.8 -->
    <g style="fill: #f778ba" transform="translate(158.419645 171.576612) scale(0.07 -0.07)">
     <use xlink:href="#DejaVuSerif-Bold-1a"/>
     <use xlink:href="#DejaVuSerif-Bold-15" transform="translate(69.578125 0)"/>
     <use xlink:href="#DejaVuSerif-Bold-11" transform="translate(139.15625 0)"/>
     <use xlink:href="#DejaVuSerif-Bold-1b" transform="translate(173.96875 0)"/>
    </g>
   </g>
   <g id="text_29">
    <!-- 80.5 -->
    <g style="fill: #f778ba" transform="translate(223.510554 119.3112) scale(0.07 -0.07)">
     <use xlink:href="#DejaVuSerif-Bold-1b"/>
     <use xlink:href="#DejaVuSerif-Bold-13" transform="translate(69.578125 0)"/>
     <use xlink:href="#DejaVuSerif-Bold-11" transform="translate(139.15625 0)"/>
     <use xlink:href="#DejaVuSerif-Bold-18" transform="translate(173.96875 0)"/>
    </g>
   </g>
   <g id="text_30">
    <!-- 72.0 -->
    <g style="fill: #f778ba" transform="translate(288.601463 177.338687) scale(0.07 -0.07)">
     <use xlink:href="#DejaVuSerif-Bold-1a"/>
     <use xlink:href="#DejaVuSerif-Bold-15" transform="translate(69.578125 0)"/>
     <use xlink:href="#DejaVuSerif-Bold-11" transform="translate(139.15625 0)"/>
     <use xlink:href="#DejaVuSerif-Bold-13" transform="translate(173.96875 0)"/>
    </g>
   </g>
   <g id="text_31">
    <!-- 87.7 -->
    <g style="fill: #f778ba" transform="translate(353.692372 70.7064) scale(0.07 -0.07)">
     <use xlink:href="#DejaVuSerif-Bold-1b"/>
     <use xlink:href="#DejaVuSerif-Bold-1a" transform="translate(69.578125 0)"/>
     <use xlink:href="#DejaVuSerif-Bold-11" transform="translate(139.15625 0)"/>
     <use xlink:href="#DejaVuSerif-Bold-1a" transform="translate(173.96875 0)"/>
    </g>
   </g>
   <g id="text_32">
    <!-- 86.9 -->
    <g style="fill: #f778ba" transform="translate(418.783281 76.06174) scale(0.07 -0.07)">
     <use xlink:href="#DejaVuSerif-Bold-1b"/>
     <use xlink:href="#DejaVuSerif-Bold-19" transform="translate(69.578125 0)"/>
     <use xlink:href="#DejaVuSerif-Bold-11" transform="translate(139.15625 0)"/>
     <use xlink:href="#DejaVuSerif-Bold-1c" transform="translate(173.96875 0)"/>
    </g>
   </g>
   <g id="text_33">
    <!-- 86.9 -->
    <g style="fill: #f778ba" transform="translate(483.87419 76.12953) scale(0.07 -0.07)">
     <use xlink:href="#DejaVuSerif-Bold-1b"/>
     <use xlink:href="#DejaVuSerif-Bold-19" transform="translate(69.578125 0)"/>
     <use xlink:href="#DejaVuSerif-Bold-11" transform="translate(139.15625 0)"/>
     <use xlink:href="#DejaVuSerif-Bold-1c" transform="translate(173.96875 0)"/>
    </g>
   </g>
   <g id="text_34">
    <!-- 88.3 -->
    <g style="fill: #f778ba" transform="translate(548.965099 66.503474) scale(0.07 -0.07)">
     <use xlink:href="#DejaVuSerif-Bold-1b"/>
     <use xlink:href="#DejaVuSerif-Bold-1b" transform="translate(69.578125 0)"/>
     <use xlink:href="#DejaVuSerif-Bold-11" transform="translate(139.15625 0)"/>
     <use xlink:href="#DejaVuSerif-Bold-16" transform="translate(173.96875 0)"/>
    </g>
   </g>
   <g id="text_35">
    <!-- Ours -->
    <g style="fill: #f0883e" transform="translate(518.434695 39.035793) scale(0.08 -0.08)">
     <defs>
      <path id="DejaVuSerif-BoldItalic-32" d="M 2388 288 
Q 2984 288 3373 791 
Q 3763 1294 3963 2328 
Q 4163 3366 3970 3869 
Q 3778 4372 3181 4372 
Q 2588 4372 2197 3864 
Q 1806 3356 1606 2328 
Q 1406 1303 1600 795 
Q 1794 288 2388 288 
z
M 2313 -91 
Q 1134 -91 592 553 
Q 50 1197 269 2328 
Q 488 3459 1284 4104 
Q 2081 4750 3256 4750 
Q 4434 4750 4976 4106 
Q 5519 3463 5300 2328 
Q 5081 1197 4284 553 
Q 3488 -91 2313 -91 
z
" transform="scale(0.015625)"/>
      <path id="DejaVuSerif-BoldItalic-58" d="M 4294 3322 
L 3722 378 
L 4194 378 
L 4122 0 
L 2541 0 
L 2631 469 
Q 2375 172 2094 40 
Q 1813 -91 1422 -91 
Q 863 -91 641 238 
Q 497 450 497 788 
Q 497 978 544 1209 
L 881 2944 
L 406 2944 
L 478 3322 
L 2059 3322 
L 1681 1381 
Q 1606 991 1606 781 
Q 1606 656 1634 594 
Q 1703 428 1978 428 
Q 2313 428 2516 675 
Q 2719 922 2822 1459 
L 3184 3322 
L 4294 3322 
z
" transform="scale(0.015625)"/>
      <path id="DejaVuSerif-BoldItalic-55" d="M 3759 3359 
L 3566 2369 
L 3213 2369 
Q 3222 2434 3222 2491 
Q 3222 2666 3147 2763 
Q 3047 2894 2809 2894 
Q 2447 2894 2175 2575 
Q 1903 2256 1794 1691 
L 1466 0 
L 359 0 
L 931 2944 
L 425 2944 
L 497 3322 
L 2109 3322 
L 1997 2731 
Q 2225 3078 2525 3245 
Q 2825 3413 3213 3413 
Q 3309 3413 3445 3398 
Q 3581 3384 3759 3359 
z
" transform="scale(0.015625)"/>
      <path id="DejaVuSerif-BoldItalic-56" d="M 175 1025 
L 528 1025 
Q 525 978 525 934 
Q 525 628 709 445 
Q 894 263 1266 263 
Q 1994 263 2081 716 
Q 2094 775 2094 863 
Q 2094 947 2014 1040 
Q 1934 1134 1622 1216 
L 1188 1331 
Q 697 1459 540 1662 
Q 384 1866 384 2116 
Q 384 2222 406 2344 
Q 513 2884 939 3148 
Q 1366 3413 2047 3413 
Q 2728 3413 3472 3213 
L 3306 2375 
L 2953 2375 
Q 2963 2434 2963 2488 
Q 2963 3059 2256 3059 
Q 1547 3059 1466 2638 
Q 1456 2588 1456 2516 
Q 1456 2313 1841 2209 
L 2272 2094 
Q 2894 1928 3066 1720 
Q 3238 1513 3238 1244 
Q 3238 1134 3213 1006 
Q 3103 444 2650 176 
Q 2197 -91 1350 -91 
Q 734 -91 -3 97 
L 175 1025 
z
" transform="scale(0.015625)"/>
     </defs>
     <use xlink:href="#DejaVuSerif-BoldItalic-32"/>
     <use xlink:href="#DejaVuSerif-BoldItalic-58" transform="translate(87.109375 0)"/>
     <use xlink:href="#DejaVuSerif-BoldItalic-55" transform="translate(159.8125 0)"/>
     <use xlink:href="#DejaVuSerif-BoldItalic-56" transform="translate(212.5 0)"/>
    </g>
   </g>
   <g id="text_36">
    <!-- TwiBot-20 Benchmark Results -->
    <g style="fill: #e6edf3" transform="translate(209.511016 13.477969) scale(0.13 -0.13)">
     <defs>
      <path id="DejaVuSerif-Bold-37" d="M 1159 0 
L 1159 378 
L 1778 378 
L 1778 4238 
L 500 4238 
L 500 3500 
L 72 3500 
L 72 4666 
L 4697 4666 
L 4697 3500 
L 4275 3500 
L 4275 4238 
L 2988 4238 
L 2988 378 
L 3609 378 
L 3609 0 
L 1159 0 
z
" transform="scale(0.015625)"/>
      <path id="DejaVuSerif-Bold-5a" d="M 3450 3322 
L 4206 1106 
L 4831 2944 
L 4397 2944 
L 4397 3322 
L 5638 3322 
L 5638 2944 
L 5247 2944 
L 4244 0 
L 3481 0 
L 2778 2081 
L 2069 0 
L 1313 0 
L 306 2944 
L -56 2944 
L -56 3322 
L 1825 3322 
L 1825 2944 
L 1434 2944 
L 2047 1147 
L 2791 3322 
L 3450 3322 
z
" transform="scale(0.015625)"/>
      <path id="DejaVuSerif-Bold-4c" d="M 588 4263 
Q 588 4516 763 4689 
Q 938 4863 1191 4863 
Q 1438 4863 1611 4689 
Q 1784 4516 1784 4263 
Q 1784 4016 1611 3842 
Q 1438 3669 1191 3669 
Q 938 3669 763 3841 
Q 588 4013 588 4263 
z
M 1797 378 
L 2272 378 
L 2272 0 
L 219 0 
L 219 378 
L 691 378 
L 691 2944 
L 219 2944 
L 219 3322 
L 1797 3322 
L 1797 378 
z
" transform="scale(0.015625)"/>
      <path id="DejaVuSerif-Bold-25" d="M 300 0 
L 300 378 
L 897 378 
L 897 4288 
L 300 4288 
L 300 4666 
L 3066 4666 
Q 3919 4666 4347 4378 
Q 4775 4091 4775 3513 
Q 4775 3097 4479 2853 
Q 4184 2609 3603 2547 
Q 4306 2481 4681 2172 
Q 5056 1863 5056 1350 
Q 5056 656 4532 328 
Q 4009 0 2894 0 
L 300 0 
z
M 2100 2719 
L 2509 2719 
Q 3047 2719 3306 2914 
Q 3566 3109 3566 3513 
Q 3566 3919 3314 4103 
Q 3063 4288 2509 4288 
L 2100 4288 
L 2100 2719 
z
M 2100 378 
L 2547 378 
Q 3144 378 3431 615 
Q 3719 853 3719 1350 
Q 3719 1850 3428 2097 
Q 3138 2344 2547 2344 
L 2100 2344 
L 2100 378 
z
" transform="scale(0.015625)"/>
      <path id="DejaVuSerif-Bold-52" d="M 2138 263 
Q 2488 263 2630 563 
Q 2772 863 2772 1663 
Q 2772 2463 2631 2761 
Q 2491 3059 2138 3059 
Q 1784 3059 1640 2757 
Q 1497 2456 1497 1663 
Q 1497 869 1640 566 
Q 1784 263 2138 263 
z
M 2138 -91 
Q 1259 -91 761 376 
Q 263 844 263 1663 
Q 263 2484 761 2948 
Q 1259 3413 2138 3413 
Q 3019 3413 3516 2948 
Q 4013 2484 4013 1663 
Q 4013 844 3514 376 
Q 3016 -91 2138 -91 
z
" transform="scale(0.015625)"/>
      <path id="DejaVuSerif-Bold-57" d="M 634 2944 
L 153 2944 
L 153 3322 
L 634 3322 
L 634 4353 
L 1741 4353 
L 1741 3322 
L 2663 3322 
L 2663 2944 
L 1741 2944 
L 1741 909 
Q 1741 475 1809 369 
Q 1878 263 2059 263 
Q 2259 263 2356 397 
Q 2453 531 2459 813 
L 2925 813 
Q 2897 313 2651 111 
Q 2406 -91 1806 -91 
Q 1122 -91 878 123 
Q 634 338 634 909 
L 634 2944 
z
" transform="scale(0.015625)"/>
      <path id="DejaVuSerif-Bold-10" d="M 347 2138 
L 2309 2138 
L 2309 1294 
L 347 1294 
L 347 2138 
z
" transform="scale(0.015625)"/>
      <path id="DejaVuSerif-Bold-3" transform="scale(0.015625)"/>
      <path id="DejaVuSerif-Bold-48" d="M 2566 1875 
Q 2566 2531 2444 2795 
Q 2322 3059 2028 3059 
Q 1744 3059 1620 2800 
Q 1497 2541 1497 1931 
L 1497 1875 
L 2566 1875 
z
M 3781 1503 
L 1497 1503 
L 1497 1478 
Q 1497 834 1690 548 
Q 1884 263 2316 263 
Q 2675 263 2897 453 
Q 3119 644 3181 1006 
L 3700 1006 
Q 3566 441 3166 175 
Q 2766 -91 2047 -91 
Q 1184 -91 723 364 
Q 263 819 263 1663 
Q 263 2488 734 2950 
Q 1206 3413 2047 3413 
Q 2872 3413 3312 2927 
Q 3753 2441 3781 1503 
z
" transform="scale(0.015625)"/>
      <path id="DejaVuSerif-Bold-51" d="M 219 0 
L 219 378 
L 691 378 
L 691 2944 
L 219 2944 
L 219 3322 
L 1797 3322 
L 1797 2853 
Q 1997 3150 2253 3281 
Q 2509 3413 2900 3413 
Q 3459 3413 3745 3083 
Q 4031 2753 4031 2113 
L 4031 378 
L 4506 378 
L 4506 0 
L 2522 0 
L 2522 378 
L 2925 378 
L 2925 2144 
Q 2925 2566 2817 2730 
Q 2709 2894 2444 2894 
Q 2109 2894 1953 2648 
Q 1797 2403 1797 1869 
L 1797 378 
L 2203 378 
L 2203 0 
L 219 0 
z
" transform="scale(0.015625)"/>
      <path id="DejaVuSerif-Bold-46" d="M 3609 1038 
Q 3491 469 3123 189 
Q 2756 -91 2125 -91 
Q 1238 -91 750 368 
Q 263 828 263 1663 
Q 263 2488 744 2950 
Q 1225 3413 2081 3413 
Q 2428 3413 2781 3347 
Q 3134 3281 3500 3150 
L 3500 2228 
L 3150 2228 
Q 3100 2650 2903 2854 
Q 2706 3059 2350 3059 
Q 1888 3059 1692 2746 
Q 1497 2434 1497 1663 
Q 1497 909 1687 586 
Q 1878 263 2309 263 
Q 2644 263 2845 463 
Q 3047 663 3091 1038 
L 3609 1038 
z
" transform="scale(0.015625)"/>
      <path id="DejaVuSerif-Bold-4b" d="M 219 0 
L 219 378 
L 691 378 
L 691 4488 
L 197 4488 
L 197 4863 
L 1797 4863 
L 1797 2853 
Q 1997 3150 2253 3281 
Q 2509 3413 2900 3413 
Q 3459 3413 3745 3083 
Q 4031 2753 4031 2113 
L 4031 378 
L 4506 378 
L 4506 0 
L 2522 0 
L 2522 378 
L 2925 378 
L 2925 2144 
Q 2925 2566 2817 2730 
Q 2709 2894 2444 2894 
Q 2109 2894 1953 2648 
Q 1797 2403 1797 1869 
L 1797 378 
L 2203 378 
L 2203 0 
L 219 0 
z
" transform="scale(0.015625)"/>
      <path id="DejaVuSerif-Bold-50" d="M 3884 2778 
Q 4116 3109 4384 3261 
Q 4653 3413 5013 3413 
Q 5584 3413 5867 3089 
Q 6150 2766 6150 2113 
L 6150 378 
L 6625 378 
L 6625 0 
L 4647 0 
L 4647 378 
L 5044 378 
L 5044 1947 
Q 5044 2569 4948 2731 
Q 4853 2894 4594 2894 
Q 4300 2894 4137 2667 
Q 3975 2441 3975 2022 
L 3975 378 
L 4372 378 
L 4372 0 
L 2472 0 
L 2472 378 
L 2869 378 
L 2869 1947 
Q 2869 2569 2772 2731 
Q 2675 2894 2419 2894 
Q 2122 2894 1959 2667 
Q 1797 2441 1797 2022 
L 1797 378 
L 2194 378 
L 2194 0 
L 219 0 
L 219 378 
L 691 378 
L 691 2944 
L 219 2944 
L 219 3322 
L 1797 3322 
L 1797 2853 
Q 1991 3144 2241 3278 
Q 2491 3413 2834 3413 
Q 3241 3413 3494 3258 
Q 3747 3103 3884 2778 
z
" transform="scale(0.015625)"/>
      <path id="DejaVuSerif-Bold-44" d="M 3525 2041 
L 3525 378 
L 4000 378 
L 4000 0 
L 2419 0 
L 2419 422 
Q 2200 159 1931 34 
Q 1663 -91 1319 -91 
Q 809 -91 536 182 
Q 263 456 263 966 
Q 263 1525 655 1803 
Q 1047 2081 1838 2081 
L 2419 2081 
L 2419 2278 
Q 2419 2681 2228 2873 
Q 2038 3066 1638 3066 
Q 1306 3066 1126 2930 
Q 947 2794 872 2484 
L 519 2484 
L 519 3200 
Q 816 3306 1134 3359 
Q 1453 3413 1806 3413 
Q 2697 3413 3111 3081 
Q 3525 2750 3525 2041 
z
M 2419 1044 
L 2419 1709 
L 2003 1709 
Q 1694 1709 1528 1540 
Q 1363 1372 1363 1056 
Q 1363 741 1483 584 
Q 1603 428 1850 428 
Q 2106 428 2262 597 
Q 2419 766 2419 1044 
z
" transform="scale(0.015625)"/>
      <path id="DejaVuSerif-Bold-55" d="M 3438 3359 
L 3438 2369 
L 3084 2369 
Q 3066 2634 2941 2764 
Q 2816 2894 2578 2894 
Q 2216 2894 2006 2575 
Q 1797 2256 1797 1691 
L 1797 378 
L 2400 378 
L 2400 0 
L 219 0 
L 219 378 
L 691 378 
L 691 2944 
L 184 2944 
L 184 3322 
L 1797 3322 
L 1797 2731 
Q 1959 3078 2226 3245 
Q 2494 3413 2881 3413 
Q 2978 3413 3117 3398 
Q 3256 3384 3438 3359 
z
" transform="scale(0.015625)"/>
      <path id="DejaVuSerif-Bold-4e" d="M 2216 0 
L 219 0 
L 219 378 
L 691 378 
L 691 4488 
L 219 4488 
L 219 4863 
L 1797 4863 
L 1797 1741 
L 3138 2944 
L 2741 2944 
L 2741 3322 
L 4256 3322 
L 4256 2944 
L 3641 2944 
L 2784 2175 
L 4184 378 
L 4544 378 
L 4544 0 
L 2638 0 
L 2638 378 
L 3028 378 
L 2106 1563 
L 1797 1288 
L 1797 378 
L 2216 378 
L 2216 0 
z
" transform="scale(0.015625)"/>
      <path id="DejaVuSerif-Bold-35" d="M 3397 2278 
Q 3675 2238 3865 2094 
Q 4056 1950 4197 1678 
L 4878 378 
L 5356 378 
L 5356 0 
L 3822 0 
L 3078 1409 
Q 2863 1847 2711 1967 
Q 2559 2088 2291 2088 
L 2100 2088 
L 2100 378 
L 2700 378 
L 2700 0 
L 300 0 
L 300 378 
L 897 378 
L 897 4288 
L 300 4288 
L 300 4666 
L 2963 4666 
Q 3775 4666 4217 4339 
Q 4659 4013 4659 3413 
Q 4659 2925 4345 2642 
Q 4031 2359 3397 2278 
z
M 2100 2463 
L 2509 2463 
Q 2947 2463 3183 2700 
Q 3419 2938 3419 3378 
Q 3419 3819 3183 4053 
Q 2947 4288 2509 4288 
L 2100 4288 
L 2100 2463 
z
" transform="scale(0.015625)"/>
      <path id="DejaVuSerif-Bold-56" d="M 300 97 
L 300 1025 
L 653 1025 
Q 697 653 931 458 
Q 1166 263 1569 263 
Q 1906 263 2086 380 
Q 2266 497 2266 716 
Q 2266 916 2152 1025 
Q 2038 1134 1709 1216 
L 1253 1331 
Q 738 1459 506 1698 
Q 275 1938 275 2344 
Q 275 2884 650 3148 
Q 1025 3413 1806 3413 
Q 2100 3413 2433 3364 
Q 2766 3316 3169 3213 
L 3169 2375 
L 2816 2375 
Q 2788 2716 2573 2887 
Q 2359 3059 1959 3059 
Q 1622 3059 1448 2951 
Q 1275 2844 1275 2638 
Q 1275 2469 1375 2372 
Q 1475 2275 1734 2209 
L 2188 2094 
Q 2841 1928 3091 1684 
Q 3341 1441 3341 1006 
Q 3341 444 2939 176 
Q 2538 -91 1691 -91 
Q 1381 -91 1034 -44 
Q 688 3 300 97 
z
" transform="scale(0.015625)"/>
      <path id="DejaVuSerif-Bold-58" d="M 3963 3322 
L 3963 378 
L 4434 378 
L 4434 0 
L 2853 0 
L 2853 469 
Q 2656 172 2400 40 
Q 2144 -91 1753 -91 
Q 1194 -91 908 239 
Q 622 569 622 1209 
L 622 2944 
L 147 2944 
L 147 3322 
L 1728 3322 
L 1728 1381 
Q 1728 763 1831 595 
Q 1934 428 2209 428 
Q 2544 428 2698 675 
Q 2853 922 2853 1459 
L 2853 2944 
L 2450 2944 
L 2450 3322 
L 3963 3322 
z
" transform="scale(0.015625)"/>
      <path id="DejaVuSerif-Bold-4f" d="M 1797 378 
L 2272 378 
L 2272 0 
L 219 0 
L 219 378 
L 691 378 
L 691 4488 
L 219 4488 
L 219 4863 
L 1797 4863 
L 1797 378 
z
" transform="scale(0.015625)"/>
     </defs>
     <use xlink:href="#DejaVuSerif-Bold-37"/>
     <use xlink:href="#DejaVuSerif-Bold-5a" transform="translate(63.4375 0)"/>
     <use xlink:href="#DejaVuSerif-Bold-4c" transform="translate(149.515625 0)"/>
     <use xlink:href="#DejaVuSerif-Bold-25" transform="translate(187.5 0)"/>
     <use xlink:href="#DejaVuSerif-Bold-52" transform="translate(272.015625 0)"/>
     <use xlink:href="#DejaVuSerif-Bold-57" transform="translate(338.71875 0)"/>
     <use xlink:href="#DejaVuSerif-Bold-10" transform="translate(384.90625 0)"/>
     <use xlink:href="#DejaVuSerif-Bold-15" transform="translate(426.40625 0)"/>
     <use xlink:href="#DejaVuSerif-Bold-13" transform="translate(495.984375 0)"/>
     <use xlink:href="#DejaVuSerif-Bold-3" transform="translate(565.5625 0)"/>
     <use xlink:href="#DejaVuSerif-Bold-25" transform="translate(600.375 0)"/>
     <use xlink:href="#DejaVuSerif-Bold-48" transform="translate(684.890625 0)"/>
     <use xlink:href="#DejaVuSerif-Bold-51" transform="translate(748.515625 0)"/>
     <use xlink:href="#DejaVuSerif-Bold-46" transform="translate(821.21875 0)"/>
     <use xlink:href="#DejaVuSerif-Bold-4b" transform="translate(882.109375 0)"/>
     <use xlink:href="#DejaVuSerif-Bold-50" transform="translate(954.8125 0)"/>
     <use xlink:href="#DejaVuSerif-Bold-44" transform="translate(1060.625 0)"/>
     <use xlink:href="#DejaVuSerif-Bold-55" transform="translate(1125.421875 0)"/>
     <use xlink:href="#DejaVuSerif-Bold-4e" transform="translate(1178.109375 0)"/>
     <use xlink:href="#DejaVuSerif-Bold-3" transform="translate(1247.390625 0)"/>
     <use xlink:href="#DejaVuSerif-Bold-35" transform="translate(1282.203125 0)"/>
     <use xlink:href="#DejaVuSerif-Bold-48" transform="translate(1365.3125 0)"/>
     <use xlink:href="#DejaVuSerif-Bold-56" transform="translate(1428.9375 0)"/>
     <use xlink:href="#DejaVuSerif-Bold-58" transform="translate(1485.234375 0)"/>
     <use xlink:href="#DejaVuSerif-Bold-4f" transform="translate(1557.9375 0)"/>
     <use xlink:href="#DejaVuSerif-Bold-57" transform="translate(1595.921875 0)"/>
     <use xlink:href="#DejaVuSerif-Bold-56" transform="translate(1642.109375 0)"/>
    </g>
   </g>
   <g id="legend_1">
    <g id="patch_21">
     <path d="M 496.283672 292.134453 
L 585.687422 292.134453 
Q 587.487422 292.134453 587.487422 290.334453 
L 587.487422 264.233047 
Q 587.487422 262.433047 585.687422 262.433047 
L 496.283672 262.433047 
Q 494.483672 262.433047 494.483672 264.233047 
L 494.483672 290.334453 
Q 494.483672 292.134453 496.283672 292.134453 
z
" style="fill: #161b22; opacity: 0.9; stroke: #30363d; stroke-linejoin: miter"/>
    </g>
    <g id="patch_22">
     <path d="M 498.083672 272.871641 
L 516.083672 272.871641 
L 516.083672 266.571641 
L 498.083672 266.571641 
z
" style="fill: #58a6ff; stroke: #0d1117; stroke-width: 0.6; stroke-linejoin: miter"/>
    </g>
    <g id="text_37">
     <!-- Accuracy (%) -->
     <g style="fill: #c9d1d9" transform="translate(523.283672 272.871641) scale(0.09 -0.09)">
      <defs>
       <path id="DejaVuSerif-58" d="M 2266 3322 
L 3341 3322 
L 3341 331 
L 3884 331 
L 3884 0 
L 2766 0 
L 2766 588 
Q 2606 256 2353 82 
Q 2100 -91 1766 -91 
Q 1213 -91 952 223 
Q 691 538 691 1209 
L 691 2988 
L 172 2988 
L 172 3322 
L 1269 3322 
L 1269 1388 
Q 1269 781 1417 556 
Q 1566 331 1947 331 
Q 2347 331 2556 625 
Q 2766 919 2766 1478 
L 2766 2988 
L 2266 2988 
L 2266 3322 
z
" transform="scale(0.015625)"/>
       <path id="DejaVuSerif-5c" d="M 1381 -609 
L 1600 -56 
L 359 2988 
L -19 2988 
L -19 3322 
L 1509 3322 
L 1509 2988 
L 978 2988 
L 1913 703 
L 2847 2988 
L 2350 2988 
L 2350 3322 
L 3597 3322 
L 3597 2988 
L 3225 2988 
L 1703 -750 
Q 1547 -1138 1356 -1280 
Q 1166 -1422 819 -1422 
Q 672 -1422 517 -1397 
Q 363 -1372 206 -1325 
L 206 -691 
L 500 -691 
Q 519 -903 608 -995 
Q 697 -1088 884 -1088 
Q 1056 -1088 1161 -992 
Q 1266 -897 1381 -609 
z
" transform="scale(0.015625)"/>
      </defs>
      <use xlink:href="#DejaVuSerif-24"/>
      <use xlink:href="#DejaVuSerif-46" transform="translate(72.21875 0)"/>
      <use xlink:href="#DejaVuSerif-46" transform="translate(128.21875 0)"/>
      <use xlink:href="#DejaVuSerif-58" transform="translate(184.21875 0)"/>
      <use xlink:href="#DejaVuSerif-55" transform="translate(248.625 0)"/>
      <use xlink:href="#DejaVuSerif-44" transform="translate(296.421875 0)"/>
      <use xlink:href="#DejaVuSerif-46" transform="translate(356.046875 0)"/>
      <use xlink:href="#DejaVuSerif-5c" transform="translate(412.046875 0)"/>
      <use xlink:href="#DejaVuSerif-3" transform="translate(468.546875 0)"/>
      <use xlink:href="#DejaVuSerif-b" transform="translate(500.328125 0)"/>
      <use xlink:href="#DejaVuSerif-8" transform="translate(539.34375 0)"/>
      <use xlink:href="#DejaVuSerif-c" transform="translate(634.359375 0)"/>
     </g>
    </g>
    <g id="patch_23">
     <path d="M 498.083672 286.372344 
L 516.083672 286.372344 
L 516.083672 280.072344 
L 498.083672 280.072344 
z
" style="fill: #f778ba; stroke: #0d1117; stroke-width: 0.6; stroke-linejoin: miter"/>
    </g>
    <g id="text_38">
     <!-- F1 Score (%) -->
     <g style="fill: #c9d1d9" transform="translate(523.283672 286.372344) scale(0.09 -0.09)">
      <defs>
       <path id="DejaVuSerif-29" d="M 353 0 
L 353 331 
L 947 331 
L 947 4331 
L 353 4331 
L 353 4666 
L 4172 4666 
L 4172 3628 
L 3788 3628 
L 3788 4281 
L 1581 4281 
L 1581 2719 
L 3175 2719 
L 3175 3303 
L 3559 3303 
L 3559 1753 
L 3175 1753 
L 3175 2338 
L 1581 2338 
L 1581 331 
L 2328 331 
L 2328 0 
L 353 0 
z
" transform="scale(0.015625)"/>
       <path id="DejaVuSerif-14" d="M 909 0 
L 909 331 
L 1722 331 
L 1722 4213 
L 781 3603 
L 781 4013 
L 1919 4750 
L 2350 4750 
L 2350 331 
L 3163 331 
L 3163 0 
L 909 0 
z
" transform="scale(0.015625)"/>
      </defs>
      <use xlink:href="#DejaVuSerif-29"/>
      <use xlink:href="#DejaVuSerif-14" transform="translate(69.390625 0)"/>
      <use xlink:href="#DejaVuSerif-3" transform="translate(133.015625 0)"/>
      <use xlink:href="#DejaVuSerif-36" transform="translate(164.796875 0)"/>
      <use xlink:href="#DejaVuSerif-46" transform="translate(233.296875 0)"/>
      <use xlink:href="#DejaVuSerif-52" transform="translate(289.296875 0)"/>
      <use xlink:href="#DejaVuSerif-55" transform="translate(349.5 0)"/>
      <use xlink:href="#DejaVuSerif-48" transform="translate(397.296875 0)"/>
      <use xlink:href="#DejaVuSerif-3" transform="translate(456.484375 0)"/>
      <use xlink:href="#DejaVuSerif-b" transform="translate(488.265625 0)"/>
      <use xlink:href="#DejaVuSerif-8" transform="translate(527.28125 0)"/>
      <use xlink:href="#DejaVuSerif-c" transform="translate(622.296875 0)"/>
     </g>
    </g>
   </g>
  </g>
 </g>
 <defs>
  <clipPath id="p1aab234c1b">
   <rect x="47.827422" y="25.477969" width="544.16" height="271.156484"/>
  </clipPath>
 </defs>
</svg>
