<?xml version="1.0" encoding="utf-8" standalone="no"?>
<!DOCTYPE svg PUBLIC "-//W3C//DTD SVG 1.1//EN"
  "http://www.w3.org/Graphics/SVG/1.1/DTD/svg11.dtd">
<svg xmlns:xlink="http://www.w3.org/1999/xlink" width="615.568722pt" height="280.718125pt" viewBox="0 0 615.568722 280.718125" xmlns="http://www.w3.org/2000/svg" version="1.1">
 <metadata>
  <rdf:RDF xmlns:dc="http://purl.org/dc/elements/1.1/" xmlns:cc="http://creativecommons.org/ns#" xmlns:rdf="http://www.w3.org/1999/02/22-rdf-syntax-ns#">
   <cc:Work>
    <dc:type rdf:resource="http://purl.org/dc/dcmitype/StillImage"/>
    <dc:date>2026-07-03T08:46:08.921041</dc:date>
    <dc:format>image/svg+xml</dc:format>
    <dc:creator>
     <cc:Agent>
      <dc:title>Matplotlib v3.11.0, https://matplotlib.org/</dc:title>
     </cc:Agent>
    </dc:creator>
   </cc:Work>
  </rdf:RDF>
 </metadata>
 <defs>
  <style type="text/css">*{stroke-linejoin: round; stroke-linecap: butt}</style>
 </defs>
 <g id="figure_1">
  <g id="patch_1">
   <path d="M 0 280.718125 
L 615.568722 280.718125 
L 615.568722 0 
L 0 0 
z
" style="fill: #0d1117"/>
  </g>
  <g id="axes_1">
   <g id="patch_2">
    <path d="M 44.103906 242.515781 
L 317.089744 242.515781 
L 317.089744 26.318125 
L 44.103906 26.318125 
z
" style="fill: #0d1117"/>
   </g>
   <g id="patch_3">
    <path d="M 205.920187 242.515781 
L 304.681297 242.515781 
L 304.681297 26.318125 
L 205.920187 26.318125 
z
" clip-path="url(#p04e118d62e)" style="fill: #f778ba; opacity: 0.08; stroke: #f778ba; stroke-linejoin: miter"/>
   </g>
   <g id="matplotlib.axis_1">
    <g id="xtick_1">
     <g id="line2d_1">
      <path d="M 53.980017 242.515781 
L 53.980017 26.318125 
" clip-path="url(#p04e118d62e)" style="fill: none; stroke: #30363d; stroke-opacity: 0.2; stroke-width: 0.8; stroke-linecap: square"/>
     </g>
     <g id="line2d_2">
      <defs>
       <path id="md6a9889045" d="M 0 0 
L 0 3.5 
" style="stroke: #8b949e; stroke-width: 0.8"/>
      </defs>
      <g>
       <use xlink:href="#md6a9889045" x="53.980017" y="242.515781" style="fill: #8b949e; stroke: #8b949e; stroke-width: 0.8"/>
      </g>
     </g>
     <g id="text_1">
      <!-- 0.0 -->
      <g style="fill: #8b949e" transform="translate(46.028455 257.113437) scale(0.1 -0.1)">
       <defs>
        <path id="DejaVuSerif-13" d="M 2034 219 
Q 2513 219 2750 744 
Q 2988 1269 2988 2328 
Q 2988 3391 2750 3916 
Q 2513 4441 2034 4441 
Q 1556 4441 1318 3916 
Q 1081 3391 1081 2328 
Q 1081 1269 1318 744 
Q 1556 219 2034 219 
z
M 2034 -91 
Q 1275 -91 848 546 
Q 422 1184 422 2328 
Q 422 3475 848 4112 
Q 1275 4750 2034 4750 
Q 2797 4750 3222 4112 
Q 3647 3475 3647 2328 
Q 3647 1184 3222 546 
Q 2797 -91 2034 -91 
z
" transform="scale(0.015625)"/>
        <path id="DejaVuSerif-11" d="M 603 325 
Q 603 500 722 622 
Q 841 744 1019 744 
Q 1191 744 1312 622 
Q 1434 500 1434 325 
Q 1434 153 1312 31 
Q 1191 -91 1019 -91 
Q 841 -91 722 29 
Q 603 150 603 325 
z
" transform="scale(0.015625)"/>
       </defs>
       <use xlink:href="#DejaVuSerif-13"/>
       <use xlink:href="#DejaVuSerif-11" transform="translate(63.625 0)"/>
       <use xlink:href="#DejaVuSerif-13" transform="translate(95.40625 0)"/>
      </g>
     </g>
    </g>
    <g id="xtick_2">
     <g id="line2d_3">
      <path d="M 104.62674 242.515781 
L 104.62674 26.318125 
" clip-path="url(#p04e118d62e)" style="fill: none; stroke: #30363d; stroke-opacity: 0.2; stroke-width: 0.8; stroke-linecap: square"/>
     </g>
     <g id="line2d_4">
      <g>
       <use xlink:href="#md6a9889045" x="104.62674" y="242.515781" style="fill: #8b949e; stroke: #8b949e; stroke-width: 0.8"/>
      </g>
     </g>
     <g id="text_2">
      <!-- 0.2 -->
      <g style="fill: #8b949e" transform="translate(96.675178 257.113437) scale(0.1 -0.1)">
       <defs>
        <path id="DejaVuSerif-15" d="M 819 3553 
L 469 3553 
L 469 4384 
Q 803 4563 1142 4656 
Q 1481 4750 1806 4750 
Q 2534 4750 2956 4397 
Q 3378 4044 3378 3438 
Q 3378 2753 2422 1800 
Q 2347 1728 2309 1691 
L 1131 513 
L 3078 513 
L 3078 1088 
L 3444 1088 
L 3444 0 
L 434 0 
L 434 341 
L 1850 1753 
Q 2319 2222 2519 2614 
Q 2719 3006 2719 3438 
Q 2719 3909 2473 4175 
Q 2228 4441 1797 4441 
Q 1350 4441 1106 4219 
Q 863 3997 819 3553 
z
" transform="scale(0.015625)"/>
       </defs>
       <use xlink:href="#DejaVuSerif-13"/>
       <use xlink:href="#DejaVuSerif-11" transform="translate(63.625 0)"/>
       <use xlink:href="#DejaVuSerif-15" transform="translate(95.40625 0)"/>
      </g>
     </g>
    </g>
    <g id="xtick_3">
     <g id="line2d_5">
      <path d="M 155.273464 242.515781 
L 155.273464 26.318125 
" clip-path="url(#p04e118d62e)" style="fill: none; stroke: #30363d; stroke-opacity: 0.2; stroke-width: 0.8; stroke-linecap: square"/>
     </g>
     <g id="line2d_6">
      <g>
       <use xlink:href="#md6a9889045" x="155.273464" y="242.515781" style="fill: #8b949e; stroke: #8b949e; stroke-width: 0.8"/>
      </g>
     </g>
     <g id="text_3">
      <!-- 0.4 -->
      <g style="fill: #8b949e" transform="translate(147.321901 257.113437) scale(0.1 -0.1)">
       <defs>
        <path id="DejaVuSerif-17" d="M 2234 1581 
L 2234 4063 
L 641 1581 
L 2234 1581 
z
M 3609 0 
L 1484 0 
L 1484 331 
L 2234 331 
L 2234 1247 
L 197 1247 
L 197 1588 
L 2241 4750 
L 2859 4750 
L 2859 1581 
L 3750 1581 
L 3750 1247 
L 2859 1247 
L 2859 331 
L 3609 331 
L 3609 0 
z
" transform="scale(0.015625)"/>
       </defs>
       <use xlink:href="#DejaVuSerif-13"/>
       <use xlink:href="#DejaVuSerif-11" transform="translate(63.625 0)"/>
       <use xlink:href="#DejaVuSerif-17" transform="translate(95.40625 0)"/>
      </g>
     </g>
    </g>
    <g id="xtick_4">
     <g id="line2d_7">
      <path d="M 205.920187 242.515781 
L 205.920187 26.318125 
" clip-path="url(#p04e118d62e)" style="fill: none; stroke: #30363d; stroke-opacity: 0.2; stroke-width: 0.8; stroke-linecap: square"/>
     </g>
     <g id="line2d_8">
      <g>
       <use xlink:href="#md6a9889045" x="205.920187" y="242.515781" style="fill: #8b949e; stroke: #8b949e; stroke-width: 0.8"/>
      </g>
     </g>
     <g id="text_4">
      <!-- 0.6 -->
      <g style="fill: #8b949e" transform="translate(197.968624 257.113437) scale(0.1 -0.1)">
       <defs>
        <path id="DejaVuSerif-19" d="M 2094 219 
Q 2534 219 2771 542 
Q 3009 866 3009 1472 
Q 3009 2078 2771 2401 
Q 2534 2725 2094 2725 
Q 1647 2725 1412 2412 
Q 1178 2100 1178 1509 
Q 1178 888 1415 553 
Q 1653 219 2094 219 
z
M 1075 2569 
Q 1288 2803 1556 2918 
Q 1825 3034 2163 3034 
Q 2859 3034 3264 2615 
Q 3669 2197 3669 1472 
Q 3669 763 3233 336 
Q 2797 -91 2069 -91 
Q 1278 -91 853 498 
Q 428 1088 428 2181 
Q 428 3406 931 4078 
Q 1434 4750 2350 4750 
Q 2597 4750 2869 4703 
Q 3141 4656 3425 4563 
L 3425 3794 
L 3072 3794 
Q 3034 4109 2831 4275 
Q 2628 4441 2284 4441 
Q 1678 4441 1381 3981 
Q 1084 3522 1075 2569 
z
" transform="scale(0.015625)"/>
       </defs>
       <use xlink:href="#DejaVuSerif-13"/>
       <use xlink:href="#DejaVuSerif-11" transform="translate(63.625 0)"/>
       <use xlink:href="#DejaVuSerif-19" transform="translate(95.40625 0)"/>
      </g>
     </g>
    </g>
    <g id="xtick_5">
     <g id="line2d_9">
      <path d="M 256.56691 242.515781 
L 256.56691 26.318125 
" clip-path="url(#p04e118d62e)" style="fill: none; stroke: #30363d; stroke-opacity: 0.2; stroke-width: 0.8; stroke-linecap: square"/>
     </g>
     <g id="line2d_10">
      <g>
       <use xlink:href="#md6a9889045" x="256.56691" y="242.515781" style="fill: #8b949e; stroke: #8b949e; stroke-width: 0.8"/>
      </g>
     </g>
     <g id="text_5">
      <!-- 0.8 -->
      <g style="fill: #8b949e" transform="translate(248.615348 257.113437) scale(0.1 -0.1)">
       <defs>
        <path id="DejaVuSerif-1b" d="M 2981 1275 
Q 2981 1775 2732 2051 
Q 2484 2328 2034 2328 
Q 1584 2328 1336 2051 
Q 1088 1775 1088 1275 
Q 1088 772 1336 495 
Q 1584 219 2034 219 
Q 2484 219 2732 495 
Q 2981 772 2981 1275 
z
M 2853 3541 
Q 2853 3966 2637 4203 
Q 2422 4441 2034 4441 
Q 1650 4441 1433 4203 
Q 1216 3966 1216 3541 
Q 1216 3113 1433 2875 
Q 1650 2638 2034 2638 
Q 2422 2638 2637 2875 
Q 2853 3113 2853 3541 
z
M 2516 2484 
Q 3047 2413 3344 2092 
Q 3641 1772 3641 1275 
Q 3641 619 3225 264 
Q 2809 -91 2034 -91 
Q 1263 -91 845 264 
Q 428 619 428 1275 
Q 428 1772 725 2092 
Q 1022 2413 1556 2484 
Q 1084 2569 832 2842 
Q 581 3116 581 3541 
Q 581 4103 968 4426 
Q 1356 4750 2034 4750 
Q 2713 4750 3100 4426 
Q 3488 4103 3488 3541 
Q 3488 3116 3236 2842 
Q 2984 2569 2516 2484 
z
" transform="scale(0.015625)"/>
       </defs>
       <use xlink:href="#DejaVuSerif-13"/>
       <use xlink:href="#DejaVuSerif-11" transform="translate(63.625 0)"/>
       <use xlink:href="#DejaVuSerif-1b" transform="translate(95.40625 0)"/>
      </g>
     </g>
    </g>
    <g id="xtick_6">
     <g id="line2d_11">
      <path d="M 307.213633 242.515781 
L 307.213633 26.318125 
" clip-path="url(#p04e118d62e)" style="fill: none; stroke: #30363d; stroke-opacity: 0.2; stroke-width: 0.8; stroke-linecap: square"/>
     </g>
     <g id="line2d_12">
      <g>
       <use xlink:href="#md6a9889045" x="307.213633" y="242.515781" style="fill: #8b949e; stroke: #8b949e; stroke-width: 0.8"/>
      </g>
     </g>
     <g id="text_6">
      <!-- 1.0 -->
      <g style="fill: #8b949e" transform="translate(299.262071 257.113437) scale(0.1 -0.1)">
       <defs>
        <path id="DejaVuSerif-14" d="M 909 0 
L 909 331 
L 1722 331 
L 1722 4213 
L 781 3603 
L 781 4013 
L 1919 4750 
L 2350 4750 
L 2350 331 
L 3163 331 
L 3163 0 
L 909 0 
z
" transform="scale(0.015625)"/>
       </defs>
       <use xlink:href="#DejaVuSerif-14"/>
       <use xlink:href="#DejaVuSerif-11" transform="translate(63.625 0)"/>
       <use xlink:href="#DejaVuSerif-13" transform="translate(95.40625 0)"/>
      </g>
     </g>
    </g>
    <g id="text_7">
     <!-- Predicted probability for true class  $p_t$ -->
     <g style="fill: #c9d1d9" transform="translate(83.896825 271.115781) scale(0.1 -0.1)">
      <defs>
       <path id="DejaVuSerif-33" d="M 1581 2375 
L 2406 2375 
Q 2872 2375 3115 2626 
Q 3359 2878 3359 3353 
Q 3359 3831 3115 4081 
Q 2872 4331 2406 4331 
L 1581 4331 
L 1581 2375 
z
M 353 0 
L 353 331 
L 947 331 
L 947 4331 
L 353 4331 
L 353 4666 
L 2559 4666 
Q 3259 4666 3668 4311 
Q 4078 3956 4078 3353 
Q 4078 2753 3668 2397 
Q 3259 2041 2559 2041 
L 1581 2041 
L 1581 331 
L 2303 331 
L 2303 0 
L 353 0 
z
" transform="scale(0.015625)"/>
       <path id="DejaVuSerif-55" d="M 3059 3328 
L 3059 2497 
L 2728 2497 
Q 2713 2744 2591 2866 
Q 2469 2988 2234 2988 
Q 1809 2988 1582 2694 
Q 1356 2400 1356 1850 
L 1356 331 
L 2022 331 
L 2022 0 
L 263 0 
L 263 331 
L 781 331 
L 781 2994 
L 231 2994 
L 231 3322 
L 1356 3322 
L 1356 2731 
Q 1525 3078 1790 3245 
Q 2056 3413 2438 3413 
Q 2578 3413 2733 3391 
Q 2888 3369 3059 3328 
z
" transform="scale(0.015625)"/>
       <path id="DejaVuSerif-48" d="M 3469 1600 
L 991 1600 
L 991 1575 
Q 991 903 1244 561 
Q 1497 219 1991 219 
Q 2369 219 2611 417 
Q 2853 616 2950 1006 
L 3413 1006 
Q 3275 459 2904 184 
Q 2534 -91 1931 -91 
Q 1203 -91 761 389 
Q 319 869 319 1663 
Q 319 2450 753 2931 
Q 1188 3413 1894 3413 
Q 2647 3413 3050 2948 
Q 3453 2484 3469 1600 
z
M 2791 1931 
Q 2772 2513 2545 2808 
Q 2319 3103 1894 3103 
Q 1497 3103 1269 2806 
Q 1041 2509 991 1931 
L 2791 1931 
z
" transform="scale(0.015625)"/>
       <path id="DejaVuSerif-47" d="M 3359 331 
L 3909 331 
L 3909 0 
L 2784 0 
L 2784 519 
Q 2616 206 2355 57 
Q 2094 -91 1709 -91 
Q 1097 -91 708 395 
Q 319 881 319 1663 
Q 319 2444 706 2928 
Q 1094 3413 1709 3413 
Q 2094 3413 2355 3264 
Q 2616 3116 2784 2803 
L 2784 4531 
L 2241 4531 
L 2241 4863 
L 3359 4863 
L 3359 331 
z
M 2784 1497 
L 2784 1825 
Q 2784 2422 2554 2737 
Q 2325 3053 1888 3053 
Q 1444 3053 1217 2703 
Q 991 2353 991 1663 
Q 991 975 1217 622 
Q 1444 269 1888 269 
Q 2325 269 2554 583 
Q 2784 897 2784 1497 
z
" transform="scale(0.015625)"/>
       <path id="DejaVuSerif-4c" d="M 622 4353 
Q 622 4497 726 4603 
Q 831 4709 978 4709 
Q 1122 4709 1226 4603 
Q 1331 4497 1331 4353 
Q 1331 4206 1228 4103 
Q 1125 4000 978 4000 
Q 831 4000 726 4103 
Q 622 4206 622 4353 
z
M 1356 331 
L 1900 331 
L 1900 0 
L 231 0 
L 231 331 
L 781 331 
L 781 2988 
L 231 2988 
L 231 3322 
L 1356 3322 
L 1356 331 
z
" transform="scale(0.015625)"/>
       <path id="DejaVuSerif-46" d="M 3291 997 
Q 3169 466 2822 187 
Q 2475 -91 1925 -91 
Q 1200 -91 759 389 
Q 319 869 319 1663 
Q 319 2459 759 2936 
Q 1200 3413 1925 3413 
Q 2241 3413 2553 3339 
Q 2866 3266 3181 3116 
L 3181 2266 
L 2847 2266 
Q 2781 2703 2561 2903 
Q 2341 3103 1931 3103 
Q 1466 3103 1228 2742 
Q 991 2381 991 1663 
Q 991 944 1227 581 
Q 1463 219 1931 219 
Q 2303 219 2525 412 
Q 2747 606 2828 997 
L 3291 997 
z
" transform="scale(0.015625)"/>
       <path id="DejaVuSerif-57" d="M 691 2988 
L 184 2988 
L 184 3322 
L 691 3322 
L 691 4353 
L 1269 4353 
L 1269 3322 
L 2350 3322 
L 2350 2988 
L 1269 2988 
L 1269 878 
Q 1269 456 1350 337 
Q 1431 219 1650 219 
Q 1875 219 1978 351 
Q 2081 484 2088 781 
L 2522 781 
Q 2497 328 2275 118 
Q 2053 -91 1600 -91 
Q 1103 -91 897 129 
Q 691 350 691 878 
L 691 2988 
z
" transform="scale(0.015625)"/>
       <path id="DejaVuSerif-3" transform="scale(0.015625)"/>
       <path id="DejaVuSerif-53" d="M 1313 1825 
L 1313 1497 
Q 1313 897 1542 583 
Q 1772 269 2209 269 
Q 2650 269 2876 622 
Q 3103 975 3103 1663 
Q 3103 2353 2876 2703 
Q 2650 3053 2209 3053 
Q 1772 3053 1542 2737 
Q 1313 2422 1313 1825 
z
M 738 2988 
L 184 2988 
L 184 3322 
L 1313 3322 
L 1313 2803 
Q 1481 3116 1742 3264 
Q 2003 3413 2388 3413 
Q 3000 3413 3387 2928 
Q 3775 2444 3775 1663 
Q 3775 881 3387 395 
Q 3000 -91 2388 -91 
Q 2003 -91 1742 57 
Q 1481 206 1313 519 
L 1313 -997 
L 1856 -997 
L 1856 -1331 
L 184 -1331 
L 184 -997 
L 738 -997 
L 738 2988 
z
" transform="scale(0.015625)"/>
       <path id="DejaVuSerif-52" d="M 1925 219 
Q 2388 219 2623 584 
Q 2859 950 2859 1663 
Q 2859 2375 2623 2739 
Q 2388 3103 1925 3103 
Q 1463 3103 1227 2739 
Q 991 2375 991 1663 
Q 991 950 1228 584 
Q 1466 219 1925 219 
z
M 1925 -91 
Q 1200 -91 759 389 
Q 319 869 319 1663 
Q 319 2456 758 2934 
Q 1197 3413 1925 3413 
Q 2653 3413 3092 2934 
Q 3531 2456 3531 1663 
Q 3531 869 3092 389 
Q 2653 -91 1925 -91 
z
" transform="scale(0.015625)"/>
       <path id="DejaVuSerif-45" d="M 738 331 
L 738 4531 
L 184 4531 
L 184 4863 
L 1313 4863 
L 1313 2803 
Q 1481 3116 1742 3264 
Q 2003 3413 2388 3413 
Q 3000 3413 3387 2928 
Q 3775 2444 3775 1663 
Q 3775 881 3387 395 
Q 3000 -91 2388 -91 
Q 2003 -91 1742 57 
Q 1481 206 1313 519 
L 1313 0 
L 184 0 
L 184 331 
L 738 331 
z
M 1313 1497 
Q 1313 897 1542 583 
Q 1772 269 2209 269 
Q 2650 269 2876 622 
Q 3103 975 3103 1663 
Q 3103 2353 2876 2703 
Q 2650 3053 2209 3053 
Q 1772 3053 1542 2737 
Q 1313 2422 1313 1825 
L 1313 1497 
z
" transform="scale(0.015625)"/>
       <path id="DejaVuSerif-44" d="M 2547 1044 
L 2547 1747 
L 1806 1747 
Q 1378 1747 1168 1562 
Q 959 1378 959 997 
Q 959 650 1171 447 
Q 1384 244 1747 244 
Q 2106 244 2326 466 
Q 2547 688 2547 1044 
z
M 3122 2075 
L 3122 331 
L 3634 331 
L 3634 0 
L 2547 0 
L 2547 359 
Q 2356 128 2106 18 
Q 1856 -91 1522 -91 
Q 969 -91 644 203 
Q 319 497 319 997 
Q 319 1513 691 1797 
Q 1063 2081 1741 2081 
L 2547 2081 
L 2547 2309 
Q 2547 2688 2317 2895 
Q 2088 3103 1672 3103 
Q 1328 3103 1125 2947 
Q 922 2791 872 2484 
L 575 2484 
L 575 3156 
Q 875 3284 1158 3348 
Q 1441 3413 1709 3413 
Q 2400 3413 2761 3070 
Q 3122 2728 3122 2075 
z
" transform="scale(0.015625)"/>
       <path id="DejaVuSerif-4f" d="M 1313 331 
L 1856 331 
L 1856 0 
L 184 0 
L 184 331 
L 738 331 
L 738 4531 
L 184 4531 
L 184 4863 
L 1313 4863 
L 1313 331 
z
" transform="scale(0.015625)"/>
       <path id="DejaVuSerif-5c" d="M 1381 -609 
L 1600 -56 
L 359 2988 
L -19 2988 
L -19 3322 
L 1509 3322 
L 1509 2988 
L 978 2988 
L 1913 703 
L 2847 2988 
L 2350 2988 
L 2350 3322 
L 3597 3322 
L 3597 2988 
L 3225 2988 
L 1703 -750 
Q 1547 -1138 1356 -1280 
Q 1166 -1422 819 -1422 
Q 672 -1422 517 -1397 
Q 363 -1372 206 -1325 
L 206 -691 
L 500 -691 
Q 519 -903 608 -995 
Q 697 -1088 884 -1088 
Q 1056 -1088 1161 -992 
Q 1266 -897 1381 -609 
z
" transform="scale(0.015625)"/>
       <path id="DejaVuSerif-49" d="M 2753 4078 
L 2450 4078 
Q 2447 4313 2317 4434 
Q 2188 4556 1941 4556 
Q 1619 4556 1487 4379 
Q 1356 4203 1356 3750 
L 1356 3322 
L 2284 3322 
L 2284 2988 
L 1356 2988 
L 1356 331 
L 2094 331 
L 2094 0 
L 231 0 
L 231 331 
L 781 331 
L 781 2988 
L 231 2988 
L 231 3322 
L 781 3322 
L 781 3738 
Q 781 4294 1070 4578 
Q 1359 4863 1919 4863 
Q 2128 4863 2337 4825 
Q 2547 4788 2753 4709 
L 2753 4078 
z
" transform="scale(0.015625)"/>
       <path id="DejaVuSerif-58" d="M 2266 3322 
L 3341 3322 
L 3341 331 
L 3884 331 
L 3884 0 
L 2766 0 
L 2766 588 
Q 2606 256 2353 82 
Q 2100 -91 1766 -91 
Q 1213 -91 952 223 
Q 691 538 691 1209 
L 691 2988 
L 172 2988 
L 172 3322 
L 1269 3322 
L 1269 1388 
Q 1269 781 1417 556 
Q 1566 331 1947 331 
Q 2347 331 2556 625 
Q 2766 919 2766 1478 
L 2766 2988 
L 2266 2988 
L 2266 3322 
z
" transform="scale(0.015625)"/>
       <path id="DejaVuSerif-56" d="M 359 184 
L 359 959 
L 691 959 
Q 703 588 923 403 
Q 1144 219 1575 219 
Q 1963 219 2166 364 
Q 2369 509 2369 788 
Q 2369 1006 2220 1140 
Q 2072 1275 1594 1428 
L 1178 1569 
Q 750 1706 558 1912 
Q 366 2119 366 2438 
Q 366 2894 700 3153 
Q 1034 3413 1625 3413 
Q 1888 3413 2178 3344 
Q 2469 3275 2778 3144 
L 2778 2419 
L 2447 2419 
Q 2434 2741 2221 2922 
Q 2009 3103 1644 3103 
Q 1281 3103 1095 2975 
Q 909 2847 909 2591 
Q 909 2381 1050 2254 
Q 1191 2128 1613 1997 
L 2069 1856 
Q 2541 1709 2748 1489 
Q 2956 1269 2956 922 
Q 2956 450 2595 179 
Q 2234 -91 1600 -91 
Q 1278 -91 972 -22 
Q 666 47 359 184 
z
" transform="scale(0.015625)"/>
       <path id="DejaVuSans-Oblique-53" d="M 3175 2156 
Q 3175 2616 2975 2859 
Q 2775 3103 2400 3103 
Q 2144 3103 1911 2972 
Q 1678 2841 1497 2591 
Q 1319 2344 1212 1994 
Q 1106 1644 1106 1300 
Q 1106 863 1306 627 
Q 1506 391 1875 391 
Q 2147 391 2380 519 
Q 2613 647 2778 891 
Q 2956 1147 3065 1494 
Q 3175 1841 3175 2156 
z
M 1394 2969 
Q 1625 3272 1939 3428 
Q 2253 3584 2638 3584 
Q 3175 3584 3472 3232 
Q 3769 2881 3769 2247 
Q 3769 1728 3584 1258 
Q 3400 788 3053 416 
Q 2822 169 2531 39 
Q 2241 -91 1919 -91 
Q 1547 -91 1294 64 
Q 1041 219 916 525 
L 556 -1331 
L -19 -1331 
L 922 3500 
L 1497 3500 
L 1394 2969 
z
" transform="scale(0.015625)"/>
       <path id="DejaVuSans-Oblique-57" d="M 2706 3500 
L 2619 3053 
L 1472 3053 
L 1100 1153 
Q 1081 1047 1072 975 
Q 1063 903 1063 863 
Q 1063 663 1183 572 
Q 1303 481 1569 481 
L 2150 481 
L 2053 0 
L 1503 0 
Q 991 0 739 200 
Q 488 400 488 806 
Q 488 878 497 964 
Q 506 1050 525 1153 
L 897 3053 
L 409 3053 
L 500 3500 
L 978 3500 
L 1172 4494 
L 1747 4494 
L 1556 3500 
L 2706 3500 
z
" transform="scale(0.015625)"/>
      </defs>
      <use xlink:href="#DejaVuSerif-33" transform="translate(0 0.015625)"/>
      <use xlink:href="#DejaVuSerif-55" transform="translate(67.285156 0.015625)"/>
      <use xlink:href="#DejaVuSerif-48" transform="translate(115.087891 0.015625)"/>
      <use xlink:href="#DejaVuSerif-47" transform="translate(174.267578 0.015625)"/>
      <use xlink:href="#DejaVuSerif-4c" transform="translate(238.28125 0.015625)"/>
      <use xlink:href="#DejaVuSerif-46" transform="translate(270.263672 0.015625)"/>
      <use xlink:href="#DejaVuSerif-57" transform="translate(326.269531 0.015625)"/>
      <use xlink:href="#DejaVuSerif-48" transform="translate(366.455078 0.015625)"/>
      <use xlink:href="#DejaVuSerif-47" transform="translate(425.634766 0.015625)"/>
      <use xlink:href="#DejaVuSerif-3" transform="translate(489.648438 0.015625)"/>
      <use xlink:href="#DejaVuSerif-53" transform="translate(521.435547 0.015625)"/>
      <use xlink:href="#DejaVuSerif-55" transform="translate(585.449219 0.015625)"/>
      <use xlink:href="#DejaVuSerif-52" transform="translate(633.251953 0.015625)"/>
      <use xlink:href="#DejaVuSerif-45" transform="translate(693.457031 0.015625)"/>
      <use xlink:href="#DejaVuSerif-44" transform="translate(757.470703 0.015625)"/>
      <use xlink:href="#DejaVuSerif-45" transform="translate(817.089844 0.015625)"/>
      <use xlink:href="#DejaVuSerif-4c" transform="translate(881.103516 0.015625)"/>
      <use xlink:href="#DejaVuSerif-4f" transform="translate(913.085938 0.015625)"/>
      <use xlink:href="#DejaVuSerif-4c" transform="translate(945.068359 0.015625)"/>
      <use xlink:href="#DejaVuSerif-57" transform="translate(977.050781 0.015625)"/>
      <use xlink:href="#DejaVuSerif-5c" transform="translate(1017.236328 0.015625)"/>
      <use xlink:href="#DejaVuSerif-3" transform="translate(1073.730469 0.015625)"/>
      <use xlink:href="#DejaVuSerif-49" transform="translate(1105.517578 0.015625)"/>
      <use xlink:href="#DejaVuSerif-52" transform="translate(1142.529297 0.015625)"/>
      <use xlink:href="#DejaVuSerif-55" transform="translate(1202.734375 0.015625)"/>
      <use xlink:href="#DejaVuSerif-3" transform="translate(1250.537109 0.015625)"/>
      <use xlink:href="#DejaVuSerif-57" transform="translate(1282.324219 0.015625)"/>
      <use xlink:href="#DejaVuSerif-55" transform="translate(1322.509766 0.015625)"/>
      <use xlink:href="#DejaVuSerif-58" transform="translate(1370.3125 0.015625)"/>
      <use xlink:href="#DejaVuSerif-48" transform="translate(1434.716797 0.015625)"/>
      <use xlink:href="#DejaVuSerif-3" transform="translate(1493.896484 0.015625)"/>
      <use xlink:href="#DejaVuSerif-46" transform="translate(1525.683594 0.015625)"/>
      <use xlink:href="#DejaVuSerif-4f" transform="translate(1581.689453 0.015625)"/>
      <use xlink:href="#DejaVuSerif-44" transform="translate(1613.671875 0.015625)"/>
      <use xlink:href="#DejaVuSerif-56" transform="translate(1673.291016 0.015625)"/>
      <use xlink:href="#DejaVuSerif-56" transform="translate(1724.609375 0.015625)"/>
      <use xlink:href="#DejaVuSerif-3" transform="translate(1775.927734 0.015625)"/>
      <use xlink:href="#DejaVuSerif-3" transform="translate(1807.714844 0.015625)"/>
      <use xlink:href="#DejaVuSans-Oblique-53" transform="translate(1839.501953 0.015625)"/>
      <use xlink:href="#DejaVuSans-Oblique-57" transform="translate(1902.978516 -14.984326) scale(0.7)"/>
     </g>
    </g>
   </g>
   <g id="matplotlib.axis_2">
    <g id="ytick_1">
     <g id="line2d_13">
      <path d="M 44.103906 242.515781 
L 317.089744 242.515781 
" clip-path="url(#p04e118d62e)" style="fill: none; stroke: #30363d; stroke-opacity: 0.2; stroke-width: 0.8; stroke-linecap: square"/>
     </g>
     <g id="line2d_14">
      <defs>
       <path id="m5e2a177cec" d="M 0 0 
L -3.5 0 
" style="stroke: #8b949e; stroke-width: 0.8"/>
      </defs>
      <g>
       <use xlink:href="#m5e2a177cec" x="44.103906" y="242.515781" style="fill: #8b949e; stroke: #8b949e; stroke-width: 0.8"/>
      </g>
     </g>
     <g id="text_8">
      <!-- 0.0 -->
      <g style="fill: #8b949e" transform="translate(21.200781 246.314609) scale(0.1 -0.1)">
       <use xlink:href="#DejaVuSerif-13"/>
       <use xlink:href="#DejaVuSerif-11" transform="translate(63.625 0)"/>
       <use xlink:href="#DejaVuSerif-13" transform="translate(95.40625 0)"/>
      </g>
     </g>
    </g>
    <g id="ytick_2">
     <g id="line2d_15">
      <path d="M 44.103906 218.493819 
L 317.089744 218.493819 
" clip-path="url(#p04e118d62e)" style="fill: none; stroke: #30363d; stroke-opacity: 0.2; stroke-width: 0.8; stroke-linecap: square"/>
     </g>
     <g id="line2d_16">
      <g>
       <use xlink:href="#m5e2a177cec" x="44.103906" y="218.493819" style="fill: #8b949e; stroke: #8b949e; stroke-width: 0.8"/>
      </g>
     </g>
     <g id="text_9">
      <!-- 0.5 -->
      <g style="fill: #8b949e" transform="translate(21.200781 222.292648) scale(0.1 -0.1)">
       <defs>
        <path id="DejaVuSerif-18" d="M 3219 4666 
L 3219 4153 
L 1081 4153 
L 1081 2816 
Q 1244 2928 1461 2984 
Q 1678 3041 1947 3041 
Q 2703 3041 3140 2622 
Q 3578 2203 3578 1478 
Q 3578 738 3136 323 
Q 2694 -91 1894 -91 
Q 1572 -91 1234 -12 
Q 897 66 544 225 
L 544 1131 
L 897 1131 
Q 925 688 1179 453 
Q 1434 219 1894 219 
Q 2388 219 2653 544 
Q 2919 869 2919 1478 
Q 2919 2084 2655 2407 
Q 2391 2731 1894 2731 
Q 1613 2731 1398 2631 
Q 1184 2531 1019 2322 
L 750 2322 
L 750 4666 
L 3219 4666 
z
" transform="scale(0.015625)"/>
       </defs>
       <use xlink:href="#DejaVuSerif-13"/>
       <use xlink:href="#DejaVuSerif-11" transform="translate(63.625 0)"/>
       <use xlink:href="#DejaVuSerif-18" transform="translate(95.40625 0)"/>
      </g>
     </g>
    </g>
    <g id="ytick_3">
     <g id="line2d_17">
      <path d="M 44.103906 194.471858 
L 317.089744 194.471858 
" clip-path="url(#p04e118d62e)" style="fill: none; stroke: #30363d; stroke-opacity: 0.2; stroke-width: 0.8; stroke-linecap: square"/>
     </g>
     <g id="line2d_18">
      <g>
       <use xlink:href="#m5e2a177cec" x="44.103906" y="194.471858" style="fill: #8b949e; stroke: #8b949e; stroke-width: 0.8"/>
      </g>
     </g>
     <g id="text_10">
      <!-- 1.0 -->
      <g style="fill: #8b949e" transform="translate(21.200781 198.270686) scale(0.1 -0.1)">
       <use xlink:href="#DejaVuSerif-14"/>
       <use xlink:href="#DejaVuSerif-11" transform="translate(63.625 0)"/>
       <use xlink:href="#DejaVuSerif-13" transform="translate(95.40625 0)"/>
      </g>
     </g>
    </g>
    <g id="ytick_4">
     <g id="line2d_19">
      <path d="M 44.103906 170.449896 
L 317.089744 170.449896 
" clip-path="url(#p04e118d62e)" style="fill: none; stroke: #30363d; stroke-opacity: 0.2; stroke-width: 0.8; stroke-linecap: square"/>
     </g>
     <g id="line2d_20">
      <g>
       <use xlink:href="#m5e2a177cec" x="44.103906" y="170.449896" style="fill: #8b949e; stroke: #8b949e; stroke-width: 0.8"/>
      </g>
     </g>
     <g id="text_11">
      <!-- 1.5 -->
      <g style="fill: #8b949e" transform="translate(21.200781 174.248724) scale(0.1 -0.1)">
       <use xlink:href="#DejaVuSerif-14"/>
       <use xlink:href="#DejaVuSerif-11" transform="translate(63.625 0)"/>
       <use xlink:href="#DejaVuSerif-18" transform="translate(95.40625 0)"/>
      </g>
     </g>
    </g>
    <g id="ytick_5">
     <g id="line2d_21">
      <path d="M 44.103906 146.427934 
L 317.089744 146.427934 
" clip-path="url(#p04e118d62e)" style="fill: none; stroke: #30363d; stroke-opacity: 0.2; stroke-width: 0.8; stroke-linecap: square"/>
     </g>
     <g id="line2d_22">
      <g>
       <use xlink:href="#m5e2a177cec" x="44.103906" y="146.427934" style="fill: #8b949e; stroke: #8b949e; stroke-width: 0.8"/>
      </g>
     </g>
     <g id="text_12">
      <!-- 2.0 -->
      <g style="fill: #8b949e" transform="translate(21.200781 150.226762) scale(0.1 -0.1)">
       <use xlink:href="#DejaVuSerif-15"/>
       <use xlink:href="#DejaVuSerif-11" transform="translate(63.625 0)"/>
       <use xlink:href="#DejaVuSerif-13" transform="translate(95.40625 0)"/>
      </g>
     </g>
    </g>
    <g id="ytick_6">
     <g id="line2d_23">
      <path d="M 44.103906 122.405972 
L 317.089744 122.405972 
" clip-path="url(#p04e118d62e)" style="fill: none; stroke: #30363d; stroke-opacity: 0.2; stroke-width: 0.8; stroke-linecap: square"/>
     </g>
     <g id="line2d_24">
      <g>
       <use xlink:href="#m5e2a177cec" x="44.103906" y="122.405972" style="fill: #8b949e; stroke: #8b949e; stroke-width: 0.8"/>
      </g>
     </g>
     <g id="text_13">
      <!-- 2.5 -->
      <g style="fill: #8b949e" transform="translate(21.200781 126.2048) scale(0.1 -0.1)">
       <use xlink:href="#DejaVuSerif-15"/>
       <use xlink:href="#DejaVuSerif-11" transform="translate(63.625 0)"/>
       <use xlink:href="#DejaVuSerif-18" transform="translate(95.40625 0)"/>
      </g>
     </g>
    </g>
    <g id="ytick_7">
     <g id="line2d_25">
      <path d="M 44.103906 98.38401 
L 317.089744 98.38401 
" clip-path="url(#p04e118d62e)" style="fill: none; stroke: #30363d; stroke-opacity: 0.2; stroke-width: 0.8; stroke-linecap: square"/>
     </g>
     <g id="line2d_26">
      <g>
       <use xlink:href="#m5e2a177cec" x="44.103906" y="98.38401" style="fill: #8b949e; stroke: #8b949e; stroke-width: 0.8"/>
      </g>
     </g>
     <g id="text_14">
      <!-- 3.0 -->
      <g style="fill: #8b949e" transform="translate(21.200781 102.182839) scale(0.1 -0.1)">
       <defs>
        <path id="DejaVuSerif-16" d="M 622 4469 
Q 988 4606 1323 4678 
Q 1659 4750 1953 4750 
Q 2638 4750 3022 4454 
Q 3406 4159 3406 3634 
Q 3406 3213 3140 2930 
Q 2875 2647 2388 2547 
Q 2963 2466 3280 2130 
Q 3597 1794 3597 1259 
Q 3597 606 3158 257 
Q 2719 -91 1894 -91 
Q 1528 -91 1179 -12 
Q 831 66 488 225 
L 488 1131 
L 838 1131 
Q 869 681 1141 450 
Q 1413 219 1906 219 
Q 2384 219 2661 495 
Q 2938 772 2938 1253 
Q 2938 1803 2653 2086 
Q 2369 2369 1819 2369 
L 1522 2369 
L 1522 2688 
L 1678 2688 
Q 2225 2688 2498 2914 
Q 2772 3141 2772 3597 
Q 2772 4006 2547 4223 
Q 2322 4441 1900 4441 
Q 1478 4441 1245 4241 
Q 1013 4041 972 3647 
L 622 3647 
L 622 4469 
z
" transform="scale(0.015625)"/>
       </defs>
       <use xlink:href="#DejaVuSerif-16"/>
       <use xlink:href="#DejaVuSerif-11" transform="translate(63.625 0)"/>
       <use xlink:href="#DejaVuSerif-13" transform="translate(95.40625 0)"/>
      </g>
     </g>
    </g>
    <g id="ytick_8">
     <g id="line2d_27">
      <path d="M 44.103906 74.362049 
L 317.089744 74.362049 
" clip-path="url(#p04e118d62e)" style="fill: none; stroke: #30363d; stroke-opacity: 0.2; stroke-width: 0.8; stroke-linecap: square"/>
     </g>
     <g id="line2d_28">
      <g>
       <use xlink:href="#m5e2a177cec" x="44.103906" y="74.362049" style="fill: #8b949e; stroke: #8b949e; stroke-width: 0.8"/>
      </g>
     </g>
     <g id="text_15">
      <!-- 3.5 -->
      <g style="fill: #8b949e" transform="translate(21.200781 78.160877) scale(0.1 -0.1)">
       <use xlink:href="#DejaVuSerif-16"/>
       <use xlink:href="#DejaVuSerif-11" transform="translate(63.625 0)"/>
       <use xlink:href="#DejaVuSerif-18" transform="translate(95.40625 0)"/>
      </g>
     </g>
    </g>
    <g id="ytick_9">
     <g id="line2d_29">
      <path d="M 44.103906 50.340087 
L 317.089744 50.340087 
" clip-path="url(#p04e118d62e)" style="fill: none; stroke: #30363d; stroke-opacity: 0.2; stroke-width: 0.8; stroke-linecap: square"/>
     </g>
     <g id="line2d_30">
      <g>
       <use xlink:href="#m5e2a177cec" x="44.103906" y="50.340087" style="fill: #8b949e; stroke: #8b949e; stroke-width: 0.8"/>
      </g>
     </g>
     <g id="text_16">
      <!-- 4.0 -->
      <g style="fill: #8b949e" transform="translate(21.200781 54.138915) scale(0.1 -0.1)">
       <use xlink:href="#DejaVuSerif-17"/>
       <use xlink:href="#DejaVuSerif-11" transform="translate(63.625 0)"/>
       <use xlink:href="#DejaVuSerif-13" transform="translate(95.40625 0)"/>
      </g>
     </g>
    </g>
    <g id="ytick_10">
     <g id="line2d_31">
      <path d="M 44.103906 26.318125 
L 317.089744 26.318125 
" clip-path="url(#p04e118d62e)" style="fill: none; stroke: #30363d; stroke-opacity: 0.2; stroke-width: 0.8; stroke-linecap: square"/>
     </g>
     <g id="line2d_32">
      <g>
       <use xlink:href="#m5e2a177cec" x="44.103906" y="26.318125" style="fill: #8b949e; stroke: #8b949e; stroke-width: 0.8"/>
      </g>
     </g>
     <g id="text_17">
      <!-- 4.5 -->
      <g style="fill: #8b949e" transform="translate(21.200781 30.116953) scale(0.1 -0.1)">
       <use xlink:href="#DejaVuSerif-17"/>
       <use xlink:href="#DejaVuSerif-11" transform="translate(63.625 0)"/>
       <use xlink:href="#DejaVuSerif-18" transform="translate(95.40625 0)"/>
      </g>
     </g>
    </g>
    <g id="text_18">
     <!-- Loss contribution -->
     <g style="fill: #c9d1d9" transform="translate(14.798438 178.756797) rotate(-90) scale(0.1 -0.1)">
      <defs>
       <path id="DejaVuSerif-2f" d="M 353 0 
L 353 331 
L 947 331 
L 947 4331 
L 353 4331 
L 353 4666 
L 2175 4666 
L 2175 4331 
L 1581 4331 
L 1581 384 
L 3713 384 
L 3713 1166 
L 4097 1166 
L 4097 0 
L 353 0 
z
" transform="scale(0.015625)"/>
       <path id="DejaVuSerif-51" d="M 263 0 
L 263 331 
L 781 331 
L 781 2988 
L 231 2988 
L 231 3322 
L 1356 3322 
L 1356 2731 
Q 1516 3069 1770 3241 
Q 2025 3413 2363 3413 
Q 2913 3413 3172 3097 
Q 3431 2781 3431 2113 
L 3431 331 
L 3944 331 
L 3944 0 
L 2356 0 
L 2356 331 
L 2853 331 
L 2853 1931 
Q 2853 2541 2703 2767 
Q 2553 2994 2175 2994 
Q 1775 2994 1565 2701 
Q 1356 2409 1356 1850 
L 1356 331 
L 1856 331 
L 1856 0 
L 263 0 
z
" transform="scale(0.015625)"/>
      </defs>
      <use xlink:href="#DejaVuSerif-2f"/>
      <use xlink:href="#DejaVuSerif-52" transform="translate(66.40625 0)"/>
      <use xlink:href="#DejaVuSerif-56" transform="translate(126.609375 0)"/>
      <use xlink:href="#DejaVuSerif-56" transform="translate(177.921875 0)"/>
      <use xlink:href="#DejaVuSerif-3" transform="translate(229.234375 0)"/>
      <use xlink:href="#DejaVuSerif-46" transform="translate(261.015625 0)"/>
      <use xlink:href="#DejaVuSerif-52" transform="translate(317.015625 0)"/>
      <use xlink:href="#DejaVuSerif-51" transform="translate(377.21875 0)"/>
      <use xlink:href="#DejaVuSerif-57" transform="translate(441.625 0)"/>
      <use xlink:href="#DejaVuSerif-55" transform="translate(481.8125 0)"/>
      <use xlink:href="#DejaVuSerif-4c" transform="translate(529.609375 0)"/>
      <use xlink:href="#DejaVuSerif-45" transform="translate(561.59375 0)"/>
      <use xlink:href="#DejaVuSerif-58" transform="translate(625.609375 0)"/>
      <use xlink:href="#DejaVuSerif-57" transform="translate(690.015625 0)"/>
      <use xlink:href="#DejaVuSerif-4c" transform="translate(730.203125 0)"/>
      <use xlink:href="#DejaVuSerif-52" transform="translate(762.1875 0)"/>
      <use xlink:href="#DejaVuSerif-51" transform="translate(822.390625 0)"/>
     </g>
    </g>
   </g>
   <g id="line2d_33">
    <path d="M 56.512353 21.265337 
L 57.759434 40.503436 
L 59.006514 54.203335 
L 60.253594 64.850993 
L 61.500674 73.561685 
L 62.747754 80.932836 
L 63.994834 87.322053 
L 65.241914 92.960458 
L 66.488994 98.006102 
L 68.983155 106.741102 
L 71.477315 114.129638 
L 73.971475 120.531905 
L 76.465635 126.180469 
L 78.959796 131.234244 
L 81.453956 135.806644 
L 83.948116 139.981448 
L 86.442276 143.822306 
L 90.183517 149.062823 
L 93.924757 153.787521 
L 97.665997 158.088905 
L 101.407238 162.036631 
L 105.148478 165.684462 
L 108.889718 169.074763 
L 113.878039 173.252347 
L 118.866359 177.095558 
L 123.85468 180.653976 
L 128.843 183.966915 
L 135.078401 187.810596 
L 141.313802 191.369418 
L 147.549202 194.682706 
L 155.031683 198.378765 
L 162.514164 201.810682 
L 169.996644 205.013707 
L 178.726205 208.499181 
L 187.455766 211.748806 
L 197.432407 215.211975 
L 207.409048 218.442205 
L 218.632769 221.834134 
L 229.85649 225.002303 
L 242.327291 228.293579 
L 256.045172 231.671199 
L 269.763054 234.82688 
L 284.728015 238.048357 
L 300.940057 241.310556 
L 304.681297 242.032924 
L 304.681297 242.032924 
" clip-path="url(#p04e118d62e)" style="fill: none; stroke-dasharray: 1.8,2.97; stroke-dashoffset: 0; stroke: #8b949e; stroke-width: 1.8"/>
   </g>
   <g id="line2d_34">
    <path d="M 56.512353 23.477841 
L 57.759434 43.518394 
L 59.006514 57.941195 
L 60.253594 69.252437 
L 61.500674 78.579367 
L 62.747754 86.527341 
L 63.994834 93.459614 
L 65.241914 99.611537 
L 67.736075 110.173825 
L 70.230235 119.04387 
L 72.724395 126.695656 
L 75.218555 133.426032 
L 77.712715 139.433518 
L 80.206876 144.857599 
L 82.701036 149.800129 
L 85.195196 154.337826 
L 87.689356 158.52996 
L 91.430597 164.269977 
L 95.171837 169.4571 
L 98.913077 174.181702 
L 102.654318 178.512904 
L 106.395558 182.504816 
L 110.136799 186.200632 
L 113.878039 189.635412 
L 118.866359 193.858257 
L 123.85468 197.723482 
L 128.843 201.275607 
L 133.831321 204.550839 
L 138.819641 207.579052 
L 143.807962 210.385207 
L 150.043362 213.612457 
L 156.278763 216.560018 
L 162.514164 219.256601 
L 168.749564 221.726345 
L 176.232045 224.419282 
L 183.714526 226.844962 
L 191.197006 229.02864 
L 198.679487 230.991796 
L 207.409048 233.027889 
L 216.138609 234.81392 
L 224.86817 236.371314 
L 233.59773 237.718532 
L 243.574371 239.021328 
L 253.551012 240.091261 
L 263.527653 240.94632 
L 274.751374 241.670888 
L 285.975095 242.16282 
L 297.198816 242.439113 
L 304.681297 242.510953 
L 304.681297 242.510953 
" clip-path="url(#p04e118d62e)" style="fill: none; stroke-dasharray: 11.52,2.88,1.8,2.88; stroke-dashoffset: 0; stroke: #58a6ff; stroke-width: 1.8"/>
   </g>
   <g id="line2d_35">
    <path d="M 56.512353 25.66822 
L 57.759434 46.488355 
L 59.006514 61.604861 
L 60.253594 73.544841 
L 61.500674 83.448032 
L 62.747754 91.928147 
L 63.994834 99.354448 
L 65.241914 105.966826 
L 67.736075 117.362853 
L 70.230235 126.967168 
L 72.724395 135.268673 
L 75.218555 142.575318 
L 77.712715 149.094243 
L 80.206876 154.971846 
L 82.701036 160.315668 
L 85.195196 165.207199 
L 87.689356 169.709781 
L 90.183517 173.873715 
L 93.924757 179.571589 
L 97.665997 184.705705 
L 101.407238 189.359033 
L 105.148478 193.596684 
L 108.889718 197.470827 
L 112.630959 201.02401 
L 116.372199 204.291467 
L 120.11344 207.302765 
L 123.85468 210.083006 
L 128.843 213.467363 
L 133.831321 216.522196 
L 138.819641 219.283734 
L 143.807962 221.782681 
L 148.796282 224.045352 
L 153.784603 226.094525 
L 160.020003 228.38583 
L 166.255404 230.408176 
L 172.490805 232.190631 
L 178.726205 233.758497 
L 186.208686 235.387774 
L 193.691167 236.773517 
L 201.173647 237.94505 
L 209.903208 239.075369 
L 218.632769 239.985189 
L 228.60941 240.795428 
L 239.833131 241.463523 
L 252.303932 241.963686 
L 266.021813 242.290104 
L 283.480935 242.474256 
L 304.681297 242.515733 
L 304.681297 242.515733 
" clip-path="url(#p04e118d62e)" style="fill: none; stroke: #f778ba; stroke-width: 1.8; stroke-linecap: square"/>
   </g>
   <g id="line2d_36">
    <path d="M 56.512353 32.10881 
L 57.759434 55.134921 
L 59.006514 72.16528 
L 60.253594 85.794487 
L 61.500674 97.203522 
L 62.747754 107.034281 
L 63.994834 115.676701 
L 65.241914 123.386604 
L 67.736075 136.670522 
L 70.230235 147.814809 
L 72.724395 157.36468 
L 75.218555 165.671137 
L 77.712715 172.975535 
L 80.206876 179.45224 
L 82.701036 185.232157 
L 85.195196 190.416616 
L 87.689356 195.086039 
L 90.183517 199.30558 
L 92.677677 203.12895 
L 95.171837 206.601076 
L 97.665997 209.760015 
L 100.160158 212.638348 
L 102.654318 215.264237 
L 105.148478 217.662219 
L 108.889718 220.878268 
L 112.630959 223.691847 
L 116.372199 226.155392 
L 120.11344 228.313377 
L 123.85468 230.203843 
L 127.59592 231.859562 
L 131.337161 233.308933 
L 136.325481 234.962744 
L 141.313802 236.343614 
L 146.302122 237.493849 
L 152.537523 238.661272 
L 158.772923 239.582011 
L 166.255404 240.427613 
L 173.737885 241.052146 
L 182.467445 241.570184 
L 193.691167 241.998455 
L 207.409048 242.28686 
L 227.36233 242.459044 
L 266.021813 242.51481 
L 304.681297 242.515781 
L 304.681297 242.515781 
" clip-path="url(#p04e118d62e)" style="fill: none; stroke-dasharray: 6.66,2.88; stroke-dashoffset: 0; stroke: #f0883e; stroke-width: 1.8"/>
   </g>
   <g id="patch_4">
    <path d="M 44.103906 242.515781 
L 44.103906 26.318125 
" style="fill: none; stroke: #30363d; stroke-width: 0.8; stroke-linejoin: miter; stroke-linecap: square"/>
   </g>
   <g id="patch_5">
    <path d="M 317.089744 242.515781 
L 317.089744 26.318125 
" style="fill: none; stroke: #30363d; stroke-width: 0.8; stroke-linejoin: miter; stroke-linecap: square"/>
   </g>
   <g id="patch_6">
    <path d="M 44.103906 242.515781 
L 317.089744 242.515781 
" style="fill: none; stroke: #30363d; stroke-width: 0.8; stroke-linejoin: miter; stroke-linecap: square"/>
   </g>
   <g id="patch_7">
    <path d="M 44.103906 26.318125 
L 317.089744 26.318125 
" style="fill: none; stroke: #30363d; stroke-width: 0.8; stroke-linejoin: miter; stroke-linecap: square"/>
   </g>
   <g id="patch_8">
    <path d="M 256.56691 231.291234 
Q 256.56691 232.301609 256.56691 232.417558 
" style="fill: none; stroke: #8b949e; stroke-width: 0.8; stroke-linecap: round"/>
    <path d="M 257.96691 229.617558 
L 256.56691 232.417558 
L 255.16691 229.617558 
" style="fill: none; stroke: #8b949e; stroke-width: 0.8; stroke-linecap: round"/>
   </g>
   <g id="text_19">
    <!-- Easy examples -->
    <g style="fill: #8b949e" transform="translate(230.36066 226.907279) scale(0.07 -0.07)">
     <defs>
      <path id="DejaVuSerif-28" d="M 353 0 
L 353 331 
L 947 331 
L 947 4331 
L 353 4331 
L 353 4666 
L 4109 4666 
L 4109 3628 
L 3725 3628 
L 3725 4281 
L 1581 4281 
L 1581 2719 
L 3109 2719 
L 3109 3303 
L 3494 3303 
L 3494 1753 
L 3109 1753 
L 3109 2338 
L 1581 2338 
L 1581 384 
L 3775 384 
L 3775 1038 
L 4159 1038 
L 4159 0 
L 353 0 
z
" transform="scale(0.015625)"/>
      <path id="DejaVuSerif-5b" d="M 1863 2028 
L 2559 2988 
L 2113 2988 
L 2113 3322 
L 3391 3322 
L 3391 2988 
L 2950 2988 
L 2059 1759 
L 3097 331 
L 3531 331 
L 3531 0 
L 1997 0 
L 1997 331 
L 2419 331 
L 1697 1325 
L 972 331 
L 1403 331 
L 1403 0 
L 141 0 
L 141 331 
L 581 331 
L 1497 1594 
L 488 2988 
L 78 2988 
L 78 3322 
L 1563 3322 
L 1563 2988 
L 1166 2988 
L 1863 2028 
z
" transform="scale(0.015625)"/>
      <path id="DejaVuSerif-50" d="M 3316 2675 
Q 3481 3041 3739 3227 
Q 3997 3413 4341 3413 
Q 4863 3413 5119 3089 
Q 5375 2766 5375 2113 
L 5375 331 
L 5894 331 
L 5894 0 
L 4300 0 
L 4300 331 
L 4800 331 
L 4800 2047 
Q 4800 2556 4650 2772 
Q 4500 2988 4153 2988 
Q 3769 2988 3567 2697 
Q 3366 2406 3366 1850 
L 3366 331 
L 3866 331 
L 3866 0 
L 2291 0 
L 2291 331 
L 2791 331 
L 2791 2069 
Q 2791 2566 2641 2777 
Q 2491 2988 2144 2988 
Q 1759 2988 1557 2697 
Q 1356 2406 1356 1850 
L 1356 331 
L 1856 331 
L 1856 0 
L 263 0 
L 263 331 
L 781 331 
L 781 2994 
L 231 2994 
L 231 3322 
L 1356 3322 
L 1356 2731 
Q 1516 3063 1762 3238 
Q 2009 3413 2322 3413 
Q 2709 3413 2968 3220 
Q 3228 3028 3316 2675 
z
" transform="scale(0.015625)"/>
     </defs>
     <use xlink:href="#DejaVuSerif-28"/>
     <use xlink:href="#DejaVuSerif-44" transform="translate(73 0)"/>
     <use xlink:href="#DejaVuSerif-56" transform="translate(132.625 0)"/>
     <use xlink:href="#DejaVuSerif-5c" transform="translate(183.9375 0)"/>
     <use xlink:href="#DejaVuSerif-3" transform="translate(240.4375 0)"/>
     <use xlink:href="#DejaVuSerif-48" transform="translate(272.21875 0)"/>
     <use xlink:href="#DejaVuSerif-5b" transform="translate(331.40625 0)"/>
     <use xlink:href="#DejaVuSerif-44" transform="translate(387.796875 0)"/>
     <use xlink:href="#DejaVuSerif-50" transform="translate(447.421875 0)"/>
     <use xlink:href="#DejaVuSerif-53" transform="translate(542.25 0)"/>
     <use xlink:href="#DejaVuSerif-4f" transform="translate(606.265625 0)"/>
     <use xlink:href="#DejaVuSerif-48" transform="translate(638.25 0)"/>
     <use xlink:href="#DejaVuSerif-56" transform="translate(697.4375 0)"/>
    </g>
    <!-- heavily down-weighted -->
    <g style="fill: #8b949e" transform="translate(215.667223 235.309193) scale(0.07 -0.07)">
     <defs>
      <path id="DejaVuSerif-4b" d="M 263 0 
L 263 331 
L 781 331 
L 781 4531 
L 231 4531 
L 231 4863 
L 1356 4863 
L 1356 2731 
Q 1516 3069 1770 3241 
Q 2025 3413 2363 3413 
Q 2913 3413 3172 3097 
Q 3431 2781 3431 2113 
L 3431 331 
L 3944 331 
L 3944 0 
L 2356 0 
L 2356 331 
L 2853 331 
L 2853 1931 
Q 2853 2541 2704 2764 
Q 2556 2988 2175 2988 
Q 1775 2988 1565 2697 
Q 1356 2406 1356 1850 
L 1356 331 
L 1856 331 
L 1856 0 
L 263 0 
z
" transform="scale(0.015625)"/>
      <path id="DejaVuSerif-59" d="M 1581 0 
L 359 2988 
L -19 2988 
L -19 3322 
L 1509 3322 
L 1509 2988 
L 978 2988 
L 1913 703 
L 2847 2988 
L 2350 2988 
L 2350 3322 
L 3597 3322 
L 3597 2988 
L 3225 2988 
L 2003 0 
L 1581 0 
z
" transform="scale(0.015625)"/>
      <path id="DejaVuSerif-5a" d="M 3072 3322 
L 3922 728 
L 4672 2988 
L 4191 2988 
L 4191 3322 
L 5394 3322 
L 5394 2988 
L 5025 2988 
L 4038 0 
L 3559 0 
L 2741 2484 
L 1919 0 
L 1459 0 
L 475 2988 
L 103 2988 
L 103 3322 
L 1606 3322 
L 1606 2988 
L 1069 2988 
L 1813 728 
L 2669 3322 
L 3072 3322 
z
" transform="scale(0.015625)"/>
      <path id="DejaVuSerif-10" d="M 281 1959 
L 1881 1959 
L 1881 1472 
L 281 1472 
L 281 1959 
z
" transform="scale(0.015625)"/>
      <path id="DejaVuSerif-4a" d="M 3359 2988 
L 3359 72 
Q 3359 -644 2965 -1033 
Q 2572 -1422 1844 -1422 
Q 1516 -1422 1216 -1362 
Q 916 -1303 641 -1184 
L 641 -488 
L 941 -488 
Q 997 -813 1206 -963 
Q 1416 -1113 1806 -1113 
Q 2313 -1113 2548 -827 
Q 2784 -541 2784 72 
L 2784 519 
Q 2616 206 2355 57 
Q 2094 -91 1709 -91 
Q 1097 -91 708 395 
Q 319 881 319 1663 
Q 319 2444 706 2928 
Q 1094 3413 1709 3413 
Q 2094 3413 2355 3264 
Q 2616 3116 2784 2803 
L 2784 3322 
L 3909 3322 
L 3909 2988 
L 3359 2988 
z
M 2784 1825 
Q 2784 2422 2554 2737 
Q 2325 3053 1888 3053 
Q 1444 3053 1217 2703 
Q 991 2353 991 1663 
Q 991 975 1217 622 
Q 1444 269 1888 269 
Q 2325 269 2554 583 
Q 2784 897 2784 1497 
L 2784 1825 
z
" transform="scale(0.015625)"/>
     </defs>
     <use xlink:href="#DejaVuSerif-4b"/>
     <use xlink:href="#DejaVuSerif-48" transform="translate(64.40625 0)"/>
     <use xlink:href="#DejaVuSerif-44" transform="translate(123.59375 0)"/>
     <use xlink:href="#DejaVuSerif-59" transform="translate(183.21875 0)"/>
     <use xlink:href="#DejaVuSerif-4c" transform="translate(239.71875 0)"/>
     <use xlink:href="#DejaVuSerif-4f" transform="translate(271.703125 0)"/>
     <use xlink:href="#DejaVuSerif-5c" transform="translate(303.6875 0)"/>
     <use xlink:href="#DejaVuSerif-3" transform="translate(360.1875 0)"/>
     <use xlink:href="#DejaVuSerif-47" transform="translate(391.96875 0)"/>
     <use xlink:href="#DejaVuSerif-52" transform="translate(455.984375 0)"/>
     <use xlink:href="#DejaVuSerif-5a" transform="translate(516.1875 0)"/>
     <use xlink:href="#DejaVuSerif-51" transform="translate(601.78125 0)"/>
     <use xlink:href="#DejaVuSerif-10" transform="translate(666.1875 0)"/>
     <use xlink:href="#DejaVuSerif-5a" transform="translate(699.984375 0)"/>
     <use xlink:href="#DejaVuSerif-48" transform="translate(785.578125 0)"/>
     <use xlink:href="#DejaVuSerif-4c" transform="translate(844.765625 0)"/>
     <use xlink:href="#DejaVuSerif-4a" transform="translate(876.75 0)"/>
     <use xlink:href="#DejaVuSerif-4b" transform="translate(940.765625 0)"/>
     <use xlink:href="#DejaVuSerif-57" transform="translate(1005.171875 0)"/>
     <use xlink:href="#DejaVuSerif-48" transform="translate(1045.359375 0)"/>
     <use xlink:href="#DejaVuSerif-47" transform="translate(1104.546875 0)"/>
    </g>
   </g>
   <g id="text_20">
    <!-- Focal Loss  (γ = 2 used in AdaRelBot) -->
    <g style="fill: #e6edf3" transform="translate(54.254638 16.318125) scale(0.12 -0.12)">
     <defs>
      <path id="DejaVuSerif-Bold-29" d="M 300 0 
L 300 378 
L 897 378 
L 897 4288 
L 300 4288 
L 300 4666 
L 4459 4666 
L 4459 3566 
L 4031 3566 
L 4031 4238 
L 2106 4238 
L 2106 2741 
L 3291 2741 
L 3291 3334 
L 3719 3334 
L 3719 1722 
L 3291 1722 
L 3291 2316 
L 2106 2316 
L 2106 378 
L 2841 378 
L 2841 0 
L 300 0 
z
" transform="scale(0.015625)"/>
      <path id="DejaVuSerif-Bold-52" d="M 2138 263 
Q 2488 263 2630 563 
Q 2772 863 2772 1663 
Q 2772 2463 2631 2761 
Q 2491 3059 2138 3059 
Q 1784 3059 1640 2757 
Q 1497 2456 1497 1663 
Q 1497 869 1640 566 
Q 1784 263 2138 263 
z
M 2138 -91 
Q 1259 -91 761 376 
Q 263 844 263 1663 
Q 263 2484 761 2948 
Q 1259 3413 2138 3413 
Q 3019 3413 3516 2948 
Q 4013 2484 4013 1663 
Q 4013 844 3514 376 
Q 3016 -91 2138 -91 
z
" transform="scale(0.015625)"/>
      <path id="DejaVuSerif-Bold-46" d="M 3609 1038 
Q 3491 469 3123 189 
Q 2756 -91 2125 -91 
Q 1238 -91 750 368 
Q 263 828 263 1663 
Q 263 2488 744 2950 
Q 1225 3413 2081 3413 
Q 2428 3413 2781 3347 
Q 3134 3281 3500 3150 
L 3500 2228 
L 3150 2228 
Q 3100 2650 2903 2854 
Q 2706 3059 2350 3059 
Q 1888 3059 1692 2746 
Q 1497 2434 1497 1663 
Q 1497 909 1687 586 
Q 1878 263 2309 263 
Q 2644 263 2845 463 
Q 3047 663 3091 1038 
L 3609 1038 
z
" transform="scale(0.015625)"/>
      <path id="DejaVuSerif-Bold-44" d="M 3525 2041 
L 3525 378 
L 4000 378 
L 4000 0 
L 2419 0 
L 2419 422 
Q 2200 159 1931 34 
Q 1663 -91 1319 -91 
Q 809 -91 536 182 
Q 263 456 263 966 
Q 263 1525 655 1803 
Q 1047 2081 1838 2081 
L 2419 2081 
L 2419 2278 
Q 2419 2681 2228 2873 
Q 2038 3066 1638 3066 
Q 1306 3066 1126 2930 
Q 947 2794 872 2484 
L 519 2484 
L 519 3200 
Q 816 3306 1134 3359 
Q 1453 3413 1806 3413 
Q 2697 3413 3111 3081 
Q 3525 2750 3525 2041 
z
M 2419 1044 
L 2419 1709 
L 2003 1709 
Q 1694 1709 1528 1540 
Q 1363 1372 1363 1056 
Q 1363 741 1483 584 
Q 1603 428 1850 428 
Q 2106 428 2262 597 
Q 2419 766 2419 1044 
z
" transform="scale(0.015625)"/>
      <path id="DejaVuSerif-Bold-4f" d="M 1797 378 
L 2272 378 
L 2272 0 
L 219 0 
L 219 378 
L 691 378 
L 691 4488 
L 219 4488 
L 219 4863 
L 1797 4863 
L 1797 378 
z
" transform="scale(0.015625)"/>
      <path id="DejaVuSerif-Bold-3" transform="scale(0.015625)"/>
      <path id="DejaVuSerif-Bold-2f" d="M 300 0 
L 300 378 
L 897 378 
L 897 4288 
L 300 4288 
L 300 4666 
L 2700 4666 
L 2700 4288 
L 2100 4288 
L 2100 428 
L 3938 428 
L 3938 1166 
L 4359 1166 
L 4359 0 
L 300 0 
z
" transform="scale(0.015625)"/>
      <path id="DejaVuSerif-Bold-56" d="M 300 97 
L 300 1025 
L 653 1025 
Q 697 653 931 458 
Q 1166 263 1569 263 
Q 1906 263 2086 380 
Q 2266 497 2266 716 
Q 2266 916 2152 1025 
Q 2038 1134 1709 1216 
L 1253 1331 
Q 738 1459 506 1698 
Q 275 1938 275 2344 
Q 275 2884 650 3148 
Q 1025 3413 1806 3413 
Q 2100 3413 2433 3364 
Q 2766 3316 3169 3213 
L 3169 2375 
L 2816 2375 
Q 2788 2716 2573 2887 
Q 2359 3059 1959 3059 
Q 1622 3059 1448 2951 
Q 1275 2844 1275 2638 
Q 1275 2469 1375 2372 
Q 1475 2275 1734 2209 
L 2188 2094 
Q 2841 1928 3091 1684 
Q 3341 1441 3341 1006 
Q 3341 444 2939 176 
Q 2538 -91 1691 -91 
Q 1381 -91 1034 -44 
Q 688 3 300 97 
z
" transform="scale(0.015625)"/>
      <path id="DejaVuSerif-Bold-b" d="M 2694 -997 
Q 1641 -606 1122 122 
Q 603 850 603 1931 
Q 603 3013 1115 3731 
Q 1628 4450 2694 4863 
L 2694 4488 
Q 2200 4188 1983 3598 
Q 1766 3009 1766 1931 
Q 1766 856 1983 267 
Q 2200 -322 2694 -622 
L 2694 -997 
z
" transform="scale(0.015625)"/>
      <path id="DejaVuSerif-Bold-32b" d="M 3509 1325 
Q 2897 688 2416 113 
Q 2619 -738 2450 -959 
Q 2163 -1331 1828 -1338 
Q 1369 -1347 1209 -1025 
Q 1041 -681 1428 -50 
L 522 2988 
L 156 2988 
L 156 3322 
L 1484 3322 
L 2266 688 
Q 2847 1591 2984 2231 
Q 3019 2394 2925 2713 
Q 2853 2953 2659 3184 
L 2659 3322 
L 3063 3322 
Q 3700 3141 3934 2709 
Q 4259 2109 3509 1325 
z
" transform="scale(0.015625)"/>
      <path id="DejaVuSerif-Bold-20" d="M 678 1650 
L 4684 1650 
L 4684 941 
L 678 941 
L 678 1650 
z
M 678 3072 
L 4684 3072 
L 4684 2363 
L 678 2363 
L 678 3072 
z
" transform="scale(0.015625)"/>
      <path id="DejaVuSerif-Bold-15" d="M 844 3513 
L 469 3513 
L 469 4519 
Q 850 4634 1223 4692 
Q 1597 4750 1978 4750 
Q 2869 4750 3367 4386 
Q 3866 4022 3866 3372 
Q 3866 2909 3591 2542 
Q 3316 2175 2541 1672 
L 1241 819 
L 3450 819 
L 3450 1369 
L 3878 1369 
L 3878 0 
L 428 0 
L 428 763 
L 1119 1241 
Q 2003 1850 2297 2278 
Q 2591 2706 2591 3278 
Q 2591 3819 2367 4101 
Q 2144 4384 1716 4384 
Q 1347 4384 1125 4161 
Q 903 3938 844 3513 
z
" transform="scale(0.015625)"/>
      <path id="DejaVuSerif-Bold-58" d="M 3963 3322 
L 3963 378 
L 4434 378 
L 4434 0 
L 2853 0 
L 2853 469 
Q 2656 172 2400 40 
Q 2144 -91 1753 -91 
Q 1194 -91 908 239 
Q 622 569 622 1209 
L 622 2944 
L 147 2944 
L 147 3322 
L 1728 3322 
L 1728 1381 
Q 1728 763 1831 595 
Q 1934 428 2209 428 
Q 2544 428 2698 675 
Q 2853 922 2853 1459 
L 2853 2944 
L 2450 2944 
L 2450 3322 
L 3963 3322 
z
" transform="scale(0.015625)"/>
      <path id="DejaVuSerif-Bold-48" d="M 2566 1875 
Q 2566 2531 2444 2795 
Q 2322 3059 2028 3059 
Q 1744 3059 1620 2800 
Q 1497 2541 1497 1931 
L 1497 1875 
L 2566 1875 
z
M 3781 1503 
L 1497 1503 
L 1497 1478 
Q 1497 834 1690 548 
Q 1884 263 2316 263 
Q 2675 263 2897 453 
Q 3119 644 3181 1006 
L 3700 1006 
Q 3566 441 3166 175 
Q 2766 -91 2047 -91 
Q 1184 -91 723 364 
Q 263 819 263 1663 
Q 263 2488 734 2950 
Q 1206 3413 2047 3413 
Q 2872 3413 3312 2927 
Q 3753 2441 3781 1503 
z
" transform="scale(0.015625)"/>
      <path id="DejaVuSerif-Bold-47" d="M 2747 1497 
L 2747 1825 
Q 2747 2406 2597 2665 
Q 2447 2925 2119 2925 
Q 1775 2925 1636 2651 
Q 1497 2378 1497 1663 
Q 1497 947 1637 672 
Q 1778 397 2119 397 
Q 2447 397 2597 656 
Q 2747 916 2747 1497 
z
M 3853 378 
L 4325 378 
L 4325 0 
L 2747 0 
L 2747 422 
Q 2606 163 2367 36 
Q 2128 -91 1778 -91 
Q 1072 -91 667 378 
Q 263 847 263 1663 
Q 263 2481 667 2947 
Q 1072 3413 1778 3413 
Q 2128 3413 2367 3286 
Q 2606 3159 2747 2900 
L 2747 4488 
L 2272 4488 
L 2272 4863 
L 3853 4863 
L 3853 378 
z
" transform="scale(0.015625)"/>
      <path id="DejaVuSerif-Bold-4c" d="M 588 4263 
Q 588 4516 763 4689 
Q 938 4863 1191 4863 
Q 1438 4863 1611 4689 
Q 1784 4516 1784 4263 
Q 1784 4016 1611 3842 
Q 1438 3669 1191 3669 
Q 938 3669 763 3841 
Q 588 4013 588 4263 
z
M 1797 378 
L 2272 378 
L 2272 0 
L 219 0 
L 219 378 
L 691 378 
L 691 2944 
L 219 2944 
L 219 3322 
L 1797 3322 
L 1797 378 
z
" transform="scale(0.015625)"/>
      <path id="DejaVuSerif-Bold-51" d="M 219 0 
L 219 378 
L 691 378 
L 691 2944 
L 219 2944 
L 219 3322 
L 1797 3322 
L 1797 2853 
Q 1997 3150 2253 3281 
Q 2509 3413 2900 3413 
Q 3459 3413 3745 3083 
Q 4031 2753 4031 2113 
L 4031 378 
L 4506 378 
L 4506 0 
L 2522 0 
L 2522 378 
L 2925 378 
L 2925 2144 
Q 2925 2566 2817 2730 
Q 2709 2894 2444 2894 
Q 2109 2894 1953 2648 
Q 1797 2403 1797 1869 
L 1797 378 
L 2203 378 
L 2203 0 
L 219 0 
z
" transform="scale(0.015625)"/>
      <path id="DejaVuSerif-Bold-24" d="M -50 0 
L -50 378 
L 331 378 
L 2088 4666 
L 2834 4666 
L 4594 378 
L 5038 378 
L 5038 0 
L 2853 0 
L 2853 378 
L 3309 378 
L 2925 1331 
L 1172 1331 
L 781 378 
L 1338 378 
L 1338 0 
L -50 0 
z
M 1325 1709 
L 2772 1709 
L 2053 3494 
L 1325 1709 
z
" transform="scale(0.015625)"/>
      <path id="DejaVuSerif-Bold-35" d="M 3397 2278 
Q 3675 2238 3865 2094 
Q 4056 1950 4197 1678 
L 4878 378 
L 5356 378 
L 5356 0 
L 3822 0 
L 3078 1409 
Q 2863 1847 2711 1967 
Q 2559 2088 2291 2088 
L 2100 2088 
L 2100 378 
L 2700 378 
L 2700 0 
L 300 0 
L 300 378 
L 897 378 
L 897 4288 
L 300 4288 
L 300 4666 
L 2963 4666 
Q 3775 4666 4217 4339 
Q 4659 4013 4659 3413 
Q 4659 2925 4345 2642 
Q 4031 2359 3397 2278 
z
M 2100 2463 
L 2509 2463 
Q 2947 2463 3183 2700 
Q 3419 2938 3419 3378 
Q 3419 3819 3183 4053 
Q 2947 4288 2509 4288 
L 2100 4288 
L 2100 2463 
z
" transform="scale(0.015625)"/>
      <path id="DejaVuSerif-Bold-25" d="M 300 0 
L 300 378 
L 897 378 
L 897 4288 
L 300 4288 
L 300 4666 
L 3066 4666 
Q 3919 4666 4347 4378 
Q 4775 4091 4775 3513 
Q 4775 3097 4479 2853 
Q 4184 2609 3603 2547 
Q 4306 2481 4681 2172 
Q 5056 1863 5056 1350 
Q 5056 656 4532 328 
Q 4009 0 2894 0 
L 300 0 
z
M 2100 2719 
L 2509 2719 
Q 3047 2719 3306 2914 
Q 3566 3109 3566 3513 
Q 3566 3919 3314 4103 
Q 3063 4288 2509 4288 
L 2100 4288 
L 2100 2719 
z
M 2100 378 
L 2547 378 
Q 3144 378 3431 615 
Q 3719 853 3719 1350 
Q 3719 1850 3428 2097 
Q 3138 2344 2547 2344 
L 2100 2344 
L 2100 378 
z
" transform="scale(0.015625)"/>
      <path id="DejaVuSerif-Bold-57" d="M 634 2944 
L 153 2944 
L 153 3322 
L 634 3322 
L 634 4353 
L 1741 4353 
L 1741 3322 
L 2663 3322 
L 2663 2944 
L 1741 2944 
L 1741 909 
Q 1741 475 1809 369 
Q 1878 263 2059 263 
Q 2259 263 2356 397 
Q 2453 531 2459 813 
L 2925 813 
Q 2897 313 2651 111 
Q 2406 -91 1806 -91 
Q 1122 -91 878 123 
Q 634 338 634 909 
L 634 2944 
z
" transform="scale(0.015625)"/>
      <path id="DejaVuSerif-Bold-c" d="M 325 -997 
L 325 -622 
Q 819 -322 1036 267 
Q 1253 856 1253 1931 
Q 1253 3009 1036 3598 
Q 819 4188 325 4488 
L 325 4863 
Q 1391 4450 1905 3731 
Q 2419 3013 2419 1931 
Q 2419 850 1898 122 
Q 1378 -606 325 -997 
z
" transform="scale(0.015625)"/>
     </defs>
     <use xlink:href="#DejaVuSerif-Bold-29"/>
     <use xlink:href="#DejaVuSerif-Bold-52" transform="translate(65.53125 0)"/>
     <use xlink:href="#DejaVuSerif-Bold-46" transform="translate(132.234375 0)"/>
     <use xlink:href="#DejaVuSerif-Bold-44" transform="translate(193.125 0)"/>
     <use xlink:href="#DejaVuSerif-Bold-4f" transform="translate(257.921875 0)"/>
     <use xlink:href="#DejaVuSerif-Bold-3" transform="translate(295.90625 0)"/>
     <use xlink:href="#DejaVuSerif-Bold-2f" transform="translate(330.71875 0)"/>
     <use xlink:href="#DejaVuSerif-Bold-52" transform="translate(401.03125 0)"/>
     <use xlink:href="#DejaVuSerif-Bold-56" transform="translate(467.734375 0)"/>
     <use xlink:href="#DejaVuSerif-Bold-56" transform="translate(524.03125 0)"/>
     <use xlink:href="#DejaVuSerif-Bold-3" transform="translate(580.328125 0)"/>
     <use xlink:href="#DejaVuSerif-Bold-3" transform="translate(615.140625 0)"/>
     <use xlink:href="#DejaVuSerif-Bold-b" transform="translate(649.953125 0)"/>
     <use xlink:href="#DejaVuSerif-Bold-32b" transform="translate(697.265625 0)"/>
     <use xlink:href="#DejaVuSerif-Bold-3" transform="translate(763.28125 0)"/>
     <use xlink:href="#DejaVuSerif-Bold-20" transform="translate(798.09375 0)"/>
     <use xlink:href="#DejaVuSerif-Bold-3" transform="translate(881.890625 0)"/>
     <use xlink:href="#DejaVuSerif-Bold-15" transform="translate(916.703125 0)"/>
     <use xlink:href="#DejaVuSerif-Bold-3" transform="translate(986.28125 0)"/>
     <use xlink:href="#DejaVuSerif-Bold-58" transform="translate(1021.09375 0)"/>
     <use xlink:href="#DejaVuSerif-Bold-56" transform="translate(1093.796875 0)"/>
     <use xlink:href="#DejaVuSerif-Bold-48" transform="translate(1150.09375 0)"/>
     <use xlink:href="#DejaVuSerif-Bold-47" transform="translate(1213.71875 0)"/>
     <use xlink:href="#DejaVuSerif-Bold-3" transform="translate(1283.640625 0)"/>
     <use xlink:href="#DejaVuSerif-Bold-4c" transform="translate(1318.453125 0)"/>
     <use xlink:href="#DejaVuSerif-Bold-51" transform="translate(1356.4375 0)"/>
     <use xlink:href="#DejaVuSerif-Bold-3" transform="translate(1429.140625 0)"/>
     <use xlink:href="#DejaVuSerif-Bold-24" transform="translate(1463.953125 0)"/>
     <use xlink:href="#DejaVuSerif-Bold-47" transform="translate(1541.546875 0)"/>
     <use xlink:href="#DejaVuSerif-Bold-44" transform="translate(1611.46875 0)"/>
     <use xlink:href="#DejaVuSerif-Bold-35" transform="translate(1676.265625 0)"/>
     <use xlink:href="#DejaVuSerif-Bold-48" transform="translate(1759.375 0)"/>
     <use xlink:href="#DejaVuSerif-Bold-4f" transform="translate(1823 0)"/>
     <use xlink:href="#DejaVuSerif-Bold-25" transform="translate(1860.984375 0)"/>
     <use xlink:href="#DejaVuSerif-Bold-52" transform="translate(1945.5 0)"/>
     <use xlink:href="#DejaVuSerif-Bold-57" transform="translate(2012.203125 0)"/>
     <use xlink:href="#DejaVuSerif-Bold-c" transform="translate(2058.390625 0)"/>
    </g>
   </g>
   <g id="legend_1">
    <g id="patch_9">
     <path d="M 156.966825 80.720625 
L 204.226825 80.720625 
Q 205.826825 80.720625 205.826825 79.120625 
L 205.826825 31.918125 
Q 205.826825 30.318125 204.226825 30.318125 
L 156.966825 30.318125 
Q 155.366825 30.318125 155.366825 31.918125 
L 155.366825 79.120625 
Q 155.366825 80.720625 156.966825 80.720625 
z
" style="fill: #161b22; opacity: 0.8; stroke: #30363d; stroke-linejoin: miter"/>
    </g>
    <g id="line2d_37">
     <path d="M 158.566825 36.796875 
L 166.566825 36.796875 
L 174.566825 36.796875 
" style="fill: none; stroke-dasharray: 1.8,2.97; stroke-dashoffset: 0; stroke: #8b949e; stroke-width: 1.8"/>
    </g>
    <g id="text_21">
     <!-- γ = 0 -->
     <g style="fill: #c9d1d9" transform="translate(180.966825 39.596875) scale(0.08 -0.08)">
      <defs>
       <path id="DejaVuSerif-32b" d="M 2225 188 
Q 2419 -725 2238 -1063 
Q 2091 -1331 1875 -1338 
Q 1544 -1347 1400 -1025 
Q 1238 -663 1672 50 
L 781 2988 
L 231 2988 
L 231 3322 
L 1294 3322 
L 2103 622 
Q 2813 1575 2897 2231 
Q 2938 2541 2859 2750 
Q 2734 3084 2584 3138 
L 2584 3322 
L 2934 3322 
Q 3297 3103 3384 2919 
Q 3509 2656 3509 2491 
Q 3509 2188 3188 1588 
Q 3063 1353 2225 188 
z
" transform="scale(0.015625)"/>
       <path id="DejaVuSerif-20" d="M 678 2894 
L 4684 2894 
L 4684 2394 
L 678 2394 
L 678 2894 
z
M 678 1619 
L 4684 1619 
L 4684 1119 
L 678 1119 
L 678 1619 
z
" transform="scale(0.015625)"/>
      </defs>
      <use xlink:href="#DejaVuSerif-32b"/>
      <use xlink:href="#DejaVuSerif-3" transform="translate(59.765625 0)"/>
      <use xlink:href="#DejaVuSerif-20" transform="translate(91.546875 0)"/>
      <use xlink:href="#DejaVuSerif-3" transform="translate(175.34375 0)"/>
      <use xlink:href="#DejaVuSerif-13" transform="translate(207.125 0)"/>
     </g>
    </g>
    <g id="line2d_38">
     <path d="M 158.566825 48.7975 
L 166.566825 48.7975 
L 174.566825 48.7975 
" style="fill: none; stroke-dasharray: 11.52,2.88,1.8,2.88; stroke-dashoffset: 0; stroke: #58a6ff; stroke-width: 1.8"/>
    </g>
    <g id="text_22">
     <!-- γ = 1 -->
     <g style="fill: #c9d1d9" transform="translate(180.966825 51.5975) scale(0.08 -0.08)">
      <use xlink:href="#DejaVuSerif-32b"/>
      <use xlink:href="#DejaVuSerif-3" transform="translate(59.765625 0)"/>
      <use xlink:href="#DejaVuSerif-20" transform="translate(91.546875 0)"/>
      <use xlink:href="#DejaVuSerif-3" transform="translate(175.34375 0)"/>
      <use xlink:href="#DejaVuSerif-14" transform="translate(207.125 0)"/>
     </g>
    </g>
    <g id="line2d_39">
     <path d="M 158.566825 60.798125 
L 166.566825 60.798125 
L 174.566825 60.798125 
" style="fill: none; stroke: #f778ba; stroke-width: 1.8; stroke-linecap: square"/>
    </g>
    <g id="text_23">
     <!-- γ = 2 -->
     <g style="fill: #c9d1d9" transform="translate(180.966825 63.598125) scale(0.08 -0.08)">
      <use xlink:href="#DejaVuSerif-32b"/>
      <use xlink:href="#DejaVuSerif-3" transform="translate(59.765625 0)"/>
      <use xlink:href="#DejaVuSerif-20" transform="translate(91.546875 0)"/>
      <use xlink:href="#DejaVuSerif-3" transform="translate(175.34375 0)"/>
      <use xlink:href="#DejaVuSerif-15" transform="translate(207.125 0)"/>
     </g>
    </g>
    <g id="line2d_40">
     <path d="M 158.566825 72.79875 
L 166.566825 72.79875 
L 174.566825 72.79875 
" style="fill: none; stroke-dasharray: 6.66,2.88; stroke-dashoffset: 0; stroke: #f0883e; stroke-width: 1.8"/>
    </g>
    <g id="text_24">
     <!-- γ = 5 -->
     <g style="fill: #c9d1d9" transform="translate(180.966825 75.59875) scale(0.08 -0.08)">
      <use xlink:href="#DejaVuSerif-32b"/>
      <use xlink:href="#DejaVuSerif-3" transform="translate(59.765625 0)"/>
      <use xlink:href="#DejaVuSerif-20" transform="translate(91.546875 0)"/>
      <use xlink:href="#DejaVuSerif-3" transform="translate(175.34375 0)"/>
      <use xlink:href="#DejaVuSerif-18" transform="translate(207.125 0)"/>
     </g>
    </g>
   </g>
  </g>
  <g id="axes_2">
   <g id="patch_10">
    <path d="M 388.989815 242.515781 
L 605.187472 242.515781 
L 605.187472 26.318125 
L 388.989815 26.318125 
z
" style="fill: #0d1117"/>
   </g>
   <g id="matplotlib.axis_3">
    <g id="xtick_7">
     <g id="line2d_41">
      <path d="M 388.989815 242.515781 
L 388.989815 26.318125 
" clip-path="url(#p1d81af8c7f)" style="fill: none; stroke: #30363d; stroke-opacity: 0.15; stroke-width: 0.8; stroke-linecap: square"/>
     </g>
     <g id="line2d_42">
      <g>
       <use xlink:href="#md6a9889045" x="388.989815" y="242.515781" style="fill: #8b949e; stroke: #8b949e; stroke-width: 0.8"/>
      </g>
     </g>
     <g id="text_25">
      <!-- −3 -->
      <g style="fill: #8b949e" transform="translate(381.618722 257.113437) scale(0.1 -0.1)">
       <defs>
        <path id="DejaVuSerif-8cf" d="M 678 2259 
L 4684 2259 
L 4684 1753 
L 678 1753 
L 678 2259 
z
" transform="scale(0.015625)"/>
       </defs>
       <use xlink:href="#DejaVuSerif-8cf"/>
       <use xlink:href="#DejaVuSerif-16" transform="translate(83.796875 0)"/>
      </g>
     </g>
    </g>
    <g id="xtick_8">
     <g id="line2d_43">
      <path d="M 425.022758 242.515781 
L 425.022758 26.318125 
" clip-path="url(#p1d81af8c7f)" style="fill: none; stroke: #30363d; stroke-opacity: 0.15; stroke-width: 0.8; stroke-linecap: square"/>
     </g>
     <g id="line2d_44">
      <g>
       <use xlink:href="#md6a9889045" x="425.022758" y="242.515781" style="fill: #8b949e; stroke: #8b949e; stroke-width: 0.8"/>
      </g>
     </g>
     <g id="text_26">
      <!-- −2 -->
      <g style="fill: #8b949e" transform="translate(417.651664 257.113437) scale(0.1 -0.1)">
       <use xlink:href="#DejaVuSerif-8cf"/>
       <use xlink:href="#DejaVuSerif-15" transform="translate(83.796875 0)"/>
      </g>
     </g>
    </g>
    <g id="xtick_9">
     <g id="line2d_45">
      <path d="M 461.055701 242.515781 
L 461.055701 26.318125 
" clip-path="url(#p1d81af8c7f)" style="fill: none; stroke: #30363d; stroke-opacity: 0.15; stroke-width: 0.8; stroke-linecap: square"/>
     </g>
     <g id="line2d_46">
      <g>
       <use xlink:href="#md6a9889045" x="461.055701" y="242.515781" style="fill: #8b949e; stroke: #8b949e; stroke-width: 0.8"/>
      </g>
     </g>
     <g id="text_27">
      <!-- −1 -->
      <g style="fill: #8b949e" transform="translate(453.684607 257.113437) scale(0.1 -0.1)">
       <use xlink:href="#DejaVuSerif-8cf"/>
       <use xlink:href="#DejaVuSerif-14" transform="translate(83.796875 0)"/>
      </g>
     </g>
    </g>
    <g id="xtick_10">
     <g id="line2d_47">
      <path d="M 497.088643 242.515781 
L 497.088643 26.318125 
" clip-path="url(#p1d81af8c7f)" style="fill: none; stroke: #30363d; stroke-opacity: 0.15; stroke-width: 0.8; stroke-linecap: square"/>
     </g>
     <g id="line2d_48">
      <g>
       <use xlink:href="#md6a9889045" x="497.088643" y="242.515781" style="fill: #8b949e; stroke: #8b949e; stroke-width: 0.8"/>
      </g>
     </g>
     <g id="text_28">
      <!-- 0 -->
      <g style="fill: #8b949e" transform="translate(493.907393 257.113437) scale(0.1 -0.1)">
       <use xlink:href="#DejaVuSerif-13"/>
      </g>
     </g>
    </g>
    <g id="xtick_11">
     <g id="line2d_49">
      <path d="M 533.121586 242.515781 
L 533.121586 26.318125 
" clip-path="url(#p1d81af8c7f)" style="fill: none; stroke: #30363d; stroke-opacity: 0.15; stroke-width: 0.8; stroke-linecap: square"/>
     </g>
     <g id="line2d_50">
      <g>
       <use xlink:href="#md6a9889045" x="533.121586" y="242.515781" style="fill: #8b949e; stroke: #8b949e; stroke-width: 0.8"/>
      </g>
     </g>
     <g id="text_29">
      <!-- 1 -->
      <g style="fill: #8b949e" transform="translate(529.940336 257.113437) scale(0.1 -0.1)">
       <use xlink:href="#DejaVuSerif-14"/>
      </g>
     </g>
    </g>
    <g id="xtick_12">
     <g id="line2d_51">
      <path d="M 569.154529 242.515781 
L 569.154529 26.318125 
" clip-path="url(#p1d81af8c7f)" style="fill: none; stroke: #30363d; stroke-opacity: 0.15; stroke-width: 0.8; stroke-linecap: square"/>
     </g>
     <g id="line2d_52">
      <g>
       <use xlink:href="#md6a9889045" x="569.154529" y="242.515781" style="fill: #8b949e; stroke: #8b949e; stroke-width: 0.8"/>
      </g>
     </g>
     <g id="text_30">
      <!-- 2 -->
      <g style="fill: #8b949e" transform="translate(565.973279 257.113437) scale(0.1 -0.1)">
       <use xlink:href="#DejaVuSerif-15"/>
      </g>
     </g>
    </g>
    <g id="xtick_13">
     <g id="line2d_53">
      <path d="M 605.187472 242.515781 
L 605.187472 26.318125 
" clip-path="url(#p1d81af8c7f)" style="fill: none; stroke: #30363d; stroke-opacity: 0.15; stroke-width: 0.8; stroke-linecap: square"/>
     </g>
     <g id="line2d_54">
      <g>
       <use xlink:href="#md6a9889045" x="605.187472" y="242.515781" style="fill: #8b949e; stroke: #8b949e; stroke-width: 0.8"/>
      </g>
     </g>
     <g id="text_31">
      <!-- 3 -->
      <g style="fill: #8b949e" transform="translate(602.006222 257.113437) scale(0.1 -0.1)">
       <use xlink:href="#DejaVuSerif-16"/>
      </g>
     </g>
    </g>
    <g id="text_32">
     <!-- Embedding dim 1 -->
     <g style="fill: #c9d1d9" transform="translate(452.214425 271.114219) scale(0.1 -0.1)">
      <use xlink:href="#DejaVuSerif-28"/>
      <use xlink:href="#DejaVuSerif-50" transform="translate(73 0)"/>
      <use xlink:href="#DejaVuSerif-45" transform="translate(167.828125 0)"/>
      <use xlink:href="#DejaVuSerif-48" transform="translate(231.84375 0)"/>
      <use xlink:href="#DejaVuSerif-47" transform="translate(291.03125 0)"/>
      <use xlink:href="#DejaVuSerif-47" transform="translate(355.046875 0)"/>
      <use xlink:href="#DejaVuSerif-4c" transform="translate(419.0625 0)"/>
      <use xlink:href="#DejaVuSerif-51" transform="translate(451.046875 0)"/>
      <use xlink:href="#DejaVuSerif-4a" transform="translate(515.453125 0)"/>
      <use xlink:href="#DejaVuSerif-3" transform="translate(579.46875 0)"/>
      <use xlink:href="#DejaVuSerif-47" transform="translate(611.25 0)"/>
      <use xlink:href="#DejaVuSerif-4c" transform="translate(675.265625 0)"/>
      <use xlink:href="#DejaVuSerif-50" transform="translate(707.25 0)"/>
      <use xlink:href="#DejaVuSerif-3" transform="translate(802.078125 0)"/>
      <use xlink:href="#DejaVuSerif-14" transform="translate(833.859375 0)"/>
     </g>
    </g>
   </g>
   <g id="matplotlib.axis_4">
    <g id="ytick_11">
     <g id="line2d_55">
      <path d="M 388.989815 242.515781 
L 605.187472 242.515781 
" clip-path="url(#p1d81af8c7f)" style="fill: none; stroke: #30363d; stroke-opacity: 0.15; stroke-width: 0.8; stroke-linecap: square"/>
     </g>
     <g id="line2d_56">
      <g>
       <use xlink:href="#m5e2a177cec" x="388.989815" y="242.515781" style="fill: #8b949e; stroke: #8b949e; stroke-width: 0.8"/>
      </g>
     </g>
     <g id="text_33">
      <!-- −3 -->
      <g style="fill: #8b949e" transform="translate(367.247628 246.314609) scale(0.1 -0.1)">
       <use xlink:href="#DejaVuSerif-8cf"/>
       <use xlink:href="#DejaVuSerif-16" transform="translate(83.796875 0)"/>
      </g>
     </g>
    </g>
    <g id="ytick_12">
     <g id="line2d_57">
      <path d="M 388.989815 206.482839 
L 605.187472 206.482839 
" clip-path="url(#p1d81af8c7f)" style="fill: none; stroke: #30363d; stroke-opacity: 0.15; stroke-width: 0.8; stroke-linecap: square"/>
     </g>
     <g id="line2d_58">
      <g>
       <use xlink:href="#m5e2a177cec" x="388.989815" y="206.482839" style="fill: #8b949e; stroke: #8b949e; stroke-width: 0.8"/>
      </g>
     </g>
     <g id="text_34">
      <!-- −2 -->
      <g style="fill: #8b949e" transform="translate(367.247628 210.281667) scale(0.1 -0.1)">
       <use xlink:href="#DejaVuSerif-8cf"/>
       <use xlink:href="#DejaVuSerif-15" transform="translate(83.796875 0)"/>
      </g>
     </g>
    </g>
    <g id="ytick_13">
     <g id="line2d_59">
      <path d="M 388.989815 170.449896 
L 605.187472 170.449896 
" clip-path="url(#p1d81af8c7f)" style="fill: none; stroke: #30363d; stroke-opacity: 0.15; stroke-width: 0.8; stroke-linecap: square"/>
     </g>
     <g id="line2d_60">
      <g>
       <use xlink:href="#m5e2a177cec" x="388.989815" y="170.449896" style="fill: #8b949e; stroke: #8b949e; stroke-width: 0.8"/>
      </g>
     </g>
     <g id="text_35">
      <!-- −1 -->
      <g style="fill: #8b949e" transform="translate(367.247628 174.248724) scale(0.1 -0.1)">
       <use xlink:href="#DejaVuSerif-8cf"/>
       <use xlink:href="#DejaVuSerif-14" transform="translate(83.796875 0)"/>
      </g>
     </g>
    </g>
    <g id="ytick_14">
     <g id="line2d_61">
      <path d="M 388.989815 134.416953 
L 605.187472 134.416953 
" clip-path="url(#p1d81af8c7f)" style="fill: none; stroke: #30363d; stroke-opacity: 0.15; stroke-width: 0.8; stroke-linecap: square"/>
     </g>
     <g id="line2d_62">
      <g>
       <use xlink:href="#m5e2a177cec" x="388.989815" y="134.416953" style="fill: #8b949e; stroke: #8b949e; stroke-width: 0.8"/>
      </g>
     </g>
     <g id="text_36">
      <!-- 0 -->
      <g style="fill: #8b949e" transform="translate(375.627315 138.215781) scale(0.1 -0.1)">
       <use xlink:href="#DejaVuSerif-13"/>
      </g>
     </g>
    </g>
    <g id="ytick_15">
     <g id="line2d_63">
      <path d="M 388.989815 98.38401 
L 605.187472 98.38401 
" clip-path="url(#p1d81af8c7f)" style="fill: none; stroke: #30363d; stroke-opacity: 0.15; stroke-width: 0.8; stroke-linecap: square"/>
     </g>
     <g id="line2d_64">
      <g>
       <use xlink:href="#m5e2a177cec" x="388.989815" y="98.38401" style="fill: #8b949e; stroke: #8b949e; stroke-width: 0.8"/>
      </g>
     </g>
     <g id="text_37">
      <!-- 1 -->
      <g style="fill: #8b949e" transform="translate(375.627315 102.182839) scale(0.1 -0.1)">
       <use xlink:href="#DejaVuSerif-14"/>
      </g>
     </g>
    </g>
    <g id="ytick_16">
     <g id="line2d_65">
      <path d="M 388.989815 62.351068 
L 605.187472 62.351068 
" clip-path="url(#p1d81af8c7f)" style="fill: none; stroke: #30363d; stroke-opacity: 0.15; stroke-width: 0.8; stroke-linecap: square"/>
     </g>
     <g id="line2d_66">
      <g>
       <use xlink:href="#m5e2a177cec" x="388.989815" y="62.351068" style="fill: #8b949e; stroke: #8b949e; stroke-width: 0.8"/>
      </g>
     </g>
     <g id="text_38">
      <!-- 2 -->
      <g style="fill: #8b949e" transform="translate(375.627315 66.149896) scale(0.1 -0.1)">
       <use xlink:href="#DejaVuSerif-15"/>
      </g>
     </g>
    </g>
    <g id="ytick_17">
     <g id="line2d_67">
      <path d="M 388.989815 26.318125 
L 605.187472 26.318125 
" clip-path="url(#p1d81af8c7f)" style="fill: none; stroke: #30363d; stroke-opacity: 0.15; stroke-width: 0.8; stroke-linecap: square"/>
     </g>
     <g id="line2d_68">
      <g>
       <use xlink:href="#m5e2a177cec" x="388.989815" y="26.318125" style="fill: #8b949e; stroke: #8b949e; stroke-width: 0.8"/>
      </g>
     </g>
     <g id="text_39">
      <!-- 3 -->
      <g style="fill: #8b949e" transform="translate(375.627315 30.116953) scale(0.1 -0.1)">
       <use xlink:href="#DejaVuSerif-16"/>
      </g>
     </g>
    </g>
    <g id="text_40">
     <!-- Embedding dim 2 -->
     <g style="fill: #c9d1d9" transform="translate(360.845284 179.291172) rotate(-90) scale(0.1 -0.1)">
      <use xlink:href="#DejaVuSerif-28"/>
      <use xlink:href="#DejaVuSerif-50" transform="translate(73 0)"/>
      <use xlink:href="#DejaVuSerif-45" transform="translate(167.828125 0)"/>
      <use xlink:href="#DejaVuSerif-48" transform="translate(231.84375 0)"/>
      <use xlink:href="#DejaVuSerif-47" transform="translate(291.03125 0)"/>
      <use xlink:href="#DejaVuSerif-47" transform="translate(355.046875 0)"/>
      <use xlink:href="#DejaVuSerif-4c" transform="translate(419.0625 0)"/>
      <use xlink:href="#DejaVuSerif-51" transform="translate(451.046875 0)"/>
      <use xlink:href="#DejaVuSerif-4a" transform="translate(515.453125 0)"/>
      <use xlink:href="#DejaVuSerif-3" transform="translate(579.46875 0)"/>
      <use xlink:href="#DejaVuSerif-47" transform="translate(611.25 0)"/>
      <use xlink:href="#DejaVuSerif-4c" transform="translate(675.265625 0)"/>
      <use xlink:href="#DejaVuSerif-50" transform="translate(707.25 0)"/>
      <use xlink:href="#DejaVuSerif-3" transform="translate(802.078125 0)"/>
      <use xlink:href="#DejaVuSerif-15" transform="translate(833.859375 0)"/>
     </g>
    </g>
   </g>
   <g id="line2d_69">
    <path d="M 388.989815 224.49931 
L 587.171 26.318125 
" clip-path="url(#p1d81af8c7f)" style="fill: none; stroke-dasharray: 4.44,1.92; stroke-dashoffset: 0; stroke: #8b949e; stroke-opacity: 0.6; stroke-width: 1.2"/>
   </g>
   <g id="patch_11">
    <path d="M 388.989815 242.515781 
L 388.989815 26.318125 
" style="fill: none; stroke: #30363d; stroke-width: 0.8; stroke-linejoin: miter; stroke-linecap: square"/>
   </g>
   <g id="patch_12">
    <path d="M 605.187472 242.515781 
L 605.187472 26.318125 
" style="fill: none; stroke: #30363d; stroke-width: 0.8; stroke-linejoin: miter; stroke-linecap: square"/>
   </g>
   <g id="patch_13">
    <path d="M 388.989815 242.515781 
L 605.187472 242.515781 
" style="fill: none; stroke: #30363d; stroke-width: 0.8; stroke-linejoin: miter; stroke-linecap: square"/>
   </g>
   <g id="patch_14">
    <path d="M 388.989815 26.318125 
L 605.187472 26.318125 
" style="fill: none; stroke: #30363d; stroke-width: 0.8; stroke-linejoin: miter; stroke-linecap: square"/>
   </g>
   <g id="patch_15">
    <path d="M 420.784817 186.818906 
Q 431.10655 179.226858 440.527644 172.297267 
" style="fill: none; stroke: #58a6ff; stroke-linecap: round"/>
    <path d="M 437.001833 172.904437 
L 440.527644 172.297267 
L 438.897894 175.482218 
" style="fill: none; stroke: #58a6ff; stroke-linecap: round"/>
   </g>
   <g id="text_41">
    <!-- Human -->
    <g style="fill: #58a6ff" transform="translate(388.584242 196.881276) scale(0.08 -0.08)">
     <defs>
      <path id="DejaVuSerif-2b" d="M 353 0 
L 353 331 
L 947 331 
L 947 4331 
L 353 4331 
L 353 4666 
L 2175 4666 
L 2175 4331 
L 1581 4331 
L 1581 2719 
L 4000 2719 
L 4000 4331 
L 3406 4331 
L 3406 4666 
L 5228 4666 
L 5228 4331 
L 4634 4331 
L 4634 331 
L 5228 331 
L 5228 0 
L 3406 0 
L 3406 331 
L 4000 331 
L 4000 2338 
L 1581 2338 
L 1581 331 
L 2175 331 
L 2175 0 
L 353 0 
z
" transform="scale(0.015625)"/>
     </defs>
     <use xlink:href="#DejaVuSerif-2b"/>
     <use xlink:href="#DejaVuSerif-58" transform="translate(87.203125 0)"/>
     <use xlink:href="#DejaVuSerif-50" transform="translate(151.609375 0)"/>
     <use xlink:href="#DejaVuSerif-44" transform="translate(246.4375 0)"/>
     <use xlink:href="#DejaVuSerif-51" transform="translate(306.0625 0)"/>
    </g>
    <!-- prototype -->
    <g style="fill: #58a6ff" transform="translate(383.711117 206.482839) scale(0.08 -0.08)">
     <use xlink:href="#DejaVuSerif-53"/>
     <use xlink:href="#DejaVuSerif-55" transform="translate(64.015625 0)"/>
     <use xlink:href="#DejaVuSerif-52" transform="translate(111.8125 0)"/>
     <use xlink:href="#DejaVuSerif-57" transform="translate(172.015625 0)"/>
     <use xlink:href="#DejaVuSerif-52" transform="translate(212.203125 0)"/>
     <use xlink:href="#DejaVuSerif-57" transform="translate(272.40625 0)"/>
     <use xlink:href="#DejaVuSerif-5c" transform="translate(312.59375 0)"/>
     <use xlink:href="#DejaVuSerif-53" transform="translate(369.09375 0)"/>
     <use xlink:href="#DejaVuSerif-48" transform="translate(433.109375 0)"/>
    </g>
   </g>
   <g id="patch_16">
    <path d="M 576.14339 68.605009 
Q 564.283256 82.729314 553.14208 95.997408 
" style="fill: none; stroke: #f778ba; stroke-linecap: round"/>
    <path d="M 556.42517 94.575676 
L 553.14208 95.997408 
L 553.974548 92.517897 
" style="fill: none; stroke: #f778ba; stroke-linecap: round"/>
   </g>
   <g id="text_42">
    <!-- Bot -->
    <g style="fill: #f778ba" transform="translate(580.216 52.749505) scale(0.08 -0.08)">
     <defs>
      <path id="DejaVuSerif-25" d="M 1581 331 
L 2516 331 
Q 3078 331 3337 575 
Q 3597 819 3597 1350 
Q 3597 1878 3339 2120 
Q 3081 2363 2516 2363 
L 1581 2363 
L 1581 331 
z
M 1581 2694 
L 2375 2694 
Q 2888 2694 3123 2891 
Q 3359 3088 3359 3513 
Q 3359 3941 3123 4136 
Q 2888 4331 2375 4331 
L 1581 4331 
L 1581 2694 
z
M 353 0 
L 353 331 
L 947 331 
L 947 4331 
L 353 4331 
L 353 4666 
L 2656 4666 
Q 3363 4666 3720 4377 
Q 4078 4088 4078 3513 
Q 4078 3097 3829 2850 
Q 3581 2603 3103 2547 
Q 3697 2472 4005 2167 
Q 4313 1863 4313 1350 
Q 4313 656 3875 328 
Q 3438 0 2509 0 
L 353 0 
z
" transform="scale(0.015625)"/>
     </defs>
     <use xlink:href="#DejaVuSerif-25"/>
     <use xlink:href="#DejaVuSerif-52" transform="translate(73.484375 0)"/>
     <use xlink:href="#DejaVuSerif-57" transform="translate(133.6875 0)"/>
    </g>
    <!-- prototype -->
    <g style="fill: #f778ba" transform="translate(567.479125 62.351068) scale(0.08 -0.08)">
     <use xlink:href="#DejaVuSerif-53"/>
     <use xlink:href="#DejaVuSerif-55" transform="translate(64.015625 0)"/>
     <use xlink:href="#DejaVuSerif-52" transform="translate(111.8125 0)"/>
     <use xlink:href="#DejaVuSerif-57" transform="translate(172.015625 0)"/>
     <use xlink:href="#DejaVuSerif-52" transform="translate(212.203125 0)"/>
     <use xlink:href="#DejaVuSerif-57" transform="translate(272.40625 0)"/>
     <use xlink:href="#DejaVuSerif-5c" transform="translate(312.59375 0)"/>
     <use xlink:href="#DejaVuSerif-53" transform="translate(369.09375 0)"/>
     <use xlink:href="#DejaVuSerif-48" transform="translate(433.109375 0)"/>
    </g>
   </g>
   <g id="text_43">
    <!-- Decision -->
    <g style="fill: #8b949e; opacity: 0.7" transform="translate(525.094425 169.25457) scale(0.07 -0.07)">
     <defs>
      <path id="DejaVuSerif-27" d="M 1581 331 
L 2163 331 
Q 3072 331 3558 850 
Q 4044 1369 4044 2338 
Q 4044 3306 3559 3818 
Q 3075 4331 2163 4331 
L 1581 4331 
L 1581 331 
z
M 353 0 
L 353 331 
L 947 331 
L 947 4331 
L 353 4331 
L 353 4666 
L 2209 4666 
Q 3416 4666 4089 4050 
Q 4763 3434 4763 2338 
Q 4763 1238 4088 619 
Q 3413 0 2209 0 
L 353 0 
z
" transform="scale(0.015625)"/>
     </defs>
     <use xlink:href="#DejaVuSerif-27"/>
     <use xlink:href="#DejaVuSerif-48" transform="translate(80.171875 0)"/>
     <use xlink:href="#DejaVuSerif-46" transform="translate(139.359375 0)"/>
     <use xlink:href="#DejaVuSerif-4c" transform="translate(195.359375 0)"/>
     <use xlink:href="#DejaVuSerif-56" transform="translate(227.34375 0)"/>
     <use xlink:href="#DejaVuSerif-4c" transform="translate(278.65625 0)"/>
     <use xlink:href="#DejaVuSerif-52" transform="translate(310.640625 0)"/>
     <use xlink:href="#DejaVuSerif-51" transform="translate(370.84375 0)"/>
    </g>
    <!-- boundary -->
    <g style="fill: #8b949e; opacity: 0.7" transform="translate(523.494268 177.656484) scale(0.07 -0.07)">
     <use xlink:href="#DejaVuSerif-45"/>
     <use xlink:href="#DejaVuSerif-52" transform="translate(64.015625 0)"/>
     <use xlink:href="#DejaVuSerif-58" transform="translate(124.21875 0)"/>
     <use xlink:href="#DejaVuSerif-51" transform="translate(188.625 0)"/>
     <use xlink:href="#DejaVuSerif-47" transform="translate(253.03125 0)"/>
     <use xlink:href="#DejaVuSerif-44" transform="translate(317.046875 0)"/>
     <use xlink:href="#DejaVuSerif-55" transform="translate(376.671875 0)"/>
     <use xlink:href="#DejaVuSerif-5c" transform="translate(424.46875 0)"/>
    </g>
   </g>
   <g id="text_44">
    <!-- Prototype-Based Classification -->
    <g style="fill: #e6edf3" transform="translate(394.145518 16.318125) scale(0.12 -0.12)">
     <defs>
      <path id="DejaVuSerif-Bold-33" d="M 300 0 
L 300 378 
L 897 378 
L 897 4288 
L 300 4288 
L 300 4666 
L 2956 4666 
Q 3734 4666 4193 4295 
Q 4653 3925 4653 3303 
Q 4653 2678 4192 2304 
Q 3731 1931 2956 1931 
L 2100 1931 
L 2100 378 
L 2853 378 
L 2853 0 
L 300 0 
z
M 2100 2309 
L 2450 2309 
Q 2856 2309 3098 2579 
Q 3341 2850 3341 3303 
Q 3341 3753 3100 4020 
Q 2859 4288 2450 4288 
L 2100 4288 
L 2100 2309 
z
" transform="scale(0.015625)"/>
      <path id="DejaVuSerif-Bold-55" d="M 3438 3359 
L 3438 2369 
L 3084 2369 
Q 3066 2634 2941 2764 
Q 2816 2894 2578 2894 
Q 2216 2894 2006 2575 
Q 1797 2256 1797 1691 
L 1797 378 
L 2400 378 
L 2400 0 
L 219 0 
L 219 378 
L 691 378 
L 691 2944 
L 184 2944 
L 184 3322 
L 1797 3322 
L 1797 2731 
Q 1959 3078 2226 3245 
Q 2494 3413 2881 3413 
Q 2978 3413 3117 3398 
Q 3256 3384 3438 3359 
z
" transform="scale(0.015625)"/>
      <path id="DejaVuSerif-Bold-5c" d="M 1997 -750 
Q 1847 -1116 1634 -1269 
Q 1422 -1422 1063 -1422 
Q 909 -1422 721 -1387 
Q 534 -1353 313 -1288 
L 313 -594 
L 666 -597 
Q 675 -838 779 -953 
Q 884 -1069 1094 -1069 
Q 1297 -1069 1422 -958 
Q 1547 -847 1672 -538 
L 1722 -422 
L 275 2944 
L -84 2944 
L -84 3322 
L 1831 3322 
L 1831 2944 
L 1434 2944 
L 2278 978 
L 3066 2944 
L 2625 2944 
L 2625 3322 
L 3872 3322 
L 3872 2944 
L 3469 2944 
L 1997 -750 
z
" transform="scale(0.015625)"/>
      <path id="DejaVuSerif-Bold-53" d="M 1728 1825 
L 1728 1497 
Q 1728 916 1876 656 
Q 2025 397 2356 397 
Q 2697 397 2836 672 
Q 2975 947 2975 1663 
Q 2975 2378 2836 2651 
Q 2697 2925 2356 2925 
Q 2025 2925 1876 2665 
Q 1728 2406 1728 1825 
z
M 622 2944 
L 147 2944 
L 147 3322 
L 1728 3322 
L 1728 2900 
Q 1869 3159 2106 3286 
Q 2344 3413 2694 3413 
Q 3403 3413 3811 2945 
Q 4219 2478 4219 1663 
Q 4219 847 3811 378 
Q 3403 -91 2694 -91 
Q 2344 -91 2106 36 
Q 1869 163 1728 422 
L 1728 -953 
L 2241 -953 
L 2241 -1331 
L 147 -1331 
L 147 -953 
L 622 -953 
L 622 2944 
z
" transform="scale(0.015625)"/>
      <path id="DejaVuSerif-Bold-10" d="M 347 2138 
L 2309 2138 
L 2309 1294 
L 347 1294 
L 347 2138 
z
" transform="scale(0.015625)"/>
      <path id="DejaVuSerif-Bold-26" d="M 4769 1331 
Q 4584 609 4106 259 
Q 3628 -91 2822 -91 
Q 1641 -91 955 561 
Q 269 1213 269 2328 
Q 269 3447 955 4098 
Q 1641 4750 2822 4750 
Q 3238 4750 3688 4650 
Q 4138 4550 4641 4347 
L 4641 3200 
L 4244 3200 
Q 4122 3788 3800 4080 
Q 3478 4372 2950 4372 
Q 2269 4372 1937 3870 
Q 1606 3369 1606 2328 
Q 1606 1288 1937 788 
Q 2269 288 2956 288 
Q 3422 288 3717 547 
Q 4013 806 4147 1331 
L 4769 1331 
z
" transform="scale(0.015625)"/>
      <path id="DejaVuSerif-Bold-cde" d="M 3781 3963 
L 3431 3963 
Q 3397 4231 3209 4372 
Q 3022 4513 2694 4513 
Q 2231 4513 2014 4291 
Q 1797 4069 1797 3591 
L 1797 3322 
L 4031 3322 
L 4031 378 
L 4506 378 
L 4506 0 
L 2522 0 
L 2522 378 
L 2925 378 
L 2925 2944 
L 1797 2944 
L 1797 378 
L 2203 378 
L 2203 0 
L 219 0 
L 219 378 
L 691 378 
L 691 2944 
L 197 2944 
L 197 3322 
L 691 3322 
L 691 3559 
Q 691 4203 1131 4533 
Q 1572 4863 2438 4863 
Q 2741 4863 3077 4825 
Q 3413 4788 3781 4709 
L 3781 3963 
z
" transform="scale(0.015625)"/>
     </defs>
     <use xlink:href="#DejaVuSerif-Bold-33"/>
     <use xlink:href="#DejaVuSerif-Bold-55" transform="translate(75.203125 0)"/>
     <use xlink:href="#DejaVuSerif-Bold-52" transform="translate(127.890625 0)"/>
     <use xlink:href="#DejaVuSerif-Bold-57" transform="translate(194.59375 0)"/>
     <use xlink:href="#DejaVuSerif-Bold-52" transform="translate(240.78125 0)"/>
     <use xlink:href="#DejaVuSerif-Bold-57" transform="translate(307.484375 0)"/>
     <use xlink:href="#DejaVuSerif-Bold-5c" transform="translate(353.671875 0)"/>
     <use xlink:href="#DejaVuSerif-Bold-53" transform="translate(411.78125 0)"/>
     <use xlink:href="#DejaVuSerif-Bold-48" transform="translate(481.703125 0)"/>
     <use xlink:href="#DejaVuSerif-Bold-10" transform="translate(545.328125 0)"/>
     <use xlink:href="#DejaVuSerif-Bold-25" transform="translate(586.828125 0)"/>
     <use xlink:href="#DejaVuSerif-Bold-44" transform="translate(671.34375 0)"/>
     <use xlink:href="#DejaVuSerif-Bold-56" transform="translate(736.140625 0)"/>
     <use xlink:href="#DejaVuSerif-Bold-48" transform="translate(792.4375 0)"/>
     <use xlink:href="#DejaVuSerif-Bold-47" transform="translate(856.0625 0)"/>
     <use xlink:href="#DejaVuSerif-Bold-3" transform="translate(925.984375 0)"/>
     <use xlink:href="#DejaVuSerif-Bold-26" transform="translate(960.796875 0)"/>
     <use xlink:href="#DejaVuSerif-Bold-4f" transform="translate(1040.390625 0)"/>
     <use xlink:href="#DejaVuSerif-Bold-44" transform="translate(1078.375 0)"/>
     <use xlink:href="#DejaVuSerif-Bold-56" transform="translate(1143.171875 0)"/>
     <use xlink:href="#DejaVuSerif-Bold-56" transform="translate(1199.46875 0)"/>
     <use xlink:href="#DejaVuSerif-Bold-4c" transform="translate(1255.765625 0)"/>
     <use xlink:href="#DejaVuSerif-Bold-cde" transform="translate(1293.75 0)"/>
     <use xlink:href="#DejaVuSerif-Bold-46" transform="translate(1366.453125 0)"/>
     <use xlink:href="#DejaVuSerif-Bold-44" transform="translate(1427.34375 0)"/>
     <use xlink:href="#DejaVuSerif-Bold-57" transform="translate(1492.140625 0)"/>
     <use xlink:href="#DejaVuSerif-Bold-4c" transform="translate(1538.328125 0)"/>
     <use xlink:href="#DejaVuSerif-Bold-52" transform="translate(1576.3125 0)"/>
     <use xlink:href="#DejaVuSerif-Bold-51" transform="translate(1643.015625 0)"/>
    </g>
   </g>
   <g id="PathCollection_1">
    <defs>
     <path id="m72cc34e7c4" d="M 0 3.535534 
C 0.937635 3.535534 1.836992 3.163008 2.5 2.5 
C 3.163008 1.836992 3.535534 0.937635 3.535534 0 
C 3.535534 -0.937635 3.163008 -1.836992 2.5 -2.5 
C 1.836992 -3.163008 0.937635 -3.535534 0 -3.535534 
C -0.937635 -3.535534 -1.836992 -3.163008 -2.5 -2.5 
C -3.163008 -1.836992 -3.535534 -0.937635 -3.535534 0 
C -3.535534 0.937635 -3.163008 1.836992 -2.5 2.5 
C -1.836992 3.163008 -0.937635 3.535534 0 3.535534 
z
" style="stroke: #0d1117; stroke-opacity: 0.8; stroke-width: 0.8"/>
    </defs>
    <g clip-path="url(#p1d81af8c7f)">
     <use xlink:href="#m72cc34e7c4" x="484.717058" y="169.101039" style="fill: #58a6ff; fill-opacity: 0.8; stroke: #0d1117; stroke-opacity: 0.8; stroke-width: 0.8"/>
     <use xlink:href="#m72cc34e7c4" x="446.466067" y="174.972358" style="fill: #58a6ff; fill-opacity: 0.8; stroke: #0d1117; stroke-opacity: 0.8; stroke-width: 0.8"/>
     <use xlink:href="#m72cc34e7c4" x="462.727333" y="146.97123" style="fill: #58a6ff; fill-opacity: 0.8; stroke: #0d1117; stroke-opacity: 0.8; stroke-width: 0.8"/>
     <use xlink:href="#m72cc34e7c4" x="452.206767" y="175.352631" style="fill: #58a6ff; fill-opacity: 0.8; stroke: #0d1117; stroke-opacity: 0.8; stroke-width: 0.8"/>
     <use xlink:href="#m72cc34e7c4" x="441.965718" y="153.866198" style="fill: #58a6ff; fill-opacity: 0.8; stroke: #0d1117; stroke-opacity: 0.8; stroke-width: 0.8"/>
     <use xlink:href="#m72cc34e7c4" x="464.561766" y="155.414729" style="fill: #58a6ff; fill-opacity: 0.8; stroke: #0d1117; stroke-opacity: 0.8; stroke-width: 0.8"/>
     <use xlink:href="#m72cc34e7c4" x="444.257003" y="159.897125" style="fill: #58a6ff; fill-opacity: 0.8; stroke: #0d1117; stroke-opacity: 0.8; stroke-width: 0.8"/>
     <use xlink:href="#m72cc34e7c4" x="455.530925" y="160.09131" style="fill: #58a6ff; fill-opacity: 0.8; stroke: #0d1117; stroke-opacity: 0.8; stroke-width: 0.8"/>
     <use xlink:href="#m72cc34e7c4" x="466.40917" y="160.020585" style="fill: #58a6ff; fill-opacity: 0.8; stroke: #0d1117; stroke-opacity: 0.8; stroke-width: 0.8"/>
     <use xlink:href="#m72cc34e7c4" x="463.634414" y="162.269278" style="fill: #58a6ff; fill-opacity: 0.8; stroke: #0d1117; stroke-opacity: 0.8; stroke-width: 0.8"/>
     <use xlink:href="#m72cc34e7c4" x="458.016241" y="154.144438" style="fill: #58a6ff; fill-opacity: 0.8; stroke: #0d1117; stroke-opacity: 0.8; stroke-width: 0.8"/>
     <use xlink:href="#m72cc34e7c4" x="432.846867" y="167.850785" style="fill: #58a6ff; fill-opacity: 0.8; stroke: #0d1117; stroke-opacity: 0.8; stroke-width: 0.8"/>
     <use xlink:href="#m72cc34e7c4" x="447.069548" y="172.451567" style="fill: #58a6ff; fill-opacity: 0.8; stroke: #0d1117; stroke-opacity: 0.8; stroke-width: 0.8"/>
     <use xlink:href="#m72cc34e7c4" x="449.883438" y="141.696453" style="fill: #58a6ff; fill-opacity: 0.8; stroke: #0d1117; stroke-opacity: 0.8; stroke-width: 0.8"/>
     <use xlink:href="#m72cc34e7c4" x="441.369735" y="149.28734" style="fill: #58a6ff; fill-opacity: 0.8; stroke: #0d1117; stroke-opacity: 0.8; stroke-width: 0.8"/>
    </g>
   </g>
   <g id="PathCollection_2">
    <defs>
     <path id="m01b12624ed" d="M 0 3.535534 
C 0.937635 3.535534 1.836992 3.163008 2.5 2.5 
C 3.163008 1.836992 3.535534 0.937635 3.535534 0 
C 3.535534 -0.937635 3.163008 -1.836992 2.5 -2.5 
C 1.836992 -3.163008 0.937635 -3.535534 0 -3.535534 
C -0.937635 -3.535534 -1.836992 -3.163008 -2.5 -2.5 
C -3.163008 -1.836992 -3.535534 -0.937635 -3.535534 0 
C -3.535534 0.937635 -3.163008 1.836992 -2.5 2.5 
C -1.836992 3.163008 -0.937635 3.535534 0 3.535534 
z
" style="stroke: #0d1117; stroke-opacity: 0.8; stroke-width: 0.8"/>
    </defs>
    <g clip-path="url(#p1d81af8c7f)">
     <use xlink:href="#m01b12624ed" x="544.720116" y="120.580074" style="fill: #f778ba; fill-opacity: 0.8; stroke: #0d1117; stroke-opacity: 0.8; stroke-width: 0.8"/>
     <use xlink:href="#m01b12624ed" x="551.144561" y="92.034073" style="fill: #f778ba; fill-opacity: 0.8; stroke: #0d1117; stroke-opacity: 0.8; stroke-width: 0.8"/>
     <use xlink:href="#m01b12624ed" x="512.207559" y="124.359143" style="fill: #f778ba; fill-opacity: 0.8; stroke: #0d1117; stroke-opacity: 0.8; stroke-width: 0.8"/>
     <use xlink:href="#m01b12624ed" x="542.170761" y="110.148659" style="fill: #f778ba; fill-opacity: 0.8; stroke: #0d1117; stroke-opacity: 0.8; stroke-width: 0.8"/>
     <use xlink:href="#m01b12624ed" x="540.086017" y="117.885672" style="fill: #f778ba; fill-opacity: 0.8; stroke: #0d1117; stroke-opacity: 0.8; stroke-width: 0.8"/>
     <use xlink:href="#m01b12624ed" x="553.003093" y="94.380146" style="fill: #f778ba; fill-opacity: 0.8; stroke: #0d1117; stroke-opacity: 0.8; stroke-width: 0.8"/>
     <use xlink:href="#m01b12624ed" x="541.279887" y="89.343472" style="fill: #f778ba; fill-opacity: 0.8; stroke: #0d1117; stroke-opacity: 0.8; stroke-width: 0.8"/>
     <use xlink:href="#m01b12624ed" x="547.06647" y="117.975733" style="fill: #f778ba; fill-opacity: 0.8; stroke: #0d1117; stroke-opacity: 0.8; stroke-width: 0.8"/>
     <use xlink:href="#m01b12624ed" x="545.643045" y="119.411144" style="fill: #f778ba; fill-opacity: 0.8; stroke: #0d1117; stroke-opacity: 0.8; stroke-width: 0.8"/>
     <use xlink:href="#m01b12624ed" x="552.989434" y="106.31019" style="fill: #f778ba; fill-opacity: 0.8; stroke: #0d1117; stroke-opacity: 0.8; stroke-width: 0.8"/>
     <use xlink:href="#m01b12624ed" x="537.663721" y="115.404957" style="fill: #f778ba; fill-opacity: 0.8; stroke: #0d1117; stroke-opacity: 0.8; stroke-width: 0.8"/>
     <use xlink:href="#m01b12624ed" x="557.94888" y="107.81786" style="fill: #f778ba; fill-opacity: 0.8; stroke: #0d1117; stroke-opacity: 0.8; stroke-width: 0.8"/>
     <use xlink:href="#m01b12624ed" x="534.15461" y="110.665962" style="fill: #f778ba; fill-opacity: 0.8; stroke: #0d1117; stroke-opacity: 0.8; stroke-width: 0.8"/>
     <use xlink:href="#m01b12624ed" x="548.000441" y="100.323389" style="fill: #f778ba; fill-opacity: 0.8; stroke: #0d1117; stroke-opacity: 0.8; stroke-width: 0.8"/>
     <use xlink:href="#m01b12624ed" x="546.276963" y="99.3811" style="fill: #f778ba; fill-opacity: 0.8; stroke: #0d1117; stroke-opacity: 0.8; stroke-width: 0.8"/>
    </g>
   </g>
   <g id="PathCollection_3">
    <defs>
     <path id="m56e9a2a19e" d="M -0 9.486833 
L 9.486833 0 
L 0 -9.486833 
L -9.486833 -0 
z
" style="stroke: #ffffff; stroke-width: 1.5"/>
    </defs>
    <g clip-path="url(#p1d81af8c7f)">
     <use xlink:href="#m56e9a2a19e" x="443.039229" y="170.449896" style="fill: #58a6ff; stroke: #ffffff; stroke-width: 1.5"/>
    </g>
   </g>
   <g id="PathCollection_4">
    <defs>
     <path id="m3a11ecad75" d="M -0 9.486833 
L 9.486833 0 
L 0 -9.486833 
L -9.486833 -0 
z
" style="stroke: #ffffff; stroke-width: 1.5"/>
    </defs>
    <g clip-path="url(#p1d81af8c7f)">
     <use xlink:href="#m3a11ecad75" x="551.138058" y="98.38401" style="fill: #f778ba; stroke: #ffffff; stroke-width: 1.5"/>
    </g>
   </g>
   <g id="legend_2">
    <g id="patch_17">
     <path d="M 393.889815 239.015781 
L 442.222628 239.015781 
Q 443.622628 239.015781 443.622628 237.615781 
L 443.622628 217.314687 
Q 443.622628 215.914687 442.222628 215.914687 
L 393.889815 215.914687 
Q 392.489815 215.914687 392.489815 217.314687 
L 392.489815 237.615781 
Q 392.489815 239.015781 393.889815 239.015781 
z
" style="fill: #161b22; opacity: 0.8; stroke: #30363d; stroke-linejoin: miter"/>
    </g>
    <g id="PathCollection_5">
     <g>
      <use xlink:href="#m72cc34e7c4" x="402.289815" y="222.196094" style="fill: #58a6ff; fill-opacity: 0.8; stroke: #0d1117; stroke-opacity: 0.8; stroke-width: 0.8"/>
     </g>
    </g>
    <g id="text_45">
     <!-- Human -->
     <g style="fill: #c9d1d9" transform="translate(414.889815 224.033594) scale(0.07 -0.07)">
      <use xlink:href="#DejaVuSerif-2b"/>
      <use xlink:href="#DejaVuSerif-58" transform="translate(87.203125 0)"/>
      <use xlink:href="#DejaVuSerif-50" transform="translate(151.609375 0)"/>
      <use xlink:href="#DejaVuSerif-44" transform="translate(246.4375 0)"/>
      <use xlink:href="#DejaVuSerif-51" transform="translate(306.0625 0)"/>
     </g>
    </g>
    <g id="PathCollection_6">
     <g>
      <use xlink:href="#m01b12624ed" x="402.289815" y="232.696641" style="fill: #f778ba; fill-opacity: 0.8; stroke: #0d1117; stroke-opacity: 0.8; stroke-width: 0.8"/>
     </g>
    </g>
    <g id="text_46">
     <!-- Bot -->
     <g style="fill: #c9d1d9" transform="translate(414.889815 234.534141) scale(0.07 -0.07)">
      <use xlink:href="#DejaVuSerif-25"/>
      <use xlink:href="#DejaVuSerif-52" transform="translate(73.484375 0)"/>
      <use xlink:href="#DejaVuSerif-57" transform="translate(133.6875 0)"/>
     </g>
    </g>
   </g>
  </g>
 </g>
 <defs>
  <clipPath id="p04e118d62e">
   <rect x="44.103906" y="26.318125" width="272.985838" height="216.197656"/>
  </clipPath>
  <clipPath id="p1d81af8c7f">
   <rect x="388.989815" y="26.318125" width="216.197656" height="216.197656"/>
  </clipPath>
 </defs>
</svg>
